  0
SECTION
  2
HEADER
  9
$ACADVER
  1
AC1015
  9
$ACADMAINTVER
 70
     6
  9
$DWGCODEPAGE
  3
ANSI_1254
  9
$INSBASE
 10
0.0
 20
0.0
 30
0.0
  9
$EXTMIN
 10
0.0
 20
0.0
 30
0.0
  9
$EXTMAX
 10
420.0
 20
297.0
 30
0.0
  9
$LIMMIN
 10
0.0
 20
0.0
  9
$LIMMAX
 10
420.0
 20
297.0
  9
$ORTHOMODE
 70
     0
  9
$REGENMODE
 70
     1
  9
$FILLMODE
 70
     1
  9
$QTEXTMODE
 70
     0
  9
$MIRRTEXT
 70
     1
  9
$LTSCALE
 40
1.0
  9
$ATTMODE
 70
     1
  9
$TEXTSIZE
 40
3.5
  9
$TRACEWID
 40
1.0
  9
$TEXTSTYLE
  7
Standard
  9
$CLAYER
  8
0
  9
$CELTYPE
  6
ByLayer
  9
$CECOLOR
 62
   256
  9
$CELTSCALE
 40
1.0
  9
$DISPSILH
 70
     0
  9
$DIMSCALE
 40
1.0
  9
$DIMASZ
 40
3.302
  9
$DIMEXO
 40
1.0
  9
$DIMDLI
 40
3.75
  9
$DIMRND
 40
0.0
  9
$DIMDLE
 40
0.0
  9
$DIMEXE
 40
1.0
  9
$DIMTP
 40
0.0
  9
$DIMTM
 40
0.0
  9
$DIMTXT
 40
3.5
  9
$DIMCEN
 40
2.5
  9
$DIMTSZ
 40
0.0
  9
$DIMTOL
 70
     0
  9
$DIMLIM
 70
     0
  9
$DIMTIH
 70
     1
  9
$DIMTOH
 70
     1
  9
$DIMSE1
 70
     0
  9
$DIMSE2
 70
     0
  9
$DIMTAD
 70
     1
  9
$DIMZIN
 70
     0
  9
$DIMBLK
  1

  9
$DIMASO
 70
     1
  9
$DIMSHO
 70
     1
  9
$DIMPOST
  1

  9
$DIMAPOST
  1

  9
$DIMALT
 70
     0
  9
$DIMALTD
 70
     3
  9
$DIMALTF
 40
0.0393700787
  9
$DIMLFAC
 40
1.0
  9
$DIMTOFL
 70
     1
  9
$DIMTVP
 40
0.0
  9
$DIMTIX
 70
     0
  9
$DIMSOXD
 70
     0
  9
$DIMSAH
 70
     0
  9
$DIMBLK1
  1

  9
$DIMBLK2
  1

  9
$DIMSTYLE
  2
ISO-25
  9
$DIMCLRD
 70
     0
  9
$DIMCLRE
 70
     0
  9
$DIMCLRT
 70
     0
  9
$DIMTFAC
 40
1.0
  9
$DIMGAP
 40
1.524
  9
$DIMJUST
 70
     0
  9
$DIMSD1
 70
     0
  9
$DIMSD2
 70
     0
  9
$DIMTOLJ
 70
     0
  9
$DIMTZIN
 70
     0
  9
$DIMALTZ
 70
     0
  9
$DIMALTTZ
 70
     0
  9
$DIMUPT
 70
     0
  9
$DIMDEC
 70
     3
  9
$DIMTDEC
 70
     3
  9
$DIMALTU
 70
     2
  9
$DIMALTTD
 70
     3
  9
$DIMTXSTY
  7
Standard
  9
$DIMAUNIT
 70
     0
  9
$DIMADEC
 70
     2
  9
$DIMALTRND
 40
0.0
  9
$DIMAZIN
 70
     0
  9
$DIMDSEP
 70
    44
  9
$DIMATFIT
 70
     3
  9
$DIMFRAC
 70
     0
  9
$DIMLDRBLK
  1

  9
$DIMLUNIT
 70
     2
  9
$DIMLWD
 70
    -2
  9
$DIMLWE
 70
    -2
  9
$DIMTMOVE
 70
     0
  9
$LUNITS
 70
     2
  9
$LUPREC
 70
     2
  9
$SKETCHINC
 40
1.0
  9
$FILLETRAD
 40
10.0
  9
$AUNITS
 70
     0
  9
$AUPREC
 70
     2
  9
$MENU
  1
.
  9
$ELEVATION
 40
0.0
  9
$PELEVATION
 40
0.0
  9
$THICKNESS
 40
0.0
  9
$LIMCHECK
 70
     0
  9
$CHAMFERA
 40
10.0
  9
$CHAMFERB
 40
10.0
  9
$CHAMFERC
 40
20.0
  9
$CHAMFERD
 40
0.0
  9
$SKPOLY
 70
     0
  9
$TDCREATE
 40
2455714.450931262
  9
$TDUCREATE
 40
2455714.325931262
  9
$TDUPDATE
 40
2455714.450931273
  9
$TDUUPDATE
 40
2455714.325931273
  9
$TDINDWG
 40
0.0000000116
  9
$TDUSRTIMER
 40
0.0000000116
  9
$USRTIMER
 70
     1
  9
$ANGBASE
 50
0.0
  9
$ANGDIR
 70
     0
  9
$PDMODE
 70
     0
  9
$PDSIZE
 40
-1.0
  9
$PLINEWID
 40
0.0
  9
$SPLFRAME
 70
     0
  9
$SPLINETYPE
 70
     6
  9
$SPLINESEGS
 70
     8
  9
$HANDSEED
  5
28F
  9
$SURFTAB1
 70
     6
  9
$SURFTAB2
 70
     6
  9
$SURFTYPE
 70
     6
  9
$SURFU
 70
     6
  9
$SURFV
 70
     6
  9
$UCSBASE
  2

  9
$UCSNAME
  2

  9
$UCSORG
 10
0.0
 20
0.0
 30
0.0
  9
$UCSXDIR
 10
1.0
 20
0.0
 30
0.0
  9
$UCSYDIR
 10
0.0
 20
1.0
 30
0.0
  9
$UCSORTHOREF
  2

  9
$UCSORTHOVIEW
 70
     0
  9
$UCSORGTOP
 10
0.0
 20
0.0
 30
0.0
  9
$UCSORGBOTTOM
 10
0.0
 20
0.0
 30
0.0
  9
$UCSORGLEFT
 10
0.0
 20
0.0
 30
0.0
  9
$UCSORGRIGHT
 10
0.0
 20
0.0
 30
0.0
  9
$UCSORGFRONT
 10
0.0
 20
0.0
 30
0.0
  9
$UCSORGBACK
 10
0.0
 20
0.0
 30
0.0
  9
$PUCSBASE
  2

  9
$PUCSNAME
  2

  9
$PUCSORG
 10
0.0
 20
0.0
 30
0.0
  9
$PUCSXDIR
 10
1.0
 20
0.0
 30
0.0
  9
$PUCSYDIR
 10
0.0
 20
1.0
 30
0.0
  9
$PUCSORTHOREF
  2

  9
$PUCSORTHOVIEW
 70
     0
  9
$PUCSORGTOP
 10
0.0
 20
0.0
 30
0.0
  9
$PUCSORGBOTTOM
 10
0.0
 20
0.0
 30
0.0
  9
$PUCSORGLEFT
 10
0.0
 20
0.0
 30
0.0
  9
$PUCSORGRIGHT
 10
0.0
 20
0.0
 30
0.0
  9
$PUCSORGFRONT
 10
0.0
 20
0.0
 30
0.0
  9
$PUCSORGBACK
 10
0.0
 20
0.0
 30
0.0
  9
$USERI1
 70
     0
  9
$USERI2
 70
     0
  9
$USERI3
 70
     0
  9
$USERI4
 70
     0
  9
$USERI5
 70
     0
  9
$USERR1
 40
0.0
  9
$USERR2
 40
0.0
  9
$USERR3
 40
0.0
  9
$USERR4
 40
0.0
  9
$USERR5
 40
0.0
  9
$WORLDVIEW
 70
     1
  9
$SHADEDGE
 70
     3
  9
$SHADEDIF
 70
    70
  9
$TILEMODE
 70
     1
  9
$MAXACTVP
 70
    64
  9
$PINSBASE
 10
0.0
 20
0.0
 30
0.0
  9
$PLIMCHECK
 70
     0
  9
$PEXTMIN
 10
1.0000000000E+20
 20
1.0000000000E+20
 30
1.0000000000E+20
  9
$PEXTMAX
 10
-1.0000000000E+20
 20
-1.0000000000E+20
 30
-1.0000000000E+20
  9
$PLIMMIN
 10
0.0
 20
0.0
  9
$PLIMMAX
 10
420.0
 20
297.0
  9
$UNITMODE
 70
     0
  9
$VISRETAIN
 70
     1
  9
$PLINEGEN
 70
     0
  9
$PSLTSCALE
 70
     1
  9
$TREEDEPTH
 70
  3020
  9
$CMLSTYLE
  2
Standard
  9
$CMLJUST
 70
     0
  9
$CMLSCALE
 40
20.0
  9
$PROXYGRAPHICS
 70
     1
  9
$MEASUREMENT
 70
     1
  9
$CELWEIGHT
370
    -1
  9
$ENDCAPS
280
     0
  9
$JOINSTYLE
280
     0
  9
$LWDISPLAY
290
     1
  9
$INSUNITS
 70
     4
  9
$HYPERLINKBASE
  1

  9
$STYLESHEET
  1

  9
$XEDIT
290
     1
  9
$CEPSNTYPE
380
     0
  9
$PSTYLEMODE
290
     1
  9
$FINGERPRINTGUID
  2
{7BA143B8-4B3D-4727-BEC6-1EA16E0AD26E}
  9
$VERSIONGUID
  2
{FAEB1C32-E019-11D5-929B-00C0DF256EC4}
  9
$EXTNAMES
290
     1
  9
$PSVPSCALE
 40
0.0
  9
$OLESTARTUP
290
     0
  0
ENDSEC
  0
SECTION
  2
CLASSES
  0
CLASS
  1
ACDBDICTIONARYWDFLT
  2
AcDbDictionaryWithDefault
  3
ObjectDBX Classes
 90
        0
280
     0
281
     0
  0
CLASS
  1
VISUALSTYLE
  2
AcDbVisualStyle
  3
ObjectDBX Classes
 90
     4095
280
     0
281
     0
  0
CLASS
  1
MATERIAL
  2
AcDbMaterial
  3
ObjectDBX Classes
 90
     1153
280
     0
281
     0
  0
CLASS
  1
ACDBPLACEHOLDER
  2
AcDbPlaceHolder
  3
ObjectDBX Classes
 90
        0
280
     0
281
     0
  0
CLASS
  1
LAYOUT
  2
AcDbLayout
  3
ObjectDBX Classes
 90
        0
280
     0
281
     0
  0
ENDSEC
  0
SECTION
  2
TABLES
  0
TABLE
  2
VPORT
  5
8
330
0
100
AcDbSymbolTable
 70
     1
  0
VPORT
  5
29
330
8
100
AcDbSymbolTableRecord
100
AcDbViewportTableRecord
  2
*Active
 70
     0
 10
0.0
 20
0.0
 11
1.0
 21
1.0
 12
210.0
 22
148.5
 13
0.0
 23
0.0
 14
10.0
 24
10.0
 15
10.0
 25
10.0
 16
0.0
 26
0.0
 36
1.0
 17
0.0
 27
0.0
 37
0.0
 40
297.0
 41
1.4141414141
 42
50.0
 43
0.0
 44
0.0
 50
0.0
 51
0.0
 71
     0
 72
  2000
 73
     1
 74
     3
 75
     0
 76
     0
 77
     0
 78
     0
281
     0
 65
     1
110
0.0
120
0.0
130
0.0
111
1.0
121
0.0
131
0.0
112
0.0
122
1.0
132
0.0
 79
     0
146
0.0
  0
ENDTAB
  0
TABLE
  2
LTYPE
  5
5
330
0
100
AcDbSymbolTable
 70
     6
  0
LTYPE
  5
14
330
5
100
AcDbSymbolTableRecord
100
AcDbLinetypeTableRecord
  2
ByBlock
 70
     0
  3

 72
    65
 73
     0
 40
0.0
  0
LTYPE
  5
15
330
5
100
AcDbSymbolTableRecord
100
AcDbLinetypeTableRecord
  2
ByLayer
 70
     0
  3

 72
    65
 73
     0
 40
0.0
  0
LTYPE
  5
16
330
5
100
AcDbSymbolTableRecord
100
AcDbLinetypeTableRecord
  2
Continuous
 70
     0
  3
Solid line
 72
    65
 73
     0
 40
0.0
  0
LTYPE
  5
3F
330
5
100
AcDbSymbolTableRecord
100
AcDbLinetypeTableRecord
  2
HIDDEN
 70
     0
  3
Hidden __ __ __ __ __ __ __ __ __ __ __ __ __ __
 72
    65
 73
     2
 40
1.905
 49
1.27
 74
     0
 49
-0.635
 74
     0
  0
LTYPE
  5
40
330
5
100
AcDbSymbolTableRecord
100
AcDbLinetypeTableRecord
  2
PHANTOM
 70
     0
  3
Phantom ______  __  __  ______  __  __  ______
 72
    65
 73
     6
 40
12.7
 49
6.35
 74
     0
 49
-1.27
 74
     0
 49
1.27
 74
     0
 49
-1.27
 74
     0
 49
1.27
 74
     0
 49
-1.27
 74
     0
  0
LTYPE
  5
41
330
5
100
AcDbSymbolTableRecord
100
AcDbLinetypeTableRecord
  2
CENTER
 70
     0
  3
Center ____ _ ____ _ ____ _ ____ _ ____ _ ____
 72
    65
 73
     4
 40
10.16
 49
6.35
 74
     0
 49
-1.27
 74
     0
 49
1.27
 74
     0
 49
-1.27
 74
     0
  0
LTYPE
  5
42
330
5
100
AcDbSymbolTableRecord
100
AcDbLinetypeTableRecord
  2
CENTERX2
 70
     0
  3
Center (2x) ________  __  ________  __  _____
 72
    65
 73
     4
 40
20.32
 49
12.7
 74
     0
 49
-2.54
 74
     0
 49
2.54
 74
     0
 49
-2.54
 74
     0
  0
LTYPE
  5
43
330
5
100
AcDbSymbolTableRecord
100
AcDbLinetypeTableRecord
  2
DOT2
 70
     0
  3
Dot (.5x) ........................................
 72
    65
 73
     2
 40
0.635
 49
0.0
 74
     0
 49
-0.635
 74
     0
  0
ENDTAB
  0
TABLE
  2
LAYER
  5
2
330
0
100
AcDbSymbolTable
 70
     6
  0
LAYER
  5
10
330
2
100
AcDbSymbolTableRecord
100
AcDbLayerTableRecord
  2
0
 70
     0
 62
     7
  6
Continuous
370
    -3
390
F
  0
LAYER
  5
44
330
2
100
AcDbSymbolTableRecord
100
AcDbLayerTableRecord
  2
FORMAT
 70
     0
 62
     7
  6
Continuous
370
    -3
390
F
  0
LAYER
  5
45
330
2
100
AcDbSymbolTableRecord
100
AcDbLayerTableRecord
  2
LAYER_1
 70
     0
 62
   179
  6
Continuous
370
    15
390
F
  0
LAYER
  5
46
330
2
100
AcDbSymbolTableRecord
100
AcDbLayerTableRecord
  2
LAYER_2
 70
     0
 62
     1
  6
Continuous
370
    -3
390
F
  0
LAYER
  5
47
330
2
100
AcDbSymbolTableRecord
100
AcDbLayerTableRecord
  2
LAYER1
 70
     0
 62
     7
  6
Continuous
370
    15
390
F
  0
LAYER
  5
48
330
2
100
AcDbSymbolTableRecord
100
AcDbLayerTableRecord
  2
LAYER2
 70
     0
 62
     1
  6
Continuous
370
    -3
390
F
  0
ENDTAB
  0
TABLE
  2
STYLE
  5
3
330
0
100
AcDbSymbolTable
 70
     5
  0
STYLE
  5
11
330
3
100
AcDbSymbolTableRecord
100
AcDbTextStyleTableRecord
  2
Standard
 70
     0
 40
0.0
 41
1.0
 50
0.0
 71
     0
 42
2.5
  3
txt
  4

  0
STYLE
  5
4C
330
3
100
AcDbSymbolTableRecord
100
AcDbTextStyleTableRecord
  2
SLDTEXTSTYLE0
 70
     0
 40
0.0
 41
0.7
 50
0.0
 71
     0
 42
0.2
  3
TXT
  4

  0
STYLE
  5
10E
330
3
100
AcDbSymbolTableRecord
100
AcDbTextStyleTableRecord
  2
SLDTEXTSTYLE1
 70
     0
 40
0.0
 41
0.605
 50
0.0
 71
     0
 42
0.2
  3
TXT
  4

  0
STYLE
  5
123
330
3
100
AcDbSymbolTableRecord
100
AcDbTextStyleTableRecord
  2
SLDTEXTSTYLE2
 70
     0
 40
0.0
 41
0.605
 50
0.0
 71
     0
 42
0.2
  3
TXT
  4
bigfont
  0
STYLE
  5
1A3
330
3
100
AcDbSymbolTableRecord
100
AcDbTextStyleTableRecord
  2
SLDTEXTSTYLE3
 70
     0
 40
0.0
 41
0.75
 50
0.0
 71
     0
 42
0.2
  3
TXT
  4

  0
ENDTAB
  0
TABLE
  2
VIEW
  5
6
330
0
100
AcDbSymbolTable
 70
     0
  0
ENDTAB
  0
TABLE
  2
UCS
  5
7
330
0
100
AcDbSymbolTable
 70
     0
  0
ENDTAB
  0
TABLE
  2
APPID
  5
9
330
0
100
AcDbSymbolTable
 70
     1
  0
APPID
  5
12
330
9
100
AcDbSymbolTableRecord
100
AcDbRegAppTableRecord
  2
ACAD
 70
     0
  0
ENDTAB
  0
TABLE
  2
DIMSTYLE
  5
A
330
0
100
AcDbSymbolTable
 70
     5
100
AcDbDimStyleTable
  0
DIMSTYLE
105
27
330
A
100
AcDbSymbolTableRecord
100
AcDbDimStyleTableRecord
  2
ISO-25
 70
     0
 41
2.5
 42
0.625
 43
3.75
 44
1.25
 73
     0
 74
     0
 77
     1
 78
     8
140
2.5
141
2.5
143
0.0393700787
147
0.625
171
     3
172
     1
178
     0
271
     2
272
     2
274
     3
278
    44
283
     0
284
     8
340
11
  0
DIMSTYLE
105
1A4
102
{ACAD_REACTORS
330
1A2
102
}
330
A
100
AcDbSymbolTableRecord
100
AcDbDimStyleTableRecord
  2
SLDDIMSTYLE0
 70
     0
 41
3.302
 44
0.0
 45
0.000000001
 73
     0
 74
     0
 77
     1
 78
    12
 79
     3
140
3.5
147
0.875
172
     1
173
     1
178
     0
271
     1
272
     1
276
     2
284
    12
289
     0
340
1A3
  0
DIMSTYLE
105
1B0
102
{ACAD_REACTORS
330
1AF
102
}
330
A
100
AcDbSymbolTableRecord
100
AcDbDimStyleTableRecord
  2
SLDDIMSTYLE1
 70
     0
 41
3.302
 44
0.0
 45
0.000000001
 73
     0
 74
     0
 77
     1
 78
    12
 79
     3
140
3.5
147
0.875
173
     1
178
     0
271
     1
272
     1
276
     2
284
    12
340
1A3
  0
DIMSTYLE
105
1BB
102
{ACAD_REACTORS
330
1BA
102
}
330
A
100
AcDbSymbolTableRecord
100
AcDbDimStyleTableRecord
  2
SLDDIMSTYLE2
 70
     0
 41
3.302
 44
0.0
 45
0.000000001
 73
     0
 74
     0
 77
     1
 78
    12
 79
     3
140
3.5
147
0.875
172
     1
173
     1
178
     0
271
     2
272
     2
276
     2
284
    12
289
     0
340
1A3
  0
DIMSTYLE
105
1C6
102
{ACAD_REACTORS
330
1C5
330
208
330
210
330
218
330
222
102
}
330
A
100
AcDbSymbolTableRecord
100
AcDbDimStyleTableRecord
  2
SLDDIMSTYLE3
 70
     0
 41
3.302
 44
0.0
 45
0.000000001
 73
     0
 74
     0
 77
     1
 78
    12
 79
     3
140
3.5
147
0.875
173
     1
178
     0
271
     2
272
     2
276
     2
284
    12
340
1A3
  0
ENDTAB
  0
TABLE
  2
BLOCK_RECORD
  5
1
330
0
100
AcDbSymbolTable
 70
    13
  0
BLOCK_RECORD
  5
1F
330
1
100
AcDbSymbolTableRecord
100
AcDbBlockTableRecord
  2
*Model_Space
340
22
  0
BLOCK_RECORD
  5
1B
330
1
100
AcDbSymbolTableRecord
100
AcDbBlockTableRecord
  2
*Paper_Space
340
1E
  0
BLOCK_RECORD
  5
23
330
1
100
AcDbSymbolTableRecord
100
AcDbBlockTableRecord
  2
*Paper_Space0
340
26
  0
BLOCK_RECORD
  5
49
330
1
100
AcDbSymbolTableRecord
100
AcDbBlockTableRecord
  2
Block4
340
0
102
{BLKREFS
331
10B
102
}
  0
BLOCK_RECORD
  5
4E
330
1
100
AcDbSymbolTableRecord
100
AcDbBlockTableRecord
  2
Block5
340
0
102
{BLKREFS
331
10C
102
}
  0
BLOCK_RECORD
  5
59
330
1
100
AcDbSymbolTableRecord
100
AcDbBlockTableRecord
  2
Block6
340
0
102
{BLKREFS
331
10D
102
}
  0
BLOCK_RECORD
  5
13E
330
1
100
AcDbSymbolTableRecord
100
AcDbBlockTableRecord
  2
SW_NOTE_0
340
0
102
{BLKREFS
331
147
102
}
  0
BLOCK_RECORD
  5
1A5
330
1
100
AcDbSymbolTableRecord
100
AcDbBlockTableRecord
  2
*D5
340
0
  0
BLOCK_RECORD
  5
1B1
330
1
100
AcDbSymbolTableRecord
100
AcDbBlockTableRecord
  2
*D6
340
0
  0
BLOCK_RECORD
  5
1BC
330
1
100
AcDbSymbolTableRecord
100
AcDbBlockTableRecord
  2
*D7
340
0
  0
BLOCK_RECORD
  5
1C7
330
1
100
AcDbSymbolTableRecord
100
AcDbBlockTableRecord
  2
*D8
340
0
  0
BLOCK_RECORD
  5
209
330
1
100
AcDbSymbolTableRecord
100
AcDbBlockTableRecord
  2
*D9
340
0
  0
BLOCK_RECORD
  5
211
330
1
100
AcDbSymbolTableRecord
100
AcDbBlockTableRecord
  2
*D10
340
0
  0
BLOCK_RECORD
  5
219
330
1
100
AcDbSymbolTableRecord
100
AcDbBlockTableRecord
  2
*D11
340
0
  0
BLOCK_RECORD
  5
223
330
1
100
AcDbSymbolTableRecord
100
AcDbBlockTableRecord
  2
*D12
340
0
  0
ENDTAB
  0
ENDSEC
  0
SECTION
  2
BLOCKS
  0
BLOCK
  5
20
330
1F
100
AcDbEntity
  8
0
100
AcDbBlockBegin
  2
*Model_Space
 70
     0
 10
0.0
 20
0.0
 30
0.0
  3
*Model_Space
  1

  0
ENDBLK
  5
21
330
1F
100
AcDbEntity
  8
0
100
AcDbBlockEnd
  0
BLOCK
  5
1C
330
1B
100
AcDbEntity
 67
     1
  8
0
100
AcDbBlockBegin
  2
*Paper_Space
 70
     0
 10
0.0
 20
0.0
 30
0.0
  3
*Paper_Space
  1

  0
ENDBLK
  5
1D
330
1B
100
AcDbEntity
 67
     1
  8
0
100
AcDbBlockEnd
  0
BLOCK
  5
24
330
23
100
AcDbEntity
  8
0
100
AcDbBlockBegin
  2
*Paper_Space0
 70
     0
 10
0.0
 20
0.0
 30
0.0
  3
*Paper_Space0
  1

  0
ENDBLK
  5
25
330
23
100
AcDbEntity
  8
0
100
AcDbBlockEnd
  0
BLOCK
  5
4A
330
49
100
AcDbEntity
  8
0
100
AcDbBlockBegin
  2
Block4
 70
     0
 10
0.0
 20
0.0
 30
0.0
  3
Block4
  1

  0
MTEXT
  5
4D
330
49
100
AcDbEntity
  8
0
  6
Continuous
 62
     7
370
     0
100
AcDbMText
 10
0.0681123653
 20
1.3698043087
 30
0.0
 40
1.3229166667
 41
0.0
 71
     1
 72
     1
  1
ENCLOSURES FOR ELECTRONICS
  7
SLDTEXTSTYLE0
 73
     1
 44
1.0
  0
ENDBLK
  5
4B
330
49
100
AcDbEntity
  8
0
100
AcDbBlockEnd
  0
BLOCK
  5
4F
330
4E
100
AcDbEntity
  8
0
100
AcDbBlockBegin
  2
Block5
 70
     0
 10
0.0
 20
0.0
 30
0.0
  3
Block5
  1

  0
CIRCLE
  5
51
330
4E
100
AcDbEntity
  8
LAYER_1
100
AcDbCircle
 10
11.8202720118
 20
3.9855728122
 30
0.0
 40
1.400000000000031
  0
CIRCLE
  5
52
330
4E
100
AcDbEntity
  8
LAYER_1
100
AcDbCircle
 10
11.8202720118
 20
3.9855728122
 30
0.0
 40
3.400000000000028
  0
LINE
  5
53
330
4E
100
AcDbEntity
  8
LAYER_1
100
AcDbLine
 10
0.0
 20
4.0266952847
 30
0.0
 11
15.8776569467
 21
4.0266952847
 31
0.0
  0
LINE
  5
54
330
4E
100
AcDbEntity
  8
LAYER_1
100
AcDbLine
 10
6.7934234199
 20
7.3359236059
 30
0.0
 11
6.7934234199
 21
0.5359236059
 31
0.0
  0
LINE
  5
55
330
4E
100
AcDbEntity
  8
LAYER_1
100
AcDbLine
 10
1.0125475392
 20
5.3359236059
 30
0.0
 11
1.0125475392
 21
2.5359236059
 31
0.0
  0
LINE
  5
56
330
4E
100
AcDbEntity
  8
LAYER_1
100
AcDbLine
 10
1.0125475392
 20
2.5359236059
 30
0.0
 11
6.7934234199
 21
0.5359236059
 31
0.0
  0
LINE
  5
57
330
4E
100
AcDbEntity
  8
LAYER_1
100
AcDbLine
 10
6.7934234199
 20
7.3359236059
 30
0.0
 11
1.0125475392
 21
5.3359236059
 31
0.0
  0
LINE
  5
58
330
4E
100
AcDbEntity
  8
LAYER_1
100
AcDbLine
 10
11.8202720118
 20
8.1865819926
 30
0.0
 11
11.8202720118
 21
0.0
 31
0.0
  0
ENDBLK
  5
50
330
4E
100
AcDbEntity
  8
0
100
AcDbBlockEnd
  0
BLOCK
  5
5A
330
59
100
AcDbEntity
  8
0
100
AcDbBlockBegin
  2
Block6
 70
     0
 10
0.0
 20
0.0
 30
0.0
  3
Block6
  1

  0
LINE
  5
5C
330
59
100
AcDbEntity
  8
LAYER_1
 62
   250
100
AcDbLine
 10
24.9996066667
 20
0.0
 30
0.0
 11
26.2681466667
 21
4.35981
 31
0.0
  0
LINE
  5
5D
330
59
100
AcDbEntity
  8
LAYER_1
 62
   250
100
AcDbLine
 10
26.2681466667
 20
4.35981
 30
0.0
 11
27.4404866667
 21
4.35981
 31
0.0
  0
LINE
  5
5E
330
59
100
AcDbEntity
  8
LAYER_1
 62
   250
100
AcDbLine
 10
27.4404866667
 20
4.35981
 30
0.0
 11
28.7082033333
 21
0.0
 31
0.0
  0
LINE
  5
5F
330
59
100
AcDbEntity
  8
LAYER_1
 62
   250
100
AcDbLine
 10
28.7082033333
 20
0.0
 30
0.0
 11
27.56
 21
0.0
 31
0.0
  0
LINE
  5
60
330
59
100
AcDbEntity
  8
LAYER_1
 62
   250
100
AcDbLine
 10
27.56
 20
0.0
 30
0.0
 11
27.4255366667
 21
0.5769833333
 31
0.0
  0
LINE
  5
61
330
59
100
AcDbEntity
  8
LAYER_1
 62
   250
100
AcDbLine
 10
27.4255366667
 20
0.5769833333
 30
0.0
 11
26.27716
 21
0.5769833333
 31
0.0
  0
LINE
  5
62
330
59
100
AcDbEntity
  8
LAYER_1
 62
   250
100
AcDbLine
 10
26.27716
 20
0.5769833333
 30
0.0
 11
26.1376266667
 21
0.0
 31
0.0
  0
LINE
  5
63
330
59
100
AcDbEntity
  8
LAYER_1
 62
   250
100
AcDbLine
 10
26.1376266667
 20
0.0
 30
0.0
 11
24.9996066667
 21
0.0
 31
0.0
  0
LINE
  5
64
330
59
100
AcDbEntity
  8
LAYER_1
 62
   250
100
AcDbLine
 10
26.48776
 20
1.4914466667
 30
0.0
 11
27.2148066667
 21
1.4914466667
 31
0.0
  0
LINE
  5
65
330
59
100
AcDbEntity
  8
LAYER_1
 62
   250
100
AcDbLine
 10
27.2148066667
 20
1.4914466667
 30
0.0
 11
26.8553566667
 21
3.00079
 31
0.0
  0
LINE
  5
66
330
59
100
AcDbEntity
  8
LAYER_1
 62
   250
100
AcDbLine
 10
26.8553566667
 20
3.00079
 30
0.0
 11
26.48776
 21
1.4914466667
 31
0.0
  0
LINE
  5
67
330
59
100
AcDbEntity
  8
LAYER_1
 62
   250
100
AcDbLine
 10
23.2651466667
 20
0.0
 30
0.0
 11
23.2651466667
 21
1.6134733333
 31
0.0
  0
LINE
  5
68
330
59
100
AcDbEntity
  8
LAYER_1
 62
   250
100
AcDbLine
 10
23.2651466667
 20
1.6134733333
 30
0.0
 11
21.93815
 21
4.35981
 31
0.0
  0
LINE
  5
69
330
59
100
AcDbEntity
  8
LAYER_1
 62
   250
100
AcDbLine
 10
21.93815
 20
4.35981
 30
0.0
 11
23.2209466667
 21
4.35981
 31
0.0
  0
LINE
  5
6A
330
59
100
AcDbEntity
  8
LAYER_1
 62
   250
100
AcDbLine
 10
23.2209466667
 20
4.35981
 30
0.0
 11
23.84356
 21
2.87352
 31
0.0
  0
LINE
  5
6B
330
59
100
AcDbEntity
  8
LAYER_1
 62
   250
100
AcDbLine
 10
23.84356
 20
2.87352
 30
0.0
 11
24.47042
 21
4.35981
 31
0.0
  0
LINE
  5
6C
330
59
100
AcDbEntity
  8
LAYER_1
 62
   250
100
AcDbLine
 10
24.47042
 20
4.35981
 30
0.0
 11
25.71881
 21
4.35981
 31
0.0
  0
LINE
  5
6D
330
59
100
AcDbEntity
  8
LAYER_1
 62
   250
100
AcDbLine
 10
25.71881
 20
4.35981
 30
0.0
 11
24.4234033333
 21
1.6134733333
 31
0.0
  0
LINE
  5
6E
330
59
100
AcDbEntity
  8
LAYER_1
 62
   250
100
AcDbLine
 10
24.4234033333
 20
1.6134733333
 30
0.0
 11
24.4234033333
 21
0.0
 31
0.0
  0
LINE
  5
6F
330
59
100
AcDbEntity
  8
LAYER_1
 62
   250
100
AcDbLine
 10
24.4234033333
 20
0.0
 30
0.0
 11
23.2651466667
 21
0.0
 31
0.0
  0
LINE
  5
70
330
59
100
AcDbEntity
  8
LAYER_1
 62
   250
100
AcDbLine
 10
18.94035
 20
0.0
 30
0.0
 11
20.2091066667
 21
4.35981
 31
0.0
  0
LINE
  5
71
330
59
100
AcDbEntity
  8
LAYER_1
 62
   250
100
AcDbLine
 10
20.2091066667
 20
4.35981
 30
0.0
 11
21.38136
 21
4.35981
 31
0.0
  0
LINE
  5
72
330
59
100
AcDbEntity
  8
LAYER_1
 62
   250
100
AcDbLine
 10
21.38136
 20
4.35981
 30
0.0
 11
22.64912
 21
0.0
 31
0.0
  0
LINE
  5
73
330
59
100
AcDbEntity
  8
LAYER_1
 62
   250
100
AcDbLine
 10
22.64912
 20
0.0
 30
0.0
 11
21.50083
 21
0.0
 31
0.0
  0
LINE
  5
74
330
59
100
AcDbEntity
  8
LAYER_1
 62
   250
100
AcDbLine
 10
21.50083
 20
0.0
 30
0.0
 11
21.36641
 21
0.5769833333
 31
0.0
  0
LINE
  5
75
330
59
100
AcDbEntity
  8
LAYER_1
 62
   250
100
AcDbLine
 10
21.36641
 20
0.5769833333
 30
0.0
 11
20.21799
 21
0.5769833333
 31
0.0
  0
LINE
  5
76
330
59
100
AcDbEntity
  8
LAYER_1
 62
   250
100
AcDbLine
 10
20.21799
 20
0.5769833333
 30
0.0
 11
20.07863
 21
0.0
 31
0.0
  0
LINE
  5
77
330
59
100
AcDbEntity
  8
LAYER_1
 62
   250
100
AcDbLine
 10
20.07863
 20
0.0
 30
0.0
 11
18.94035
 21
0.0
 31
0.0
  0
LINE
  5
78
330
59
100
AcDbEntity
  8
LAYER_1
 62
   250
100
AcDbLine
 10
20.4289366667
 20
1.4914466667
 30
0.0
 11
21.15594
 21
1.4914466667
 31
0.0
  0
LINE
  5
79
330
59
100
AcDbEntity
  8
LAYER_1
 62
   250
100
AcDbLine
 10
21.15594
 20
1.4914466667
 30
0.0
 11
20.79649
 21
3.00079
 31
0.0
  0
LINE
  5
7A
330
59
100
AcDbEntity
  8
LAYER_1
 62
   250
100
AcDbLine
 10
20.79649
 20
3.00079
 30
0.0
 11
20.4289366667
 21
1.4914466667
 31
0.0
  0
LINE
  5
7B
330
59
100
AcDbEntity
  8
LAYER_1
 62
   250
100
AcDbLine
 10
15.4246733333
 20
0.0
 30
0.0
 11
15.4246733333
 21
4.35981
 31
0.0
  0
LINE
  5
7C
330
59
100
AcDbEntity
  8
LAYER_1
 62
   250
100
AcDbLine
 10
15.4246733333
 20
4.35981
 30
0.0
 11
16.5728333333
 21
4.35981
 31
0.0
  0
LINE
  5
7D
330
59
100
AcDbEntity
  8
LAYER_1
 62
   250
100
AcDbLine
 10
16.5728333333
 20
4.35981
 30
0.0
 11
16.5728333333
 21
2.9150333333
 31
0.0
  0
LINE
  5
7E
330
59
100
AcDbEntity
  8
LAYER_1
 62
   250
100
AcDbLine
 10
16.5728333333
 20
2.9150333333
 30
0.0
 11
17.6108833333
 21
4.35981
 31
0.0
  0
LINE
  5
7F
330
59
100
AcDbEntity
  8
LAYER_1
 62
   250
100
AcDbLine
 10
17.6108833333
 20
4.35981
 30
0.0
 11
18.9553433333
 21
4.35981
 31
0.0
  0
LINE
  5
80
330
59
100
AcDbEntity
  8
LAYER_1
 62
   250
100
AcDbLine
 10
18.9553433333
 20
4.35981
 30
0.0
 11
17.6676066667
 21
2.75223
 31
0.0
  0
LINE
  5
81
330
59
100
AcDbEntity
  8
LAYER_1
 62
   250
100
AcDbLine
 10
17.6676066667
 20
2.75223
 30
0.0
 11
19.1215266667
 21
0.0
 31
0.0
  0
LINE
  5
82
330
59
100
AcDbEntity
  8
LAYER_1
 62
   250
100
AcDbLine
 10
19.1215266667
 20
0.0
 30
0.0
 11
17.7411
 21
0.0
 31
0.0
  0
LINE
  5
83
330
59
100
AcDbEntity
  8
LAYER_1
 62
   250
100
AcDbLine
 10
17.7411
 20
0.0
 30
0.0
 11
16.8593966667
 21
1.7459
 31
0.0
  0
LINE
  5
84
330
59
100
AcDbEntity
  8
LAYER_1
 62
   250
100
AcDbLine
 10
16.8593966667
 20
1.7459
 30
0.0
 11
16.5728333333
 21
1.38827
 31
0.0
  0
LINE
  5
85
330
59
100
AcDbEntity
  8
LAYER_1
 62
   250
100
AcDbLine
 10
16.5728333333
 20
1.38827
 30
0.0
 11
16.5728333333
 21
0.0
 31
0.0
  0
LINE
  5
86
330
59
100
AcDbEntity
  8
LAYER_1
 62
   250
100
AcDbLine
 10
16.5728333333
 20
0.0
 30
0.0
 11
15.4246733333
 21
0.0
 31
0.0
  0
LINE
  5
87
330
59
100
AcDbEntity
  8
LAYER_1
 62
   250
100
AcDbLine
 10
11.5248466667
 20
0.0
 30
0.0
 11
11.5248466667
 21
4.35981
 31
0.0
  0
LINE
  5
88
330
59
100
AcDbEntity
  8
LAYER_1
 62
   250
100
AcDbLine
 10
11.5248466667
 20
4.35981
 30
0.0
 11
12.6237366667
 21
4.35981
 31
0.0
  0
LINE
  5
89
330
59
100
AcDbEntity
  8
LAYER_1
 62
   250
100
AcDbLine
 10
12.6237366667
 20
4.35981
 30
0.0
 11
13.6350933333
 21
2.33181
 31
0.0
  0
LINE
  5
8A
330
59
100
AcDbEntity
  8
LAYER_1
 62
   250
100
AcDbLine
 10
13.8163566667
 20
2.3027766667
 30
0.0
 11
13.8163566667
 21
4.35981
 31
0.0
  0
LINE
  5
8B
330
59
100
AcDbEntity
  8
LAYER_1
 62
   250
100
AcDbLine
 10
13.8163566667
 20
4.35981
 30
0.0
 11
14.9203166667
 21
4.35981
 31
0.0
  0
LINE
  5
8C
330
59
100
AcDbEntity
  8
LAYER_1
 62
   250
100
AcDbLine
 10
14.9203166667
 20
4.35981
 30
0.0
 11
14.9203166667
 21
0.0
 31
0.0
  0
LINE
  5
8D
330
59
100
AcDbEntity
  8
LAYER_1
 62
   250
100
AcDbLine
 10
14.9203166667
 20
0.0
 30
0.0
 11
13.8163566667
 21
0.0
 31
0.0
  0
LINE
  5
8E
330
59
100
AcDbEntity
  8
LAYER_1
 62
   250
100
AcDbLine
 10
13.8163566667
 20
0.0
 30
0.0
 11
12.805
 21
2.0127466667
 31
0.0
  0
LINE
  5
8F
330
59
100
AcDbEntity
  8
LAYER_1
 62
   250
100
AcDbLine
 10
12.6237366667
 20
2.0419533333
 30
0.0
 11
12.6237366667
 21
0.0
 31
0.0
  0
LINE
  5
90
330
59
100
AcDbEntity
  8
LAYER_1
 62
   250
100
AcDbLine
 10
12.6237366667
 20
0.0
 30
0.0
 11
11.5248466667
 21
0.0
 31
0.0
  0
LINE
  5
91
330
59
100
AcDbEntity
  8
LAYER_1
 62
   250
100
AcDbLine
 10
9.8223666667
 20
0.0
 30
0.0
 11
9.8223666667
 21
4.35981
 31
0.0
  0
LINE
  5
92
330
59
100
AcDbEntity
  8
LAYER_1
 62
   250
100
AcDbLine
 10
9.8223666667
 20
4.35981
 30
0.0
 11
11.0021166667
 21
4.35981
 31
0.0
  0
LINE
  5
93
330
59
100
AcDbEntity
  8
LAYER_1
 62
   250
100
AcDbLine
 10
11.0021166667
 20
4.35981
 30
0.0
 11
11.0021166667
 21
0.0
 31
0.0
  0
LINE
  5
94
330
59
100
AcDbEntity
  8
LAYER_1
 62
   250
100
AcDbLine
 10
11.0021166667
 20
0.0
 30
0.0
 11
9.8223666667
 21
0.0
 31
0.0
  0
LINE
  5
95
330
59
100
AcDbEntity
  8
LAYER_1
 62
   250
100
AcDbLine
 10
7.23138
 20
0.0
 30
0.0
 11
7.23138
 21
3.2110433333
 31
0.0
  0
LINE
  5
96
330
59
100
AcDbEntity
  8
LAYER_1
 62
   250
100
AcDbLine
 10
7.23138
 20
3.2110433333
 30
0.0
 11
6.19346
 21
3.2110433333
 31
0.0
  0
LINE
  5
97
330
59
100
AcDbEntity
  8
LAYER_1
 62
   250
100
AcDbLine
 10
6.19346
 20
3.2110433333
 30
0.0
 11
6.19346
 21
4.35981
 31
0.0
  0
LINE
  5
98
330
59
100
AcDbEntity
  8
LAYER_1
 62
   250
100
AcDbLine
 10
6.19346
 20
4.35981
 30
0.0
 11
9.40576
 21
4.35981
 31
0.0
  0
LINE
  5
99
330
59
100
AcDbEntity
  8
LAYER_1
 62
   250
100
AcDbLine
 10
9.40576
 20
4.35981
 30
0.0
 11
9.40576
 21
3.2110433333
 31
0.0
  0
LINE
  5
9A
330
59
100
AcDbEntity
  8
LAYER_1
 62
   250
100
AcDbLine
 10
9.40576
 20
3.2110433333
 30
0.0
 11
8.3895933333
 21
3.2110433333
 31
0.0
  0
LINE
  5
9B
330
59
100
AcDbEntity
  8
LAYER_1
 62
   250
100
AcDbLine
 10
8.3895933333
 20
3.2110433333
 30
0.0
 11
8.3895933333
 21
0.0
 31
0.0
  0
LINE
  5
9C
330
59
100
AcDbEntity
  8
LAYER_1
 62
   250
100
AcDbLine
 10
8.3895933333
 20
0.0
 30
0.0
 11
7.23138
 21
0.0
 31
0.0
  0
LINE
  5
9D
330
59
100
AcDbEntity
  8
LAYER_1
 62
   250
100
AcDbLine
 10
4.0396633333
 20
0.0
 30
0.0
 11
4.0396633333
 21
4.35981
 31
0.0
  0
LINE
  5
9E
330
59
100
AcDbEntity
  8
LAYER_1
 62
   250
100
AcDbLine
 10
4.0396633333
 20
4.35981
 30
0.0
 11
5.1978766667
 21
4.35981
 31
0.0
  0
LINE
  5
9F
330
59
100
AcDbEntity
  8
LAYER_1
 62
   250
100
AcDbLine
 10
5.1978766667
 20
4.35981
 30
0.0
 11
5.1978766667
 21
1.15791
 31
0.0
  0
LINE
  5
A0
330
59
100
AcDbEntity
  8
LAYER_1
 62
   250
100
AcDbLine
 10
5.1978766667
 20
1.15791
 30
0.0
 11
6.7722633333
 21
1.15791
 31
0.0
  0
LINE
  5
A1
330
59
100
AcDbEntity
  8
LAYER_1
 62
   250
100
AcDbLine
 10
6.7722633333
 20
1.15791
 30
0.0
 11
6.7722633333
 21
0.0
 31
0.0
  0
LINE
  5
A2
330
59
100
AcDbEntity
  8
LAYER_1
 62
   250
100
AcDbLine
 10
6.7722633333
 20
0.0
 30
0.0
 11
4.0396633333
 21
0.0
 31
0.0
  0
LINE
  5
A3
330
59
100
AcDbEntity
  8
LAYER_1
 62
   250
100
AcDbLine
 10
0.0
 20
0.0
 30
0.0
 11
1.26854
 21
4.35981
 31
0.0
  0
LINE
  5
A4
330
59
100
AcDbEntity
  8
LAYER_1
 62
   250
100
AcDbLine
 10
1.26854
 20
4.35981
 30
0.0
 11
2.4410966667
 21
4.35981
 31
0.0
  0
LINE
  5
A5
330
59
100
AcDbEntity
  8
LAYER_1
 62
   250
100
AcDbLine
 10
2.4410966667
 20
4.35981
 30
0.0
 11
3.7088133333
 21
0.0
 31
0.0
  0
LINE
  5
A6
330
59
100
AcDbEntity
  8
LAYER_1
 62
   250
100
AcDbLine
 10
3.7088133333
 20
0.0
 30
0.0
 11
2.5605233333
 21
0.0
 31
0.0
  0
LINE
  5
A7
330
59
100
AcDbEntity
  8
LAYER_1
 62
   250
100
AcDbLine
 10
2.5605233333
 20
0.0
 30
0.0
 11
2.4260166667
 21
0.5769833333
 31
0.0
  0
LINE
  5
A8
330
59
100
AcDbEntity
  8
LAYER_1
 62
   250
100
AcDbLine
 10
2.4260166667
 20
0.5769833333
 30
0.0
 11
1.27777
 21
0.5769833333
 31
0.0
  0
LINE
  5
A9
330
59
100
AcDbEntity
  8
LAYER_1
 62
   250
100
AcDbLine
 10
1.27777
 20
0.5769833333
 30
0.0
 11
1.1383233333
 21
0.0
 31
0.0
  0
LINE
  5
AA
330
59
100
AcDbEntity
  8
LAYER_1
 62
   250
100
AcDbLine
 10
1.1383233333
 20
0.0
 30
0.0
 11
0.0
 21
0.0
 31
0.0
  0
LINE
  5
AB
330
59
100
AcDbEntity
  8
LAYER_1
 62
   250
100
AcDbLine
 10
1.48824
 20
1.4914466667
 30
0.0
 11
2.21533
 21
1.4914466667
 31
0.0
  0
LINE
  5
AC
330
59
100
AcDbEntity
  8
LAYER_1
 62
   250
100
AcDbLine
 10
2.21533
 20
1.4914466667
 30
0.0
 11
1.8562266667
 21
3.00079
 31
0.0
  0
LINE
  5
AD
330
59
100
AcDbEntity
  8
LAYER_1
 62
   250
100
AcDbLine
 10
1.8562266667
 20
3.00079
 30
0.0
 11
1.48824
 21
1.4914466667
 31
0.0
  0
SPLINE
  5
AE
330
59
100
AcDbEntity
  8
LAYER_1
 62
   250
100
AcDbSpline
210
0.0
220
0.0
230
1.0
 70
     8
 71
     3
 72
     8
 73
     4
 74
     0
 42
0.00000001
 43
0.00000001
 40
0.1666666666666667
 40
0.1666666666666667
 40
0.1666666666666667
 40
0.1666666666666667
 40
0.2222222222222222
 40
0.2222222222222222
 40
0.2222222222222222
 40
0.2222222222222222
 10
13.63509333333335
 20
2.331810000000011
 30
0.0
 10
13.66599000000002
 20
2.275390000000009
 30
0.0
 10
13.69931333333335
 20
2.194486666666683
 30
0.0
 10
13.73441333333336
 20
2.089576666666683
 30
0.0
  0
SPLINE
  5
AF
330
59
100
AcDbEntity
  8
LAYER_1
 62
   250
100
AcDbSpline
210
0.0
220
0.0
230
1.0
 70
     8
 71
     3
 72
     8
 73
     4
 74
     0
 42
0.00000001
 43
0.00000001
 40
0.2222222222222222
 40
0.2222222222222222
 40
0.2222222222222222
 40
0.2222222222222222
 40
0.2777777777777778
 40
0.2777777777777778
 40
0.2777777777777778
 40
0.2777777777777778
 10
13.73441333333336
 20
2.089576666666683
 30
0.0
 10
13.76947000000001
 20
1.985403333333344
 30
0.0
 10
13.80613000000003
 20
1.859043333333338
 30
0.0
 10
13.84569333333335
 20
1.710670000000011
 30
0.0
  0
SPLINE
  5
B0
330
59
100
AcDbEntity
  8
LAYER_1
 62
   250
100
AcDbSpline
210
0.0
220
0.0
230
1.0
 70
     8
 71
     3
 72
     8
 73
     4
 74
     0
 42
0.00000001
 43
0.00000001
 40
0.2777777777777778
 40
0.2777777777777778
 40
0.2777777777777778
 40
0.2777777777777778
 40
0.3333333333333334
 40
0.3333333333333334
 40
0.3333333333333334
 40
0.3333333333333334
 10
13.84569333333335
 20
1.710670000000011
 30
0.0
 10
13.83555333333336
 20
1.787543333333343
 30
0.0
 10
13.82879333333337
 20
1.872173333333345
 30
0.0
 10
13.82381000000005
 20
1.965080000000015
 30
0.0
  0
SPLINE
  5
B1
330
59
100
AcDbEntity
  8
LAYER_1
 62
   250
100
AcDbSpline
210
0.0
220
0.0
230
1.0
 70
     8
 71
     3
 72
     8
 73
     4
 74
     0
 42
0.00000001
 43
0.00000001
 40
0.3333333333333334
 40
0.3333333333333334
 40
0.3333333333333334
 40
0.3333333333333334
 40
0.388888888888889
 40
0.388888888888889
 40
0.388888888888889
 40
0.388888888888889
 10
13.82381000000005
 20
1.965080000000015
 30
0.0
 10
13.81886999999998
 20
2.058246666666673
 30
0.0
 10
13.8163566666667
 20
2.170263333333346
 30
0.0
 10
13.8163566666667
 20
2.30277666666668
 30
0.0
  0
SPLINE
  5
B2
330
59
100
AcDbEntity
  8
LAYER_1
 62
   250
100
AcDbSpline
210
0.0
220
0.0
230
1.0
 70
     8
 71
     3
 72
     8
 73
     4
 74
     0
 42
0.00000001
 43
0.00000001
 40
0.6666666666666669
 40
0.6666666666666669
 40
0.6666666666666669
 40
0.6666666666666669
 40
0.7222222222222224
 40
0.7222222222222224
 40
0.7222222222222224
 40
0.7222222222222224
 10
12.80500000000001
 20
2.012746666666676
 30
0.0
 10
12.77419000000002
 20
2.072330000000004
 30
0.0
 10
12.74004333333334
 20
2.156093333333345
 30
0.0
 10
12.70321000000002
 20
2.264340000000018
 30
0.0
  0
SPLINE
  5
B3
330
59
100
AcDbEntity
  8
LAYER_1
 62
   250
100
AcDbSpline
210
0.0
220
0.0
230
1.0
 70
     8
 71
     3
 72
     8
 73
     4
 74
     0
 42
0.00000001
 43
0.00000001
 40
0.7222222222222224
 40
0.7222222222222224
 40
0.7222222222222224
 40
0.7222222222222224
 40
0.777777777777778
 40
0.777777777777778
 40
0.777777777777778
 40
0.777777777777778
 10
12.70321000000002
 20
2.264340000000018
 30
0.0
 10
12.66620333333335
 20
2.372543333333345
 30
0.0
 10
12.62954333333333
 20
2.49665000000001
 30
0.0
 10
12.59206000000002
 20
2.637050000000009
 30
0.0
  0
SPLINE
  5
B4
330
59
100
AcDbEntity
  8
LAYER_1
 62
   250
100
AcDbSpline
210
0.0
220
0.0
230
1.0
 70
     8
 71
     3
 72
     8
 73
     4
 74
     0
 42
0.00000001
 43
0.00000001
 40
0.777777777777778
 40
0.777777777777778
 40
0.777777777777778
 40
0.777777777777778
 40
0.8333333333333336
 40
0.8333333333333336
 40
0.8333333333333336
 40
0.8333333333333336
 10
12.59206000000002
 20
2.637050000000009
 30
0.0
 10
12.60367333333334
 20
2.560350000000017
 30
0.0
 10
12.61117
 20
2.479446666666676
 30
0.0
 10
12.61615333333338
 20
2.395553333333349
 30
0.0
  0
SPLINE
  5
B5
330
59
100
AcDbEntity
  8
LAYER_1
 62
   250
100
AcDbSpline
210
0.0
220
0.0
230
1.0
 70
     8
 71
     3
 72
     8
 73
     4
 74
     0
 42
0.00000001
 43
0.00000001
 40
0.8333333333333336
 40
0.8333333333333336
 40
0.8333333333333336
 40
0.8333333333333336
 40
0.8888888888888892
 40
0.8888888888888892
 40
0.8888888888888892
 40
0.8888888888888892
 10
12.61615333333338
 20
2.395553333333349
 30
0.0
 10
12.62122333333332
 20
2.311746666666677
 30
0.0
 10
12.62373666666672
 20
2.194486666666683
 30
0.0
 10
12.62373666666672
 20
2.041953333333346
 30
0.0
  0
ENDBLK
  5
5B
330
59
100
AcDbEntity
  8
0
100
AcDbBlockEnd
  0
BLOCK
  5
13F
330
13E
100
AcDbEntity
  8
0
100
AcDbBlockBegin
  2
SW_NOTE_0
 70
     0
 10
0.0
 20
0.0
 30
0.0
  3
SW_NOTE_0
  1

  0
MTEXT
  5
141
330
13E
100
AcDbEntity
  8
0
  6
Continuous
 62
     0
370
     0
100
AcDbMText
 10
0.0
 20
1.3642633579
 30
0.0
 40
1.0583333333
 41
0.0
 71
     1
 72
     1
  1
THE INFORMATION CONTAINED IN THIS
  7
SLDTEXTSTYLE1
 73
     1
 44
1.0
  0
MTEXT
  5
142
330
13E
100
AcDbEntity
  8
0
  6
Continuous
 62
     0
370
     0
100
AcDbMText
 10
0.0
 20
-0.0468477361
 30
0.0
 40
1.0583333333
 41
0.0
 71
     1
 72
     1
  1
DRAWING IS THE SOLE PROPERTY OF
  7
SLDTEXTSTYLE1
 73
     1
 44
1.0
  0
MTEXT
  5
143
330
13E
100
AcDbEntity
  8
0
  6
Continuous
 62
     0
370
     0
100
AcDbMText
 10
0.0
 20
-1.4579588302
 30
0.0
 40
1.0583333333
 41
0.0
 71
     1
 72
     1
  1
ALTINKAYA ENCLOSURES.  ANY
  7
SLDTEXTSTYLE1
 73
     1
 44
1.0
  0
MTEXT
  5
144
330
13E
100
AcDbEntity
  8
0
  6
Continuous
 62
     0
370
     0
100
AcDbMText
 10
0.0
 20
-2.8690699242
 30
0.0
 40
1.0583333333
 41
0.0
 71
     1
 72
     1
  1
REPRODUCTION IN PART OR AS A WHOLE
  7
SLDTEXTSTYLE1
 73
     1
 44
1.0
  0
MTEXT
  5
145
330
13E
100
AcDbEntity
  8
0
  6
Continuous
 62
     0
370
     0
100
AcDbMText
 10
0.0
 20
-4.2801810183
 30
0.0
 40
1.0583333333
 41
0.0
 71
     1
 72
     1
  1
WITHOUT THE WRITTEN PERMISSION OF
  7
SLDTEXTSTYLE1
 73
     1
 44
1.0
  0
MTEXT
  5
146
330
13E
100
AcDbEntity
  8
0
  6
Continuous
 62
     0
370
     0
100
AcDbMText
 10
0.0
 20
-5.6912921124
 30
0.0
 40
1.0583333333
 41
0.0
 71
     1
 72
     1
  1
ALTINKAYA ENCLOSURES IS PROHIBITED.
  7
SLDTEXTSTYLE1
 73
     1
 44
1.0
  0
ENDBLK
  5
140
330
13E
100
AcDbEntity
  8
0
100
AcDbBlockEnd
  0
BLOCK
  5
1A6
330
1A5
100
AcDbEntity
  8
0
100
AcDbBlockBegin
  2
*D5
 70
     1
 10
0.0
 20
0.0
 30
0.0
  3
*D5
  1

  0
SOLID
  5
1A8
330
1A5
100
AcDbEntity
  8
LAYER_1
100
AcDbTrace
 10
152.6160944134
 20
207.5808381705
 30
0.0
 11
153.1240944134
 21
210.8828381705
 31
0.0
 12
152.1080944134
 22
210.8828381705
 32
0.0
 13
152.1080944134
 23
210.8828381705
 33
0.0
  0
SOLID
  5
1A9
330
1A5
100
AcDbEntity
  8
LAYER_1
100
AcDbTrace
 10
152.6160944134
 20
203.0808381705
 30
0.0
 11
152.1080944134
 21
199.7788381705
 31
0.0
 12
153.1240944134
 22
199.7788381705
 32
0.0
 13
153.1240944134
 23
199.7788381705
 33
0.0
  0
LINE
  5
1AA
330
1A5
100
AcDbEntity
  8
LAYER_1
100
AcDbLine
 10
157.6448019337
 20
207.5808381705
 30
0.0
 11
151.6160944134
 21
207.5808381705
 31
0.0
  0
LINE
  5
1AB
330
1A5
100
AcDbEntity
  8
LAYER_1
100
AcDbLine
 10
152.6160944134
 20
207.5808381705
 30
0.0
 11
152.6160944134
 21
213.9308381705
 31
0.0
  0
LINE
  5
1AC
330
1A5
100
AcDbEntity
  8
LAYER_1
100
AcDbLine
 10
152.6160944134
 20
207.5808381705
 30
0.0
 11
152.6160944134
 21
203.0808381705
 31
0.0
  0
LINE
  5
1AD
330
1A5
100
AcDbEntity
  8
LAYER_1
100
AcDbLine
 10
152.6160944134
 20
203.0808381705
 30
0.0
 11
152.6160944134
 21
187.5810320563
 31
0.0
  0
MTEXT
  5
1AE
330
1A5
100
AcDbEntity
  8
LAYER_1
100
AcDbMText
 10
148.1043574988
 20
187.5810320563
 30
0.1
 40
3.5
 41
0.0
 71
     1
 72
     1
  1
4,5
  7
SLDTEXTSTYLE3
 11
-7.044195017643634E-15
 21
1.0
 31
0.0
 73
     1
 44
1.0
  0
ENDBLK
  5
1A7
330
1A5
100
AcDbEntity
  8
0
100
AcDbBlockEnd
  0
BLOCK
  5
1B2
330
1B1
100
AcDbEntity
  8
0
100
AcDbBlockBegin
  2
*D6
 70
     1
 10
0.0
 20
0.0
 30
0.0
  3
*D6
  1

  0
SOLID
  5
1B4
330
1B1
100
AcDbEntity
  8
LAYER_1
100
AcDbTrace
 10
179.4948019337
 20
203.0808381705
 30
0.0
 11
180.0028019337
 21
206.3828381705
 31
0.0
 12
178.9868019337
 22
206.3828381705
 32
0.0
 13
178.9868019337
 23
206.3828381705
 33
0.0
  0
SOLID
  5
1B5
330
1B1
100
AcDbEntity
  8
LAYER_1
100
AcDbTrace
 10
179.4948019337
 20
251.3808381705
 30
0.0
 11
178.9868019337
 21
248.0788381705
 31
0.0
 12
180.0028019337
 22
248.0788381705
 32
0.0
 13
180.0028019337
 23
248.0788381705
 33
0.0
  0
LINE
  5
1B6
330
1B1
100
AcDbEntity
  8
LAYER_1
100
AcDbLine
 10
166.8454735184
 20
203.0808381705
 30
0.0
 11
180.4948019337
 21
203.0808381705
 31
0.0
  0
LINE
  5
1B7
330
1B1
100
AcDbEntity
  8
LAYER_1
100
AcDbLine
 10
165.4541382043
 20
251.3808381705
 30
0.0
 11
180.4948019337
 21
251.3808381705
 31
0.0
  0
LINE
  5
1B8
330
1B1
100
AcDbEntity
  8
LAYER_1
100
AcDbLine
 10
179.4948019337
 20
203.0808381705
 30
0.0
 11
179.4948019337
 21
251.3808381705
 31
0.0
  0
MTEXT
  5
1B9
330
1B1
100
AcDbEntity
  8
LAYER_1
100
AcDbMText
 10
174.9830650191
 20
220.8022681171
 30
0.1
 40
3.5
 41
0.0
 71
     1
 72
     1
  1
48,3
  7
SLDTEXTSTYLE3
 11
6.123233995736766E-17
 21
1.0
 31
0.0
 73
     1
 44
1.0
  0
ENDBLK
  5
1B3
330
1B1
100
AcDbEntity
  8
0
100
AcDbBlockEnd
  0
BLOCK
  5
1BD
330
1BC
100
AcDbEntity
  8
0
100
AcDbBlockBegin
  2
*D7
 70
     1
 10
0.0
 20
0.0
 30
0.0
  3
*D7
  1

  0
SOLID
  5
1BF
330
1BC
100
AcDbEntity
  8
LAYER_1
100
AcDbTrace
 10
128.9993873273
 20
255.4808381705
 30
0.0
 11
129.5073873273
 21
258.7828381705
 31
0.0
 12
128.4913873273
 22
258.7828381705
 32
0.0
 13
128.4913873273
 23
258.7828381705
 33
0.0
  0
SOLID
  5
1C0
330
1BC
100
AcDbEntity
  8
LAYER_1
100
AcDbTrace
 10
128.9993873273
 20
254.5308381705
 30
0.0
 11
128.4913873273
 21
251.2288381705
 31
0.0
 12
129.5073873273
 22
251.2288381705
 32
0.0
 13
129.5073873273
 23
251.2288381705
 33
0.0
  0
LINE
  5
1C1
330
1BC
100
AcDbEntity
  8
LAYER_1
100
AcDbLine
 10
128.9993873273
 20
255.4808381705
 30
0.0
 11
128.9993873273
 21
269.2736249278
 31
0.0
  0
LINE
  5
1C2
330
1BC
100
AcDbEntity
  8
LAYER_1
100
AcDbLine
 10
128.9993873273
 20
255.4808381705
 30
0.0
 11
128.9993873273
 21
254.5308381705
 31
0.0
  0
LINE
  5
1C3
330
1BC
100
AcDbEntity
  8
LAYER_1
100
AcDbLine
 10
128.9993873273
 20
254.5308381705
 30
0.0
 11
128.9993873273
 21
248.1808381705
 31
0.0
  0
MTEXT
  5
1C4
330
1BC
100
AcDbEntity
  8
LAYER_1
100
AcDbMText
 10
124.4876504128
 20
257.3784861575
 30
0.1
 40
3.5
 41
0.0
 71
     1
 72
     1
  1
0,95
  7
SLDTEXTSTYLE3
 11
-7.044195017643634E-15
 21
1.0
 31
0.0
 73
     1
 44
1.0
  0
ENDBLK
  5
1BE
330
1BC
100
AcDbEntity
  8
0
100
AcDbBlockEnd
  0
BLOCK
  5
1C8
330
1C7
100
AcDbEntity
  8
0
100
AcDbBlockBegin
  2
*D8
 70
     1
 10
0.0
 20
0.0
 30
0.0
  3
*D8
  1

  0
SOLID
  5
1CA
330
1C7
100
AcDbEntity
  8
LAYER_1
100
AcDbTrace
 10
59.4948019337
 20
255.4808381705
 30
0.0
 11
58.9868019337
 21
252.1788381705
 31
0.0
 12
60.0028019337
 22
252.1788381705
 32
0.0
 13
60.0028019337
 23
252.1788381705
 33
0.0
  0
SOLID
  5
1CB
330
1C7
100
AcDbEntity
  8
LAYER_1
100
AcDbTrace
 10
59.4948019337
 20
199.9808381705
 30
0.0
 11
60.0028019337
 21
203.2828381705
 31
0.0
 12
58.9868019337
 22
203.2828381705
 32
0.0
 13
58.9868019337
 23
203.2828381705
 33
0.0
  0
LINE
  5
1CC
330
1C7
100
AcDbEntity
  8
LAYER_1
100
AcDbLine
 10
74.8588963238
 20
255.4808381705
 30
0.0
 11
58.4948019337
 21
255.4808381705
 31
0.0
  0
LINE
  5
1CD
330
1C7
100
AcDbEntity
  8
LAYER_1
100
AcDbLine
 10
75.1801767892
 20
199.9808381705
 30
0.0
 11
58.4948019337
 21
199.9808381705
 31
0.0
  0
LINE
  5
1CE
330
1C7
100
AcDbEntity
  8
LAYER_1
100
AcDbLine
 10
59.4948019337
 20
255.4808381705
 30
0.0
 11
59.4948019337
 21
199.9808381705
 31
0.0
  0
MTEXT
  5
1CF
330
1C7
100
AcDbEntity
  8
LAYER_1
100
AcDbMText
 10
54.9830650191
 20
219.1971573589
 30
0.1
 40
3.5
 41
0.0
 71
     1
 72
     1
  1
55,500
  7
SLDTEXTSTYLE3
 11
-7.044195017643634E-15
 21
1.0
 31
0.0
 73
     1
 44
1.0
  0
ENDBLK
  5
1C9
330
1C7
100
AcDbEntity
  8
0
100
AcDbBlockEnd
  0
BLOCK
  5
20A
330
209
100
AcDbEntity
  8
0
100
AcDbBlockBegin
  2
*D9
 70
     1
 10
0.0
 20
0.0
 30
0.0
  3
*D9
  1

  0
SOLID
  5
20C
330
209
100
AcDbEntity
  8
LAYER_1
100
AcDbTrace
 10
161.9948019337
 20
134.2821074556
 30
0.0
 11
158.6928019337
 21
134.7901074556
 31
0.0
 12
158.6928019337
 22
133.7741074556
 32
0.0
 13
158.6928019337
 23
133.7741074556
 33
0.0
  0
SOLID
  5
20D
330
209
100
AcDbEntity
  8
LAYER_1
100
AcDbTrace
 10
76.9948019337
 20
134.2821074556
 30
0.0
 11
80.2968019337
 21
133.7741074556
 31
0.0
 12
80.2968019337
 22
134.7901074556
 32
0.0
 13
80.2968019337
 23
134.7901074556
 33
0.0
  0
LINE
  5
20E
330
209
100
AcDbEntity
  8
LAYER_1
100
AcDbLine
 10
161.9948019337
 20
134.2821074556
 30
0.0
 11
76.9948019337
 21
134.2821074556
 31
0.0
  0
MTEXT
  5
20F
330
209
100
AcDbEntity
  8
LAYER_1
100
AcDbMText
 10
121.3462025065
 20
138.7938443701
 30
12.655
 40
3.5
 41
0.0
 71
     1
 72
     1
  1
85
  7
SLDTEXTSTYLE3
 73
     1
 44
1.0
  0
ENDBLK
  5
20B
330
209
100
AcDbEntity
  8
0
100
AcDbBlockEnd
  0
BLOCK
  5
212
330
211
100
AcDbEntity
  8
0
100
AcDbBlockBegin
  2
*D10
 70
     1
 10
0.0
 20
0.0
 30
0.0
  3
*D10
  1

  0
SOLID
  5
214
330
211
100
AcDbEntity
  8
LAYER_1
100
AcDbTrace
 10
92.1027406843
 20
146.6579518072
 30
0.0
 11
91.5947406843
 21
143.3559518072
 31
0.0
 12
92.6107406843
 22
143.3559518072
 32
0.0
 13
92.6107406843
 23
143.3559518072
 33
0.0
  0
SOLID
  5
215
330
211
100
AcDbEntity
  8
LAYER_1
100
AcDbTrace
 10
92.1027406843
 20
81.6579518072
 30
0.0
 11
92.6107406843
 21
84.9599518072
 31
0.0
 12
91.5947406843
 22
84.9599518072
 32
0.0
 13
91.5947406843
 23
84.9599518072
 33
0.0
  0
LINE
  5
216
330
211
100
AcDbEntity
  8
LAYER_1
100
AcDbLine
 10
92.1027406843
 20
146.6579518072
 30
0.0
 11
92.1027406843
 21
81.6579518072
 31
0.0
  0
MTEXT
  5
217
330
211
100
AcDbEntity
  8
LAYER_1
100
AcDbMText
 10
87.5910037697
 20
110.0506167276
 30
12.655
 40
3.5
 41
0.0
 71
     1
 72
     1
  1
65
  7
SLDTEXTSTYLE3
 11
-7.044195017643634E-15
 21
1.0
 31
0.0
 73
     1
 44
1.0
  0
ENDBLK
  5
213
330
211
100
AcDbEntity
  8
0
100
AcDbBlockEnd
  0
BLOCK
  5
21A
330
219
100
AcDbEntity
  8
0
100
AcDbBlockBegin
  2
*D11
 70
     1
 10
0.0
 20
0.0
 30
0.0
  3
*D11
  1

  0
SOLID
  5
21C
330
219
100
AcDbEntity
  8
LAYER_1
100
AcDbTrace
 10
59.4948019337
 20
164.1579518072
 30
0.0
 11
58.9868019337
 21
160.8559518072
 31
0.0
 12
60.0028019337
 22
160.8559518072
 32
0.0
 13
60.0028019337
 23
160.8559518072
 33
0.0
  0
SOLID
  5
21D
330
219
100
AcDbEntity
  8
LAYER_1
100
AcDbTrace
 10
59.4948019337
 20
64.1579518072
 30
0.0
 11
60.0028019337
 21
67.4599518072
 31
0.0
 12
58.9868019337
 22
67.4599518072
 32
0.0
 13
58.9868019337
 23
67.4599518072
 33
0.0
  0
LINE
  5
21E
330
219
100
AcDbEntity
  8
LAYER_1
100
AcDbLine
 10
74.4927458835
 20
164.1579518072
 30
0.0
 11
58.4948019337
 21
164.1579518072
 31
0.0
  0
LINE
  5
21F
330
219
100
AcDbEntity
  8
LAYER_1
100
AcDbLine
 10
74.4927458835
 20
64.1579518072
 30
0.0
 11
58.4948019337
 21
64.1579518072
 31
0.0
  0
LINE
  5
220
330
219
100
AcDbEntity
  8
LAYER_1
100
AcDbLine
 10
59.4948019337
 20
164.1579518072
 30
0.0
 11
59.4948019337
 21
64.1579518072
 31
0.0
  0
MTEXT
  5
221
330
219
100
AcDbEntity
  8
LAYER_1
100
AcDbMText
 10
54.9830650191
 20
108.8569102786
 30
12.655
 40
3.5
 41
0.0
 71
     1
 72
     1
  1
100
  7
SLDTEXTSTYLE3
 11
-7.044195017643634E-15
 21
1.0
 31
0.0
 73
     1
 44
1.0
  0
ENDBLK
  5
21B
330
219
100
AcDbEntity
  8
0
100
AcDbBlockEnd
  0
BLOCK
  5
224
330
223
100
AcDbEntity
  8
0
100
AcDbBlockBegin
  2
*D12
 70
     1
 10
0.0
 20
0.0
 30
0.0
  3
*D12
  1

  0
SOLID
  5
226
330
223
100
AcDbEntity
  8
LAYER_1
100
AcDbTrace
 10
69.4948019337
 20
54.1579518072
 30
0.0
 11
72.7968019337
 21
53.6499518072
 31
0.0
 12
72.7968019337
 22
54.6659518072
 32
0.0
 13
72.7968019337
 23
54.6659518072
 33
0.0
  0
SOLID
  5
227
330
223
100
AcDbEntity
  8
LAYER_1
100
AcDbTrace
 10
169.4948019337
 20
54.1579518072
 30
0.0
 11
166.1928019337
 21
54.6659518072
 31
0.0
 12
166.1928019337
 22
53.6499518072
 32
0.0
 13
166.1928019337
 23
53.6499518072
 33
0.0
  0
LINE
  5
228
330
223
100
AcDbEntity
  8
LAYER_1
100
AcDbLine
 10
69.4948019337
 20
69.1558957571
 30
0.0
 11
69.4948019337
 21
53.1579518072
 31
0.0
  0
LINE
  5
229
330
223
100
AcDbEntity
  8
LAYER_1
100
AcDbLine
 10
169.4948019337
 20
69.1558957571
 30
0.0
 11
169.4948019337
 21
53.1579518072
 31
0.0
  0
LINE
  5
22A
330
223
100
AcDbEntity
  8
LAYER_1
100
AcDbLine
 10
69.4948019337
 20
54.1579518072
 30
0.0
 11
169.4948019337
 21
54.1579518072
 31
0.0
  0
MTEXT
  5
22B
330
223
100
AcDbEntity
  8
LAYER_1
100
AcDbMText
 10
114.1937604051
 20
58.6696887218
 30
12.655
 40
3.5
 41
0.0
 71
     1
 72
     1
  1
100
  7
SLDTEXTSTYLE3
 73
     1
 44
1.0
  0
ENDBLK
  5
225
330
223
100
AcDbEntity
  8
0
100
AcDbBlockEnd
  0
ENDSEC
  0
SECTION
  2
ENTITIES
  0
HATCH
  5
B6
330
1F
100
AcDbEntity
  8
LAYER_2
100
AcDbHatch
 10
0.0
 20
0.0
 30
0.0
210
0.0
220
0.0
230
1.0
  2
SOLID
 70
     1
 71
     0
 91
        4
 92
        0
 93
       18
 72
     4
 94
        3
 73
     1
 74
     0
 95
        8
 96
        4
 40
0.9444444444444448
 40
0.9444444444444448
 40
0.9444444444444448
 40
0.9444444444444448
 40
1.0
 40
1.0
 40
1.0
 40
1.0
 10
329.3633810246067
 20
51.31246345129614
 42
1.0
 10
329.0411543579401
 20
51.31246345129614
 42
1.0
 10
328.77829435794
 20
51.04960345129614
 42
1.0
 10
328.77829435794
 20
50.72737678462948
 42
1.0
 72
     1
 10
328.77829435794
 20
50.72737678462948
 11
328.77829435794
 21
44.2912501179628
 72
     1
 10
328.77829435794
 20
44.2912501179628
 11
329.51630435794
 21
44.2912501179628
 72
     4
 94
        3
 73
     1
 74
     0
 95
        8
 96
        4
 40
0.777777777777778
 40
0.777777777777778
 40
0.777777777777778
 40
0.777777777777778
 40
0.8333333333333336
 40
0.8333333333333336
 40
0.8333333333333336
 40
0.8333333333333336
 10
329.51630435794
 20
44.2912501179628
 42
1.0
 10
329.4996210246067
 20
44.36192678462947
 42
1.0
 10
329.4913010246067
 20
44.4376301179628
 42
1.0
 10
329.49160435794
 20
44.51849011796281
 42
1.0
 72
     4
 94
        3
 73
     1
 74
     0
 95
        8
 96
        4
 40
0.7222222222222224
 40
0.7222222222222224
 40
0.7222222222222224
 40
0.7222222222222224
 40
0.777777777777778
 40
0.777777777777778
 40
0.777777777777778
 40
0.777777777777778
 10
329.49160435794
 20
44.51849011796281
 42
1.0
 10
329.4893510246067
 20
45.08282011796281
 42
1.0
 10
329.91098435794
 20
45.40435345129614
 42
1.0
 10
330.61896435794
 20
45.41774345129613
 42
1.0
 72
     4
 94
        3
 73
     1
 74
     0
 95
        8
 96
        4
 40
0.6666666666666669
 40
0.6666666666666669
 40
0.6666666666666669
 40
0.6666666666666669
 40
0.7222222222222224
 40
0.7222222222222224
 40
0.7222222222222224
 40
0.7222222222222224
 10
330.61896435794
 20
45.41774345129613
 42
1.0
 10
331.2394110246067
 20
45.42905345129613
 42
1.0
 10
331.8558276912734
 20
45.08282011796281
 42
1.0
 10
331.9985676912734
 20
44.99715011796281
 42
1.0
 72
     4
 94
        3
 73
     1
 74
     0
 95
        8
 96
        4
 40
0.6111111111111113
 40
0.6111111111111113
 40
0.6111111111111113
 40
0.6111111111111113
 40
0.6666666666666669
 40
0.6666666666666669
 40
0.6666666666666669
 40
0.6666666666666669
 10
331.9985676912734
 20
44.99715011796281
 42
1.0
 10
331.9481276912733
 20
44.84509345129614
 42
1.0
 10
331.92078435794
 20
44.6826801179628
 42
1.0
 10
331.92078435794
 20
44.51363678462948
 42
1.0
 72
     4
 94
        3
 73
     1
 74
     0
 95
        8
 96
        4
 40
0.5555555555555557
 40
0.5555555555555557
 40
0.5555555555555557
 40
0.5555555555555557
 40
0.6111111111111113
 40
0.6111111111111113
 40
0.6111111111111113
 40
0.6111111111111113
 10
331.92078435794
 20
44.51363678462948
 42
1.0
 10
331.92078435794
 20
44.43806345129614
 42
1.0
 10
331.9261576912734
 20
44.36387678462947
 42
1.0
 10
331.9367310246067
 20
44.2912501179628
 42
1.0
 72
     1
 10
331.9367310246067
 20
44.2912501179628
 11
334.9812010246067
 21
44.2912501179628
 72
     4
 94
        3
 73
     1
 74
     0
 95
        8
 96
        4
 40
0.4444444444444445
 40
0.4444444444444445
 40
0.4444444444444445
 40
0.4444444444444445
 40
0.5000000000000001
 40
0.5000000000000001
 40
0.5000000000000001
 40
0.5000000000000001
 10
334.9812010246067
 20
44.2912501179628
 42
1.0
 10
334.9917310246067
 20
44.36387678462947
 42
1.0
 10
334.9974510246067
 20
44.43806345129614
 42
1.0
 10
334.9974510246067
 20
44.51363678462948
 42
1.0
 72
     4
 94
        3
 73
     1
 74
     0
 95
        8
 96
        4
 40
0.388888888888889
 40
0.388888888888889
 40
0.388888888888889
 40
0.388888888888889
 40
0.4444444444444445
 40
0.4444444444444445
 40
0.4444444444444445
 40
0.4444444444444445
 10
334.9974510246067
 20
44.51363678462948
 42
1.0
 10
334.9974510246067
 20
44.67964678462947
 42
1.0
 10
334.97097435794
 20
44.83933011796281
 42
1.0
 10
334.9223110246067
 20
44.98904678462947
 42
1.0
 72
     4
 94
        3
 73
     1
 74
     0
 95
        8
 96
        4
 40
0.3333333333333334
 40
0.3333333333333334
 40
0.3333333333333334
 40
0.3333333333333334
 40
0.388888888888889
 40
0.388888888888889
 40
0.388888888888889
 40
0.388888888888889
 10
334.9223110246067
 20
44.98904678462947
 42
1.0
 10
335.06977435794
 20
45.0772301179628
 42
1.0
 10
335.6825076912733
 20
45.41934678462948
 42
1.0
 10
336.29918435794
 20
45.40790678462947
 42
1.0
 72
     4
 94
        3
 73
     1
 74
     0
 95
        8
 96
        4
 40
0.2777777777777778
 40
0.2777777777777778
 40
0.2777777777777778
 40
0.2777777777777778
 40
0.3333333333333334
 40
0.3333333333333334
 40
0.3333333333333334
 40
0.3333333333333334
 10
336.29918435794
 20
45.40790678462947
 42
1.0
 10
337.0072076912733
 20
45.3945601179628
 42
1.0
 10
337.4287976912734
 20
45.07307011796281
 42
1.0
 10
337.42654435794
 20
44.5087401179628
 42
1.0
 72
     4
 94
        3
 73
     1
 74
     0
 95
        8
 96
        4
 40
0.2222222222222222
 40
0.2222222222222222
 40
0.2222222222222222
 40
0.2222222222222222
 40
0.2777777777777778
 40
0.2777777777777778
 40
0.2777777777777778
 40
0.2777777777777778
 10
337.42654435794
 20
44.5087401179628
 42
1.0
 10
337.4268910246067
 20
44.4315201179628
 42
1.0
 10
337.4190910246067
 20
44.35915345129614
 42
1.0
 10
337.4038376912733
 20
44.2912501179628
 42
1.0
 72
     1
 10
337.4038376912733
 20
44.2912501179628
 11
338.1400276912733
 21
44.2912501179628
 72
     1
 10
338.1400276912733
 20
44.2912501179628
 11
338.1400276912733
 21
50.72737678462948
 72
     4
 94
        3
 73
     1
 74
     0
 95
        8
 96
        4
 40
0.0555555555555556
 40
0.0555555555555556
 40
0.0555555555555556
 40
0.0555555555555556
 40
0.1111111111111111
 40
0.1111111111111111
 40
0.1111111111111111
 40
0.1111111111111111
 10
338.1400276912733
 20
50.72737678462948
 42
1.0
 10
338.1400276912733
 20
51.04960345129614
 42
1.0
 10
337.8771676912734
 20
51.31246345129614
 42
1.0
 10
337.5549410246067
 20
51.31246345129614
 42
1.0
 72
     1
 10
337.5549410246067
 20
51.31246345129614
 11
329.3633810246067
 21
51.31246345129614
 97
        0
 92
        0
 93
        6
 72
     4
 94
        3
 73
     1
 74
     0
 95
        8
 96
        4
 40
0.6666666666666666
 40
0.6666666666666666
 40
0.6666666666666666
 40
0.6666666666666666
 40
0.8333333333333333
 40
0.8333333333333333
 40
0.8333333333333333
 40
0.8333333333333333
 10
333.9428043579401
 20
45.9742301179628
 42
1.0
 10
333.7906610246067
 20
46.0245401179628
 42
1.0
 10
333.6279876912733
 20
46.0519701179628
 42
1.0
 10
333.4591176912734
 20
46.0519701179628
 42
1.0
 72
     4
 94
        3
 73
     1
 74
     0
 95
        8
 96
        4
 40
0.8333333333333333
 40
0.8333333333333333
 40
0.8333333333333333
 40
0.8333333333333333
 40
1.0
 40
1.0
 40
1.0
 40
1.0
 10
333.4591176912734
 20
46.0519701179628
 42
1.0
 10
333.29319435794
 20
46.0519701179628
 42
1.0
 10
333.1333376912734
 20
46.02562345129614
 42
1.0
 10
332.98353435794
 20
45.97691678462947
 42
1.0
 72
     4
 94
        3
 73
     1
 74
     0
 95
        8
 96
        4
 40
0.0
 40
0.0
 40
0.0
 40
0.0
 40
0.1666666666666667
 40
0.1666666666666667
 40
0.1666666666666667
 40
0.1666666666666667
 10
332.98353435794
 20
45.97691678462947
 42
1.0
 10
332.8953510246067
 20
46.12438011796281
 42
1.0
 10
332.5534510246067
 20
46.7369401179628
 42
1.0
 10
332.5648476912734
 20
47.35379011796281
 42
1.0
 72
     4
 94
        3
 73
     1
 74
     0
 95
        8
 96
        4
 40
0.1666666666666667
 40
0.1666666666666667
 40
0.1666666666666667
 40
0.1666666666666667
 40
0.3333333333333333
 40
0.3333333333333333
 40
0.3333333333333333
 40
0.3333333333333333
 10
332.5648476912734
 20
47.35379011796281
 42
1.0
 10
332.57819435794
 20
48.06168345129614
 42
1.0
 10
332.8996410246067
 20
48.48336011796281
 42
1.0
 10
333.4639710246067
 20
48.48115011796281
 42
1.0
 72
     4
 94
        3
 73
     1
 74
     0
 95
        8
 96
        4
 40
0.3333333333333333
 40
0.3333333333333333
 40
0.3333333333333333
 40
0.3333333333333333
 40
0.5
 40
0.5
 40
0.5
 40
0.5
 10
333.4639710246067
 20
48.48115011796281
 42
1.0
 10
334.0283010246067
 20
48.48336011796281
 42
1.0
 10
334.3497910246067
 20
48.06168345129614
 42
1.0
 10
334.3631376912733
 20
47.35379011796281
 42
1.0
 72
     4
 94
        3
 73
     1
 74
     0
 95
        8
 96
        4
 40
0.5
 40
0.5
 40
0.5
 40
0.5
 40
0.6666666666666666
 40
0.6666666666666666
 40
0.6666666666666666
 40
0.6666666666666666
 10
334.3631376912733
 20
47.35379011796281
 42
1.0
 10
334.3744910246067
 20
46.73321345129615
 42
1.0
 10
334.0283010246067
 20
46.11675345129615
 42
1.0
 10
333.9428043579401
 20
45.9742301179628
 42
1.0
 97
        0
 92
        0
 93
        5
 72
     4
 94
        3
 73
     1
 74
     0
 95
        8
 96
        4
 40
0.6000000000000001
 40
0.6000000000000001
 40
0.6000000000000001
 40
0.6000000000000001
 40
0.8
 40
0.8
 40
0.8
 40
0.8
 10
332.0909543579401
 20
47.16030678462947
 42
1.0
 10
332.53672435794
 20
46.7307001179628
 42
1.0
 10
332.7278676912734
 20
46.05188345129614
 42
1.0
 10
332.7688176912733
 20
45.88856011796281
 42
1.0
 72
     4
 94
        3
 73
     1
 74
     0
 95
        8
 96
        4
 40
0.8
 40
0.8
 40
0.8
 40
0.8
 40
1.0
 40
1.0
 40
1.0
 40
1.0
 10
332.7688176912733
 20
45.88856011796281
 42
1.0
 10
332.4760143579401
 20
45.74118345129614
 42
1.0
 10
332.23668435794
 20
45.50332678462947
 42
1.0
 10
332.08783435794
 20
45.21152011796281
 42
1.0
 72
     4
 94
        3
 73
     1
 74
     0
 95
        8
 96
        4
 40
0.0
 40
0.0
 40
0.0
 40
0.0
 40
0.2
 40
0.2
 40
0.2
 40
0.2
 10
332.08783435794
 20
45.21152011796281
 42
1.0
 10
331.91922435794
 20
45.2540301179628
 42
1.0
 10
331.2464310246067
 20
45.44560678462947
 42
1.0
 10
330.8192943579401
 20
45.8886901179628
 42
1.0
 72
     4
 94
        3
 73
     1
 74
     0
 95
        8
 96
        4
 40
0.2
 40
0.2
 40
0.2
 40
0.2
 40
0.4
 40
0.4
 40
0.4
 40
0.4
 10
330.8192943579401
 20
45.8886901179628
 42
1.0
 10
330.3280676912734
 20
46.39885345129613
 42
1.0
 10
330.2573476912734
 20
46.92422678462948
 42
1.0
 10
330.6579210246067
 20
47.32176678462947
 42
1.0
 72
     4
 94
        3
 73
     1
 74
     0
 95
        8
 96
        4
 40
0.4
 40
0.4
 40
0.4
 40
0.4
 40
0.6000000000000001
 40
0.6000000000000001
 40
0.6000000000000001
 40
0.6000000000000001
 10
330.6579210246067
 20
47.32176678462947
 42
1.0
 10
331.0555910246067
 20
47.72225345129615
 42
1.0
 10
331.5808776912734
 20
47.65153345129613
 42
1.0
 10
332.0909543579401
 20
47.16030678462947
 42
1.0
 97
        0
 92
        0
 93
        5
 72
     4
 94
        3
 73
     1
 74
     0
 95
        8
 96
        4
 40
0.6000000000000001
 40
0.6000000000000001
 40
0.6000000000000001
 40
0.6000000000000001
 40
0.8
 40
0.8
 40
0.8
 40
0.8
 10
336.1057443579401
 20
45.88175678462947
 42
1.0
 10
335.6760076912734
 20
45.43594345129614
 42
1.0
 10
334.99723435794
 20
45.24475678462947
 42
1.0
 10
334.8340410246067
 20
45.20389345129613
 42
1.0
 72
     4
 94
        3
 73
     1
 74
     0
 95
        8
 96
        4
 40
0.8
 40
0.8
 40
0.8
 40
0.8
 40
1.0
 40
1.0
 40
1.0
 40
1.0
 10
334.8340410246067
 20
45.20389345129613
 42
1.0
 10
334.6866643579401
 20
45.49656678462947
 42
1.0
 10
334.4488076912734
 20
45.73585345129614
 42
1.0
 10
334.1569576912734
 20
45.88470345129614
 42
1.0
 72
     4
 94
        3
 73
     1
 74
     0
 95
        8
 96
        4
 40
0.0
 40
0.0
 40
0.0
 40
0.0
 40
0.2
 40
0.2
 40
0.2
 40
0.2
 10
334.1569576912734
 20
45.88470345129614
 42
1.0
 10
334.1993810246067
 20
46.05309678462947
 42
1.0
 10
334.3909576912733
 20
46.72619345129615
 42
1.0
 10
334.8341276912734
 20
47.15341678462947
 42
1.0
 72
     4
 94
        3
 73
     1
 74
     0
 95
        8
 96
        4
 40
0.2
 40
0.2
 40
0.2
 40
0.2
 40
0.4
 40
0.4
 40
0.4
 40
0.4
 10
334.8341276912734
 20
47.15341678462947
 42
1.0
 10
335.3441610246066
 20
47.64464345129615
 42
1.0
 10
335.86966435794
 20
47.71532011796281
 42
1.0
 10
336.26707435794
 20
47.31474678462948
 42
1.0
 72
     4
 94
        3
 73
     1
 74
     0
 95
        8
 96
        4
 40
0.4
 40
0.4
 40
0.4
 40
0.4
 40
0.6000000000000001
 40
0.6000000000000001
 40
0.6000000000000001
 40
0.6000000000000001
 10
336.26707435794
 20
47.31474678462948
 42
1.0
 10
336.6676910246067
 20
46.91725011796283
 42
1.0
 10
336.59688435794
 20
46.39187678462949
 42
1.0
 10
336.1057443579401
 20
45.88175678462947
 42
1.0
 97
        0
 75
     0
 76
     1
 98
        1
 10
0.0
 20
0.0
  0
LINE
  5
B7
330
1F
100
AcDbEntity
  8
LAYER_2
 62
    22
100
AcDbLine
 10
329.3633810246
 20
51.3124634513
 30
0.0
 11
337.5549410246
 21
51.3124634513
 31
0.0
  0
LINE
  5
B8
330
1F
100
AcDbEntity
  8
LAYER_1
100
AcDbLine
 10
326.6
 20
60.1594049943
 30
0.0
 11
292.0670608947
 21
60.1594049943
 31
0.0
  0
LINE
  5
B9
330
1F
100
AcDbEntity
  8
LAYER_1
100
AcDbLine
 10
326.6
 20
60.1594049943
 30
0.0
 11
414.5946922531
 21
60.1594049943
 31
0.0
  0
LINE
  5
BA
330
1F
100
AcDbEntity
  8
LAYER_1
100
AcDbLine
 10
410.0
 20
287.0
 30
0.0
 11
410.0
 21
60.1594049943
 31
0.0
  0
LINE
  5
BB
330
1F
100
AcDbEntity
  8
LAYER_2
 62
    22
100
AcDbLine
 10
338.1400276913
 20
50.7273767846
 30
0.0
 11
338.1400276913
 21
44.291250118
 31
0.0
  0
LINE
  5
BC
330
1F
100
AcDbEntity
  8
LAYER_2
 62
    22
100
AcDbLine
 10
338.1400276913
 20
44.291250118
 30
0.0
 11
337.4038376913
 21
44.291250118
 31
0.0
  0
LINE
  5
BD
330
1F
100
AcDbEntity
  8
LAYER_2
 62
    22
100
AcDbLine
 10
334.9812010246
 20
44.291250118
 30
0.0
 11
331.9367310246
 21
44.291250118
 31
0.0
  0
LINE
  5
BE
330
1F
100
AcDbEntity
  8
LAYER_2
 62
    22
100
AcDbLine
 10
329.5163043579
 20
44.291250118
 30
0.0
 11
328.7782943579
 21
44.291250118
 31
0.0
  0
LINE
  5
BF
330
1F
100
AcDbEntity
  8
LAYER_2
 62
    22
100
AcDbLine
 10
328.7782943579
 20
44.291250118
 30
0.0
 11
328.7782943579
 21
50.7273767846
 31
0.0
  0
LINE
  5
C0
330
1F
100
AcDbEntity
  8
LAYER_1
100
AcDbLine
 10
302.4114926113
 20
47.5910362722
 30
0.0
 11
302.4114926113
 21
36.1395934648
 31
0.0
  0
LINE
  5
C1
330
1F
100
AcDbEntity
  8
LAYER_1
100
AcDbLine
 10
396.0272857057
 20
51.8315308646
 30
0.0
 11
396.0272857057
 21
60.230556186
 31
0.0
  0
LINE
  5
C2
330
1F
100
AcDbEntity
  8
LAYER_1
100
AcDbLine
 10
318.1055217366
 20
47.5910362722
 30
0.0
 11
318.1055217366
 21
36.1495721832
 31
0.0
  0
LINE
  5
C3
330
1F
100
AcDbEntity
  8
LAYER_1
100
AcDbLine
 10
292.0670608947
 20
60.1594049943
 30
0.0
 11
292.0670608947
 21
5.0
 31
0.0
  0
LINE
  5
C4
330
1F
100
AcDbEntity
  8
LAYER_1
100
AcDbLine
 10
326.6
 20
60.1594049943
 30
0.0
 11
326.6
 21
5.0
 31
0.0
  0
LINE
  5
C5
330
1F
100
AcDbEntity
  8
LAYER_1
100
AcDbLine
 10
370.8
 20
5.0
 30
0.0
 11
370.8
 21
10.0
 31
0.0
  0
LINE
  5
C6
330
1F
100
AcDbEntity
  8
LAYER_1
100
AcDbLine
 10
373.9638051508
 20
51.8315308646
 30
0.0
 11
373.9638051508
 21
60.25
 31
0.0
  0
LINE
  5
C7
330
1F
100
AcDbEntity
  8
LAYER_1
100
AcDbLine
 10
402.0
 20
9.25
 30
0.0
 11
402.0
 21
22.0
 31
0.0
  0
LINE
  5
C8
330
1F
100
AcDbEntity
  8
LAYER_1
100
AcDbLine
 10
414.5946922531
 20
13.5
 30
0.0
 11
402.0
 21
13.5
 31
0.0
  0
LINE
  5
C9
330
1F
100
AcDbEntity
  8
LAYER_1
100
AcDbLine
 10
326.6
 20
36.1495721832
 30
0.0
 11
292.0670608947
 21
36.1495721832
 31
0.0
  0
LINE
  5
CA
330
1F
100
AcDbEntity
  8
LAYER_1
100
AcDbLine
 10
326.6
 20
47.5910362722
 30
0.0
 11
292.0670608947
 21
47.5910362722
 31
0.0
  0
LINE
  5
CB
330
1F
100
AcDbEntity
  8
LAYER_1
100
AcDbLine
 10
292.0670608947
 20
43.7510178819
 30
0.0
 11
326.6
 21
43.7510178819
 31
0.0
  0
LINE
  5
CC
330
1F
100
AcDbEntity
  8
LAYER_1
100
AcDbLine
 10
292.0670608947
 20
39.9410178819
 30
0.0
 11
326.6
 21
39.9410178819
 31
0.0
  0
LINE
  5
CD
330
1F
100
AcDbEntity
  8
LAYER_1
100
AcDbLine
 10
292.0670608947
 20
17.5195223149
 30
0.0
 11
326.6
 21
17.5195223149
 31
0.0
  0
LINE
  5
CE
330
1F
100
AcDbEntity
  8
LAYER_1
100
AcDbLine
 10
326.6
 20
43.7510178819
 30
0.0
 11
414.5946922531
 21
43.7510178819
 31
0.0
  0
LINE
  5
CF
330
1F
100
AcDbEntity
  8
LAYER_1
100
AcDbLine
 10
414.5946922531
 20
292.0
 30
0.0
 11
5.0
 21
292.0
 31
0.0
  0
LINE
  5
D0
330
1F
100
AcDbEntity
  8
LAYER_1
100
AcDbLine
 10
410.0
 20
287.0
 30
0.0
 11
10.0
 21
287.0
 31
0.0
  0
LINE
  5
D1
330
1F
100
AcDbEntity
  8
LAYER_1
100
AcDbLine
 10
5.0
 20
292.0
 30
0.0
 11
5.0
 21
5.0
 31
0.0
  0
LINE
  5
D2
330
1F
100
AcDbEntity
  8
LAYER_1
100
AcDbLine
 10
10.0
 20
287.0
 30
0.0
 11
10.0
 21
10.0
 31
0.0
  0
LINE
  5
D3
330
1F
100
AcDbEntity
  8
LAYER_1
100
AcDbLine
 10
10.0
 20
48.5
 30
0.0
 11
5.0
 21
48.5
 31
0.0
  0
LINE
  5
D4
330
1F
100
AcDbEntity
  8
LAYER_1
100
AcDbLine
 10
5.0
 20
98.5
 30
0.0
 11
10.0
 21
98.5
 31
0.0
  0
LINE
  5
D5
330
1F
100
AcDbEntity
  8
LAYER_1
100
AcDbLine
 10
5.0
 20
198.5
 30
0.0
 11
10.0
 21
198.5
 31
0.0
  0
LINE
  5
D6
330
1F
100
AcDbEntity
  8
LAYER_1
100
AcDbLine
 10
5.0
 20
148.5
 30
0.0
 11
15.0
 21
148.5
 31
0.0
  0
LINE
  5
D7
330
1F
100
AcDbEntity
  8
LAYER_1
100
AcDbLine
 10
5.0
 20
5.0
 30
0.0
 11
414.5946922531
 21
5.0
 31
0.0
  0
LINE
  5
D8
330
1F
100
AcDbEntity
  8
LAYER_1
100
AcDbLine
 10
10.0
 20
10.0
 30
0.0
 11
227.8
 21
10.0
 31
0.0
  0
LINE
  5
D9
330
1F
100
AcDbEntity
  8
LAYER_1
100
AcDbLine
 10
60.0
 20
5.0
 30
0.0
 11
60.0
 21
10.0
 31
0.0
  0
LINE
  5
DA
330
1F
100
AcDbEntity
  8
LAYER_1
100
AcDbLine
 10
110.0
 20
10.0
 30
0.0
 11
110.0
 21
5.0
 31
0.0
  0
LINE
  5
DB
330
1F
100
AcDbEntity
  8
LAYER_1
100
AcDbLine
 10
160.0
 20
5.0
 30
0.0
 11
160.0
 21
10.0
 31
0.0
  0
LINE
  5
DC
330
1F
100
AcDbEntity
  8
LAYER_1
100
AcDbLine
 10
10.0
 20
248.5
 30
0.0
 11
5.0
 21
248.5
 31
0.0
  0
LINE
  5
DD
330
1F
100
AcDbEntity
  8
LAYER_1
100
AcDbLine
 10
60.0
 20
287.0
 30
0.0
 11
60.0
 21
292.0
 31
0.0
  0
LINE
  5
DE
330
1F
100
AcDbEntity
  8
LAYER_1
100
AcDbLine
 10
110.0
 20
292.0
 30
0.0
 11
110.0
 21
287.0
 31
0.0
  0
LINE
  5
DF
330
1F
100
AcDbEntity
  8
LAYER_1
100
AcDbLine
 10
160.0
 20
287.0
 30
0.0
 11
160.0
 21
292.0
 31
0.0
  0
LINE
  5
E0
330
1F
100
AcDbEntity
  8
LAYER_1
100
AcDbLine
 10
260.0
 20
287.0
 30
0.0
 11
260.0
 21
292.0
 31
0.0
  0
LINE
  5
E1
330
1F
100
AcDbEntity
  8
LAYER_1
100
AcDbLine
 10
414.5946922531
 20
5.0
 30
0.0
 11
414.5946922531
 21
292.0
 31
0.0
  0
LINE
  5
E2
330
1F
100
AcDbEntity
  8
LAYER_1
100
AcDbLine
 10
210.0
 20
5.0
 30
0.0
 11
210.0
 21
15.0
 31
0.0
  0
LINE
  5
E3
330
1F
100
AcDbEntity
  8
LAYER_1
100
AcDbLine
 10
410.0
 20
198.5
 30
0.0
 11
415.0
 21
198.5
 31
0.0
  0
LINE
  5
E4
330
1F
100
AcDbEntity
  8
LAYER_1
100
AcDbLine
 10
410.0
 20
98.5
 30
0.0
 11
415.0
 21
98.5
 31
0.0
  0
LINE
  5
E5
330
1F
100
AcDbEntity
  8
LAYER_1
100
AcDbLine
 10
415.0
 20
148.5
 30
0.0
 11
405.0
 21
148.5
 31
0.0
  0
LINE
  5
E6
330
1F
100
AcDbEntity
  8
LAYER_1
100
AcDbLine
 10
310.0
 20
292.0
 30
0.0
 11
310.0
 21
287.0
 31
0.0
  0
LINE
  5
E7
330
1F
100
AcDbEntity
  8
LAYER_1
100
AcDbLine
 10
360.0
 20
287.0
 30
0.0
 11
360.0
 21
292.0
 31
0.0
  0
LINE
  5
E8
330
1F
100
AcDbEntity
  8
LAYER_1
100
AcDbLine
 10
210.0
 20
292.0
 30
0.0
 11
210.0
 21
282.0
 31
0.0
  0
LINE
  5
E9
330
1F
100
AcDbEntity
  8
LAYER_1
100
AcDbLine
 10
415.0
 20
248.5
 30
0.0
 11
410.0
 21
248.5
 31
0.0
  0
LINE
  5
EA
330
1F
100
AcDbEntity
  8
LAYER_1
100
AcDbLine
 10
414.5946922531
 20
51.8315308646
 30
0.0
 11
326.6
 21
51.8315308646
 31
0.0
  0
LINE
  5
EB
330
1F
100
AcDbEntity
  8
LAYER_1
100
AcDbLine
 10
227.8
 20
10.0
 30
0.0
 11
402.0
 21
10.0
 31
0.0
  0
LINE
  5
EC
330
1F
100
AcDbEntity
  8
LAYER_1
100
AcDbLine
 10
402.0
 20
10.0
 30
0.0
 11
402.0
 21
5.0
 31
0.0
  0
LINE
  5
ED
330
1F
100
AcDbEntity
  8
LAYER_1
100
AcDbLine
 10
326.6
 20
22.0
 30
0.0
 11
414.5946922531
 21
22.0
 31
0.0
  0
LINE
  5
EE
330
1F
100
AcDbEntity
  8
LAYER_1
100
AcDbLine
 10
260.0
 20
10.0
 30
0.0
 11
260.0
 21
5.0
 31
0.0
  0
SPLINE
  5
EF
330
1F
100
AcDbEntity
  8
LAYER_2
 62
    22
100
AcDbSpline
210
0.0
220
0.0
230
1.0
 70
     8
 71
     3
 72
     8
 73
     4
 74
     0
 42
0.00000001
 43
0.00000001
 40
0.0555555555555556
 40
0.0555555555555556
 40
0.0555555555555556
 40
0.0555555555555556
 40
0.1111111111111111
 40
0.1111111111111111
 40
0.1111111111111111
 40
0.1111111111111111
 10
337.5549410246067
 20
51.31246345129614
 30
0.0
 10
337.8771676912734
 20
51.31246345129614
 30
0.0
 10
338.1400276912733
 20
51.04960345129614
 30
0.0
 10
338.1400276912733
 20
50.72737678462948
 30
0.0
  0
SPLINE
  5
F0
330
1F
100
AcDbEntity
  8
LAYER_2
 62
    22
100
AcDbSpline
210
0.0
220
0.0
230
1.0
 70
     8
 71
     3
 72
     8
 73
     4
 74
     0
 42
0.00000001
 43
0.00000001
 40
0.2222222222222222
 40
0.2222222222222222
 40
0.2222222222222222
 40
0.2222222222222222
 40
0.2777777777777778
 40
0.2777777777777778
 40
0.2777777777777778
 40
0.2777777777777778
 10
337.4038376912733
 20
44.2912501179628
 30
0.0
 10
337.4190910246067
 20
44.35915345129614
 30
0.0
 10
337.4268910246067
 20
44.4315201179628
 30
0.0
 10
337.42654435794
 20
44.5087401179628
 30
0.0
  0
SPLINE
  5
F1
330
1F
100
AcDbEntity
  8
LAYER_2
 62
    22
100
AcDbSpline
210
0.0
220
0.0
230
1.0
 70
     8
 71
     3
 72
     8
 73
     4
 74
     0
 42
0.00000001
 43
0.00000001
 40
0.2777777777777778
 40
0.2777777777777778
 40
0.2777777777777778
 40
0.2777777777777778
 40
0.3333333333333334
 40
0.3333333333333334
 40
0.3333333333333334
 40
0.3333333333333334
 10
337.42654435794
 20
44.5087401179628
 30
0.0
 10
337.4287976912734
 20
45.07307011796281
 30
0.0
 10
337.0072076912733
 20
45.3945601179628
 30
0.0
 10
336.29918435794
 20
45.40790678462947
 30
0.0
  0
SPLINE
  5
F2
330
1F
100
AcDbEntity
  8
LAYER_2
 62
    22
100
AcDbSpline
210
0.0
220
0.0
230
1.0
 70
     8
 71
     3
 72
     8
 73
     4
 74
     0
 42
0.00000001
 43
0.00000001
 40
0.3333333333333334
 40
0.3333333333333334
 40
0.3333333333333334
 40
0.3333333333333334
 40
0.388888888888889
 40
0.388888888888889
 40
0.388888888888889
 40
0.388888888888889
 10
336.29918435794
 20
45.40790678462947
 30
0.0
 10
335.6825076912733
 20
45.41934678462948
 30
0.0
 10
335.06977435794
 20
45.0772301179628
 30
0.0
 10
334.9223110246067
 20
44.98904678462947
 30
0.0
  0
SPLINE
  5
F3
330
1F
100
AcDbEntity
  8
LAYER_2
 62
    22
100
AcDbSpline
210
0.0
220
0.0
230
1.0
 70
     8
 71
     3
 72
     8
 73
     4
 74
     0
 42
0.00000001
 43
0.00000001
 40
0.388888888888889
 40
0.388888888888889
 40
0.388888888888889
 40
0.388888888888889
 40
0.4444444444444445
 40
0.4444444444444445
 40
0.4444444444444445
 40
0.4444444444444445
 10
334.9223110246067
 20
44.98904678462947
 30
0.0
 10
334.97097435794
 20
44.83933011796281
 30
0.0
 10
334.9974510246067
 20
44.67964678462947
 30
0.0
 10
334.9974510246067
 20
44.51363678462948
 30
0.0
  0
SPLINE
  5
F4
330
1F
100
AcDbEntity
  8
LAYER_2
 62
    22
100
AcDbSpline
210
0.0
220
0.0
230
1.0
 70
     8
 71
     3
 72
     8
 73
     4
 74
     0
 42
0.00000001
 43
0.00000001
 40
0.4444444444444445
 40
0.4444444444444445
 40
0.4444444444444445
 40
0.4444444444444445
 40
0.5000000000000001
 40
0.5000000000000001
 40
0.5000000000000001
 40
0.5000000000000001
 10
334.9974510246067
 20
44.51363678462948
 30
0.0
 10
334.9974510246067
 20
44.43806345129614
 30
0.0
 10
334.9917310246067
 20
44.36387678462947
 30
0.0
 10
334.9812010246067
 20
44.2912501179628
 30
0.0
  0
SPLINE
  5
F5
330
1F
100
AcDbEntity
  8
LAYER_2
 62
    22
100
AcDbSpline
210
0.0
220
0.0
230
1.0
 70
     8
 71
     3
 72
     8
 73
     4
 74
     0
 42
0.00000001
 43
0.00000001
 40
0.5555555555555557
 40
0.5555555555555557
 40
0.5555555555555557
 40
0.5555555555555557
 40
0.6111111111111113
 40
0.6111111111111113
 40
0.6111111111111113
 40
0.6111111111111113
 10
331.9367310246067
 20
44.2912501179628
 30
0.0
 10
331.9261576912734
 20
44.36387678462947
 30
0.0
 10
331.92078435794
 20
44.43806345129614
 30
0.0
 10
331.92078435794
 20
44.51363678462948
 30
0.0
  0
SPLINE
  5
F6
330
1F
100
AcDbEntity
  8
LAYER_2
 62
    22
100
AcDbSpline
210
0.0
220
0.0
230
1.0
 70
     8
 71
     3
 72
     8
 73
     4
 74
     0
 42
0.00000001
 43
0.00000001
 40
0.6111111111111113
 40
0.6111111111111113
 40
0.6111111111111113
 40
0.6111111111111113
 40
0.6666666666666669
 40
0.6666666666666669
 40
0.6666666666666669
 40
0.6666666666666669
 10
331.92078435794
 20
44.51363678462948
 30
0.0
 10
331.92078435794
 20
44.6826801179628
 30
0.0
 10
331.9481276912733
 20
44.84509345129614
 30
0.0
 10
331.9985676912734
 20
44.99715011796281
 30
0.0
  0
SPLINE
  5
F7
330
1F
100
AcDbEntity
  8
LAYER_2
 62
    22
100
AcDbSpline
210
0.0
220
0.0
230
1.0
 70
     8
 71
     3
 72
     8
 73
     4
 74
     0
 42
0.00000001
 43
0.00000001
 40
0.6666666666666669
 40
0.6666666666666669
 40
0.6666666666666669
 40
0.6666666666666669
 40
0.7222222222222224
 40
0.7222222222222224
 40
0.7222222222222224
 40
0.7222222222222224
 10
331.9985676912734
 20
44.99715011796281
 30
0.0
 10
331.8558276912734
 20
45.08282011796281
 30
0.0
 10
331.2394110246067
 20
45.42905345129613
 30
0.0
 10
330.61896435794
 20
45.41774345129613
 30
0.0
  0
SPLINE
  5
F8
330
1F
100
AcDbEntity
  8
LAYER_2
 62
    22
100
AcDbSpline
210
0.0
220
0.0
230
1.0
 70
     8
 71
     3
 72
     8
 73
     4
 74
     0
 42
0.00000001
 43
0.00000001
 40
0.7222222222222224
 40
0.7222222222222224
 40
0.7222222222222224
 40
0.7222222222222224
 40
0.777777777777778
 40
0.777777777777778
 40
0.777777777777778
 40
0.777777777777778
 10
330.61896435794
 20
45.41774345129613
 30
0.0
 10
329.91098435794
 20
45.40435345129614
 30
0.0
 10
329.4893510246067
 20
45.08282011796281
 30
0.0
 10
329.49160435794
 20
44.51849011796281
 30
0.0
  0
SPLINE
  5
F9
330
1F
100
AcDbEntity
  8
LAYER_2
 62
    22
100
AcDbSpline
210
0.0
220
0.0
230
1.0
 70
     8
 71
     3
 72
     8
 73
     4
 74
     0
 42
0.00000001
 43
0.00000001
 40
0.777777777777778
 40
0.777777777777778
 40
0.777777777777778
 40
0.777777777777778
 40
0.8333333333333336
 40
0.8333333333333336
 40
0.8333333333333336
 40
0.8333333333333336
 10
329.49160435794
 20
44.51849011796281
 30
0.0
 10
329.4913010246067
 20
44.4376301179628
 30
0.0
 10
329.4996210246067
 20
44.36192678462947
 30
0.0
 10
329.51630435794
 20
44.2912501179628
 30
0.0
  0
SPLINE
  5
FA
330
1F
100
AcDbEntity
  8
LAYER_2
 62
    22
100
AcDbSpline
210
0.0
220
0.0
230
1.0
 70
     8
 71
     3
 72
     8
 73
     4
 74
     0
 42
0.00000001
 43
0.00000001
 40
0.9444444444444448
 40
0.9444444444444448
 40
0.9444444444444448
 40
0.9444444444444448
 40
1.0
 40
1.0
 40
1.0
 40
1.0
 10
328.77829435794
 20
50.72737678462948
 30
0.0
 10
328.77829435794
 20
51.04960345129614
 30
0.0
 10
329.0411543579401
 20
51.31246345129614
 30
0.0
 10
329.3633810246067
 20
51.31246345129614
 30
0.0
  0
SPLINE
  5
FB
330
1F
100
AcDbEntity
  8
LAYER_2
 62
    22
100
AcDbSpline
210
0.0
220
0.0
230
1.0
 70
     8
 71
     3
 72
     8
 73
     4
 74
     0
 42
0.00000001
 43
0.00000001
 40
0.0
 40
0.0
 40
0.0
 40
0.0
 40
0.2
 40
0.2
 40
0.2
 40
0.2
 10
332.08783435794
 20
45.21152011796281
 30
0.0
 10
331.91922435794
 20
45.2540301179628
 30
0.0
 10
331.2464310246067
 20
45.44560678462947
 30
0.0
 10
330.8192943579401
 20
45.8886901179628
 30
0.0
  0
SPLINE
  5
FC
330
1F
100
AcDbEntity
  8
LAYER_2
 62
    22
100
AcDbSpline
210
0.0
220
0.0
230
1.0
 70
     8
 71
     3
 72
     8
 73
     4
 74
     0
 42
0.00000001
 43
0.00000001
 40
0.2
 40
0.2
 40
0.2
 40
0.2
 40
0.4
 40
0.4
 40
0.4
 40
0.4
 10
330.8192943579401
 20
45.8886901179628
 30
0.0
 10
330.3280676912734
 20
46.39885345129613
 30
0.0
 10
330.2573476912734
 20
46.92422678462948
 30
0.0
 10
330.6579210246067
 20
47.32176678462947
 30
0.0
  0
SPLINE
  5
FD
330
1F
100
AcDbEntity
  8
LAYER_2
 62
    22
100
AcDbSpline
210
0.0
220
0.0
230
1.0
 70
     8
 71
     3
 72
     8
 73
     4
 74
     0
 42
0.00000001
 43
0.00000001
 40
0.4
 40
0.4
 40
0.4
 40
0.4
 40
0.6000000000000001
 40
0.6000000000000001
 40
0.6000000000000001
 40
0.6000000000000001
 10
330.6579210246067
 20
47.32176678462947
 30
0.0
 10
331.0555910246067
 20
47.72225345129615
 30
0.0
 10
331.5808776912734
 20
47.65153345129613
 30
0.0
 10
332.0909543579401
 20
47.16030678462947
 30
0.0
  0
SPLINE
  5
FE
330
1F
100
AcDbEntity
  8
LAYER_2
 62
    22
100
AcDbSpline
210
0.0
220
0.0
230
1.0
 70
     8
 71
     3
 72
     8
 73
     4
 74
     0
 42
0.00000001
 43
0.00000001
 40
0.6000000000000001
 40
0.6000000000000001
 40
0.6000000000000001
 40
0.6000000000000001
 40
0.8
 40
0.8
 40
0.8
 40
0.8
 10
332.0909543579401
 20
47.16030678462947
 30
0.0
 10
332.53672435794
 20
46.7307001179628
 30
0.0
 10
332.7278676912734
 20
46.05188345129614
 30
0.0
 10
332.7688176912733
 20
45.88856011796281
 30
0.0
  0
SPLINE
  5
FF
330
1F
100
AcDbEntity
  8
LAYER_2
 62
    22
100
AcDbSpline
210
0.0
220
0.0
230
1.0
 70
     8
 71
     3
 72
     8
 73
     4
 74
     0
 42
0.00000001
 43
0.00000001
 40
0.8
 40
0.8
 40
0.8
 40
0.8
 40
1.0
 40
1.0
 40
1.0
 40
1.0
 10
332.7688176912733
 20
45.88856011796281
 30
0.0
 10
332.4760143579401
 20
45.74118345129614
 30
0.0
 10
332.23668435794
 20
45.50332678462947
 30
0.0
 10
332.08783435794
 20
45.21152011796281
 30
0.0
  0
SPLINE
  5
100
330
1F
100
AcDbEntity
  8
LAYER_2
 62
    22
100
AcDbSpline
210
0.0
220
0.0
230
1.0
 70
     8
 71
     3
 72
     8
 73
     4
 74
     0
 42
0.00000001
 43
0.00000001
 40
0.0
 40
0.0
 40
0.0
 40
0.0
 40
0.1666666666666667
 40
0.1666666666666667
 40
0.1666666666666667
 40
0.1666666666666667
 10
332.98353435794
 20
45.97691678462947
 30
0.0
 10
332.8953510246067
 20
46.12438011796281
 30
0.0
 10
332.5534510246067
 20
46.7369401179628
 30
0.0
 10
332.5648476912734
 20
47.35379011796281
 30
0.0
  0
SPLINE
  5
101
330
1F
100
AcDbEntity
  8
LAYER_2
 62
    22
100
AcDbSpline
210
0.0
220
0.0
230
1.0
 70
     8
 71
     3
 72
     8
 73
     4
 74
     0
 42
0.00000001
 43
0.00000001
 40
0.1666666666666667
 40
0.1666666666666667
 40
0.1666666666666667
 40
0.1666666666666667
 40
0.3333333333333333
 40
0.3333333333333333
 40
0.3333333333333333
 40
0.3333333333333333
 10
332.5648476912734
 20
47.35379011796281
 30
0.0
 10
332.57819435794
 20
48.06168345129614
 30
0.0
 10
332.8996410246067
 20
48.48336011796281
 30
0.0
 10
333.4639710246067
 20
48.48115011796281
 30
0.0
  0
SPLINE
  5
102
330
1F
100
AcDbEntity
  8
LAYER_2
 62
    22
100
AcDbSpline
210
0.0
220
0.0
230
1.0
 70
     8
 71
     3
 72
     8
 73
     4
 74
     0
 42
0.00000001
 43
0.00000001
 40
0.3333333333333333
 40
0.3333333333333333
 40
0.3333333333333333
 40
0.3333333333333333
 40
0.5
 40
0.5
 40
0.5
 40
0.5
 10
333.4639710246067
 20
48.48115011796281
 30
0.0
 10
334.0283010246067
 20
48.48336011796281
 30
0.0
 10
334.3497910246067
 20
48.06168345129614
 30
0.0
 10
334.3631376912733
 20
47.35379011796281
 30
0.0
  0
SPLINE
  5
103
330
1F
100
AcDbEntity
  8
LAYER_2
 62
    22
100
AcDbSpline
210
0.0
220
0.0
230
1.0
 70
     8
 71
     3
 72
     8
 73
     4
 74
     0
 42
0.00000001
 43
0.00000001
 40
0.5
 40
0.5
 40
0.5
 40
0.5
 40
0.6666666666666666
 40
0.6666666666666666
 40
0.6666666666666666
 40
0.6666666666666666
 10
334.3631376912733
 20
47.35379011796281
 30
0.0
 10
334.3744910246067
 20
46.73321345129615
 30
0.0
 10
334.0283010246067
 20
46.11675345129615
 30
0.0
 10
333.9428043579401
 20
45.9742301179628
 30
0.0
  0
SPLINE
  5
104
330
1F
100
AcDbEntity
  8
LAYER_2
 62
    22
100
AcDbSpline
210
0.0
220
0.0
230
1.0
 70
     8
 71
     3
 72
     8
 73
     4
 74
     0
 42
0.00000001
 43
0.00000001
 40
0.6666666666666666
 40
0.6666666666666666
 40
0.6666666666666666
 40
0.6666666666666666
 40
0.8333333333333333
 40
0.8333333333333333
 40
0.8333333333333333
 40
0.8333333333333333
 10
333.9428043579401
 20
45.9742301179628
 30
0.0
 10
333.7906610246067
 20
46.0245401179628
 30
0.0
 10
333.6279876912733
 20
46.0519701179628
 30
0.0
 10
333.4591176912734
 20
46.0519701179628
 30
0.0
  0
SPLINE
  5
105
330
1F
100
AcDbEntity
  8
LAYER_2
 62
    22
100
AcDbSpline
210
0.0
220
0.0
230
1.0
 70
     8
 71
     3
 72
     8
 73
     4
 74
     0
 42
0.00000001
 43
0.00000001
 40
0.8333333333333333
 40
0.8333333333333333
 40
0.8333333333333333
 40
0.8333333333333333
 40
1.0
 40
1.0
 40
1.0
 40
1.0
 10
333.4591176912734
 20
46.0519701179628
 30
0.0
 10
333.29319435794
 20
46.0519701179628
 30
0.0
 10
333.1333376912734
 20
46.02562345129614
 30
0.0
 10
332.98353435794
 20
45.97691678462947
 30
0.0
  0
SPLINE
  5
106
330
1F
100
AcDbEntity
  8
LAYER_2
 62
    22
100
AcDbSpline
210
0.0
220
0.0
230
1.0
 70
     8
 71
     3
 72
     8
 73
     4
 74
     0
 42
0.00000001
 43
0.00000001
 40
0.0
 40
0.0
 40
0.0
 40
0.0
 40
0.2
 40
0.2
 40
0.2
 40
0.2
 10
334.1569576912734
 20
45.88470345129614
 30
0.0
 10
334.1993810246067
 20
46.05309678462947
 30
0.0
 10
334.3909576912733
 20
46.72619345129615
 30
0.0
 10
334.8341276912734
 20
47.15341678462947
 30
0.0
  0
SPLINE
  5
107
330
1F
100
AcDbEntity
  8
LAYER_2
 62
    22
100
AcDbSpline
210
0.0
220
0.0
230
1.0
 70
     8
 71
     3
 72
     8
 73
     4
 74
     0
 42
0.00000001
 43
0.00000001
 40
0.2
 40
0.2
 40
0.2
 40
0.2
 40
0.4
 40
0.4
 40
0.4
 40
0.4
 10
334.8341276912734
 20
47.15341678462947
 30
0.0
 10
335.3441610246066
 20
47.64464345129615
 30
0.0
 10
335.86966435794
 20
47.71532011796281
 30
0.0
 10
336.26707435794
 20
47.31474678462948
 30
0.0
  0
SPLINE
  5
108
330
1F
100
AcDbEntity
  8
LAYER_2
 62
    22
100
AcDbSpline
210
0.0
220
0.0
230
1.0
 70
     8
 71
     3
 72
     8
 73
     4
 74
     0
 42
0.00000001
 43
0.00000001
 40
0.4
 40
0.4
 40
0.4
 40
0.4
 40
0.6000000000000001
 40
0.6000000000000001
 40
0.6000000000000001
 40
0.6000000000000001
 10
336.26707435794
 20
47.31474678462948
 30
0.0
 10
336.6676910246067
 20
46.91725011796283
 30
0.0
 10
336.59688435794
 20
46.39187678462949
 30
0.0
 10
336.1057443579401
 20
45.88175678462947
 30
0.0
  0
SPLINE
  5
109
330
1F
100
AcDbEntity
  8
LAYER_2
 62
    22
100
AcDbSpline
210
0.0
220
0.0
230
1.0
 70
     8
 71
     3
 72
     8
 73
     4
 74
     0
 42
0.00000001
 43
0.00000001
 40
0.6000000000000001
 40
0.6000000000000001
 40
0.6000000000000001
 40
0.6000000000000001
 40
0.8
 40
0.8
 40
0.8
 40
0.8
 10
336.1057443579401
 20
45.88175678462947
 30
0.0
 10
335.6760076912734
 20
45.43594345129614
 30
0.0
 10
334.99723435794
 20
45.24475678462947
 30
0.0
 10
334.8340410246067
 20
45.20389345129613
 30
0.0
  0
SPLINE
  5
10A
330
1F
100
AcDbEntity
  8
LAYER_2
 62
    22
100
AcDbSpline
210
0.0
220
0.0
230
1.0
 70
     8
 71
     3
 72
     8
 73
     4
 74
     0
 42
0.00000001
 43
0.00000001
 40
0.8
 40
0.8
 40
0.8
 40
0.8
 40
1.0
 40
1.0
 40
1.0
 40
1.0
 10
334.8340410246067
 20
45.20389345129613
 30
0.0
 10
334.6866643579401
 20
45.49656678462947
 30
0.0
 10
334.4488076912734
 20
45.73585345129614
 30
0.0
 10
334.1569576912734
 20
45.88470345129614
 30
0.0
  0
INSERT
  5
10B
330
1F
100
AcDbEntity
  8
0
  6
Continuous
 62
     7
100
AcDbBlockReference
  2
Block4
 10
339.0438836216
 20
44.3941752369
 30
0.0
 41
0.8
 42
0.8
 43
0.8
  0
INSERT
  5
10C
330
1F
100
AcDbEntity
  8
0
  6
Continuous
 62
     7
100
AcDbBlockReference
  2
Block5
 10
401.9449716881
 20
5.8703766256
 30
0.0
 41
0.8
 42
0.8
 43
0.8
  0
INSERT
  5
10D
330
1F
100
AcDbEntity
  8
0
  6
Continuous
 62
     7
100
AcDbBlockReference
  2
Block6
 10
339.2578110246
 20
46.750720118
 30
0.0
 41
0.9
 42
0.9
 43
0.9
  0
MTEXT
  5
10F
330
1F
100
AcDbEntity
  8
0
  6
Continuous
 62
     7
370
     0
100
AcDbMText
 10
6.6666666667
 20
124.6680204618
 30
0.0
 40
1.8520833333
 41
0.0
 71
     1
 72
     1
  1
D
  7
SLDTEXTSTYLE1
 73
     1
 44
1.0
  0
MTEXT
  5
110
330
1F
100
AcDbEntity
  8
0
  6
Continuous
 62
     7
370
     0
100
AcDbMText
 10
6.6666666667
 20
74.6680204618
 30
0.0
 40
1.8520833333
 41
0.0
 71
     1
 72
     1
  1
E
  7
SLDTEXTSTYLE1
 73
     1
 44
1.0
  0
MTEXT
  5
111
330
1F
100
AcDbEntity
  8
0
  6
Continuous
 62
     7
370
     0
100
AcDbMText
 10
6.6666666667
 20
24.6680204618
 30
0.0
 40
1.8520833333
 41
0.0
 71
     1
 72
     1
  1
F
  7
SLDTEXTSTYLE1
 73
     1
 44
1.0
  0
MTEXT
  5
112
330
1F
100
AcDbEntity
  8
0
  6
Continuous
 62
     7
370
     0
100
AcDbMText
 10
6.6666666667
 20
174.6680204618
 30
0.0
 40
1.8520833333
 41
0.0
 71
     1
 72
     1
  1
C
  7
SLDTEXTSTYLE1
 73
     1
 44
1.0
  0
MTEXT
  5
113
330
1F
100
AcDbEntity
  8
0
  6
Continuous
 62
     7
370
     0
100
AcDbMText
 10
34.5833333333
 20
8.6680244618
 30
0.0
 40
1.8520833333
 41
0.0
 71
     1
 72
     1
  1
1
  7
SLDTEXTSTYLE1
 73
     1
 44
1.0
  0
MTEXT
  5
114
330
1F
100
AcDbEntity
  8
0
  6
Continuous
 62
     7
370
     0
100
AcDbMText
 10
84.1666666667
 20
8.6680244618
 30
0.0
 40
1.8520833333
 41
0.0
 71
     1
 72
     1
  1
2
  7
SLDTEXTSTYLE1
 73
     1
 44
1.0
  0
MTEXT
  5
115
330
1F
100
AcDbEntity
  8
0
  6
Continuous
 62
     7
370
     0
100
AcDbMText
 10
134.1666666667
 20
8.6680244618
 30
0.0
 40
1.8520833333
 41
0.0
 71
     1
 72
     1
  1
3
  7
SLDTEXTSTYLE1
 73
     1
 44
1.0
  0
MTEXT
  5
116
330
1F
100
AcDbEntity
  8
0
  6
Continuous
 62
     7
370
     0
100
AcDbMText
 10
6.6666666667
 20
224.6680204618
 30
0.0
 40
1.8520833333
 41
0.0
 71
     1
 72
     1
  1
B
  7
SLDTEXTSTYLE1
 73
     1
 44
1.0
  0
MTEXT
  5
117
330
1F
100
AcDbEntity
  8
0
  6
Continuous
 62
     7
370
     0
100
AcDbMText
 10
6.6666666667
 20
274.6680204618
 30
0.0
 40
1.8520833333
 41
0.0
 71
     1
 72
     1
  1
A
  7
SLDTEXTSTYLE1
 73
     1
 44
1.0
  0
MTEXT
  5
118
330
1F
100
AcDbEntity
  8
0
  6
Continuous
 62
     7
370
     0
100
AcDbMText
 10
134.1666666667
 20
290.6680244618
 30
0.0
 40
1.8520833333
 41
0.0
 71
     1
 72
     1
  1
3
  7
SLDTEXTSTYLE1
 73
     1
 44
1.0
  0
MTEXT
  5
119
330
1F
100
AcDbEntity
  8
0
  6
Continuous
 62
     7
370
     0
100
AcDbMText
 10
84.1666666667
 20
290.6680244618
 30
0.0
 40
1.8520833333
 41
0.0
 71
     1
 72
     1
  1
2
  7
SLDTEXTSTYLE1
 73
     1
 44
1.0
  0
MTEXT
  5
11A
330
1F
100
AcDbEntity
  8
0
  6
Continuous
 62
     7
370
     0
100
AcDbMText
 10
34.5833333333
 20
290.6680244618
 30
0.0
 40
1.8520833333
 41
0.0
 71
     1
 72
     1
  1
1
  7
SLDTEXTSTYLE1
 73
     1
 44
1.0
  0
MTEXT
  5
11B
330
1F
100
AcDbEntity
  8
0
  6
Continuous
 62
     7
370
     0
100
AcDbMText
 10
411.6666666667
 20
174.6680204618
 30
0.0
 40
1.8520833333
 41
0.0
 71
     1
 72
     1
  1
C
  7
SLDTEXTSTYLE1
 73
     1
 44
1.0
  0
MTEXT
  5
11C
330
1F
100
AcDbEntity
  8
0
  6
Continuous
 62
     7
370
     0
100
AcDbMText
 10
411.6666666667
 20
124.6680204618
 30
0.0
 40
1.8520833333
 41
0.0
 71
     1
 72
     1
  1
D
  7
SLDTEXTSTYLE1
 73
     1
 44
1.0
  0
MTEXT
  5
11D
330
1F
100
AcDbEntity
  8
0
  6
Continuous
 62
     7
370
     0
100
AcDbMText
 10
184.1666666667
 20
290.6680244618
 30
0.0
 40
1.8520833333
 41
0.0
 71
     1
 72
     1
  1
4
  7
SLDTEXTSTYLE1
 73
     1
 44
1.0
  0
MTEXT
  5
11E
330
1F
100
AcDbEntity
  8
0
  6
Continuous
 62
     7
370
     0
100
AcDbMText
 10
284.1666666667
 20
290.6680244618
 30
0.0
 40
1.8520833333
 41
0.0
 71
     1
 72
     1
  1
6
  7
SLDTEXTSTYLE1
 73
     1
 44
1.0
  0
MTEXT
  5
11F
330
1F
100
AcDbEntity
  8
0
  6
Continuous
 62
     7
370
     0
100
AcDbMText
 10
334.1666666667
 20
290.6680244618
 30
0.0
 40
1.8520833333
 41
0.0
 71
     1
 72
     1
  1
7
  7
SLDTEXTSTYLE1
 73
     1
 44
1.0
  0
MTEXT
  5
120
330
1F
100
AcDbEntity
  8
0
  6
Continuous
 62
     7
370
     0
100
AcDbMText
 10
384.1666666667
 20
290.6680244618
 30
0.0
 40
1.8520833333
 41
0.0
 71
     1
 72
     1
  1
8
  7
SLDTEXTSTYLE1
 73
     1
 44
1.0
  0
MTEXT
  5
121
330
1F
100
AcDbEntity
  8
0
  6
Continuous
 62
     7
370
     0
100
AcDbMText
 10
411.6666666667
 20
274.6680204618
 30
0.0
 40
1.8520833333
 41
0.0
 71
     1
 72
     1
  1
A
  7
SLDTEXTSTYLE1
 73
     1
 44
1.0
  0
MTEXT
  5
122
330
1F
100
AcDbEntity
  8
0
  6
Continuous
 62
     7
370
     0
100
AcDbMText
 10
411.6666666667
 20
224.6680204618
 30
0.0
 40
1.8520833333
 41
0.0
 71
     1
 72
     1
  1
B
  7
SLDTEXTSTYLE1
 73
     1
 44
1.0
  0
MTEXT
  5
124
330
1F
100
AcDbEntity
  8
LAYER_1
100
AcDbMText
 10
368.5677766812
 20
35.1806843852
 30
0.0
 40
4.2333333333
 41
0.0
 71
     2
 72
     1
  1
IP-65 Contal Kutu
  7
SLDTEXTSTYLE2
 73
     1
 44
1.0
  0
MTEXT
  5
125
330
1F
100
AcDbEntity
  8
LAYER_1
100
AcDbMText
 10
368.3982456894
 20
19.3492325897
 30
0.0
 40
4.7625
 41
0.0
 71
     2
 72
     1
  1
SE-218-0-0-D-0
  7
SLDTEXTSTYLE1
 73
     1
 44
1.0
  0
MTEXT
  5
126
330
1F
100
AcDbEntity
  8
LAYER_1
100
AcDbMText
 10
294.9152624882
 20
8.4515707661
 30
0.0
 40
1.3229166667
 41
0.0
 71
     1
 72
     1
  1
WEIGHT:
  7
SLDTEXTSTYLE1
 73
     1
 44
1.0
  0
MTEXT
  5
127
330
1F
100
AcDbEntity
  8
0
  6
Continuous
 62
     7
370
     0
100
AcDbMText
 10
405.9209848464
 20
19.3004443947
 30
0.0
 40
2.9104166667
 41
0.0
 71
     1
 72
     1
  1
A3
  7
SLDTEXTSTYLE1
 73
     1
 44
1.0
  0
MTEXT
  5
128
330
1F
100
AcDbEntity
  8
LAYER_1
100
AcDbMText
 10
372.2782944278
 20
7.9000873327
 30
0.0
 40
1.5
 41
0.0
 71
     1
 72
     1
  1
SHEET  OF
  7
SLDTEXTSTYLE1
 73
     1
 44
1.0
  0
MTEXT
  5
129
330
1F
100
AcDbEntity
  8
LAYER_1
100
AcDbMText
 10
327.5554933472
 20
8.0098351215
 30
0.0
 40
1.3229166667
 41
0.0
 71
     1
 72
     1
  1
SCALE: 1:1
  7
SLDTEXTSTYLE1
 73
     1
 44
1.0
  0
MTEXT
  5
12A
330
1F
100
AcDbEntity
  8
0
  6
Continuous
 62
     7
370
     0
100
AcDbMText
 10
327.5554933472
 20
19.978385674
 30
0.0
 40
1.3229166667
 41
0.0
 71
     1
 72
     1
  1
DWG NO.
  7
SLDTEXTSTYLE1
 73
     1
 44
1.0
  0
MTEXT
  5
12B
330
1F
100
AcDbEntity
  8
0
  6
Continuous
 62
     7
370
     0
100
AcDbMText
 10
327.4377141664
 20
41.388082133
 30
0.0
 40
1.3229166667
 41
0.0
 71
     1
 72
     1
  1
TITLE:
  7
SLDTEXTSTYLE1
 73
     1
 44
1.0
  0
MTEXT
  5
12C
330
1F
100
AcDbEntity
  8
0
  6
Continuous
 62
     7
370
     0
100
AcDbMText
 10
292.8255040846
 20
16.9867649068
 30
0.0
 40
1.3229166667
 41
0.0
 71
     1
 72
     1
  1
MATERIAL:
  7
SLDTEXTSTYLE1
 73
     1
 44
1.0
  0
MTEXT
  5
12D
330
1F
100
AcDbEntity
  8
0
  6
Continuous
 62
     7
370
     0
100
AcDbMText
 10
184.1666666667
 20
8.6680244618
 30
0.0
 40
1.8520833333
 41
0.0
 71
     1
 72
     1
  1
4
  7
SLDTEXTSTYLE1
 73
     1
 44
1.0
  0
MTEXT
  5
12E
330
1F
100
AcDbEntity
  8
0
  6
Continuous
 62
     7
370
     0
100
AcDbMText
 10
373.1782835779
 20
46.9640424121
 30
0.0
 40
2.38125
 41
0.0
 71
     1
 72
     1
  1
www.altinkaya.com.tr
  7
SLDTEXTSTYLE0
 73
     1
 44
1.0
  0
MTEXT
  5
12F
330
1F
100
AcDbEntity
  8
0
  6
Continuous
 62
     7
370
     0
100
AcDbMText
 10
373.3794022408
 20
50.2302815293
 30
0.0
 40
1.5
 41
0.0
 71
     1
 72
     1
  1
CONTACT:
  7
SLDTEXTSTYLE1
 73
     1
 44
1.0
  0
MTEXT
  5
130
330
1F
100
AcDbEntity
  8
0
  6
Continuous
 62
     7
370
     0
100
AcDbMText
 10
235.0964722989
 20
8.6680244618
 30
0.0
 40
1.8520833333
 41
0.0
 71
     1
 72
     1
  1
5
  7
SLDTEXTSTYLE1
 73
     1
 44
1.0
  0
MTEXT
  5
131
330
1F
100
AcDbEntity
  8
0
  6
Continuous
 62
     7
370
     0
100
AcDbMText
 10
397.4884718323
 20
59.2425287544
 30
0.0
 40
1.5
 41
0.0
 71
     1
 72
     1
  1
REVISION:
  7
SLDTEXTSTYLE1
 73
     1
 44
1.0
  0
MTEXT
  5
132
330
1F
100
AcDbEntity
  8
0
  6
Continuous
 62
     7
370
     0
100
AcDbMText
 10
327.3721757467
 20
59.0727632777
 30
0.0
 40
1.3229166667
 41
0.0
 71
     1
 72
     1
  1
ARTICLE NO:
  7
SLDTEXTSTYLE1
 73
     1
 44
1.0
  0
MTEXT
  5
133
330
1F
100
AcDbEntity
  8
0
  6
Continuous
 62
     7
370
     0
100
AcDbMText
 10
236.9750950622
 20
290.6138672109
 30
0.0
 40
1.8520833333
 41
0.0
 71
     1
 72
     1
  1
5
  7
SLDTEXTSTYLE1
 73
     1
 44
1.0
  0
MTEXT
  5
134
330
1F
100
AcDbEntity
  8
0
  6
Continuous
 62
     7
370
     0
100
AcDbMText
 10
307.6157438424
 20
45.9955605234
 30
0.0
 40
1.3229166667
 41
0.0
 71
     1
 72
     1
  1
NAME
  7
SLDTEXTSTYLE1
 73
     1
 44
1.0
  0
MTEXT
  5
135
330
1F
100
AcDbEntity
  8
0
  6
Continuous
 62
     7
370
     0
100
AcDbMText
 10
320.2640892495
 20
45.9955605234
 30
0.0
 40
1.3229166667
 41
0.0
 71
     1
 72
     1
  1
DATE
  7
SLDTEXTSTYLE1
 73
     1
 44
1.0
  0
MTEXT
  5
136
330
1F
100
AcDbEntity
  8
0
  6
Continuous
 62
     7
370
     0
100
AcDbMText
 10
293.042558421
 20
42.3020796844
 30
0.0
 40
1.3229166667
 41
0.0
 71
     1
 72
     1
  1
DRAWN
  7
SLDTEXTSTYLE1
 73
     1
 44
1.0
  0
MTEXT
  5
137
330
1F
100
AcDbEntity
  8
0
  6
Continuous
 62
     7
370
     0
100
AcDbMText
 10
293.1033805725
 20
38.244148871
 30
0.0
 40
1.3229166667
 41
0.0
 71
     1
 72
     1
  1
CHECKED
  7
SLDTEXTSTYLE1
 73
     1
 44
1.0
  0
MTEXT
  5
138
330
1F
100
AcDbEntity
  8
0
  6
Continuous
 62
     7
370
     0
100
AcDbMText
 10
293.069897002
 20
34.976002235
 30
0.0
 40
1.3229166667
 41
0.0
 71
     1
 72
     1
  1
COMMENTS:
  7
SLDTEXTSTYLE1
 73
     1
 44
1.0
  0
MTEXT
  5
139
330
1F
100
AcDbEntity
  8
0
  6
Continuous
 62
     7
370
     0
100
AcDbMText
 10
322.9051662188
 20
38.9372411461
 30
0.0
 40
1.3229166667
 41
0.0
 71
     2
 72
     1
  1
01.06.11
  7
SLDTEXTSTYLE1
 73
     1
 44
1.0
  0
MTEXT
  5
13A
330
1F
100
AcDbEntity
  8
0
  6
Continuous
 62
     7
370
     0
100
AcDbMText
 10
322.7606000737
 20
42.654287534
 30
0.0
 40
1.3229166667
 41
0.0
 71
     2
 72
     1
  1
01.06.11
  7
SLDTEXTSTYLE1
 73
     1
 44
1.0
  0
MTEXT
  5
13B
330
1F
100
AcDbEntity
  8
0
  6
Continuous
 62
     7
370
     0
100
AcDbMText
 10
310.9114171636
 20
42.3020796844
 30
0.0
 40
1.3229166667
 41
0.0
 71
     2
 72
     1
  1
Dursun Dademir
  7
SLDTEXTSTYLE2
 73
     1
 44
1.0
  0
MTEXT
  5
13C
330
1F
100
AcDbEntity
  8
0
  6
Continuous
 62
     7
370
     0
100
AcDbMText
 10
310.9112634581
 20
38.2441489001
 30
0.0
 40
1.3229166667
 41
0.0
 71
     2
 72
     1
  1
Ali Altnk
  7
SLDTEXTSTYLE2
 73
     1
 44
1.0
  0
MTEXT
  5
13D
330
1F
100
AcDbEntity
  8
0
  6
Continuous
 62
     7
370
     0
100
AcDbMText
 10
294.4686282226
 20
58.7735961661
 30
0.0
 40
1.0583333333
 41
0.0
 71
     1
 72
     1
  1
PROPRIETARY AND CONFIDENTIAL
  7
SLDTEXTSTYLE1
 73
     1
 44
1.0
  0
INSERT
  5
147
330
1F
100
AcDbEntity
  8
0
  6
Continuous
 62
     7
370
     0
100
AcDbBlockReference
  2
SW_NOTE_0
 10
294.6856505969
 20
55.4572814459
 30
0.0
  0
MTEXT
  5
148
330
1F
100
AcDbEntity
  8
0
  6
Continuous
 62
     7
370
     0
100
AcDbMText
 10
284.3493443358
 20
8.9837718797
 30
0.0
 40
1.8520833333
 41
0.0
 71
     1
 72
     1
  1
6
  7
SLDTEXTSTYLE1
 73
     1
 44
1.0
  0
LINE
  5
149
330
1F
100
AcDbEntity
  8
0
  6
Continuous
 62
     7
370
    15
100
AcDbLine
 10
133.2448018592
 20
203.0808380334
 30
0.0
 11
132.8511029359
 21
207.5808397023
 31
0.0
  0
LINE
  5
14A
330
1F
100
AcDbEntity
  8
0
  6
Continuous
 62
     7
370
    15
100
AcDbLine
 10
124.1385010879
 20
207.5808397023
 30
0.0
 11
123.7448021647
 21
203.0808380334
 31
0.0
  0
LINE
  5
14B
330
1F
100
AcDbEntity
  8
0
  6
Continuous
 62
     7
370
    15
100
AcDbLine
 10
133.9885011192
 20
207.5808397023
 30
0.0
 11
133.5948021959
 21
203.0808380334
 31
0.0
  0
LINE
  5
14C
330
1F
100
AcDbEntity
  8
0
  6
Continuous
 62
     7
370
    15
100
AcDbLine
 10
141.3948019843
 20
203.0808380334
 30
0.0
 11
141.0011021297
 21
207.5808397023
 31
0.0
  0
LINE
  5
14D
330
1F
100
AcDbEntity
  8
0
  6
Continuous
 62
     7
370
    15
100
AcDbLine
 10
75.8588971447
 20
254.2635597749
 30
0.0
 11
75.4927458119
 21
240.2808381705
 31
0.0
  0
LINE
  5
14E
330
1F
100
AcDbEntity
  8
0
  6
Continuous
 62
     7
370
    15
100
AcDbLine
 10
118.022944859
 20
254.2635597749
 30
0.0
 11
75.8588971447
 21
254.2635597749
 31
0.0
  0
LINE
  5
14F
330
1F
100
AcDbEntity
  8
0
  6
Continuous
 62
     7
370
    15
100
AcDbLine
 10
75.4927458119
 20
240.2808381705
 30
0.0
 11
120.1056770741
 21
240.2808381705
 31
0.0
  0
SPLINE
  5
150
330
1F
100
AcDbEntity
  8
0
  6
Continuous
 62
     7
370
    15
100
AcDbSpline
210
0.0
220
0.0
230
1.0
 70
     8
 71
     3
 72
    14
 73
    10
 74
     0
 42
0.00000001
 43
0.00000001
 40
0.0
 40
0.0
 40
0.0
 40
0.0
 40
0.200274460045467
 40
0.4005125066692934
 40
0.5351795409713189
 40
0.6698864118264721
 40
0.8043165710169096
 40
0.9017537249921154
 40
1.0
 40
1.0
 40
1.0
 40
1.0
 10
120.1056770740921
 20
240.280838170466
 30
0.0
 10
119.8575782267991
 20
241.1984169887288
 30
0.0
 10
119.36142564095
 20
243.0334077932758
 30
0.0
 10
118.7379293187623
 20
245.4962683328413
 30
0.0
 10
118.2776765411503
 20
247.6776305177889
 30
0.0
 10
117.9793553581826
 20
249.5723216242935
 30
0.0
 10
117.8440706301981
 20
251.3084916603797
 30
0.0
 10
117.8471614815459
 20
252.878405796958
 30
0.0
 10
117.9641891027698
 20
253.8005707785424
 30
0.0
 10
118.0229448590341
 20
254.2635597748729
 30
0.0
  0
LINE
  5
151
330
1F
100
AcDbEntity
  8
0
  6
Continuous
 62
     7
370
    15
100
AcDbLine
 10
69.4948011886
 20
240.2808381705
 30
0.0
 11
69.8609525215
 21
254.2635597749
 31
0.0
  0
ELLIPSE
  5
152
330
1F
100
AcDbEntity
  8
0
  6
Continuous
 62
     7
370
    15
100
AcDbEllipse
 10
75.8621522945
 20
254.2308381705
 30
0.0
 11
6.001199978987117
 21
-0.03271749117530476
 31
0.0
210
0.0
220
0.0
230
0.9999999999999999
 40
0.0054493214
 41
1.571368588841556
 42
3.14147968296259
  0
LINE
  5
153
330
1F
100
AcDbEntity
  8
0
  6
Continuous
 62
     7
370
    15
100
AcDbLine
 10
75.4927458119
 20
240.2808381705
 30
0.0
 11
69.4948011886
 21
240.2808381705
 31
0.0
  0
LINE
  5
154
330
1F
100
AcDbEntity
  8
0
  6
Continuous
 62
     7
370
    15
100
AcDbLine
 10
75.8588971447
 20
255.4808384268
 30
0.0
 11
75.8588971447
 21
254.2635597749
 31
0.0
  0
LINE
  5
155
330
1F
100
AcDbEntity
  8
0
  6
Continuous
 62
     7
370
    15
100
AcDbLine
 10
75.8588971447
 20
255.4808384268
 30
0.0
 11
118.2849382393
 21
255.4808384268
 31
0.0
  0
SPLINE
  5
156
330
1F
100
AcDbEntity
  8
0
  6
Continuous
 62
     7
370
    15
100
AcDbSpline
210
0.0
220
0.0
230
1.0
 70
     8
 71
     3
 72
    12
 73
     8
 74
     0
 42
0.00000001
 43
0.00000001
 40
0.0
 40
0.0
 40
0.0
 40
0.0
 40
0.210995396728561
 40
0.4218425952979981
 40
0.6367258136372106
 40
0.8578446372960132
 40
1.0
 40
1.0
 40
1.0
 40
1.0
 10
118.2849382392975
 20
255.480838426766
 30
0.0
 10
118.2812743584601
 20
255.4676162043464
 30
0.0
 10
118.2739491702083
 20
255.4411810464824
 30
0.0
 10
118.2197602818848
 20
255.2357830275885
 30
0.0
 10
118.1474834289637
 20
254.9301955275301
 30
0.0
 10
118.0769129199279
 20
254.5861605538303
 30
0.0
 10
118.03812372874
 20
254.3542933515424
 30
0.0
 10
118.0229448590341
 20
254.2635597748729
 30
0.0
  0
LINE
  5
157
330
1F
100
AcDbEntity
  8
0
  6
Continuous
 62
     7
370
    15
100
AcDbLine
 10
71.110522921
 20
255.4808384268
 30
0.0
 11
75.8588971447
 21
255.4808384268
 31
0.0
  0
ARC
  5
158
330
1F
100
AcDbEntity
  8
0
  6
Continuous
 62
     7
370
    15
100
AcDbCircle
 10
71.1105240302
 20
254.2308381705
 30
0.0
 40
1.249999999999983
100
AcDbArc
 50
90.0
 51
178.5
  0
LINE
  5
159
330
1F
100
AcDbEntity
  8
0
  6
Continuous
 62
     7
370
    15
100
AcDbLine
 10
161.9948023807
 20
254.5308381779
 30
0.0
 11
161.9948023807
 21
255.4808384268
 31
0.0
  0
ARC
  5
15A
330
1F
100
AcDbEntity
  8
0
  6
Continuous
 62
     7
370
    15
100
AcDbCircle
 10
167.8790798372
 20
254.2308381705
 30
0.0
 40
1.249999999999997
100
AcDbArc
 50
1.5
 51
90.0
  0
LINE
  5
15B
330
1F
100
AcDbEntity
  8
0
  6
Continuous
 62
     7
370
    15
100
AcDbLine
 10
164.7448005032
 20
240.2808381705
 30
0.0
 11
164.4541384529
 21
251.380837941
 31
0.0
  0
LINE
  5
15C
330
1F
100
AcDbEntity
  8
0
  6
Continuous
 62
     7
370
    15
100
AcDbLine
 10
167.9448025178
 20
240.2808381705
 30
0.0
 11
167.8858833264
 21
242.5308380736
 31
0.0
  0
LINE
  5
15D
330
1F
100
AcDbEntity
  8
0
  6
Continuous
 62
     7
370
    15
100
AcDbLine
 10
169.1286513459
 20
254.2635597749
 30
0.0
 11
169.4948026787
 21
240.2808381705
 31
0.0
  0
LINE
  5
15E
330
1F
100
AcDbEntity
  8
0
  6
Continuous
 62
     7
370
    15
100
AcDbLine
 10
165.7448025297
 20
240.2808381705
 30
0.0
 11
165.8037217211
 21
242.5308380736
 31
0.0
  0
LINE
  5
15F
330
1F
100
AcDbEntity
  8
0
  6
Continuous
 62
     7
370
    15
100
AcDbLine
 10
161.9948023807
 20
254.5308381779
 30
0.0
 11
118.0688695393
 21
254.5308381779
 31
0.0
  0
LINE
  5
160
330
1F
100
AcDbEntity
  8
0
  6
Continuous
 62
     7
370
    15
100
AcDbLine
 10
117.8632630844
 20
251.380837941
 30
0.0
 11
164.4541384529
 21
251.380837941
 31
0.0
  0
LINE
  5
161
330
1F
100
AcDbEntity
  8
0
  6
Continuous
 62
     7
370
    15
100
AcDbLine
 10
165.7448025297
 20
240.2808381705
 30
0.0
 11
164.7448005032
 21
240.2808381705
 31
0.0
  0
LINE
  5
162
330
1F
100
AcDbEntity
  8
0
  6
Continuous
 62
     7
370
    15
100
AcDbLine
 10
167.8790809464
 20
255.4808384268
 30
0.0
 11
161.9948023807
 21
255.4808384268
 31
0.0
  0
LINE
  5
163
330
1F
100
AcDbEntity
  8
0
  6
Continuous
 62
     7
370
    15
100
AcDbLine
 10
167.8858833264
 20
242.5308380736
 30
0.0
 11
165.8037217211
 21
242.5308380736
 31
0.0
  0
LINE
  5
164
330
1F
100
AcDbEntity
  8
0
  6
Continuous
 62
     7
370
    15
100
AcDbLine
 10
169.4948026787
 20
240.2808381705
 30
0.0
 11
167.9448025178
 21
240.2808381705
 31
0.0
  0
LINE
  5
165
330
1F
100
AcDbEntity
  8
0
  6
Continuous
 62
     7
370
    15
100
AcDbLine
 10
163.2453152787
 20
240.2808381705
 30
0.0
 11
162.9546532284
 21
251.380837941
 31
0.0
  0
LINE
  5
166
330
1F
100
AcDbEntity
  8
0
  6
Continuous
 62
     7
370
    15
100
AcDbLine
 10
164.7448005032
 20
240.2808381705
 30
0.0
 11
163.2453152787
 21
240.2808381705
 31
0.0
  0
LINE
  5
167
330
1F
100
AcDbEntity
  8
0
  6
Continuous
 62
     7
370
    15
100
AcDbLine
 10
150.7017394405
 20
251.380837941
 30
0.0
 11
150.9924033534
 21
240.2808381705
 31
0.0
  0
LINE
  5
168
330
1F
100
AcDbEntity
  8
0
  6
Continuous
 62
     7
370
    15
100
AcDbLine
 10
143.9948012929
 20
240.2808381705
 30
0.0
 11
143.70413738
 21
251.380837941
 31
0.0
  0
LINE
  5
169
330
1F
100
AcDbEntity
  8
0
  6
Continuous
 62
     7
370
    15
100
AcDbLine
 10
150.9924033534
 20
240.2808381705
 30
0.0
 11
143.9948012929
 21
240.2808381705
 31
0.0
  0
LINE
  5
16A
330
1F
100
AcDbEntity
  8
0
  6
Continuous
 62
     7
370
    15
100
AcDbLine
 10
150.9924033534
 20
240.2808381705
 30
0.0
 11
163.2453152787
 21
240.2808381705
 31
0.0
  0
LINE
  5
16B
330
1F
100
AcDbEntity
  8
0
  6
Continuous
 62
     7
370
    15
100
AcDbLine
 10
161.9948023807
 20
255.4808384268
 30
0.0
 11
118.2849382393
 21
255.4808384268
 31
0.0
  0
LINE
  5
16C
330
1F
100
AcDbEntity
  8
0
  6
Continuous
 62
     7
370
    15
100
AcDbLine
 10
142.4953160684
 20
240.2808381705
 30
0.0
 11
142.2046521556
 21
251.380837941
 31
0.0
  0
LINE
  5
16D
330
1F
100
AcDbEntity
  8
0
  6
Continuous
 62
     7
370
    15
100
AcDbLine
 10
143.9948012929
 20
240.2808381705
 30
0.0
 11
142.4953160684
 21
240.2808381705
 31
0.0
  0
LINE
  5
16E
330
1F
100
AcDbEntity
  8
0
  6
Continuous
 62
     7
370
    15
100
AcDbLine
 10
120.1056770741
 20
240.2808381705
 30
0.0
 11
142.4953160684
 21
240.2808381705
 31
0.0
  0
LINE
  5
16F
330
1F
100
AcDbEntity
  8
0
  6
Continuous
 62
     7
370
    15
100
AcDbLine
 10
76.1801773559
 20
200.963386753
 30
0.0
 11
121.0896799683
 21
200.963386753
 31
0.0
  0
LINE
  5
170
330
1F
100
AcDbEntity
  8
0
  6
Continuous
 62
     7
370
    15
100
AcDbLine
 10
75.511342461
 20
239.280838123
 30
0.0
 11
76.1801773559
 21
200.963386753
 31
0.0
  0
LINE
  5
171
330
1F
100
AcDbEntity
  8
0
  6
Continuous
 62
     7
370
    15
100
AcDbLine
 10
75.511342461
 20
239.280838123
 30
0.0
 11
120.3704253647
 21
239.280838123
 31
0.0
  0
SPLINE
  5
172
330
1F
100
AcDbEntity
  8
0
  6
Continuous
 62
     7
370
    15
100
AcDbSpline
210
0.0
220
0.0
230
1.0
 70
     8
 71
     3
 72
    32
 73
    28
 74
     0
 42
0.00000001
 43
0.00000001
 40
0.0
 40
0.0
 40
0.0
 40
0.0
 40
0.125
 40
0.125
 40
0.2500000000000001
 40
0.2500000000000001
 40
0.2812500000000001
 40
0.2812500000000001
 40
0.3125000000000002
 40
0.3125000000000002
 40
0.3750000000000003
 40
0.3750000000000003
 40
0.5000000000000002
 40
0.5000000000000002
 40
0.6249999999999999
 40
0.6249999999999999
 40
0.6874999999999999
 40
0.6874999999999999
 40
0.7499999999999999
 40
0.7499999999999999
 40
0.8125
 40
0.8125
 40
0.875
 40
0.875
 40
0.9375
 40
0.9375
 40
1.0
 40
1.0
 40
1.0
 40
1.0
 10
120.3704253559968
 20
239.280838170466
 30
0.0
 10
120.7845686095631
 20
237.698731730787
 30
0.0
 10
121.1736150314397
 20
236.1128188621852
 30
0.0
 10
121.7692901673572
 20
232.9133258860367
 30
0.0
 10
121.9781256824665
 20
231.300080483345
 30
0.0
 10
122.0118954952715
 20
229.2490530625463
 30
0.0
 10
122.0070028498148
 20
228.836162806452
 30
0.0
 10
121.9700940765147
 20
228.0103529558369
 30
0.0
 10
121.9378741946234
 20
227.6001096290826
 30
0.0
 10
121.8054219002745
 20
226.3763002615738
 30
0.0
 10
121.6696733688348
 20
225.5696013657526
 30
0.0
 10
121.1676998237801
 20
223.1678206031586
 30
0.0
 10
120.7068197606364
 20
221.590930556157
 30
0.0
 10
119.7799228102255
 20
218.4387243886032
 30
0.0
 10
119.3132634293446
 20
216.8633352067308
 30
0.0
 10
118.7945480798329
 20
214.4599476479189
 30
0.0
 10
118.6519350941275
 20
213.652083411774
 30
0.0
 10
118.4603403007061
 20
212.0155373001528
 30
0.0
 10
118.4126587557506
 20
211.1820408867301
 30
0.0
 10
118.4403094010576
 20
209.5383723499257
 30
0.0
 10
118.5114911843505
 20
208.7232852733459
 30
0.0
 10
118.7564111340758
 20
207.1051754557805
 30
0.0
 10
118.9302190815512
 20
206.3021609235664
 30
0.0
 10
119.3806648290795
 20
204.7082283646176
 30
0.0
 10
119.6542857023454
 20
203.9286312312236
 30
0.0
 10
120.2967299524166
 20
202.4136558206597
 30
0.0
 10
120.6658314449523
 20
201.6767523831204
 30
0.0
 10
121.0896799896704
 20
200.9633857640287
 30
0.0
  0
ELLIPSE
  5
173
330
1F
100
AcDbEntity
  8
0
  6
Continuous
 62
     7
370
    15
100
AcDbEllipse
 10
76.1816999536
 20
200.9808381705
 30
0.0
 11
6.000609342889304
 21
0.01745166849536872
 31
0.0
210
0.0
220
0.0
230
1.0
 40
0.0029076763
 41
3.14163494868647
 42
4.712126688979442
  0
LINE
  5
174
330
1F
100
AcDbEntity
  8
0
  6
Continuous
 62
     7
370
    15
100
AcDbLine
 10
70.1810890686
 20
200.963386753
 30
0.0
 11
69.512257899
 21
239.280838123
 31
0.0
  0
LINE
  5
175
330
1F
100
AcDbEntity
  8
0
  6
Continuous
 62
     7
370
    15
100
AcDbLine
 10
69.512257899
 20
239.280838123
 30
0.0
 11
75.511342461
 21
239.280838123
 31
0.0
  0
LINE
  5
176
330
1F
100
AcDbEntity
  8
0
  6
Continuous
 62
     7
370
    15
100
AcDbLine
 10
75.493889476
 20
239.280838123
 30
0.0
 11
75.493889476
 21
240.2808381705
 31
0.0
  0
LINE
  5
177
330
1F
100
AcDbEntity
  8
0
  6
Continuous
 62
     7
370
    15
100
AcDbLine
 10
69.9948022019
 20
239.280838123
 30
0.0
 11
69.9948022019
 21
240.2808381705
 31
0.0
  0
SPLINE
  5
178
330
1F
100
AcDbEntity
  8
0
  6
Continuous
 62
     7
370
    15
100
AcDbSpline
210
0.0
220
0.0
230
1.0
 70
     8
 71
     3
 72
     8
 73
     4
 74
     0
 42
0.00000001
 43
0.00000001
 40
0.0663856262797771
 40
0.0663856262797771
 40
0.0663856262797771
 40
0.0663856262797771
 40
0.0704305011837698
 40
0.0704305011837698
 40
0.0704305011837698
 40
0.0704305011837698
 10
120.1056770560979
 20
240.2808381704662
 30
0.0
 10
120.1945771385762
 20
239.9480327836255
 30
0.0
 10
120.2830456234583
 20
239.6146454614363
 30
0.0
 10
120.3704253559968
 20
239.280838170466
 30
0.0
  0
LINE
  5
179
330
1F
100
AcDbEntity
  8
0
  6
Continuous
 62
     7
370
    15
100
AcDbLine
 10
121.7205148067
 20
199.9808377115
 30
0.0
 11
76.1801773559
 21
199.9808377115
 31
0.0
  0
LINE
  5
17A
330
1F
100
AcDbEntity
  8
0
  6
Continuous
 62
     7
370
    15
100
AcDbLine
 10
76.1801773559
 20
199.9808377115
 30
0.0
 11
76.1801773559
 21
200.963386753
 31
0.0
  0
SPLINE
  5
17B
330
1F
100
AcDbEntity
  8
0
  6
Continuous
 62
     7
370
    15
100
AcDbSpline
210
0.0
220
0.0
230
1.0
 70
     8
 71
     3
 72
    14
 73
    10
 74
     0
 42
0.00000001
 43
0.00000001
 40
0.0
 40
0.0
 40
0.0
 40
0.0
 40
0.25
 40
0.25
 40
0.5
 40
0.5
 40
0.75
 40
0.75
 40
1.0
 40
1.0
 40
1.0
 40
1.0
 10
121.0896799896704
 20
200.9633857640287
 30
0.0
 10
121.162617823317
 20
200.8406263103495
 30
0.0
 10
121.2347661014524
 20
200.7226607561075
 30
0.0
 10
121.3770693353824
 20
200.495906659938
 30
0.0
 10
121.4459812409636
 20
200.3892182282042
 30
0.0
 10
121.5681542558801
 20
200.203875931242
 30
0.0
 10
121.62209596771
 20
200.1241691739836
 30
0.0
 10
121.6988816431425
 20
200.0118618334166
 30
0.0
 10
121.7205147815469
 20
199.980838170466
 30
0.0
 10
121.7205147815469
 20
199.980838170466
 30
0.0
  0
LINE
  5
17C
330
1F
100
AcDbEntity
  8
0
  6
Continuous
 62
     7
370
    15
100
AcDbLine
 10
76.1801773559
 20
199.9808377115
 30
0.0
 11
71.1809383582
 21
199.9808377115
 31
0.0
  0
ARC
  5
17D
330
1F
100
AcDbEntity
  8
0
  6
Continuous
 62
     7
370
    15
100
AcDbCircle
 10
71.1809383134
 20
200.9808381705
 30
0.0
 40
1.0
100
AcDbArc
 50
181.0
 51
270.0
  0
LINE
  5
17E
330
1F
100
AcDbEntity
  8
0
  6
Continuous
 62
     7
370
    15
100
AcDbLine
 10
160.8448015403
 20
203.0808380334
 30
0.0
 11
160.8448015403
 21
207.5808397023
 31
0.0
  0
LINE
  5
17F
330
1F
100
AcDbEntity
  8
0
  6
Continuous
 62
     7
370
    15
100
AcDbLine
 10
158.6448015522
 20
207.5808397023
 30
0.0
 11
158.6448015522
 21
203.0808380334
 31
0.0
  0
LINE
  5
180
330
1F
100
AcDbEntity
  8
0
  6
Continuous
 62
     7
370
    15
100
AcDbLine
 10
160.8448015403
 20
207.5808397023
 30
0.0
 11
158.6448015522
 21
207.5808397023
 31
0.0
  0
LINE
  5
181
330
1F
100
AcDbEntity
  8
0
  6
Continuous
 62
     7
370
    15
100
AcDbLine
 10
155.8448025834
 20
203.0808380334
 30
0.0
 11
156.238502438
 21
207.5808397023
 31
0.0
  0
LINE
  5
182
330
1F
100
AcDbEntity
  8
0
  6
Continuous
 62
     7
370
    15
100
AcDbLine
 10
163.2511043798
 20
207.5808397023
 30
0.0
 11
163.6448005091
 21
203.0808380334
 31
0.0
  0
ARC
  5
183
330
1F
100
AcDbEntity
  8
0
  6
Continuous
 62
     7
370
    15
100
AcDbCircle
 10
167.808665554
 20
200.9808381705
 30
0.0
 40
1.000000000000014
100
AcDbArc
 50
270.0
 51
359.0
  0
LINE
  5
184
330
1F
100
AcDbEntity
  8
0
  6
Continuous
 62
     7
370
    15
100
AcDbLine
 10
158.6448015522
 20
207.5808397023
 30
0.0
 11
156.238502438
 21
207.5808397023
 31
0.0
  0
LINE
  5
185
330
1F
100
AcDbEntity
  8
0
  6
Continuous
 62
     7
370
    15
100
AcDbLine
 10
163.2511043798
 20
207.5808397023
 30
0.0
 11
160.8448015403
 21
207.5808397023
 31
0.0
  0
LINE
  5
186
330
1F
100
AcDbEntity
  8
0
  6
Continuous
 62
     7
370
    15
100
AcDbLine
 10
168.8085147988
 20
200.963386753
 30
0.0
 11
169.4773459684
 21
239.280838123
 31
0.0
  0
LINE
  5
187
330
1F
100
AcDbEntity
  8
0
  6
Continuous
 62
     7
370
    15
100
AcDbLine
 10
158.6448015522
 20
203.0808380334
 30
0.0
 11
160.8448015403
 21
203.0808380334
 31
0.0
  0
LINE
  5
188
330
1F
100
AcDbEntity
  8
0
  6
Continuous
 62
     7
370
    15
100
AcDbLine
 10
167.3686193179
 20
241.7808381835
 30
0.0
 11
167.3948006581
 21
240.2808381705
 31
0.0
  0
LINE
  5
189
330
1F
100
AcDbEntity
  8
0
  6
Continuous
 62
     7
370
    15
100
AcDbLine
 10
165.8454747748
 20
203.0808380334
 30
0.0
 11
166.5209853899
 21
241.7808381835
 31
0.0
  0
LINE
  5
18A
330
1F
100
AcDbEntity
  8
0
  6
Continuous
 62
     7
370
    15
100
AcDbLine
 10
168.9948016655
 20
239.280838123
 30
0.0
 11
168.9948016655
 21
240.2808381705
 31
0.0
  0
LINE
  5
18B
330
1F
100
AcDbEntity
  8
0
  6
Continuous
 62
     7
370
    15
100
AcDbLine
 10
163.6448005091
 20
203.0808380334
 30
0.0
 11
165.8454747748
 21
203.0808380334
 31
0.0
  0
LINE
  5
18C
330
1F
100
AcDbEntity
  8
0
  6
Continuous
 62
     7
370
    15
100
AcDbLine
 10
120.0140753871
 20
203.0808380334
 30
0.0
 11
155.8448025834
 21
203.0808380334
 31
0.0
  0
LINE
  5
18D
330
1F
100
AcDbEntity
  8
0
  6
Continuous
 62
     7
370
    15
100
AcDbLine
 10
166.5209853899
 20
241.7808381835
 30
0.0
 11
167.3686193179
 21
241.7808381835
 31
0.0
  0
LINE
  5
18E
330
1F
100
AcDbEntity
  8
0
  6
Continuous
 62
     7
370
    15
100
AcDbLine
 10
167.8086655091
 20
199.9808377115
 30
0.0
 11
121.7205148067
 21
199.9808377115
 31
0.0
  0
LINE
  5
18F
330
1F
100
AcDbEntity
  8
0
  6
Continuous
 62
     7
370
    15
100
AcDbLine
 10
168.9948016655
 20
240.2808381705
 30
0.0
 11
167.3948006581
 21
240.2808381705
 31
0.0
  0
LINE
  5
190
330
1F
100
AcDbEntity
  8
0
  6
Continuous
 62
     7
370
    15
100
AcDbLine
 10
168.9948016655
 20
239.280838123
 30
0.0
 11
169.4773459684
 21
239.280838123
 31
0.0
  0
SPLINE
  5
191
330
1F
100
AcDbEntity
  8
0
  6
Continuous
 62
     7
370
    15
100
AcDbSpline
210
0.0
220
0.0
230
1.0
 70
     8
 71
     3
 72
    14
 73
    10
 74
     0
 42
0.00000001
 43
0.00000001
 40
0.0
 40
0.0
 40
0.0
 40
0.0
 40
0.1412581125280852
 40
0.283048799488071
 40
0.4253723252423379
 40
0.5682289511720365
 40
0.711618935719847
 40
0.8555425344320721
 40
1.0
 40
1.0
 40
1.0
 40
1.0
 10
165.616311517462
 20
240.280838170466
 30
0.0
 10
165.576465577332
 20
240.2808378598436
 30
0.0
 10
165.4966234690353
 20
240.2808372374275
 30
0.0
 10
165.368688276916
 20
240.2808347500323
 30
0.0
 10
165.2348998431926
 20
240.2808332327419
 30
0.0
 10
165.0950375489426
 20
240.2808332095802
 30
0.0
 10
164.9495549049599
 20
240.2808347028807
 30
0.0
 10
164.7991491870341
 20
240.2808372182247
 30
0.0
 10
164.6952494042787
 20
240.2808378526607
 30
0.0
 10
164.6432033404105
 20
240.280838170466
 30
0.0
  0
SPLINE
  5
192
330
1F
100
AcDbEntity
  8
0
  6
Continuous
 62
     7
370
    15
100
AcDbSpline
210
0.0
220
0.0
230
1.0
 70
     8
 71
     3
 72
    14
 73
    10
 74
     0
 42
0.00000001
 43
0.00000001
 40
0.0
 40
0.0
 40
0.0
 40
0.0
 40
0.1444574655516368
 40
0.288381064253018
 40
0.4317710487954043
 40
0.5746276747251082
 40
0.7169512004848098
 40
0.8587418874556435
 40
1.0
 40
1.0
 40
1.0
 40
1.0
 10
166.2664931711015
 20
240.280838170466
 30
0.0
 10
166.2439314030288
 20
240.2808378526607
 30
0.0
 10
166.1988912476905
 20
240.2808372182246
 30
0.0
 10
166.120428421031
 20
240.2808347028807
 30
0.0
 10
166.0345446968482
 20
240.2808332095801
 30
0.0
 10
165.9408412678427
 20
240.2808332327418
 30
0.0
 10
165.8397538912891
 20
240.2808347500323
 30
0.0
 10
165.7322235504417
 20
240.2808372374274
 30
0.0
 10
165.6549003656153
 20
240.2808378598435
 30
0.0
 10
165.616311517462
 20
240.280838170466
 30
0.0
  0
SPLINE
  5
193
330
1F
100
AcDbEntity
  8
0
  6
Continuous
 62
     7
370
    15
100
AcDbSpline
210
0.0
220
0.0
230
1.0
 70
     8
 71
     3
 72
    14
 73
    10
 74
     0
 42
0.00000001
 43
0.00000001
 40
0.0
 40
0.0
 40
0.0
 40
0.0
 40
0.148228269129414
 40
0.2946658932341417
 40
0.4393130271525911
 40
0.5821698324431981
 40
0.7232364777138425
 40
0.8625131389724024
 40
1.0
 40
1.0
 40
1.0
 40
1.0
 10
166.4948019336823
 20
240.280838170466
 30
0.0
 10
166.493824596863
 20
240.2808377327304
 30
0.0
 10
166.4918817297666
 20
240.2808368625473
 30
0.0
 10
166.4763329604435
 20
240.2808333627921
 30
0.0
 10
166.4519953947355
 20
240.2808313269589
 30
0.0
 10
166.4184567253974
 20
240.2808314097321
 30
0.0
 10
166.3762010757345
 20
240.2808335282124
 30
0.0
 10
166.3263891408697
 20
240.2808369283128
 30
0.0
 10
166.2863722326627
 20
240.2808377582039
 30
0.0
 10
166.2664931711015
 20
240.280838170466
 30
0.0
  0
SPLINE
  5
194
330
1F
100
AcDbEntity
  8
0
  6
Continuous
 62
     7
370
    15
100
AcDbSpline
210
0.0
220
0.0
230
1.0
 70
    24
 71
     3
 72
    10
 73
     6
 74
     0
 42
0.00000001
 43
0.00000001
 40
0.0
 40
0.0
 40
0.0
 40
0.0
 40
0.4297027390427752
 40
0.9100232655293949
 40
1.0
 40
1.0
 40
1.0
 40
1.0
 10
166.5209853898647
 20
241.7808381835046
 30
0.0
 10
166.4906023215928
 20
241.7808381835046
 30
0.0
 10
166.4262571441168
 20
241.7808381835046
 30
0.0
 10
166.1292734945402
 20
241.7808381835046
 30
0.0
 10
165.8311218627242
 20
241.7808381835046
 30
0.0
 10
165.7840819906357
 20
241.7808381835046
 30
0.0
  0
LINE
  5
195
330
1F
100
AcDbEntity
  8
0
  6
Continuous
 62
     7
370
    15
100
AcDbLine
 10
144.8454731952
 20
203.0808380334
 30
0.0
 11
145.4948024701
 21
240.2808381705
 31
0.0
  0
LINE
  5
196
330
1F
100
AcDbEntity
  8
0
  6
Continuous
 62
     7
370
    15
100
AcDbLine
 10
151.4938870322
 20
240.2808381705
 30
0.0
 11
150.8445614826
 21
203.0808380334
 31
0.0
  0
LINE
  5
197
330
1F
100
AcDbEntity
  8
0
  6
Continuous
 62
     7
370
    15
100
AcDbLine
 10
138.5511034977
 20
207.5808397023
 30
0.0
 11
136.4385006826
 21
207.5808397023
 31
0.0
  0
LINE
  5
198
330
1F
100
AcDbEntity
  8
0
  6
Continuous
 62
     7
370
    15
100
AcDbLine
 10
138.5511034977
 20
207.5808397023
 30
0.0
 11
138.9448014896
 21
203.0808380334
 31
0.0
  0
LINE
  5
199
330
1F
100
AcDbEntity
  8
0
  6
Continuous
 62
     7
370
    15
100
AcDbLine
 10
136.4385006826
 20
207.5808397023
 30
0.0
 11
136.0448026907
 21
203.0808380334
 31
0.0
  0
LINE
  5
19A
330
1F
100
AcDbEntity
  8
0
  6
Continuous
 62
     7
370
    15
100
AcDbLine
 10
124.1385010879
 20
207.5808397023
 30
0.0
 11
132.8511029359
 21
207.5808397023
 31
0.0
  0
LINE
  5
19B
330
1F
100
AcDbEntity
  8
0
  6
Continuous
 62
     7
370
    15
100
AcDbLine
 10
133.9885011192
 20
207.5808397023
 30
0.0
 11
136.4385006826
 21
207.5808397023
 31
0.0
  0
LINE
  5
19C
330
1F
100
AcDbEntity
  8
0
  6
Continuous
 62
     7
370
    15
100
AcDbLine
 10
138.5511034977
 20
207.5808397023
 30
0.0
 11
141.0011021297
 21
207.5808397023
 31
0.0
  0
LINE
  5
19D
330
1F
100
AcDbEntity
  8
0
  6
Continuous
 62
     7
370
    15
100
AcDbLine
 10
141.8459309142
 20
203.0808380334
 30
0.0
 11
142.4952583264
 21
240.2808381705
 31
0.0
  0
SPLINE
  5
19E
330
1F
100
AcDbEntity
  8
0
  6
Continuous
 62
     7
370
    15
100
AcDbSpline
210
0.0
220
0.0
230
1.0
 70
     8
 71
     3
 72
    14
 73
    10
 74
     0
 42
0.00000001
 43
0.00000001
 40
0.0
 40
0.0
 40
0.0
 40
0.0
 40
0.1412581125334508
 40
0.2830487994970142
 40
0.4253723252530722
 40
0.5682289511827732
 40
0.7116189357287934
 40
0.8555425344374423
 40
1.0
 40
1.0
 40
1.0
 40
1.0
 10
144.6163115172689
 20
240.280838170466
 30
0.0
 10
144.5764655771168
 20
240.2808378598435
 30
0.0
 10
144.4966234687762
 20
240.2808372374273
 30
0.0
 10
144.3686882765854
 20
240.2808347500321
 30
0.0
 10
144.2348998427881
 20
240.2808332327416
 30
0.0
 10
144.0950375484622
 20
240.28083320958
 30
0.0
 10
143.9495549044025
 20
240.2808347028806
 30
0.0
 10
143.7991491863991
 20
240.2808372182246
 30
0.0
 10
143.6952494035916
 20
240.2808378526607
 30
0.0
 10
143.6432033396977
 20
240.280838170466
 30
0.0
  0
LINE
  5
19F
330
1F
100
AcDbEntity
  8
0
  6
Continuous
 62
     8
370
    15
100
AcDbLine
 10
162.924478377
 20
207.5808397023
 30
0.0
 11
163.495259906
 21
240.2808381705
 31
0.0
  0
HATCH
  5
1A0
330
1F
100
AcDbEntity
  8
0
  6
Continuous
 62
     7
370
     0
100
AcDbHatch
 10
0.0
 20
0.0
 30
0.0
210
0.0
220
0.0
230
1.0
  2
ANSI31
 70
     0
 71
     0
 91
        1
 92
        0
 93
       19
 72
     4
 94
        3
 73
     1
 74
     0
 95
        8
 96
        4
 40
0.2224660643883421
 40
0.2224660643883421
 40
0.2224660643883421
 40
0.2224660643883421
 40
0.2373768889366851
 40
0.2373768889366851
 40
0.2373768889366851
 40
0.2373768889366851
 10
120.0140753916153
 20
203.0808381704698
 42
1.0
 10
120.4897735738892
 20
201.9748359361608
 42
1.0
 10
121.0628668982113
 20
200.9292440086012
 42
1.0
 10
121.7205147815496
 20
199.9808381704621
 42
1.0
 72
     1
 10
121.7205147815496
 20
199.9808381704621
 11
167.8086655539594
 21
199.980838170466
 72
     2
 10
167.8086655539594
 20
200.980838170466
 40
1.0
 50
270.0000000000008
 51
358.999999999999
 73
     1
 72
     1
 10
168.8085132491158
 20
200.9633857640287
 11
169.477346868754
 21
239.280838170466
 72
     1
 10
169.477346868754
 20
239.280838170466
 11
168.9948019336823
 21
239.280838170466
 72
     1
 10
168.9948019336823
 20
239.280838170466
 11
168.9948019336823
 21
240.280838170466
 72
     1
 10
168.9948019336823
 20
240.280838170466
 11
167.3948019336822
 21
240.280838170466
 72
     1
 10
167.3948019336822
 20
240.280838170466
 11
167.3686193362899
 21
241.780838170466
 72
     1
 10
167.3686193362899
 20
241.780838170466
 11
166.5209845310746
 21
241.780838170466
 72
     1
 10
166.5209845310746
 20
241.780838170466
 11
165.8454735183525
 21
203.080838170466
 72
     1
 10
165.8454735183525
 20
203.080838170466
 11
163.6448019336823
 21
203.080838170466
 72
     1
 10
163.6448019336823
 20
203.080838170466
 11
163.2511029478156
 21
207.580838170466
 72
     1
 10
163.2511029478156
 20
207.580838170466
 11
160.8448019336822
 21
207.580838170466
 72
     1
 10
160.8448019336822
 20
207.580838170466
 11
160.8448019336822
 21
203.080838170466
 72
     1
 10
160.8448019336822
 20
203.080838170466
 11
158.6448019336822
 21
203.080838170466
 72
     1
 10
158.6448019336822
 20
203.080838170466
 11
158.6448019336822
 21
207.580838170466
 72
     1
 10
158.6448019336822
 20
207.580838170466
 11
156.2385009195489
 21
207.580838170466
 72
     1
 10
156.2385009195489
 20
207.580838170466
 11
155.8448019336822
 21
203.080838170466
 72
     1
 10
155.8448019336822
 20
203.080838170466
 11
120.0140753916153
 21
203.0808381704698
 97
        0
 75
     0
 76
     1
 52
90.0
 41
0.5
 77
     0
 78
     1
 53
135.0000000000002
 43
0.0
 44
0.0
 45
-1.12253201513364
 46
-1.122532015133648
 79
     0
 98
        1
 10
0.0
 20
0.0
  0
HATCH
  5
1A1
330
1F
100
AcDbEntity
  8
0
  6
Continuous
 62
     7
370
     0
100
AcDbHatch
 10
0.0
 20
0.0
 30
0.0
210
0.0
220
0.0
230
1.0
  2
ANSI31
 70
     0
 71
     0
 91
        1
 92
        0
 93
       13
 72
     1
 10
117.8632630320113
 20
251.3808381704623
 11
164.4541382042642
 21
251.380838170466
 72
     1
 10
164.4541382042642
 20
251.380838170466
 11
164.7448019336822
 21
240.280838170466
 72
     1
 10
164.7448019336822
 20
240.280838170466
 11
165.7448019336823
 21
240.280838170466
 72
     1
 10
165.7448019336823
 20
240.280838170466
 11
165.8037202572129
 21
242.530838170466
 72
     1
 10
165.8037202572129
 20
242.530838170466
 11
167.8858836101516
 21
242.530838170466
 72
     1
 10
167.8858836101516
 20
242.530838170466
 11
167.9448019336822
 21
240.280838170466
 72
     1
 10
167.9448019336822
 20
240.280838170466
 11
169.4948019336822
 21
240.280838170466
 72
     1
 10
169.4948019336822
 20
240.280838170466
 11
169.1286514933979
 21
254.2635593558509
 72
     2
 10
167.8790798371785
 20
254.2308381704661
 40
1.25
 50
1.499999999998814
 51
90.0
 73
     1
 72
     1
 10
167.8790798371785
 20
255.480838170466
 11
161.9948019336822
 21
255.480838170466
 72
     1
 10
161.9948019336822
 20
255.480838170466
 11
161.9948019336822
 21
254.530838170466
 72
     1
 10
161.9948019336822
 20
254.530838170466
 11
118.068869578475
 21
254.5308381704714
 72
     4
 94
        3
 73
     1
 74
     0
 95
        8
 96
        4
 40
0.0046789739226886
 40
0.0046789739226886
 40
0.0046789739226886
 40
0.0046789739226886
 40
0.0194374258546763
 40
0.0194374258546763
 40
0.0194374258546763
 40
0.0194374258546763
 10
118.068869578475
 20
254.5308381704713
 42
1.0
 10
117.8832555927098
 20
253.5188574512423
 42
1.0
 10
117.8253603687268
 20
252.4662349768585
 42
1.0
 10
117.8632630320113
 20
251.3808381704623
 42
1.0
 97
        0
 75
     0
 76
     1
 52
0.0
 41
0.5
 77
     0
 78
     1
 53
45.0
 43
0.0
 44
0.0
 45
-1.122532015133644
 46
1.122532015133644
 79
     0
 98
        1
 10
0.0
 20
0.0
  0
DIMENSION
  5
1A2
330
1F
100
AcDbEntity
  8
LAYER_1
100
AcDbDimension
  2
*D5
 10
152.6160944134
 20
203.0808381705
 30
0.0
 11
152.6160944134
 21
192.2355457283
 31
0.0
 70
   160
 71
     2
 42
-1.0
  3
SLDDIMSTYLE0
100
AcDbAlignedDimension
 13
158.6448019337
 23
207.5808381705
 33
0.0
 14
155.8448019337
 24
203.0808381705
 34
0.0
 50
90.0
100
AcDbRotatedDimension
  0
DIMENSION
  5
1AF
330
1F
100
AcDbEntity
  8
LAYER_1
100
AcDbDimension
  2
*D6
 10
179.4948019337
 20
251.3808381705
 30
0.0
 11
179.4948019337
 21
226.7498375022
 31
0.0
 70
   160
 71
     2
 42
-1.0
  3
SLDDIMSTYLE1
100
AcDbAlignedDimension
 13
165.8454735184
 23
203.0808381705
 33
0.0
 14
164.4541382043
 24
251.3808381705
 34
0.0
 50
90.0
100
AcDbRotatedDimension
  0
DIMENSION
  5
1BA
330
1F
100
AcDbEntity
  8
LAYER_1
100
AcDbDimension
  2
*D7
 10
128.9993873273
 20
254.5308381705
 30
0.0
 11
128.9993873273
 21
263.3260555426
 31
0.0
 70
   160
 71
     2
 42
-1.0
  3
SLDDIMSTYLE2
100
AcDbAlignedDimension
 13
167.8790798372
 23
255.4808381705
 33
0.0
 14
161.9948019337
 24
254.5308381705
 34
0.0
 50
90.0
100
AcDbRotatedDimension
  0
DIMENSION
  5
1C5
330
1F
100
AcDbEntity
  8
LAYER_1
100
AcDbDimension
  2
*D8
 10
59.4948019337
 20
199.9808381705
 30
0.0
 11
59.4948019337
 21
227.7308381705
 31
0.0
 70
   160
 71
     2
 42
-1.0
  3
SLDDIMSTYLE3
100
AcDbAlignedDimension
 13
75.8588963238
 23
255.4808381705
 33
0.0
 14
76.1801767892
 24
199.9808381705
 34
0.0
 50
90.0
100
AcDbRotatedDimension
  0
LINE
  5
1D0
330
1F
100
AcDbEntity
  8
0
  6
Continuous
 62
     7
370
    15
100
AcDbLine
 10
75.8588971447
 20
163.7918012194
 30
0.0
 11
163.1307067227
 21
163.7918012194
 31
0.0
  0
LINE
  5
1D1
330
1F
100
AcDbEntity
  8
0
  6
Continuous
 62
     7
370
    15
100
AcDbLine
 10
163.1307067227
 20
163.7918012194
 30
0.0
 11
163.1307067227
 21
162.5422308199
 31
0.0
  0
LINE
  5
1D2
330
1F
100
AcDbEntity
  8
0
  6
Continuous
 62
     7
370
    15
100
AcDbLine
 10
163.1307067227
 20
162.5422308199
 30
0.0
 11
75.8588971447
 21
162.5422308199
 31
0.0
  0
LINE
  5
1D3
330
1F
100
AcDbEntity
  8
0
  6
Continuous
 62
     7
370
    15
100
AcDbLine
 10
75.8588971447
 20
163.7918012194
 30
0.0
 11
75.8588971447
 21
162.5422308199
 31
0.0
  0
ELLIPSE
  5
1D4
330
1F
100
AcDbEntity
  8
0
  6
Continuous
 62
     7
370
    15
100
AcDbEllipse
 10
163.1274515728
 20
157.7906014464
 30
0.0
 11
3.361059529730937
 21
3.361059529730937
 31
0.0
210
0.0
220
0.0
230
0.9999999999999998
 40
0.999315002
 41
5.49812976012032
 42
7.068240854238867
  0
ELLIPSE
  5
1D5
330
1F
100
AcDbEntity
  8
0
  6
Continuous
 62
     7
370
    15
100
AcDbEllipse
 10
163.1274515728
 20
157.7906014464
 30
0.0
 11
4.244337547790224
 21
4.244337547790224
 31
0.0
210
0.0
220
0.0
230
1.0
 40
0.999600206
 41
5.49812976012032
 42
7.068240854238866
  0
LINE
  5
1D6
330
1F
100
AcDbEntity
  8
0
  6
Continuous
 62
     7
370
    15
100
AcDbLine
 10
167.8790809464
 20
157.7938565962
 30
0.0
 11
169.1286513459
 21
157.7938565962
 31
0.0
  0
ELLIPSE
  5
1D7
330
1F
100
AcDbEntity
  8
0
  6
Continuous
 62
     7
370
    15
100
AcDbEllipse
 10
75.8621522945
 20
157.7906014464
 30
0.0
 11
4.244337547789883
 21
-4.244337547790536
 31
0.0
210
0.0
220
0.0
230
1.0
 40
0.999600206
 41
2.356537106530594
 42
3.926648200649162
  0
ELLIPSE
  5
1D8
330
1F
100
AcDbEntity
  8
0
  6
Continuous
 62
     7
370
    15
100
AcDbEllipse
 10
75.8621522945
 20
157.7906014464
 30
0.0
 11
-3.361059529730938
 21
3.361059529730966
 31
0.0
210
0.0
220
0.0
230
1.0
 40
0.999315002
 41
5.498129760120323
 42
7.068240854238875
  0
LINE
  5
1D9
330
1F
100
AcDbEntity
  8
0
  6
Continuous
 62
     7
370
    15
100
AcDbLine
 10
69.8609525215
 20
157.7938565962
 30
0.0
 11
71.110522921
 21
157.7938565962
 31
0.0
  0
LINE
  5
1DA
330
1F
100
AcDbEntity
  8
0
  6
Continuous
 62
     7
370
    15
100
AcDbLine
 10
76.9948014866
 20
146.6579506151
 30
0.0
 11
76.9948014866
 21
81.6579529993
 31
0.0
  0
LINE
  5
1DB
330
1F
100
AcDbEntity
  8
0
  6
Continuous
 62
     7
370
    15
100
AcDbLine
 10
76.9948014866
 20
81.6579529993
 30
0.0
 11
161.9948023807
 21
81.6579529993
 31
0.0
  0
LINE
  5
1DC
330
1F
100
AcDbEntity
  8
0
  6
Continuous
 62
     7
370
    15
100
AcDbLine
 10
161.9948023807
 20
81.6579529993
 30
0.0
 11
161.9948023807
 21
146.6579506151
 31
0.0
  0
LINE
  5
1DD
330
1F
100
AcDbEntity
  8
0
  6
Continuous
 62
     7
370
    15
100
AcDbLine
 10
161.9948023807
 20
146.6579506151
 30
0.0
 11
76.9948014866
 21
146.6579506151
 31
0.0
  0
CIRCLE
  5
1DE
330
1F
100
AcDbEntity
  8
0
  6
Continuous
 62
     7
370
    15
100
AcDbCircle
 10
163.4948019337
 20
70.1579518072
 30
0.0
 40
4.0
  0
CIRCLE
  5
1DF
330
1F
100
AcDbEntity
  8
0
  6
Continuous
 62
     7
370
    15
100
AcDbCircle
 10
75.4948019337
 20
70.1579518072
 30
0.0
 40
4.0
  0
ELLIPSE
  5
1E0
330
1F
100
AcDbEntity
  8
0
  6
Continuous
 62
     7
370
    15
100
AcDbEllipse
 10
163.1274515728
 20
70.5253021681
 30
0.0
 11
3.361059529730937
 21
-3.361059529730923
 31
0.0
210
0.0
220
0.0
230
1.0
 40
0.999315002
 41
5.49812976012032
 42
7.068240854238862
  0
LINE
  5
1E1
330
1F
100
AcDbEntity
  8
0
  6
Continuous
 62
     7
370
    15
100
AcDbLine
 10
75.8588971447
 20
65.7736727945
 30
0.0
 11
163.1307067227
 21
65.7736727945
 31
0.0
  0
ELLIPSE
  5
1E2
330
1F
100
AcDbEntity
  8
0
  6
Continuous
 62
     7
370
    15
100
AcDbEllipse
 10
75.8621522945
 20
70.5253021681
 30
0.0
 11
-3.361059529730965
 21
-3.361059529730923
 31
0.0
210
0.0
220
0.0
230
1.0
 40
0.999315002
 41
5.498129760120324
 42
7.068240854238872
  0
LINE
  5
1E3
330
1F
100
AcDbEntity
  8
0
  6
Continuous
 62
     7
370
    15
100
AcDbLine
 10
71.110522921
 20
157.7938565962
 30
0.0
 11
71.110522921
 21
70.5220470183
 31
0.0
  0
LINE
  5
1E4
330
1F
100
AcDbEntity
  8
0
  6
Continuous
 62
     7
370
    15
100
AcDbLine
 10
167.8790809464
 20
70.5220470183
 30
0.0
 11
167.8790809464
 21
157.7938565962
 31
0.0
  0
CIRCLE
  5
1E5
330
1F
100
AcDbEntity
  8
0
  6
Continuous
 62
     7
370
    15
100
AcDbCircle
 10
75.4948019337
 20
158.1579518072
 30
0.0
 40
4.0
  0
CIRCLE
  5
1E6
330
1F
100
AcDbEntity
  8
0
  6
Continuous
 62
     7
370
    15
100
AcDbCircle
 10
163.4948019337
 20
158.1579518072
 30
0.0
 40
4.0
  0
LINE
  5
1E7
330
1F
100
AcDbEntity
  8
0
  6
Continuous
 62
     7
370
    15
100
AcDbLine
 10
69.8609525215
 20
70.5220470183
 30
0.0
 11
69.8609525215
 21
157.7938565962
 31
0.0
  0
LINE
  5
1E8
330
1F
100
AcDbEntity
  8
0
  6
Continuous
 62
     7
370
    15
100
AcDbLine
 10
69.8609525215
 20
70.5220470183
 30
0.0
 11
71.110522921
 21
70.5220470183
 31
0.0
  0
LINE
  5
1E9
330
1F
100
AcDbEntity
  8
0
  6
Continuous
 62
     7
370
    15
100
AcDbLine
 10
169.1286513459
 20
157.7938565962
 30
0.0
 11
169.1286513459
 21
70.5220470183
 31
0.0
  0
LINE
  5
1EA
330
1F
100
AcDbEntity
  8
0
  6
Continuous
 62
     7
370
    15
100
AcDbLine
 10
167.8790809464
 20
70.5220470183
 30
0.0
 11
169.1286513459
 21
70.5220470183
 31
0.0
  0
ELLIPSE
  5
1EB
330
1F
100
AcDbEntity
  8
0
  6
Continuous
 62
     7
370
    15
100
AcDbEllipse
 10
163.1274515728
 20
70.5253021681
 30
0.0
 11
4.244337547790565
 21
-4.244337547789853
 31
0.0
210
0.0
220
0.0
230
0.9999999999999998
 40
0.999600206
 41
5.498129760120237
 42
7.068240854238781
  0
LINE
  5
1EC
330
1F
100
AcDbEntity
  8
0
  6
Continuous
 62
     7
370
    15
100
AcDbLine
 10
163.1307067227
 20
65.7736727945
 30
0.0
 11
163.1307067227
 21
64.524102395
 31
0.0
  0
LINE
  5
1ED
330
1F
100
AcDbEntity
  8
0
  6
Continuous
 62
     7
370
    15
100
AcDbLine
 10
75.8588971447
 20
65.7736727945
 30
0.0
 11
75.8588971447
 21
64.524102395
 31
0.0
  0
ELLIPSE
  5
1EE
330
1F
100
AcDbEntity
  8
0
  6
Continuous
 62
     7
370
    15
100
AcDbEllipse
 10
75.8621522945
 20
70.5253021681
 30
0.0
 11
4.24433754779021
 21
4.24433754779021
 31
0.0
210
0.0
220
0.0
230
0.9999999999999998
 40
0.999600206
 41
2.356537106530512
 42
3.926648200649086
  0
LINE
  5
1EF
330
1F
100
AcDbEntity
  8
0
  6
Continuous
 62
     7
370
    15
100
AcDbLine
 10
163.1307067227
 20
64.524102395
 30
0.0
 11
75.8588971447
 21
64.524102395
 31
0.0
  0
ELLIPSE
  5
1F0
330
1F
100
AcDbEntity
  8
0
  6
Continuous
 62
     7
370
    15
100
AcDbEllipse
 10
75.4968586886
 20
158.1558950523
 30
0.0
 11
-4.245548879660119
 21
4.245548879660134
 31
0.0
210
0.0
220
0.0
230
1.0
 40
0.999315002
 41
5.498129760120324
 42
7.068240854238871
  0
LINE
  5
1F1
330
1F
100
AcDbEntity
  8
0
  6
Continuous
 62
     7
370
    15
100
AcDbLine
 10
75.4927458119
 20
164.1579525523
 30
0.0
 11
75.8588971447
 21
163.7918012194
 31
0.0
  0
LINE
  5
1F2
330
1F
100
AcDbEntity
  8
0
  6
Continuous
 62
     7
370
    15
100
AcDbLine
 10
69.8609525215
 20
157.7938565962
 30
0.0
 11
69.4948011886
 21
158.1600079291
 31
0.0
  0
ELLIPSE
  5
1F3
330
1F
100
AcDbEntity
  8
0
  6
Continuous
 62
     7
370
    15
100
AcDbEllipse
 10
163.4927451787
 20
158.1558950523
 30
0.0
 11
4.245548879660134
 21
4.245548879660134
 31
0.0
210
0.0
220
0.0
230
0.9999999999999998
 40
0.999315002
 41
5.498129760120323
 42
7.068240854238863
  0
LINE
  5
1F4
330
1F
100
AcDbEntity
  8
0
  6
Continuous
 62
     7
370
    15
100
AcDbLine
 10
169.4948026787
 20
158.1600079291
 30
0.0
 11
169.1286513459
 21
157.7938565962
 31
0.0
  0
LINE
  5
1F5
330
1F
100
AcDbEntity
  8
0
  6
Continuous
 62
     7
370
    15
100
AcDbLine
 10
163.1307067227
 20
163.7918012194
 30
0.0
 11
163.4968580555
 21
164.1579525523
 31
0.0
  0
ELLIPSE
  5
1F6
330
1F
100
AcDbEntity
  8
0
  6
Continuous
 62
     7
370
    15
100
AcDbEllipse
 10
163.4927451787
 20
70.1600085622
 30
0.0
 11
4.245548879660134
 21
-4.245548879660119
 31
0.0
210
0.0
220
0.0
230
1.0
 40
0.999315002
 41
5.498129760120323
 42
7.068240854238865
  0
LINE
  5
1F7
330
1F
100
AcDbEntity
  8
0
  6
Continuous
 62
     7
370
    15
100
AcDbLine
 10
163.4968580555
 20
64.1579510622
 30
0.0
 11
163.1307067227
 21
64.524102395
 31
0.0
  0
LINE
  5
1F8
330
1F
100
AcDbEntity
  8
0
  6
Continuous
 62
     7
370
    15
100
AcDbLine
 10
169.1286513459
 20
70.5220470183
 30
0.0
 11
169.4948026787
 21
70.1558956854
 31
0.0
  0
ELLIPSE
  5
1F9
330
1F
100
AcDbEntity
  8
0
  6
Continuous
 62
     7
370
    15
100
AcDbEllipse
 10
75.4968586886
 20
70.1600085622
 30
0.0
 11
-4.245548879660134
 21
-4.245548879660119
 31
0.0
210
0.0
220
0.0
230
1.0
 40
0.999315002
 41
5.498129760120324
 42
7.068240854238866
  0
LINE
  5
1FA
330
1F
100
AcDbEntity
  8
0
  6
Continuous
 62
     7
370
    15
100
AcDbLine
 10
69.4948011886
 20
70.1558956854
 30
0.0
 11
69.8609525215
 21
70.5220470183
 31
0.0
  0
LINE
  5
1FB
330
1F
100
AcDbEntity
  8
0
  6
Continuous
 62
     7
370
    15
100
AcDbLine
 10
75.8588971447
 20
64.524102395
 30
0.0
 11
75.4927458119
 21
64.1579510622
 31
0.0
  0
LINE
  5
1FC
330
1F
100
AcDbEntity
  8
0
  6
Continuous
 62
     7
370
    15
100
AcDbLine
 10
163.4968580555
 20
164.1579525523
 30
0.0
 11
75.4927458119
 21
164.1579525523
 31
0.0
  0
LINE
  5
1FD
330
1F
100
AcDbEntity
  8
0
  6
Continuous
 62
     7
370
    15
100
AcDbLine
 10
69.4948011886
 20
158.1600079291
 30
0.0
 11
69.4948011886
 21
70.1558956854
 31
0.0
  0
LINE
  5
1FE
330
1F
100
AcDbEntity
  8
0
  6
Continuous
 62
     7
370
    15
100
AcDbLine
 10
169.4948026787
 20
70.1558956854
 30
0.0
 11
169.4948026787
 21
158.1600079291
 31
0.0
  0
LINE
  5
1FF
330
1F
100
AcDbEntity
  8
0
  6
Continuous
 62
     7
370
    15
100
AcDbLine
 10
75.4927458119
 20
64.1579510622
 30
0.0
 11
163.4968580555
 21
64.1579510622
 31
0.0
  0
CIRCLE
  5
200
330
1F
100
AcDbEntity
  8
0
  6
Continuous
 62
     7
370
    15
100
AcDbCircle
 10
75.4948019337
 20
158.1579518072
 30
0.0
 40
2.25
  0
CIRCLE
  5
201
330
1F
100
AcDbEntity
  8
0
  6
Continuous
 62
     7
370
    15
100
AcDbCircle
 10
163.4948019337
 20
158.1579518072
 30
0.0
 40
2.249999999999972
  0
CIRCLE
  5
202
330
1F
100
AcDbEntity
  8
0
  6
Continuous
 62
     7
370
    15
100
AcDbCircle
 10
163.4948019337
 20
70.1579518072
 30
0.0
 40
2.249999999999972
  0
CIRCLE
  5
203
330
1F
100
AcDbEntity
  8
0
  6
Continuous
 62
     7
370
    15
100
AcDbCircle
 10
75.4948019337
 20
70.1579518072
 30
0.0
 40
2.25
  0
CIRCLE
  5
204
330
1F
100
AcDbEntity
  8
0
  6
Continuous
 62
     7
370
    15
100
AcDbCircle
 10
75.4948019337
 20
70.1579518072
 30
0.0
 40
2.0
  0
CIRCLE
  5
205
330
1F
100
AcDbEntity
  8
0
  6
Continuous
 62
     7
370
    15
100
AcDbCircle
 10
163.4948019337
 20
70.1579518072
 30
0.0
 40
2.000000000000014
  0
CIRCLE
  5
206
330
1F
100
AcDbEntity
  8
0
  6
Continuous
 62
     7
370
    15
100
AcDbCircle
 10
163.4948019337
 20
158.1579518072
 30
0.0
 40
2.0
  0
CIRCLE
  5
207
330
1F
100
AcDbEntity
  8
0
  6
Continuous
 62
     7
370
    15
100
AcDbCircle
 10
75.4948019337
 20
158.1579518072
 30
0.0
 40
2.0
  0
DIMENSION
  5
208
330
1F
100
AcDbEntity
  8
LAYER_1
100
AcDbDimension
  2
*D9
 10
76.9948019337
 20
134.2821074556
 30
0.0
 11
125.3541887876
 21
134.2821074556
 31
0.0
 70
   160
 71
     2
 42
-1.0
  3
SLDDIMSTYLE3
100
AcDbAlignedDimension
 13
161.9948019337
 23
146.6579518072
 33
0.0
 14
76.9948019337
 24
146.6579518072
 34
0.0
100
AcDbRotatedDimension
  0
DIMENSION
  5
210
330
1F
100
AcDbEntity
  8
LAYER_1
100
AcDbDimension
  2
*D10
 10
92.1027406843
 20
81.6579518072
 30
0.0
 11
92.1027406843
 21
114.0586030086
 31
0.0
 70
   160
 71
     2
 42
-1.0
  3
SLDDIMSTYLE3
100
AcDbAlignedDimension
 13
76.9948019337
 23
146.6579518072
 33
0.0
 14
76.9948019337
 24
81.6579518072
 34
0.0
 50
90.0
100
AcDbRotatedDimension
  0
DIMENSION
  5
218
330
1F
100
AcDbEntity
  8
LAYER_1
100
AcDbDimension
  2
*D11
 10
59.4948019337
 20
64.1579518072
 30
0.0
 11
59.4948019337
 21
114.1579518072
 31
0.0
 70
   160
 71
     2
 42
-1.0
  3
SLDDIMSTYLE3
100
AcDbAlignedDimension
 13
75.4927458835
 23
164.1579518072
 33
0.0
 14
75.4927458835
 24
64.1579518072
 34
0.0
 50
90.0
100
AcDbRotatedDimension
  0
DIMENSION
  5
222
330
1F
100
AcDbEntity
  8
LAYER_1
100
AcDbDimension
  2
*D12
 10
169.4948019337
 20
54.1579518072
 30
0.0
 11
119.4948019337
 21
54.1579518072
 31
0.0
 70
   160
 71
     2
 42
-1.0
  3
SLDDIMSTYLE3
100
AcDbAlignedDimension
 13
69.4948019337
 23
70.1558957571
 33
0.0
 14
169.4948019337
 24
70.1558957571
 34
0.0
100
AcDbRotatedDimension
  0
SPLINE
  5
22C
330
1F
100
AcDbEntity
  8
0
  6
Continuous
 62
     7
370
    15
100
AcDbSpline
210
0.0
220
0.0
230
1.0
 70
     8
 71
     3
 72
    13
 73
     9
 74
     0
 42
0.00000001
 43
0.00000001
 40
0.0
 40
0.0
 40
0.0
 40
0.0
 40
0.1572973311986076
 40
0.342031644680174
 40
0.5300224487816478
 40
0.7254240701207626
 40
0.9297134262843103
 40
1.0
 40
1.0
 40
1.0
 40
1.0
 10
367.6115911585367
 20
166.2024022024711
 30
0.0
 10
367.5918686389276
 20
166.3840314573731
 30
0.0
 10
367.5489834496637
 20
166.7789711063983
 30
0.0
 10
367.3117873776779
 20
167.3553934637303
 30
0.0
 10
366.9499691200679
 20
167.9189222991801
 30
0.0
 10
366.4602306626799
 20
168.4327941578368
 30
0.0
 10
365.9934222099907
 20
168.7884098310582
 30
0.0
 10
365.6903773302244
 20
168.9693677745986
 30
0.0
 10
365.6128032096879
 20
169.0156898023294
 30
0.0
  0
SPLINE
  5
22D
330
1F
100
AcDbEntity
  8
0
  6
Continuous
 62
     7
370
    15
100
AcDbSpline
210
0.0
220
0.0
230
1.0
 70
     8
 71
     3
 72
    13
 73
     9
 74
     0
 42
0.00000001
 43
0.00000001
 40
0.0
 40
0.0
 40
0.0
 40
0.0
 40
0.1168655299652875
 40
0.3332252883032475
 40
0.5236911070630124
 40
0.7059640613079539
 40
0.88218799958437
 40
1.0
 40
1.0
 40
1.0
 40
1.0
 10
234.2267148626011
 20
169.0156898023295
 30
0.0
 10
234.0963837528384
 20
168.9361559210379
 30
0.0
 10
233.7247632960755
 20
168.7093764717754
 30
0.0
 10
233.2194520681497
 20
168.2858074663482
 30
0.0
 10
232.7541602234595
 20
167.7374553550304
 30
0.0
 10
232.4382025445773
 20
167.1626338302487
 30
0.0
 10
232.2523299352386
 20
166.6228638136907
 30
0.0
 10
232.2381911896465
 20
166.275344190363
 30
0.0
 10
232.232526188596
 20
166.136102769093
 30
0.0
  0
LINE
  5
22E
330
1F
100
AcDbEntity
  8
0
  6
Continuous
 62
     7
370
    15
100
AcDbLine
 10
368.1443062503
 20
154.6946724392
 30
0.0
 11
367.6259895757
 21
166.1231764512
 31
0.0
  0
LINE
  5
22F
330
1F
100
AcDbEntity
  8
0
  6
Continuous
 62
     7
370
    15
100
AcDbLine
 10
232.2135284966
 20
166.1231764512
 30
0.0
 11
231.695211822
 21
154.6946724392
 31
0.0
  0
LINE
  5
230
330
1F
100
AcDbEntity
  8
0
  6
Continuous
 62
     7
370
    15
100
AcDbLine
 10
365.6128032097
 20
169.0156898023
 30
0.0
 11
303.9023148507
 21
204.6403964388
 31
0.0
  0
LINE
  5
231
330
1F
100
AcDbEntity
  8
0
  6
Continuous
 62
     7
370
    15
100
AcDbLine
 10
295.9372032216
 20
204.6403964388
 30
0.0
 11
234.2267148626
 21
169.0156898023
 31
0.0
  0
SPLINE
  5
232
330
1F
100
AcDbEntity
  8
0
  6
Continuous
 62
     7
370
    15
100
AcDbSpline
210
0.0
220
0.0
230
1.0
 70
     8
 71
     3
 72
    17
 73
    13
 74
     0
 42
0.00000001
 43
0.00000001
 40
0.0
 40
0.0
 40
0.0
 40
0.0
 40
0.0601576725780043
 40
0.169802239407886
 40
0.2790687783549839
 40
0.3878921080045987
 40
0.4963855575204012
 40
0.6048685753522591
 40
0.7136739224899858
 40
0.8231562714274738
 40
0.9337326989476991
 40
1.0
 40
1.0
 40
1.0
 40
1.0
 10
303.9023148507042
 20
204.6403964387687
 30
0.0
 10
303.7675225470145
 20
204.7139889084772
 30
0.0
 10
303.3870551179967
 20
204.9217124726468
 30
0.0
 10
302.6931761498765
 20
205.1956377214771
 30
0.0
 10
301.8163278427472
 20
205.4326749415456
 30
0.0
 10
300.8946318319219
 20
205.5762563735887
 30
0.0
 10
299.9513395341796
 20
205.6265097231977
 30
0.0
 10
299.0073197005697
 20
205.5825185102838
 30
0.0
 10
298.0827520565416
 20
205.4450576800091
 30
0.0
 10
297.1992017754361
 20
205.2130870909847
 30
0.0
 10
296.4830522579248
 20
204.9368285400532
 30
0.0
 10
296.0859909687969
 20
204.7211980187205
 30
0.0
 10
295.937203221585
 20
204.6403964387688
 30
0.0
  0
SPLINE
  5
233
330
1F
100
AcDbEntity
  8
0
  6
Continuous
 62
     7
370
    15
100
AcDbSpline
210
0.0
220
0.0
230
1.0
 70
     8
 71
     3
 72
    17
 73
    13
 74
     0
 42
0.00000001
 43
0.00000001
 40
0.0
 40
0.0
 40
0.0
 40
0.0
 40
0.0583644423519645
 40
0.1661067298527232
 40
0.2735057877523266
 40
0.3805130585262773
 40
0.4872318318033356
 40
0.5939067682771169
 40
0.7007951217513493
 40
0.8081524771944122
 40
0.9162957134031212
 40
1.0
 40
1.0
 40
1.0
 40
1.0
 10
295.8848041521736
 20
84.24485756665995
 30
0.0
 10
296.0161066336227
 20
84.17307278877699
 30
0.0
 10
296.3897969309364
 20
83.9687714329029
 30
0.0
 10
297.0749754643197
 20
83.6959931691719
 30
0.0
 10
297.9460495508412
 20
83.45657844541945
 30
0.0
 10
298.8643170847084
 20
83.30804927509372
 30
0.0
 10
299.80631837726
 20
83.2508133110965
 30
0.0
 10
300.7507679059895
 20
83.28598118350358
 30
0.0
 10
301.6768742042083
 20
83.4126084574437
 30
0.0
 10
302.56203625813
 20
83.63128209651288
 30
0.0
 10
303.3292311019516
 20
83.91031965062511
 30
0.0
 10
303.7647112008933
 20
84.14323508897769
 30
0.0
 10
303.9547139201151
 20
84.24485756665995
 30
0.0
  0
LINE
  5
234
330
1F
100
AcDbEntity
  8
0
  6
Continuous
 62
     7
370
    15
100
AcDbLine
 10
303.9547139201
 20
84.2448575667
 30
0.0
 11
365.2108434471
 21
119.6072684325
 31
0.0
  0
LINE
  5
235
330
1F
100
AcDbEntity
  8
0
  6
Continuous
 62
     7
370
    15
100
AcDbLine
 10
234.6286746252
 20
119.6072684325
 30
0.0
 11
295.8848041522
 21
84.2448575667
 31
0.0
  0
LINE
  5
236
330
1F
100
AcDbEntity
  8
0
  6
Continuous
 62
     7
370
    15
100
AcDbLine
 10
367.1740410165
 20
122.4334565567
 30
0.0
 11
368.1200928858
 21
153.7271160372
 31
0.0
  0
LINE
  5
237
330
1F
100
AcDbEntity
  8
0
  6
Continuous
 62
     7
370
    15
100
AcDbLine
 10
231.7194251865
 20
153.7271160372
 30
0.0
 11
232.6654770557
 21
122.4334565567
 31
0.0
  0
SPLINE
  5
238
330
1F
100
AcDbEntity
  8
0
  6
Continuous
 62
     7
370
    15
100
AcDbSpline
210
0.0
220
0.0
230
1.0
 70
     8
 71
     3
 72
    13
 73
     9
 74
     0
 42
0.00000001
 43
0.00000001
 40
0.0
 40
0.0
 40
0.0
 40
0.0
 40
0.1148461110317326
 40
0.3294932989282373
 40
0.5431859380981603
 40
0.7270264607147533
 40
0.9245766305460227
 40
1.0
 40
1.0
 40
1.0
 40
1.0
 10
365.2108434470834
 20
119.607268432499
 30
0.0
 10
365.3373486842523
 20
119.6843640268574
 30
0.0
 10
365.7002919964115
 20
119.9055511570944
 30
0.0
 10
366.2156350952853
 20
120.3346245879454
 30
0.0
 10
366.6832923352505
 20
120.8909496232367
 30
0.0
 10
366.9974715120008
 20
121.4974584364988
 30
0.0
 10
367.1574196323389
 20
121.9999937674812
 30
0.0
 10
367.1547837967302
 20
122.308374713461
 30
0.0
 10
367.1540555078145
 20
122.3935812506297
 30
0.0
  0
SPLINE
  5
239
330
1F
100
AcDbEntity
  8
0
  6
Continuous
 62
     7
370
    15
100
AcDbSpline
210
0.0
220
0.0
230
1.0
 70
     8
 71
     3
 72
    13
 73
     9
 74
     0
 42
0.00000001
 43
0.00000001
 40
0.0
 40
0.0
 40
0.0
 40
0.0
 40
0.0676700675112134
 40
0.2479616824261753
 40
0.4281053674596901
 40
0.6129287257372207
 40
0.8052436415101855
 40
1.0
 40
1.0
 40
1.0
 40
1.0
 10
232.6823278926164
 20
122.4841534705732
 30
0.0
 10
232.6784665926102
 20
122.4057326922702
 30
0.0
 10
232.6643177306229
 20
122.1183774576685
 30
0.0
 10
232.7949648221476
 20
121.6292574211883
 30
0.0
 10
233.059839511846
 20
121.0462601946305
 30
0.0
 10
233.4638386186651
 20
120.5083086951074
 30
0.0
 10
233.9799649021326
 20
120.0170439989607
 30
0.0
 10
234.411530687258
 20
119.7444334494726
 30
0.0
 10
234.6286746252055
 20
119.6072684324991
 30
0.0
  0
ELLIPSE
  5
23A
330
1F
100
AcDbEntity
  8
0
  6
Continuous
 62
     7
370
    15
100
AcDbEllipse
 10
299.9197590361
 20
131.3934507667
 30
0.0
 11
4.749999999999943
 21
0.0
 31
0.0
210
0.0
220
0.0
230
1.0
 40
0.5776834241
 41
3.92733343332542
 42
5.497444527443983
  0
ARC
  5
23B
330
1F
100
AcDbEntity
  8
0
  6
Continuous
 62
     7
370
    15
100
AcDbCircle
 10
302.236377545
 20
127.8293781639
 30
0.0
 40
1.928248764426285
100
AcDbArc
 50
3.5403530057
 51
57.3257242113
  0
ELLIPSE
  5
23C
330
1F
100
AcDbEntity
  8
0
  6
Continuous
 62
     7
370
    15
100
AcDbEllipse
 10
299.9197590361
 20
130.3727747519
 30
0.0
 11
6.0
 21
0.0
 31
0.0
210
0.0
220
0.0
230
1.0
 40
0.5712232209
 41
3.927333433325414
 42
5.497444527443979
  0
ARC
  5
23D
330
1F
100
AcDbEntity
  8
0
  6
Continuous
 62
     7
370
    15
100
AcDbCircle
 10
297.6031405273
 20
127.8293781639
 30
0.0
 40
1.928248764426801
100
AcDbArc
 50
122.6742757887
 51
176.4596469943
  0
ELLIPSE
  5
23E
330
1F
100
AcDbEntity
  8
0
  6
Continuous
 62
     7
370
    15
100
AcDbEllipse
 10
299.9197590361
 20
118.683801763
 30
0.0
 11
6.0
 21
0.0
 31
0.0
210
0.0
220
0.0
230
1.0
 40
0.5776834241
 41
3.927333433325417
 42
5.497444527443978
  0
LINE
  5
23F
330
1F
100
AcDbEntity
  8
0
  6
Continuous
 62
     7
370
    15
100
AcDbLine
 10
295.6785717199
 20
116.2320586547
 30
0.0
 11
295.6785717199
 21
127.9484504242
 31
0.0
  0
LINE
  5
240
330
1F
100
AcDbEntity
  8
0
  6
Continuous
 62
     7
370
    15
100
AcDbLine
 10
304.1609463524
 20
127.9484504242
 30
0.0
 11
304.1609463524
 21
116.2320586547
 31
0.0
  0
LINE
  5
241
330
1F
100
AcDbEntity
  8
0
  6
Continuous
 62
     7
370
    15
100
AcDbLine
 10
292.8486900652
 20
197.6308039709
 30
0.0
 11
246.886750974
 21
171.0975413099
 31
0.0
  0
LINE
  5
242
330
1F
100
AcDbEntity
  8
0
  6
Continuous
 62
     7
370
    15
100
AcDbLine
 10
246.886750974
 20
171.0975413099
 30
0.0
 11
306.990828007
 21
136.4001961925
 31
0.0
  0
LINE
  5
243
330
1F
100
AcDbEntity
  8
0
  6
Continuous
 62
     7
370
    15
100
AcDbLine
 10
306.990828007
 20
136.4001961925
 30
0.0
 11
352.9527670983
 21
162.9334588535
 31
0.0
  0
LINE
  5
244
330
1F
100
AcDbEntity
  8
0
  6
Continuous
 62
     7
370
    15
100
AcDbLine
 10
352.9527670983
 20
162.9334588535
 30
0.0
 11
292.8486900652
 21
197.6308039709
 31
0.0
  0
LWPOLYLINE
  5
245
330
1F
100
AcDbEntity
  8
0
  6
Continuous
 62
     7
370
    15
100
AcDbPolyline
 90
       31
 70
   128
 43
0.0
 10
359.316727855
 20
168.648316573
 10
358.790474402
 20
168.2731545153
 10
358.4108340298
 20
167.8430260087
 10
358.1944020602
 20
167.376729682
 10
358.1506378264
 20
166.8946471906
 10
358.2814511074
 20
166.4178475367
 10
358.5811310054
 20
165.9671670587
 10
359.0365698504
 20
165.5623046271
 10
359.62787433
 20
165.2209518169
 10
360.329195255
 20
164.9580310474
 10
361.1098786958
 20
164.7850310455
 10
361.9358120468
 20
164.709512625
 10
362.770891264
 20
164.7347787001
 10
363.5786277132
 20
164.8597222167
 10
364.323712872
 20
165.0788839386
 10
364.9735830317
 20
165.3826835904
 10
365.499839119
 20
165.7578471688
 10
365.8794768569
 20
166.1879741548
 10
366.0959088266
 20
166.6542704815
 10
366.1396756946
 20
167.1363514522
 10
366.0088597793
 20
167.6131526267
 10
365.7091825155
 20
168.0638315841
 10
365.2537410363
 20
168.4686955364
 10
364.6624365568
 20
168.8100483465
 10
363.9611182659
 20
169.0729675953
 10
363.180432191
 20
169.245969118
 10
362.3545014741
 20
169.3214860177
 10
361.5194196228
 20
169.2962214633
 10
360.7116831736
 20
169.1712779467
 10
359.9666006489
 20
168.9521177456
 10
359.316727855
 20
168.648316573
  0
LWPOLYLINE
  5
246
330
1F
100
AcDbEntity
  8
0
  6
Continuous
 62
     7
370
    15
100
AcDbPolyline
 90
       31
 70
   128
 43
0.0
 10
297.0913314478
 20
132.7263598475
 10
296.5650753606
 20
132.3511962691
 10
296.1854376226
 20
131.9210692831
 10
295.969005653
 20
131.4547729564
 10
295.9252414191
 20
130.9726904651
 10
296.0560547002
 20
130.4958908112
 10
296.3557345982
 20
130.0452103331
 10
296.8111734432
 20
129.6403479015
 10
297.4024779227
 20
129.2989950914
 10
298.1037988478
 20
129.0360743219
 10
298.8844822886
 20
128.8630743199
 10
299.7104156396
 20
128.7875558995
 10
300.5454948567
 20
128.8128219746
 10
301.3532313059
 20
128.9377654912
 10
302.0983138306
 20
129.1569256923
 10
302.7481866245
 20
129.4607268649
 10
303.2744400775
 20
129.8358889225
 10
303.6540804497
 20
130.2660174292
 10
303.8705124193
 20
130.7323137559
 10
303.9142792873
 20
131.2143947266
 10
303.7834633721
 20
131.6911959012
 10
303.4837861083
 20
132.1418748585
 10
303.0283446291
 20
132.5467388108
 10
302.4370401496
 20
132.8880916209
 10
301.7357218587
 20
133.1510108698
 10
300.9550357837
 20
133.3240123924
 10
300.1291050669
 20
133.3995292922
 10
299.2940232155
 20
133.3742647378
 10
298.4862867664
 20
133.2493212212
 10
297.7412016075
 20
133.0301594993
 10
297.0913314478
 20
132.7263598475
  0
LWPOLYLINE
  5
247
330
1F
100
AcDbEntity
  8
0
  6
Continuous
 62
     7
370
    15
100
AcDbPolyline
 90
       31
 70
   128
 43
0.0
 10
234.8659350405
 20
168.648316573
 10
234.3396789533
 20
168.2731529947
 10
233.9600412154
 20
167.8430260087
 10
233.7436092457
 20
167.376729682
 10
233.6998423777
 20
166.8946487113
 10
233.830658293
 20
166.4178475367
 10
234.1303355568
 20
165.9671685793
 10
234.585777036
 20
165.5623046271
 10
235.1770815155
 20
165.2209518169
 10
235.8783998064
 20
164.9580325681
 10
236.6590858813
 20
164.7850310455
 10
237.4850165982
 20
164.7095141457
 10
238.3200984495
 20
164.7347787001
 10
239.1278348987
 20
164.8597222167
 10
239.8729174234
 20
165.0788824179
 10
240.5227902173
 20
165.3826835904
 10
241.0490436703
 20
165.7578456481
 10
241.4286840424
 20
166.1879741548
 10
241.6451160121
 20
166.6542704815
 10
241.6888802459
 20
167.1363529728
 10
241.5580669648
 20
167.6131526267
 10
241.2583870669
 20
168.0638331048
 10
240.8029482219
 20
168.4686955364
 10
240.2116437423
 20
168.8100483465
 10
239.5103228173
 20
169.072969116
 10
238.7296393765
 20
169.245969118
 10
237.9037060255
 20
169.3214875384
 10
237.0686268083
 20
169.2962214633
 10
236.2608903591
 20
169.1712779467
 10
235.5158052003
 20
168.9521162249
 10
234.8659350405
 20
168.648316573
  0
LWPOLYLINE
  5
248
330
1F
100
AcDbEntity
  8
0
  6
Continuous
 62
     7
370
    15
100
AcDbPolyline
 90
       31
 70
   128
 43
0.0
 10
297.0913314478
 20
204.5702732986
 10
296.5650779947
 20
204.1951112409
 10
296.1854376226
 20
203.7649827342
 10
295.969005653
 20
203.2986864075
 10
295.925238785
 20
202.8166054368
 10
296.0560547002
 20
202.3398042623
 10
296.355731964
 20
201.8891253049
 10
296.8111734432
 20
201.4842613526
 10
297.4024779227
 20
201.1429085425
 10
298.1037962136
 20
200.8799892937
 10
298.8844822886
 20
200.706987771
 10
299.7104130054
 20
200.6314708713
 10
300.5454948567
 20
200.6567354257
 10
301.3532313059
 20
200.7816789423
 10
302.0983164648
 20
201.0008406641
 10
302.7481866245
 20
201.304640316
 10
303.2744427117
 20
201.6798038943
 10
303.6540804497
 20
202.1099308803
 10
303.8705124193
 20
202.576227207
 10
303.9142766531
 20
203.0583096984
 10
303.7834633721
 20
203.5351093523
 10
303.4837834741
 20
203.9857898303
 10
303.0283446291
 20
204.3906522619
 10
302.4370401496
 20
204.732005072
 10
301.7357192245
 20
204.9949258416
 10
300.9550357837
 20
205.1679258435
 10
300.1291024327
 20
205.243444264
 10
299.2940232155
 20
205.2181781889
 10
298.4862867664
 20
205.0932346723
 10
297.7412042417
 20
204.8740744711
 10
297.0913314478
 20
204.5702732986
  0
LINE
  5
249
330
1F
100
AcDbEntity
  8
0
  6
Continuous
 62
     7
370
    15
100
AcDbLine
 10
234.851663064
 20
165.0771944646
 30
0.0
 11
296.5621514229
 21
129.4524878282
 31
0.0
  0
ELLIPSE
  5
24A
330
1F
100
AcDbEntity
  8
0
  6
Continuous
 62
     7
370
    15
100
AcDbEllipse
 10
238.2138741542
 20
167.0154998724
 30
0.0
 11
4.75325597088883
 21
0.0
 31
0.0
210
0.0
220
0.0
230
1.0
 40
0.5768922712
 41
2.356537106530515
 42
3.926648200649081
  0
LINE
  5
24B
330
1F
100
AcDbEntity
  8
0
  6
Continuous
 62
     7
370
    15
100
AcDbLine
 10
296.5621514229
 20
204.5785123353
 30
0.0
 11
234.851663064
 21
168.9538056988
 31
0.0
  0
ELLIPSE
  5
24C
330
1F
100
AcDbEntity
  8
0
  6
Continuous
 62
     7
370
    15
100
AcDbEllipse
 10
299.9197590361
 20
202.6375489782
 30
0.0
 11
4.75
 21
0.0
 31
0.0
210
0.0
220
0.0
230
1.0
 40
0.5776834241
 41
0.7857407797356258
 42
2.355851873854159
  0
LINE
  5
24D
330
1F
100
AcDbEntity
  8
0
  6
Continuous
 62
     7
370
    15
100
AcDbLine
 10
364.9878550083
 20
168.9538056988
 30
0.0
 11
303.2773666493
 21
204.5785123353
 31
0.0
  0
ELLIPSE
  5
24E
330
1F
100
AcDbEntity
  8
0
  6
Continuous
 62
     7
370
    15
100
AcDbEllipse
 10
361.6256439181
 20
167.0154998724
 30
0.0
 11
4.753255970888802
 21
0.0
 31
0.0
210
0.0
220
0.0
230
1.0
 40
0.5768922712
 41
5.498129760120322
 42
7.06824085423886
  0
LINE
  5
24F
330
1F
100
AcDbEntity
  8
0
  6
Continuous
 62
     7
370
    15
100
AcDbLine
 10
303.2773666493
 20
129.4524878282
 30
0.0
 11
364.9878550083
 21
165.0771944646
 31
0.0
  0
LINE
  5
250
330
1F
100
AcDbEntity
  8
0
  6
Continuous
 62
     7
370
    15
100
AcDbLine
 10
297.0913314478
 20
130.1134291253
 30
0.0
 11
296.62152843
 21
129.7870778097
 31
0.0
  0
ARC
  5
251
330
1F
100
AcDbEntity
  8
0
  6
Continuous
 62
     7
370
    15
100
AcDbCircle
 10
299.8890967046
 20
124.9647706421
 30
0.0
 40
5.859707723839055
100
AcDbArc
 50
55.3822444409
 51
118.5195214903
  0
ARC
  5
252
330
1F
100
AcDbEntity
  8
0
  6
Continuous
 62
     7
370
    15
100
AcDbCircle
 10
363.946865904
 20
163.4540848004
 30
0.0
 40
1.92824876442657
100
AcDbArc
 50
3.5403530057
 51
57.3257242113
  0
LINE
  5
253
330
1F
100
AcDbEntity
  8
0
  6
Continuous
 62
     7
370
    15
100
AcDbLine
 10
365.8714347114
 20
163.5731570607
 30
0.0
 11
304.1609463524
 21
127.9484504242
 31
0.0
  0
LINE
  5
254
330
1F
100
AcDbEntity
  8
0
  6
Continuous
 62
     7
370
    15
100
AcDbLine
 10
295.6785717199
 20
127.9484504242
 30
0.0
 11
233.9680833609
 21
163.5731570607
 31
0.0
  0
ARC
  5
255
330
1F
100
AcDbEntity
  8
0
  6
Continuous
 62
     7
370
    15
100
AcDbCircle
 10
235.8926521683
 20
163.4540848004
 30
0.0
 40
1.928248764426655
100
AcDbArc
 50
122.6742757887
 51
176.4596469943
  0
ARC
  5
256
330
1F
100
AcDbEntity
  8
0
  6
Continuous
 62
     7
370
    15
100
AcDbCircle
 10
299.8957382675
 20
126.6749595945
 30
0.0
 40
3.142639682474349
100
AcDbArc
 50
50.2051163635
 51
119.9084701241
  0
LWPOLYLINE
  5
257
330
1F
100
AcDbEntity
  8
0
  6
Continuous
 62
     7
370
    15
100
AcDbPolyline
 90
        3
 70
   128
 43
0.0
 10
297.9323612731
 20
129.0895775072
 10
297.9585212951
 20
129.1172158409
 10
298.3287681884
 20
129.3990721005
  0
LINE
  5
258
330
1F
100
AcDbEntity
  8
0
  6
Continuous
 62
     7
370
    15
100
AcDbLine
 10
304.1609463524
 20
116.2320586547
 30
0.0
 11
366.3892508922
 21
152.1556942094
 31
0.0
  0
LINE
  5
259
330
1F
100
AcDbEntity
  8
0
  6
Continuous
 62
     7
370
    15
100
AcDbLine
 10
366.3892508922
 20
152.1556942094
 30
0.0
 11
365.8714347114
 21
163.5731570607
 31
0.0
  0
LINE
  5
25A
330
1F
100
AcDbEntity
  8
0
  6
Continuous
 62
     7
370
    15
100
AcDbLine
 10
233.4502671801
 20
152.1556942094
 30
0.0
 11
295.6785717199
 21
116.2320586547
 31
0.0
  0
LINE
  5
25B
330
1F
100
AcDbEntity
  8
0
  6
Continuous
 62
     7
370
    15
100
AcDbLine
 10
233.9680833609
 20
163.5731570607
 30
0.0
 11
233.4502671801
 21
152.1556942094
 31
0.0
  0
LINE
  5
25C
330
1F
100
AcDbEntity
  8
0
  6
Continuous
 62
     7
370
    15
100
AcDbLine
 10
292.8486900652
 20
196.8550899965
 30
0.0
 11
247.5586112519
 21
170.7096840181
 31
0.0
  0
LINE
  5
25D
330
1F
100
AcDbEntity
  8
0
  6
Continuous
 62
     7
370
    15
100
AcDbLine
 10
352.2809068204
 20
162.5456015617
 30
0.0
 11
292.8486900652
 21
196.8550899965
 31
0.0
  0
LINE
  5
25E
330
1F
100
AcDbEntity
  8
0
  6
Continuous
 62
     7
370
    15
100
AcDbLine
 10
292.8486900652
 20
196.8550899965
 30
0.0
 11
292.8486900652
 21
197.6308039709
 31
0.0
  0
LINE
  5
25F
330
1F
100
AcDbEntity
  8
0
  6
Continuous
 62
     7
370
    15
100
AcDbLine
 10
359.316727855
 20
166.0353858509
 30
0.0
 11
358.8469248372
 21
165.7090345352
 31
0.0
  0
ARC
  5
260
330
1F
100
AcDbEntity
  8
0
  6
Continuous
 62
     7
370
    15
100
AcDbCircle
 10
362.1144931118
 20
160.8867273677
 30
0.0
 40
5.859707723839159
100
AcDbArc
 50
55.3822444409
 51
118.5195214903
  0
LINE
  5
261
330
1F
100
AcDbEntity
  8
0
  6
Continuous
 62
     7
370
    15
100
AcDbLine
 10
234.8659350405
 20
166.0353858509
 30
0.0
 11
234.3961320227
 21
165.7090345352
 31
0.0
  0
ARC
  5
262
330
1F
100
AcDbEntity
  8
0
  6
Continuous
 62
     7
370
    15
100
AcDbCircle
 10
237.6637004789
 20
160.8867307765
 30
0.0
 40
5.859704815323813
100
AcDbArc
 50
55.3822269664
 51
118.5195389648
  0
ELLIPSE
  5
263
330
1F
100
AcDbEntity
  8
0
  6
Continuous
 62
     7
370
    15
100
AcDbEllipse
 10
361.6256439181
 20
165.9948238576
 30
0.0
 11
6.002310786226872
 21
0.0566271332444046
 31
0.0
210
0.0
220
0.0
230
1.0
 40
0.5770226591
 41
0.0207140578144784
 42
0.0372012527098034
  0
ELLIPSE
  5
264
330
1F
100
AcDbEntity
  8
0
  6
Continuous
 62
     7
370
    15
100
AcDbEllipse
 10
362.1422470898
 20
154.6040795318
 30
0.0
 11
6.00411280533325
 21
0.0
 31
0.0
210
0.0
220
0.0
230
1.0
 40
0.5768922712
 41
5.498129760120321
 42
6.309343071159907
  0
ELLIPSE
  5
265
330
1F
100
AcDbEntity
  8
0
  6
Continuous
 62
     7
370
    15
100
AcDbEllipse
 10
237.6972709825
 20
154.6040795318
 30
0.0
 11
6.00411280533325
 21
0.0
 31
0.0
210
0.0
220
0.0
230
1.0
 40
0.5768922712
 41
3.115434889609472
 42
3.926648200649094
  0
ARC
  5
266
330
1F
100
AcDbEntity
  8
0
  6
Continuous
 62
     7
370
    15
100
AcDbCircle
 10
362.1211346747
 20
162.5969163201
 30
0.0
 40
3.142639682474349
100
AcDbArc
 50
50.2051163635
 51
119.9084701241
  0
LWPOLYLINE
  5
267
330
1F
100
AcDbEntity
  8
0
  6
Continuous
 62
     7
370
    15
100
AcDbPolyline
 90
        3
 70
   128
 43
0.0
 10
360.1577576803
 20
165.0115342327
 10
360.1839177024
 20
165.0391725665
 10
360.5541645957
 20
165.321028826
  0
ARC
  5
268
330
1F
100
AcDbEntity
  8
0
  6
Continuous
 62
     7
370
    15
100
AcDbCircle
 10
237.6703418603
 20
162.5969163201
 30
0.0
 40
3.142639682474251
100
AcDbArc
 50
50.2051163635
 51
119.9084701241
  0
LWPOLYLINE
  5
269
330
1F
100
AcDbEntity
  8
0
  6
Continuous
 62
     7
370
    15
100
AcDbPolyline
 90
        3
 70
   128
 43
0.0
 10
235.7069648659
 20
165.0115342327
 10
235.7331248879
 20
165.0391725665
 10
236.1033717812
 20
165.321028826
  0
LINE
  5
26A
330
1F
100
AcDbEntity
  8
0
  6
Continuous
 62
     7
370
    15
100
AcDbLine
 10
297.0913314478
 20
201.9573425764
 30
0.0
 11
296.62152843
 21
201.6309912608
 31
0.0
  0
ARC
  5
26B
330
1F
100
AcDbEntity
  8
0
  6
Continuous
 62
     7
370
    15
100
AcDbCircle
 10
299.8890968862
 20
196.8086875021
 30
0.0
 40
5.859704815323736
100
AcDbArc
 50
55.3822269664
 51
118.5195389648
  0
ARC
  5
26C
330
1F
100
AcDbEntity
  8
0
  6
Continuous
 62
     7
370
    15
100
AcDbCircle
 10
299.8957382675
 20
198.5188730456
 30
0.0
 40
3.14263968247437
100
AcDbArc
 50
50.2051163635
 51
119.9084701241
  0
LWPOLYLINE
  5
26D
330
1F
100
AcDbEntity
  8
0
  6
Continuous
 62
     7
370
    15
100
AcDbPolyline
 90
        3
 70
   128
 43
0.0
 10
297.9323612731
 20
200.9334909583
 10
297.9585212951
 20
200.961129292
 10
298.3287681884
 20
201.2429855516
  0
SPLINE
  5
26E
330
1F
100
AcDbEntity
  8
0
  6
Continuous
 62
     7
370
    15
100
AcDbSpline
210
0.0
220
0.0
230
1.0
 70
     8
 71
     3
 72
    26
 73
    22
 74
     0
 42
0.00000001
 43
0.00000001
 40
0.0
 40
0.0
 40
0.0
 40
0.0
 40
0.1249999999999995
 40
0.1249999999999995
 40
0.1874999999999993
 40
0.1874999999999993
 40
0.2499999999999991
 40
0.2499999999999991
 40
0.3749999999999986
 40
0.3749999999999986
 40
0.4999999999999981
 40
0.4999999999999981
 40
0.6249999999999977
 40
0.6249999999999977
 40
0.6874999999999978
 40
0.6874999999999978
 40
0.7499999999999978
 40
0.7499999999999978
 40
0.8749999999999989
 40
0.8749999999999989
 40
1.0
 40
1.0
 40
1.0
 40
1.0
 10
296.0313179143447
 20
115.6200864634529
 30
0.0
 10
296.2880635737148
 20
115.4718703491673
 30
0.0
 10
296.5656938950341
 20
115.3406593127506
 30
0.0
 10
297.0121909214033
 20
115.1683118567246
 30
0.0
 10
297.166069022733
 20
115.114971151787
 30
0.0
 10
297.48414722175
 20
115.0166942998718
 30
0.0
 10
297.6488953947154
 20
114.9716849172682
 30
0.0
 10
298.1481297809287
 20
114.8522885040094
 30
0.0
 10
298.4906832204782
 20
114.7922740783701
 30
0.0
 10
299.1950752553551
 20
114.7110576355638
 30
0.0
 10
299.5592361878267
 20
114.6902647730936
 30
0.0
 10
300.276341037843
 20
114.6901164133221
 30
0.0
 10
300.6328738105128
 20
114.7100953516165
 30
0.0
 10
301.1645723287805
 20
114.7708500057545
 30
0.0
 10
301.3411622824785
 20
114.7963316344579
 30
0.0
 10
301.6855094869857
 20
114.856529890849
 30
0.0
 10
301.8542730546712
 20
114.8913449842921
 30
0.0
 10
302.3504908891558
 20
115.0097207093668
 30
0.0
 10
302.669642551223
 20
115.1077326674158
 30
0.0
 10
303.2723313025691
 20
115.339801023188
 30
0.0
 10
303.5514541940519
 20
115.4718701733705
 30
0.0
 10
303.808200157944
 20
115.6200864634529
 30
0.0
  0
SPLINE
  5
26F
330
1F
100
AcDbEntity
  8
0
  6
Continuous
 62
     7
370
    15
100
AcDbSpline
210
0.0
220
0.0
230
1.0
 70
     8
 71
     3
 72
    10
 73
     6
 74
     0
 42
0.00000001
 43
0.00000001
 40
0.0
 40
0.0
 40
0.0
 40
0.0
 40
0.2739470473036489
 40
0.6362186572831222
 40
1.0
 40
1.0
 40
1.0
 40
1.0
 10
232.3746400934187
 20
153.0258155589363
 30
0.0
 10
232.4444543434667
 20
152.8739035078135
 30
0.0
 10
232.6065919859853
 20
152.5211007229623
 30
0.0
 10
233.0864564788094
 20
152.0106676312956
 30
0.0
 10
233.5649071874729
 20
151.6989645604531
 30
0.0
 10
233.8046299798327
 20
151.5427889520226
 30
0.0
  0
LINE
  5
270
330
1F
100
AcDbEntity
  8
0
  6
Continuous
 62
     7
370
    15
100
AcDbLine
 10
233.8046299798
 20
151.542788952
 30
0.0
 11
296.0313171343
 21
115.620087094
 31
0.0
  0
LINE
  5
271
330
1F
100
AcDbEntity
  8
0
  6
Continuous
 62
     7
370
    15
100
AcDbLine
 10
303.808200938
 20
115.620087094
 30
0.0
 11
366.0348880925
 21
151.542788952
 31
0.0
  0
SPLINE
  5
272
330
1F
100
AcDbEntity
  8
0
  6
Continuous
 62
     7
370
    15
100
AcDbSpline
210
0.0
220
0.0
230
1.0
 70
     8
 71
     3
 72
    11
 73
     7
 74
     0
 42
0.00000001
 43
0.00000001
 40
0.0
 40
0.0
 40
0.0
 40
0.0
 40
0.3285613686744424
 40
0.6580381028020479
 40
0.9858171246233444
 40
1.0
 40
1.0
 40
1.0
 40
1.0
 10
366.0348880924562
 20
151.5427889520225
 30
0.0
 10
366.2758580103086
 20
151.6977302218282
 30
0.0
 10
366.7584691834224
 20
152.0080444247426
 30
0.0
 10
367.2420649119877
 20
152.5660960263024
 30
0.0
 10
367.5068707162135
 20
152.9689778730601
 30
0.0
 10
367.5423122110506
 20
153.1836601021348
 30
0.0
 10
367.5437821476387
 20
153.1925640511581
 30
0.0
  0
ELLIPSE
  5
273
330
1F
100
AcDbEntity
  8
0
  6
Continuous
 62
     7
370
    15
100
AcDbEllipse
 10
362.1191780447
 20
153.7875387199
 30
0.0
 11
6.001827797346323
 21
0.0
 31
0.0
210
0.0
220
0.0
230
1.0
 40
0.5771119048
 41
5.49793943702974
 42
6.383446464382083
  0
LINE
  5
274
330
1F
100
AcDbEntity
  8
0
  6
Continuous
 62
     7
370
    15
100
AcDbLine
 10
304.1617524109
 20
115.4302349316
 30
0.0
 11
366.3637573172
 21
151.3386880311
 31
0.0
  0
ELLIPSE
  5
275
330
1F
100
AcDbEntity
  8
0
  6
Continuous
 62
     7
370
    15
100
AcDbEllipse
 10
299.9197590361
 20
117.8805784274
 30
0.0
 11
6.0
 21
0.0
 31
0.0
210
0.0
220
0.0
230
1.0
 40
0.5774635729
 41
3.927143110234831
 42
5.49763485053457
  0
LINE
  5
276
330
1F
100
AcDbEntity
  8
0
  6
Continuous
 62
     7
370
    15
100
AcDbLine
 10
233.4757607551
 20
151.3386880311
 30
0.0
 11
295.6777656614
 21
115.4302349316
 31
0.0
  0
ELLIPSE
  5
277
330
1F
100
AcDbEntity
  8
0
  6
Continuous
 62
     7
370
    15
100
AcDbEllipse
 10
237.7203400276
 20
153.7875387199
 30
0.0
 11
6.001827797346294
 21
0.0
 31
0.0
210
0.0
220
0.0
230
1.0
 40
0.5771119048
 41
3.041331496387395
 42
3.926838523739669
  0
LINE
  5
278
330
1F
100
AcDbEntity
  8
0
  6
Continuous
 62
     7
370
    15
100
AcDbLine
 10
304.1617524109
 20
115.4302349316
 30
0.0
 11
304.1617550451
 21
84.6885127936
 31
0.0
  0
ELLIPSE
  5
279
330
1F
100
AcDbEntity
  8
0
  6
Continuous
 62
     7
370
    15
100
AcDbEllipse
 10
299.9197590361
 20
87.1528578199
 30
0.0
 11
6.0
 21
0.0
 31
0.0
210
0.0
220
0.0
230
1.0
 40
0.5807633493
 41
3.927143110234839
 42
5.497634850534563
  0
LINE
  5
27A
330
1F
100
AcDbEntity
  8
0
  6
Continuous
 62
     7
370
    15
100
AcDbLine
 10
295.6777630272
 20
84.6885127936
 30
0.0
 11
295.6777656614
 21
115.4302349316
 31
0.0
  0
LINE
  5
27B
330
1F
100
AcDbEntity
  8
0
  6
Continuous
 62
     7
370
    15
100
AcDbLine
 10
365.417884572
 20
120.0509236594
 30
0.0
 11
366.3637573172
 21
151.3386880311
 31
0.0
  0
LINE
  5
27C
330
1F
100
AcDbEntity
  8
0
  6
Continuous
 62
     7
370
    15
100
AcDbLine
 10
304.1617550451
 20
84.6885127936
 30
0.0
 11
365.417884572
 21
120.0509236594
 31
0.0
  0
LINE
  5
27D
330
1F
100
AcDbEntity
  8
0
  6
Continuous
 62
     7
370
    15
100
AcDbLine
 10
234.4216335003
 20
120.0509236594
 30
0.0
 11
295.6777630272
 21
84.6885127936
 31
0.0
  0
LINE
  5
27E
330
1F
100
AcDbEntity
  8
0
  6
Continuous
 62
     7
370
    15
100
AcDbLine
 10
233.4757607551
 20
151.3386880311
 30
0.0
 11
234.4216335003
 21
120.0509236594
 31
0.0
  0
ARC
  5
27F
330
1F
100
AcDbEntity
  8
0
  6
Continuous
 62
     8
370
    15
100
AcDbCircle
 10
365.3527938107
 20
168.4551716946
 30
0.0
 40
0.6179127767226832
100
AcDbArc
 50
65.1410499602
 51
126.1995420271
  0
ELLIPSE
  5
280
330
1F
100
AcDbEntity
  8
0
  6
Continuous
 62
     8
370
    15
100
AcDbEllipse
 10
361.6256439181
 20
165.9948238576
 30
0.0
 11
6.002310786226872
 21
0.0566271332444046
 31
0.0
210
0.0
220
0.0
230
1.0
 40
0.5770226591
 41
5.49268605395447
 42
6.303899364994064
  0
ELLIPSE
  5
281
330
1F
100
AcDbEntity
  8
0
  6
Continuous
 62
     8
370
    15
100
AcDbEllipse
 10
238.2138741542
 20
165.9948238576
 30
0.0
 11
6.002310786226844
 21
-0.05662713324443303
 31
0.0
210
0.0
220
0.0
230
1.0
 40
0.5770226591
 41
3.118053673331065
 42
3.932091906814944
  0
ARC
  5
282
330
1F
100
AcDbEntity
  8
0
  6
Continuous
 62
     8
370
    15
100
AcDbCircle
 10
234.4867192986
 20
168.4551273002
 30
0.0
 40
0.617951532999596
100
AcDbArc
 50
53.8025176596
 51
114.8575855373
  0
ARC
  5
283
330
1F
100
AcDbEntity
  8
0
  6
Continuous
 62
     8
370
    15
100
AcDbCircle
 10
303.6422724123
 20
204.0799634323
 30
0.0
 40
0.617824590414201
100
AcDbArc
 50
65.1085717238
 51
126.2017305557
  0
ARC
  5
284
330
1F
100
AcDbEntity
  8
0
  6
Continuous
 62
     8
370
    15
100
AcDbCircle
 10
296.19724566
 20
204.0799634323
 30
0.0
 40
0.6178245904142625
100
AcDbArc
 50
53.7982694443
 51
114.8914282762
  0
LINE
  5
285
330
1F
100
AcDbEntity
  8
0
  6
Continuous
 62
     8
370
    15
100
AcDbLine
 10
303.808200938
 20
115.620087094
 30
0.0
 11
303.808200938
 21
116.0440972713
 31
0.0
  0
LINE
  5
286
330
1F
100
AcDbEntity
  8
0
  6
Continuous
 62
     8
370
    15
100
AcDbLine
 10
296.0313171343
 20
115.620087094
 30
0.0
 11
296.0313171343
 21
116.0440972713
 31
0.0
  0
LINE
  5
287
330
1F
100
AcDbEntity
  8
0
  6
Continuous
 62
     8
370
    15
100
AcDbLine
 10
366.0348880925
 20
151.542788952
 30
0.0
 11
366.0348880925
 21
151.9511257277
 31
0.0
  0
LINE
  5
288
330
1F
100
AcDbEntity
  8
0
  6
Continuous
 62
     8
370
    15
100
AcDbLine
 10
233.8046299798
 20
151.542788952
 30
0.0
 11
233.8046299798
 21
151.9511257277
 31
0.0
  0
ARC
  5
289
330
1F
100
AcDbEntity
  8
0
  6
Continuous
 62
     8
370
    15
100
AcDbCircle
 10
296.1714202006
 20
84.6487396008
 30
0.0
 40
0.4952568139139725
100
AcDbArc
 50
175.3937176026
 51
234.626210182
  0
ARC
  5
28A
330
1F
100
AcDbEntity
  8
0
  6
Continuous
 62
     8
370
    15
100
AcDbCircle
 10
303.6680990528
 20
84.6487393675
 30
0.0
 40
0.4952556553307464
100
AcDbArc
 50
305.3733436582
 51
4.6063202748
  0
ARC
  5
28B
330
1F
100
AcDbEntity
  8
0
  6
Continuous
 62
     8
370
    15
100
AcDbCircle
 10
364.9242686499
 20
120.0111423224
 30
0.0
 40
0.495216350035296
100
AcDbArc
 50
305.3581798875
 51
4.6076049178
  0
ARC
  5
28C
330
1F
100
AcDbEntity
  8
0
  6
Continuous
 62
     8
370
    15
100
AcDbCircle
 10
234.9152494224
 20
120.0111423224
 30
0.0
 40
0.4952163500351663
100
AcDbArc
 50
175.3923950822
 51
234.6418201125
  0
ELLIPSE
  5
28D
330
1F
100
AcDbEntity
  8
0
  6
Continuous
 62
     8
370
    15
100
AcDbEllipse
 10
361.1737352848
 20
122.5140256247
 30
0.0
 11
6.001193285288138
 21
-0.03021569904254306
 31
0.0
210
0.0
220
0.0
230
1.0
 40
0.577160729
 41
5.500845403388149
 42
6.268646130148461
  0
ELLIPSE
  5
28E
330
1F
100
AcDbEntity
  8
0
  6
Continuous
 62
     8
370
    15
100
AcDbEllipse
 10
238.6657827875
 20
122.5140256247
 30
0.0
 11
6.00119328528811
 21
0.03021569904255728
 31
0.0
210
0.0
220
0.0
230
1.0
 40
0.577160729
 41
3.15613183062097
 42
3.92393255738126
  0
ENDSEC
  0
SECTION
  2
OBJECTS
  0
DICTIONARY
  5
C
330
0
100
AcDbDictionary
281
     1
  3
ACAD_GROUP
350
D
  3
ACAD_LAYOUT
350
1A
  3
ACAD_MLINESTYLE
350
17
  3
ACAD_PLOTSETTINGS
350
19
  3
ACAD_PLOTSTYLENAME
350
E
  0
DICTIONARY
  5
D
102
{ACAD_REACTORS
330
C
102
}
330
C
100
AcDbDictionary
281
     1
  0
DICTIONARY
  5
1A
102
{ACAD_REACTORS
330
C
102
}
330
C
100
AcDbDictionary
281
     1
  3
Layout1
350
1E
  3
Layout2
350
26
  3
Model
350
22
  0
DICTIONARY
  5
17
102
{ACAD_REACTORS
330
C
102
}
330
C
100
AcDbDictionary
281
     1
  3
Standard
350
18
  0
DICTIONARY
  5
19
102
{ACAD_REACTORS
330
C
102
}
330
C
100
AcDbDictionary
281
     1
  0
ACDBDICTIONARYWDFLT
  5
E
102
{ACAD_REACTORS
330
C
102
}
330
C
100
AcDbDictionary
281
     1
  3
Normal
350
F
100
AcDbDictionaryWithDefault
340
F
  0
LAYOUT
  5
1E
102
{ACAD_REACTORS
330
1A
102
}
330
1A
100
AcDbPlotSettings
  1

  2
none_device
  4

  6

 40
0.0
 41
0.0
 42
0.0
 43
0.0
 44
0.0
 45
0.0
 46
0.0
 47
0.0
 48
0.0
 49
0.0
140
0.0
141
0.0
142
1.0
143
1.0
 70
   688
 72
     0
 73
     0
 74
     5
  7

 75
    16
147
1.0
148
0.0
149
0.0
100
AcDbLayout
  1
Layout1
 70
     1
 71
     1
 10
0.0
 20
0.0
 11
420.0
 21
297.0
 12
0.0
 22
0.0
 32
0.0
 14
1.0000000000E+20
 24
1.0000000000E+20
 34
1.0000000000E+20
 15
-1.0000000000E+20
 25
-1.0000000000E+20
 35
-1.0000000000E+20
146
0.0
 13
0.0
 23
0.0
 33
0.0
 16
1.0
 26
0.0
 36
0.0
 17
0.0
 27
1.0
 37
0.0
 76
     0
330
1B
  0
LAYOUT
  5
26
102
{ACAD_REACTORS
330
1A
102
}
330
1A
100
AcDbPlotSettings
  1

  2
none_device
  4

  6

 40
0.0
 41
0.0
 42
0.0
 43
0.0
 44
0.0
 45
0.0
 46
0.0
 47
0.0
 48
0.0
 49
0.0
140
0.0
141
0.0
142
1.0
143
1.0
 70
   688
 72
     0
 73
     0
 74
     5
  7

 75
    16
147
1.0
148
0.0
149
0.0
100
AcDbLayout
  1
Layout2
 70
     1
 71
     2
 10
0.0
 20
0.0
 11
0.0
 21
0.0
 12
0.0
 22
0.0
 32
0.0
 14
0.0
 24
0.0
 34
0.0
 15
0.0
 25
0.0
 35
0.0
146
0.0
 13
0.0
 23
0.0
 33
0.0
 16
1.0
 26
0.0
 36
0.0
 17
0.0
 27
1.0
 37
0.0
 76
     0
330
23
  0
LAYOUT
  5
22
102
{ACAD_REACTORS
330
1A
102
}
330
1A
100
AcDbPlotSettings
  1

  2
none_device
  4

  6

 40
0.0
 41
0.0
 42
0.0
 43
0.0
 44
0.0
 45
0.0
 46
0.0
 47
0.0
 48
0.0
 49
0.0
140
0.0
141
0.0
142
1.0
143
1.0
 70
  1712
 72
     0
 73
     0
 74
     0
  7

 75
     0
147
1.0
148
0.0
149
0.0
100
AcDbLayout
  1
Model
 70
     1
 71
     0
 10
0.0
 20
0.0
 11
420.0
 21
297.0
 12
0.0
 22
0.0
 32
0.0
 14
0.0
 24
0.0
 34
0.0
 15
420.0
 25
297.0
 35
0.0
146
0.0
 13
0.0
 23
0.0
 33
0.0
 16
1.0
 26
0.0
 36
0.0
 17
0.0
 27
1.0
 37
0.0
 76
     0
330
1F
331
29
  0
MLINESTYLE
  5
18
102
{ACAD_REACTORS
330
17
102
}
330
17
100
AcDbMlineStyle
  2
Standard
 70
     0
  3

 62
   256
 51
90.0
 52
90.0
 71
     2
 49
0.5
 62
   256
  6
BYLAYER
 49
-0.5
 62
   256
  6
BYLAYER
  0
ACDBPLACEHOLDER
  5
F
102
{ACAD_REACTORS
330
E
102
}
330
E
  0
ENDSEC
  0
EOF
