G04 #@! TF.FileFunction,Profile,NP*
%FSLAX46Y46*%
G04 Gerber Fmt 4.6, Leading zero omitted, Abs format (unit mm)*
G04 Created by KiCad (PCBNEW 4.0.6) date 09/08/17 15:19:16*
%MOMM*%
%LPD*%
G01*
G04 APERTURE LIST*
%ADD10C,0.150000*%
%ADD11C,0.300000*%
%ADD12C,0.400000*%
%ADD13C,0.100000*%
G04 APERTURE END LIST*
D10*
X177002200Y-166007200D02*
X177002200Y-198007200D01*
X285002200Y-198007200D01*
X285002200Y-166007200D01*
X177002200Y-166007200D01*
X10000000Y-10000000D02*
X10000000Y-200007200D01*
X287002200Y-200007200D01*
X287002200Y-10000000D01*
X10000000Y-10000000D01*
X12000000Y-12000000D02*
X12000000Y-198007200D01*
X285002200Y-198007200D01*
X285002200Y-12000000D01*
X12000000Y-12000000D01*
X60000000Y-12000000D02*
X60000000Y-10000000D01*
X110000000Y-12000000D02*
X110000000Y-10000000D01*
X160000000Y-12000000D02*
X160000000Y-10000000D01*
X210000000Y-12000000D02*
X210000000Y-10000000D01*
X260000000Y-12000000D02*
X260000000Y-10000000D01*
X35990476Y-11588095D02*
X35247619Y-11588095D01*
X35619048Y-11588095D02*
X35619048Y-10288095D01*
X35495238Y-10473810D01*
X35371429Y-10597619D01*
X35247619Y-10659524D01*
X85247619Y-10411905D02*
X85309524Y-10350000D01*
X85433333Y-10288095D01*
X85742857Y-10288095D01*
X85866667Y-10350000D01*
X85928571Y-10411905D01*
X85990476Y-10535714D01*
X85990476Y-10659524D01*
X85928571Y-10845238D01*
X85185714Y-11588095D01*
X85990476Y-11588095D01*
X135185714Y-10288095D02*
X135990476Y-10288095D01*
X135557143Y-10783333D01*
X135742857Y-10783333D01*
X135866667Y-10845238D01*
X135928571Y-10907143D01*
X135990476Y-11030952D01*
X135990476Y-11340476D01*
X135928571Y-11464286D01*
X135866667Y-11526190D01*
X135742857Y-11588095D01*
X135371429Y-11588095D01*
X135247619Y-11526190D01*
X135185714Y-11464286D01*
X185866667Y-10721429D02*
X185866667Y-11588095D01*
X185557143Y-10226190D02*
X185247619Y-11154762D01*
X186052381Y-11154762D01*
X235928571Y-10288095D02*
X235309524Y-10288095D01*
X235247619Y-10907143D01*
X235309524Y-10845238D01*
X235433333Y-10783333D01*
X235742857Y-10783333D01*
X235866667Y-10845238D01*
X235928571Y-10907143D01*
X235990476Y-11030952D01*
X235990476Y-11340476D01*
X235928571Y-11464286D01*
X235866667Y-11526190D01*
X235742857Y-11588095D01*
X235433333Y-11588095D01*
X235309524Y-11526190D01*
X235247619Y-11464286D01*
X285866667Y-10288095D02*
X285619048Y-10288095D01*
X285495238Y-10350000D01*
X285433333Y-10411905D01*
X285309524Y-10597619D01*
X285247619Y-10845238D01*
X285247619Y-11340476D01*
X285309524Y-11464286D01*
X285371429Y-11526190D01*
X285495238Y-11588095D01*
X285742857Y-11588095D01*
X285866667Y-11526190D01*
X285928571Y-11464286D01*
X285990476Y-11340476D01*
X285990476Y-11030952D01*
X285928571Y-10907143D01*
X285866667Y-10845238D01*
X285742857Y-10783333D01*
X285495238Y-10783333D01*
X285371429Y-10845238D01*
X285309524Y-10907143D01*
X285247619Y-11030952D01*
X60000000Y-198007200D02*
X60000000Y-200007200D01*
X110000000Y-198007200D02*
X110000000Y-200007200D01*
X160000000Y-198007200D02*
X160000000Y-200007200D01*
X210000000Y-198007200D02*
X210000000Y-200007200D01*
X260000000Y-198007200D02*
X260000000Y-200007200D01*
X35990476Y-199595295D02*
X35247619Y-199595295D01*
X35619048Y-199595295D02*
X35619048Y-198295295D01*
X35495238Y-198481010D01*
X35371429Y-198604819D01*
X35247619Y-198666724D01*
X85247619Y-198419105D02*
X85309524Y-198357200D01*
X85433333Y-198295295D01*
X85742857Y-198295295D01*
X85866667Y-198357200D01*
X85928571Y-198419105D01*
X85990476Y-198542914D01*
X85990476Y-198666724D01*
X85928571Y-198852438D01*
X85185714Y-199595295D01*
X85990476Y-199595295D01*
X135185714Y-198295295D02*
X135990476Y-198295295D01*
X135557143Y-198790533D01*
X135742857Y-198790533D01*
X135866667Y-198852438D01*
X135928571Y-198914343D01*
X135990476Y-199038152D01*
X135990476Y-199347676D01*
X135928571Y-199471486D01*
X135866667Y-199533390D01*
X135742857Y-199595295D01*
X135371429Y-199595295D01*
X135247619Y-199533390D01*
X135185714Y-199471486D01*
X185866667Y-198728629D02*
X185866667Y-199595295D01*
X185557143Y-198233390D02*
X185247619Y-199161962D01*
X186052381Y-199161962D01*
X235928571Y-198295295D02*
X235309524Y-198295295D01*
X235247619Y-198914343D01*
X235309524Y-198852438D01*
X235433333Y-198790533D01*
X235742857Y-198790533D01*
X235866667Y-198852438D01*
X235928571Y-198914343D01*
X235990476Y-199038152D01*
X235990476Y-199347676D01*
X235928571Y-199471486D01*
X235866667Y-199533390D01*
X235742857Y-199595295D01*
X235433333Y-199595295D01*
X235309524Y-199533390D01*
X235247619Y-199471486D01*
X285866667Y-198295295D02*
X285619048Y-198295295D01*
X285495238Y-198357200D01*
X285433333Y-198419105D01*
X285309524Y-198604819D01*
X285247619Y-198852438D01*
X285247619Y-199347676D01*
X285309524Y-199471486D01*
X285371429Y-199533390D01*
X285495238Y-199595295D01*
X285742857Y-199595295D01*
X285866667Y-199533390D01*
X285928571Y-199471486D01*
X285990476Y-199347676D01*
X285990476Y-199038152D01*
X285928571Y-198914343D01*
X285866667Y-198852438D01*
X285742857Y-198790533D01*
X285495238Y-198790533D01*
X285371429Y-198852438D01*
X285309524Y-198914343D01*
X285247619Y-199038152D01*
X10000000Y-60000000D02*
X12000000Y-60000000D01*
X10000000Y-110000000D02*
X12000000Y-110000000D01*
X10000000Y-160000000D02*
X12000000Y-160000000D01*
X10690476Y-35216667D02*
X11309524Y-35216667D01*
X10566667Y-35588095D02*
X11000000Y-34288095D01*
X11433333Y-35588095D01*
X11092857Y-84907143D02*
X11278571Y-84969048D01*
X11340476Y-85030952D01*
X11402381Y-85154762D01*
X11402381Y-85340476D01*
X11340476Y-85464286D01*
X11278571Y-85526190D01*
X11154762Y-85588095D01*
X10659524Y-85588095D01*
X10659524Y-84288095D01*
X11092857Y-84288095D01*
X11216667Y-84350000D01*
X11278571Y-84411905D01*
X11340476Y-84535714D01*
X11340476Y-84659524D01*
X11278571Y-84783333D01*
X11216667Y-84845238D01*
X11092857Y-84907143D01*
X10659524Y-84907143D01*
X11402381Y-135464286D02*
X11340476Y-135526190D01*
X11154762Y-135588095D01*
X11030952Y-135588095D01*
X10845238Y-135526190D01*
X10721429Y-135402381D01*
X10659524Y-135278571D01*
X10597619Y-135030952D01*
X10597619Y-134845238D01*
X10659524Y-134597619D01*
X10721429Y-134473810D01*
X10845238Y-134350000D01*
X11030952Y-134288095D01*
X11154762Y-134288095D01*
X11340476Y-134350000D01*
X11402381Y-134411905D01*
X10659524Y-185588095D02*
X10659524Y-184288095D01*
X10969048Y-184288095D01*
X11154762Y-184350000D01*
X11278571Y-184473810D01*
X11340476Y-184597619D01*
X11402381Y-184845238D01*
X11402381Y-185030952D01*
X11340476Y-185278571D01*
X11278571Y-185402381D01*
X11154762Y-185526190D01*
X10969048Y-185588095D01*
X10659524Y-185588095D01*
X287002200Y-60000000D02*
X285002200Y-60000000D01*
X287002200Y-110000000D02*
X285002200Y-110000000D01*
X287002200Y-160000000D02*
X285002200Y-160000000D01*
X285692676Y-35216667D02*
X286311724Y-35216667D01*
X285568867Y-35588095D02*
X286002200Y-34288095D01*
X286435533Y-35588095D01*
X286095057Y-84907143D02*
X286280771Y-84969048D01*
X286342676Y-85030952D01*
X286404581Y-85154762D01*
X286404581Y-85340476D01*
X286342676Y-85464286D01*
X286280771Y-85526190D01*
X286156962Y-85588095D01*
X285661724Y-85588095D01*
X285661724Y-84288095D01*
X286095057Y-84288095D01*
X286218867Y-84350000D01*
X286280771Y-84411905D01*
X286342676Y-84535714D01*
X286342676Y-84659524D01*
X286280771Y-84783333D01*
X286218867Y-84845238D01*
X286095057Y-84907143D01*
X285661724Y-84907143D01*
X286404581Y-135464286D02*
X286342676Y-135526190D01*
X286156962Y-135588095D01*
X286033152Y-135588095D01*
X285847438Y-135526190D01*
X285723629Y-135402381D01*
X285661724Y-135278571D01*
X285599819Y-135030952D01*
X285599819Y-134845238D01*
X285661724Y-134597619D01*
X285723629Y-134473810D01*
X285847438Y-134350000D01*
X286033152Y-134288095D01*
X286156962Y-134288095D01*
X286342676Y-134350000D01*
X286404581Y-134411905D01*
X285661724Y-185588095D02*
X285661724Y-184288095D01*
X285971248Y-184288095D01*
X286156962Y-184350000D01*
X286280771Y-184473810D01*
X286342676Y-184597619D01*
X286404581Y-184845238D01*
X286404581Y-185030952D01*
X286342676Y-185278571D01*
X286280771Y-185402381D01*
X286156962Y-185526190D01*
X285971248Y-185588095D01*
X285661724Y-185588095D01*
X200359343Y-193785771D02*
X200359343Y-192285771D01*
X200716486Y-192285771D01*
X200930771Y-192357200D01*
X201073629Y-192500057D01*
X201145057Y-192642914D01*
X201216486Y-192928629D01*
X201216486Y-193142914D01*
X201145057Y-193428629D01*
X201073629Y-193571486D01*
X200930771Y-193714343D01*
X200716486Y-193785771D01*
X200359343Y-193785771D01*
X202502200Y-193785771D02*
X202502200Y-193000057D01*
X202430771Y-192857200D01*
X202287914Y-192785771D01*
X202002200Y-192785771D01*
X201859343Y-192857200D01*
X202502200Y-193714343D02*
X202359343Y-193785771D01*
X202002200Y-193785771D01*
X201859343Y-193714343D01*
X201787914Y-193571486D01*
X201787914Y-193428629D01*
X201859343Y-193285771D01*
X202002200Y-193214343D01*
X202359343Y-193214343D01*
X202502200Y-193142914D01*
X203002200Y-192785771D02*
X203573629Y-192785771D01*
X203216486Y-192285771D02*
X203216486Y-193571486D01*
X203287914Y-193714343D01*
X203430772Y-193785771D01*
X203573629Y-193785771D01*
X204645057Y-193714343D02*
X204502200Y-193785771D01*
X204216486Y-193785771D01*
X204073629Y-193714343D01*
X204002200Y-193571486D01*
X204002200Y-193000057D01*
X204073629Y-192857200D01*
X204216486Y-192785771D01*
X204502200Y-192785771D01*
X204645057Y-192857200D01*
X204716486Y-193000057D01*
X204716486Y-193142914D01*
X204002200Y-193285771D01*
X205359343Y-193642914D02*
X205430771Y-193714343D01*
X205359343Y-193785771D01*
X205287914Y-193714343D01*
X205359343Y-193642914D01*
X205359343Y-193785771D01*
X205359343Y-192857200D02*
X205430771Y-192928629D01*
X205359343Y-193000057D01*
X205287914Y-192928629D01*
X205359343Y-192857200D01*
X205359343Y-193000057D01*
X177002200Y-194507200D02*
X285002200Y-194507200D01*
X178359343Y-196585771D02*
X178359343Y-195085771D01*
X179216486Y-196585771D02*
X178573629Y-195728629D01*
X179216486Y-195085771D02*
X178359343Y-195942914D01*
X179859343Y-196585771D02*
X179859343Y-195585771D01*
X179859343Y-195085771D02*
X179787914Y-195157200D01*
X179859343Y-195228629D01*
X179930771Y-195157200D01*
X179859343Y-195085771D01*
X179859343Y-195228629D01*
X181430772Y-196442914D02*
X181359343Y-196514343D01*
X181145057Y-196585771D01*
X181002200Y-196585771D01*
X180787915Y-196514343D01*
X180645057Y-196371486D01*
X180573629Y-196228629D01*
X180502200Y-195942914D01*
X180502200Y-195728629D01*
X180573629Y-195442914D01*
X180645057Y-195300057D01*
X180787915Y-195157200D01*
X181002200Y-195085771D01*
X181145057Y-195085771D01*
X181359343Y-195157200D01*
X181430772Y-195228629D01*
X182716486Y-196585771D02*
X182716486Y-195800057D01*
X182645057Y-195657200D01*
X182502200Y-195585771D01*
X182216486Y-195585771D01*
X182073629Y-195657200D01*
X182716486Y-196514343D02*
X182573629Y-196585771D01*
X182216486Y-196585771D01*
X182073629Y-196514343D01*
X182002200Y-196371486D01*
X182002200Y-196228629D01*
X182073629Y-196085771D01*
X182216486Y-196014343D01*
X182573629Y-196014343D01*
X182716486Y-195942914D01*
X184073629Y-196585771D02*
X184073629Y-195085771D01*
X184073629Y-196514343D02*
X183930772Y-196585771D01*
X183645058Y-196585771D01*
X183502200Y-196514343D01*
X183430772Y-196442914D01*
X183359343Y-196300057D01*
X183359343Y-195871486D01*
X183430772Y-195728629D01*
X183502200Y-195657200D01*
X183645058Y-195585771D01*
X183930772Y-195585771D01*
X184073629Y-195657200D01*
X185930772Y-195800057D02*
X186430772Y-195800057D01*
X186645058Y-196585771D02*
X185930772Y-196585771D01*
X185930772Y-195085771D01*
X186645058Y-195085771D01*
X187287915Y-196442914D02*
X187359343Y-196514343D01*
X187287915Y-196585771D01*
X187216486Y-196514343D01*
X187287915Y-196442914D01*
X187287915Y-196585771D01*
X188002201Y-196585771D02*
X188002201Y-195085771D01*
X188359344Y-195085771D01*
X188573629Y-195157200D01*
X188716487Y-195300057D01*
X188787915Y-195442914D01*
X188859344Y-195728629D01*
X188859344Y-195942914D01*
X188787915Y-196228629D01*
X188716487Y-196371486D01*
X188573629Y-196514343D01*
X188359344Y-196585771D01*
X188002201Y-196585771D01*
X189502201Y-196442914D02*
X189573629Y-196514343D01*
X189502201Y-196585771D01*
X189430772Y-196514343D01*
X189502201Y-196442914D01*
X189502201Y-196585771D01*
X190145058Y-196157200D02*
X190859344Y-196157200D01*
X190002201Y-196585771D02*
X190502201Y-195085771D01*
X191002201Y-196585771D01*
X191502201Y-196442914D02*
X191573629Y-196514343D01*
X191502201Y-196585771D01*
X191430772Y-196514343D01*
X191502201Y-196442914D01*
X191502201Y-196585771D01*
X194502201Y-196585771D02*
X194502201Y-195085771D01*
X194645058Y-196014343D02*
X195073629Y-196585771D01*
X195073629Y-195585771D02*
X194502201Y-196157200D01*
X195716487Y-196585771D02*
X195716487Y-195585771D01*
X195716487Y-195085771D02*
X195645058Y-195157200D01*
X195716487Y-195228629D01*
X195787915Y-195157200D01*
X195716487Y-195085771D01*
X195716487Y-195228629D01*
X197073630Y-196514343D02*
X196930773Y-196585771D01*
X196645059Y-196585771D01*
X196502201Y-196514343D01*
X196430773Y-196442914D01*
X196359344Y-196300057D01*
X196359344Y-195871486D01*
X196430773Y-195728629D01*
X196502201Y-195657200D01*
X196645059Y-195585771D01*
X196930773Y-195585771D01*
X197073630Y-195657200D01*
X198359344Y-196585771D02*
X198359344Y-195800057D01*
X198287915Y-195657200D01*
X198145058Y-195585771D01*
X197859344Y-195585771D01*
X197716487Y-195657200D01*
X198359344Y-196514343D02*
X198216487Y-196585771D01*
X197859344Y-196585771D01*
X197716487Y-196514343D01*
X197645058Y-196371486D01*
X197645058Y-196228629D01*
X197716487Y-196085771D01*
X197859344Y-196014343D01*
X198216487Y-196014343D01*
X198359344Y-195942914D01*
X199716487Y-196585771D02*
X199716487Y-195085771D01*
X199716487Y-196514343D02*
X199573630Y-196585771D01*
X199287916Y-196585771D01*
X199145058Y-196514343D01*
X199073630Y-196442914D01*
X199002201Y-196300057D01*
X199002201Y-195871486D01*
X199073630Y-195728629D01*
X199145058Y-195657200D01*
X199287916Y-195585771D01*
X199573630Y-195585771D01*
X199716487Y-195657200D01*
X202216487Y-195585771D02*
X202216487Y-196585771D01*
X201859344Y-195014343D02*
X201502201Y-196085771D01*
X202430773Y-196085771D01*
X203002201Y-196442914D02*
X203073629Y-196514343D01*
X203002201Y-196585771D01*
X202930772Y-196514343D01*
X203002201Y-196442914D01*
X203002201Y-196585771D01*
X204002201Y-195085771D02*
X204145058Y-195085771D01*
X204287915Y-195157200D01*
X204359344Y-195228629D01*
X204430773Y-195371486D01*
X204502201Y-195657200D01*
X204502201Y-196014343D01*
X204430773Y-196300057D01*
X204359344Y-196442914D01*
X204287915Y-196514343D01*
X204145058Y-196585771D01*
X204002201Y-196585771D01*
X203859344Y-196514343D01*
X203787915Y-196442914D01*
X203716487Y-196300057D01*
X203645058Y-196014343D01*
X203645058Y-195657200D01*
X203716487Y-195371486D01*
X203787915Y-195228629D01*
X203859344Y-195157200D01*
X204002201Y-195085771D01*
X205145058Y-196442914D02*
X205216486Y-196514343D01*
X205145058Y-196585771D01*
X205073629Y-196514343D01*
X205145058Y-196442914D01*
X205145058Y-196585771D01*
X206502201Y-195085771D02*
X206216487Y-195085771D01*
X206073630Y-195157200D01*
X206002201Y-195228629D01*
X205859344Y-195442914D01*
X205787915Y-195728629D01*
X205787915Y-196300057D01*
X205859344Y-196442914D01*
X205930772Y-196514343D01*
X206073630Y-196585771D01*
X206359344Y-196585771D01*
X206502201Y-196514343D01*
X206573630Y-196442914D01*
X206645058Y-196300057D01*
X206645058Y-195942914D01*
X206573630Y-195800057D01*
X206502201Y-195728629D01*
X206359344Y-195657200D01*
X206073630Y-195657200D01*
X205930772Y-195728629D01*
X205859344Y-195800057D01*
X205787915Y-195942914D01*
X177002200Y-191507200D02*
X285002200Y-191507200D01*
D11*
X264216486Y-193785771D02*
X263716486Y-193071486D01*
X263359343Y-193785771D02*
X263359343Y-192285771D01*
X263930771Y-192285771D01*
X264073629Y-192357200D01*
X264145057Y-192428629D01*
X264216486Y-192571486D01*
X264216486Y-192785771D01*
X264145057Y-192928629D01*
X264073629Y-193000057D01*
X263930771Y-193071486D01*
X263359343Y-193071486D01*
X265430771Y-193714343D02*
X265287914Y-193785771D01*
X265002200Y-193785771D01*
X264859343Y-193714343D01*
X264787914Y-193571486D01*
X264787914Y-193000057D01*
X264859343Y-192857200D01*
X265002200Y-192785771D01*
X265287914Y-192785771D01*
X265430771Y-192857200D01*
X265502200Y-193000057D01*
X265502200Y-193142914D01*
X264787914Y-193285771D01*
X266002200Y-192785771D02*
X266359343Y-193785771D01*
X266716485Y-192785771D01*
X267287914Y-193642914D02*
X267359342Y-193714343D01*
X267287914Y-193785771D01*
X267216485Y-193714343D01*
X267287914Y-193642914D01*
X267287914Y-193785771D01*
X267287914Y-192857200D02*
X267359342Y-192928629D01*
X267287914Y-193000057D01*
X267216485Y-192928629D01*
X267287914Y-192857200D01*
X267287914Y-193000057D01*
X270002200Y-193642914D02*
X269930771Y-193714343D01*
X269716485Y-193785771D01*
X269573628Y-193785771D01*
X269359343Y-193714343D01*
X269216485Y-193571486D01*
X269145057Y-193428629D01*
X269073628Y-193142914D01*
X269073628Y-192928629D01*
X269145057Y-192642914D01*
X269216485Y-192500057D01*
X269359343Y-192357200D01*
X269573628Y-192285771D01*
X269716485Y-192285771D01*
X269930771Y-192357200D01*
X270002200Y-192428629D01*
D10*
X178287914Y-193714343D02*
X178502200Y-193785771D01*
X178859343Y-193785771D01*
X179002200Y-193714343D01*
X179073629Y-193642914D01*
X179145057Y-193500057D01*
X179145057Y-193357200D01*
X179073629Y-193214343D01*
X179002200Y-193142914D01*
X178859343Y-193071486D01*
X178573629Y-193000057D01*
X178430771Y-192928629D01*
X178359343Y-192857200D01*
X178287914Y-192714343D01*
X178287914Y-192571486D01*
X178359343Y-192428629D01*
X178430771Y-192357200D01*
X178573629Y-192285771D01*
X178930771Y-192285771D01*
X179145057Y-192357200D01*
X179787914Y-193785771D02*
X179787914Y-192785771D01*
X179787914Y-192285771D02*
X179716485Y-192357200D01*
X179787914Y-192428629D01*
X179859342Y-192357200D01*
X179787914Y-192285771D01*
X179787914Y-192428629D01*
X180359343Y-192785771D02*
X181145057Y-192785771D01*
X180359343Y-193785771D01*
X181145057Y-193785771D01*
X182287914Y-193714343D02*
X182145057Y-193785771D01*
X181859343Y-193785771D01*
X181716486Y-193714343D01*
X181645057Y-193571486D01*
X181645057Y-193000057D01*
X181716486Y-192857200D01*
X181859343Y-192785771D01*
X182145057Y-192785771D01*
X182287914Y-192857200D01*
X182359343Y-193000057D01*
X182359343Y-193142914D01*
X181645057Y-193285771D01*
X183002200Y-193642914D02*
X183073628Y-193714343D01*
X183002200Y-193785771D01*
X182930771Y-193714343D01*
X183002200Y-193642914D01*
X183002200Y-193785771D01*
X183002200Y-192857200D02*
X183073628Y-192928629D01*
X183002200Y-193000057D01*
X182930771Y-192928629D01*
X183002200Y-192857200D01*
X183002200Y-193000057D01*
X184787914Y-193357200D02*
X185502200Y-193357200D01*
X184645057Y-193785771D02*
X185145057Y-192285771D01*
X185645057Y-193785771D01*
X186787914Y-192785771D02*
X186787914Y-193785771D01*
X186430771Y-192214343D02*
X186073628Y-193285771D01*
X187002200Y-193285771D01*
X263359343Y-196585771D02*
X263359343Y-195085771D01*
X264716486Y-196585771D02*
X264716486Y-195085771D01*
X264716486Y-196514343D02*
X264573629Y-196585771D01*
X264287915Y-196585771D01*
X264145057Y-196514343D01*
X264073629Y-196442914D01*
X264002200Y-196300057D01*
X264002200Y-195871486D01*
X264073629Y-195728629D01*
X264145057Y-195657200D01*
X264287915Y-195585771D01*
X264573629Y-195585771D01*
X264716486Y-195657200D01*
X265430772Y-196442914D02*
X265502200Y-196514343D01*
X265430772Y-196585771D01*
X265359343Y-196514343D01*
X265430772Y-196442914D01*
X265430772Y-196585771D01*
X265430772Y-195657200D02*
X265502200Y-195728629D01*
X265430772Y-195800057D01*
X265359343Y-195728629D01*
X265430772Y-195657200D01*
X265430772Y-195800057D01*
X268073629Y-196585771D02*
X267216486Y-196585771D01*
X267645058Y-196585771D02*
X267645058Y-195085771D01*
X267502201Y-195300057D01*
X267359343Y-195442914D01*
X267216486Y-195514343D01*
X269787914Y-195014343D02*
X268502200Y-196942914D01*
X271073629Y-196585771D02*
X270216486Y-196585771D01*
X270645058Y-196585771D02*
X270645058Y-195085771D01*
X270502201Y-195300057D01*
X270359343Y-195442914D01*
X270216486Y-195514343D01*
X177002200Y-187507200D02*
X285002200Y-187507200D01*
D12*
X178454581Y-188211962D02*
X179597438Y-188211962D01*
X178776010Y-190211962D02*
X179026010Y-188211962D01*
X180014105Y-190211962D02*
X180180771Y-188878629D01*
X180264105Y-188211962D02*
X180156962Y-188307200D01*
X180240295Y-188402438D01*
X180347439Y-188307200D01*
X180264105Y-188211962D01*
X180240295Y-188402438D01*
X180847438Y-188878629D02*
X181609343Y-188878629D01*
X181216486Y-188211962D02*
X181002200Y-189926248D01*
X181073630Y-190116724D01*
X181252201Y-190211962D01*
X181442677Y-190211962D01*
X182395058Y-190211962D02*
X182216487Y-190116724D01*
X182145057Y-189926248D01*
X182359343Y-188211962D01*
X183930772Y-190116724D02*
X183728391Y-190211962D01*
X183347439Y-190211962D01*
X183168867Y-190116724D01*
X183097438Y-189926248D01*
X183192676Y-189164343D01*
X183311724Y-188973867D01*
X183514105Y-188878629D01*
X183895057Y-188878629D01*
X184073629Y-188973867D01*
X184145057Y-189164343D01*
X184121248Y-189354819D01*
X183145057Y-189545295D01*
X184895057Y-190021486D02*
X184978392Y-190116724D01*
X184871248Y-190211962D01*
X184787915Y-190116724D01*
X184895057Y-190021486D01*
X184871248Y-190211962D01*
X185026010Y-188973867D02*
X185109344Y-189069105D01*
X185002200Y-189164343D01*
X184918867Y-189069105D01*
X185026010Y-188973867D01*
X185002200Y-189164343D01*
X187264106Y-190116724D02*
X187537916Y-190211962D01*
X188014106Y-190211962D01*
X188216487Y-190116724D01*
X188323629Y-190021486D01*
X188442678Y-189831010D01*
X188466487Y-189640533D01*
X188395058Y-189450057D01*
X188311725Y-189354819D01*
X188133153Y-189259581D01*
X187764106Y-189164343D01*
X187585535Y-189069105D01*
X187502201Y-188973867D01*
X187430772Y-188783390D01*
X187454582Y-188592914D01*
X187573629Y-188402438D01*
X187680773Y-188307200D01*
X187883154Y-188211962D01*
X188359344Y-188211962D01*
X188633154Y-188307200D01*
X189252201Y-190211962D02*
X189418867Y-188878629D01*
X189502201Y-188211962D02*
X189395058Y-188307200D01*
X189478391Y-188402438D01*
X189585535Y-188307200D01*
X189502201Y-188211962D01*
X189478391Y-188402438D01*
X191228391Y-188878629D02*
X191061725Y-190211962D01*
X190847440Y-188116724D02*
X190192677Y-189545295D01*
X191430773Y-189545295D01*
X192168868Y-188211962D02*
X193406964Y-188211962D01*
X192645059Y-188973867D01*
X192930773Y-188973867D01*
X193109344Y-189069105D01*
X193192677Y-189164343D01*
X193264107Y-189354819D01*
X193204583Y-189831010D01*
X193085534Y-190021486D01*
X192978392Y-190116724D01*
X192776011Y-190211962D01*
X192204583Y-190211962D01*
X192026011Y-190116724D01*
X191942677Y-190021486D01*
X195121249Y-188211962D02*
X194740297Y-188211962D01*
X194537916Y-188307200D01*
X194430773Y-188402438D01*
X194204582Y-188688152D01*
X194061725Y-189069105D01*
X193966487Y-189831010D01*
X194037915Y-190021486D01*
X194121250Y-190116724D01*
X194299821Y-190211962D01*
X194680773Y-190211962D01*
X194883154Y-190116724D01*
X194990296Y-190021486D01*
X195109345Y-189831010D01*
X195168869Y-189354819D01*
X195097439Y-189164343D01*
X195014106Y-189069105D01*
X194835535Y-188973867D01*
X194454583Y-188973867D01*
X194252202Y-189069105D01*
X194145058Y-189164343D01*
X194026011Y-189354819D01*
X196049820Y-188402438D02*
X196156963Y-188307200D01*
X196359345Y-188211962D01*
X196835535Y-188211962D01*
X197014106Y-188307200D01*
X197097439Y-188402438D01*
X197168869Y-188592914D01*
X197145059Y-188783390D01*
X197014106Y-189069105D01*
X195728392Y-190211962D01*
X196966488Y-190211962D01*
X200145059Y-189164343D02*
X200418868Y-189259581D01*
X200502203Y-189354819D01*
X200573631Y-189545295D01*
X200537917Y-189831010D01*
X200418869Y-190021486D01*
X200311726Y-190116724D01*
X200109345Y-190211962D01*
X199347440Y-190211962D01*
X199597440Y-188211962D01*
X200264107Y-188211962D01*
X200442678Y-188307200D01*
X200526011Y-188402438D01*
X200597441Y-188592914D01*
X200573631Y-188783390D01*
X200454583Y-188973867D01*
X200347440Y-189069105D01*
X200145059Y-189164343D01*
X199478392Y-189164343D01*
X201347440Y-190211962D02*
X201514106Y-188878629D01*
X201466487Y-189259581D02*
X201585536Y-189069105D01*
X201692679Y-188973867D01*
X201895059Y-188878629D01*
X202085535Y-188878629D01*
X203359345Y-190116724D02*
X203156964Y-190211962D01*
X202776012Y-190211962D01*
X202597440Y-190116724D01*
X202526011Y-189926248D01*
X202621249Y-189164343D01*
X202740297Y-188973867D01*
X202942678Y-188878629D01*
X203323630Y-188878629D01*
X203502202Y-188973867D01*
X203573630Y-189164343D01*
X203549821Y-189354819D01*
X202573630Y-189545295D01*
X205156964Y-190211962D02*
X205287916Y-189164343D01*
X205216488Y-188973867D01*
X205037916Y-188878629D01*
X204656964Y-188878629D01*
X204454583Y-188973867D01*
X205168869Y-190116724D02*
X204966488Y-190211962D01*
X204490298Y-190211962D01*
X204311726Y-190116724D01*
X204240297Y-189926248D01*
X204264107Y-189735771D01*
X204383154Y-189545295D01*
X204585536Y-189450057D01*
X205061726Y-189450057D01*
X205264107Y-189354819D01*
X206109345Y-190211962D02*
X206359345Y-188211962D01*
X206395060Y-189450057D02*
X206871250Y-190211962D01*
X207037916Y-188878629D02*
X206180773Y-189640533D01*
X208014108Y-190211962D02*
X207835537Y-190116724D01*
X207752202Y-190021486D01*
X207680774Y-189831010D01*
X207752202Y-189259581D01*
X207871250Y-189069105D01*
X207978394Y-188973867D01*
X208180774Y-188878629D01*
X208466488Y-188878629D01*
X208645060Y-188973867D01*
X208728393Y-189069105D01*
X208799821Y-189259581D01*
X208728393Y-189831010D01*
X208609345Y-190021486D01*
X208502203Y-190116724D01*
X208299822Y-190211962D01*
X208014108Y-190211962D01*
X210561726Y-188878629D02*
X210395060Y-190211962D01*
X209704583Y-188878629D02*
X209573631Y-189926248D01*
X209645061Y-190116724D01*
X209823632Y-190211962D01*
X210109346Y-190211962D01*
X210311727Y-190116724D01*
X210418869Y-190021486D01*
X211228393Y-188878629D02*
X211990298Y-188878629D01*
X211597441Y-188211962D02*
X211383155Y-189926248D01*
X211454585Y-190116724D01*
X211633156Y-190211962D01*
X211823632Y-190211962D01*
D10*
X178859343Y-185600057D02*
X178359343Y-185600057D01*
X178359343Y-186385771D02*
X178359343Y-184885771D01*
X179073629Y-184885771D01*
X179645057Y-186385771D02*
X179645057Y-185385771D01*
X179645057Y-184885771D02*
X179573628Y-184957200D01*
X179645057Y-185028629D01*
X179716485Y-184957200D01*
X179645057Y-184885771D01*
X179645057Y-185028629D01*
X180573629Y-186385771D02*
X180430771Y-186314343D01*
X180359343Y-186171486D01*
X180359343Y-184885771D01*
X181716485Y-186314343D02*
X181573628Y-186385771D01*
X181287914Y-186385771D01*
X181145057Y-186314343D01*
X181073628Y-186171486D01*
X181073628Y-185600057D01*
X181145057Y-185457200D01*
X181287914Y-185385771D01*
X181573628Y-185385771D01*
X181716485Y-185457200D01*
X181787914Y-185600057D01*
X181787914Y-185742914D01*
X181073628Y-185885771D01*
X182430771Y-186242914D02*
X182502199Y-186314343D01*
X182430771Y-186385771D01*
X182359342Y-186314343D01*
X182430771Y-186242914D01*
X182430771Y-186385771D01*
X182430771Y-185457200D02*
X182502199Y-185528629D01*
X182430771Y-185600057D01*
X182359342Y-185528629D01*
X182430771Y-185457200D01*
X182430771Y-185600057D01*
X184216485Y-185957200D02*
X184930771Y-185957200D01*
X184073628Y-186385771D02*
X184573628Y-184885771D01*
X185073628Y-186385771D01*
X185573628Y-186385771D02*
X185573628Y-184885771D01*
X186216485Y-186314343D02*
X186430771Y-186385771D01*
X186787914Y-186385771D01*
X186930771Y-186314343D01*
X187002200Y-186242914D01*
X187073628Y-186100057D01*
X187073628Y-185957200D01*
X187002200Y-185814343D01*
X186930771Y-185742914D01*
X186787914Y-185671486D01*
X186502200Y-185600057D01*
X186359342Y-185528629D01*
X186287914Y-185457200D01*
X186216485Y-185314343D01*
X186216485Y-185171486D01*
X186287914Y-185028629D01*
X186359342Y-184957200D01*
X186502200Y-184885771D01*
X186859342Y-184885771D01*
X187073628Y-184957200D01*
X188573628Y-186385771D02*
X188073628Y-185671486D01*
X187716485Y-186385771D02*
X187716485Y-184885771D01*
X188287913Y-184885771D01*
X188430771Y-184957200D01*
X188502199Y-185028629D01*
X188573628Y-185171486D01*
X188573628Y-185385771D01*
X188502199Y-185528629D01*
X188430771Y-185600057D01*
X188287913Y-185671486D01*
X187716485Y-185671486D01*
X189787913Y-186314343D02*
X189645056Y-186385771D01*
X189359342Y-186385771D01*
X189216485Y-186314343D01*
X189145056Y-186171486D01*
X189145056Y-185600057D01*
X189216485Y-185457200D01*
X189359342Y-185385771D01*
X189645056Y-185385771D01*
X189787913Y-185457200D01*
X189859342Y-185600057D01*
X189859342Y-185742914D01*
X189145056Y-185885771D01*
X191145056Y-186314343D02*
X191002199Y-186385771D01*
X190716485Y-186385771D01*
X190573627Y-186314343D01*
X190502199Y-186242914D01*
X190430770Y-186100057D01*
X190430770Y-185671486D01*
X190502199Y-185528629D01*
X190573627Y-185457200D01*
X190716485Y-185385771D01*
X191002199Y-185385771D01*
X191145056Y-185457200D01*
X192359341Y-186314343D02*
X192216484Y-186385771D01*
X191930770Y-186385771D01*
X191787913Y-186314343D01*
X191716484Y-186171486D01*
X191716484Y-185600057D01*
X191787913Y-185457200D01*
X191930770Y-185385771D01*
X192216484Y-185385771D01*
X192359341Y-185457200D01*
X192430770Y-185600057D01*
X192430770Y-185742914D01*
X191716484Y-185885771D01*
X193073627Y-186385771D02*
X193073627Y-185385771D01*
X193073627Y-184885771D02*
X193002198Y-184957200D01*
X193073627Y-185028629D01*
X193145055Y-184957200D01*
X193073627Y-184885771D01*
X193073627Y-185028629D01*
X193645056Y-185385771D02*
X194002199Y-186385771D01*
X194359341Y-185385771D01*
X195502198Y-186314343D02*
X195359341Y-186385771D01*
X195073627Y-186385771D01*
X194930770Y-186314343D01*
X194859341Y-186171486D01*
X194859341Y-185600057D01*
X194930770Y-185457200D01*
X195073627Y-185385771D01*
X195359341Y-185385771D01*
X195502198Y-185457200D01*
X195573627Y-185600057D01*
X195573627Y-185742914D01*
X194859341Y-185885771D01*
X196216484Y-186385771D02*
X196216484Y-185385771D01*
X196216484Y-185671486D02*
X196287912Y-185528629D01*
X196359341Y-185457200D01*
X196502198Y-185385771D01*
X196645055Y-185385771D01*
X197145055Y-186242914D02*
X197216483Y-186314343D01*
X197145055Y-186385771D01*
X197073626Y-186314343D01*
X197145055Y-186242914D01*
X197145055Y-186385771D01*
X197859341Y-186385771D02*
X197859341Y-184885771D01*
X198002198Y-185814343D02*
X198430769Y-186385771D01*
X198430769Y-185385771D02*
X197859341Y-185957200D01*
X199073627Y-186385771D02*
X199073627Y-185385771D01*
X199073627Y-184885771D02*
X199002198Y-184957200D01*
X199073627Y-185028629D01*
X199145055Y-184957200D01*
X199073627Y-184885771D01*
X199073627Y-185028629D01*
X200430770Y-186314343D02*
X200287913Y-186385771D01*
X200002199Y-186385771D01*
X199859341Y-186314343D01*
X199787913Y-186242914D01*
X199716484Y-186100057D01*
X199716484Y-185671486D01*
X199787913Y-185528629D01*
X199859341Y-185457200D01*
X200002199Y-185385771D01*
X200287913Y-185385771D01*
X200430770Y-185457200D01*
X201716484Y-186385771D02*
X201716484Y-185600057D01*
X201645055Y-185457200D01*
X201502198Y-185385771D01*
X201216484Y-185385771D01*
X201073627Y-185457200D01*
X201716484Y-186314343D02*
X201573627Y-186385771D01*
X201216484Y-186385771D01*
X201073627Y-186314343D01*
X201002198Y-186171486D01*
X201002198Y-186028629D01*
X201073627Y-185885771D01*
X201216484Y-185814343D01*
X201573627Y-185814343D01*
X201716484Y-185742914D01*
X203073627Y-186385771D02*
X203073627Y-184885771D01*
X203073627Y-186314343D02*
X202930770Y-186385771D01*
X202645056Y-186385771D01*
X202502198Y-186314343D01*
X202430770Y-186242914D01*
X202359341Y-186100057D01*
X202359341Y-185671486D01*
X202430770Y-185528629D01*
X202502198Y-185457200D01*
X202645056Y-185385771D01*
X202930770Y-185385771D01*
X203073627Y-185457200D01*
X203430770Y-186528629D02*
X204573627Y-186528629D01*
X204930770Y-185385771D02*
X204930770Y-186885771D01*
X204930770Y-185457200D02*
X205073627Y-185385771D01*
X205359341Y-185385771D01*
X205502198Y-185457200D01*
X205573627Y-185528629D01*
X205645056Y-185671486D01*
X205645056Y-186100057D01*
X205573627Y-186242914D01*
X205502198Y-186314343D01*
X205359341Y-186385771D01*
X205073627Y-186385771D01*
X204930770Y-186314343D01*
X206930770Y-186314343D02*
X206787913Y-186385771D01*
X206502199Y-186385771D01*
X206359341Y-186314343D01*
X206287913Y-186242914D01*
X206216484Y-186100057D01*
X206216484Y-185671486D01*
X206287913Y-185528629D01*
X206359341Y-185457200D01*
X206502199Y-185385771D01*
X206787913Y-185385771D01*
X206930770Y-185457200D01*
X207573627Y-186385771D02*
X207573627Y-184885771D01*
X207573627Y-185457200D02*
X207716484Y-185385771D01*
X208002198Y-185385771D01*
X208145055Y-185457200D01*
X208216484Y-185528629D01*
X208287913Y-185671486D01*
X208287913Y-186100057D01*
X208216484Y-186242914D01*
X208145055Y-186314343D01*
X208002198Y-186385771D01*
X207716484Y-186385771D01*
X207573627Y-186314343D01*
X177002200Y-181507200D02*
X285002200Y-181507200D01*
X178287914Y-183614343D02*
X178502200Y-183685771D01*
X178859343Y-183685771D01*
X179002200Y-183614343D01*
X179073629Y-183542914D01*
X179145057Y-183400057D01*
X179145057Y-183257200D01*
X179073629Y-183114343D01*
X179002200Y-183042914D01*
X178859343Y-182971486D01*
X178573629Y-182900057D01*
X178430771Y-182828629D01*
X178359343Y-182757200D01*
X178287914Y-182614343D01*
X178287914Y-182471486D01*
X178359343Y-182328629D01*
X178430771Y-182257200D01*
X178573629Y-182185771D01*
X178930771Y-182185771D01*
X179145057Y-182257200D01*
X179787914Y-183685771D02*
X179787914Y-182185771D01*
X180430771Y-183685771D02*
X180430771Y-182900057D01*
X180359342Y-182757200D01*
X180216485Y-182685771D01*
X180002200Y-182685771D01*
X179859342Y-182757200D01*
X179787914Y-182828629D01*
X181716485Y-183614343D02*
X181573628Y-183685771D01*
X181287914Y-183685771D01*
X181145057Y-183614343D01*
X181073628Y-183471486D01*
X181073628Y-182900057D01*
X181145057Y-182757200D01*
X181287914Y-182685771D01*
X181573628Y-182685771D01*
X181716485Y-182757200D01*
X181787914Y-182900057D01*
X181787914Y-183042914D01*
X181073628Y-183185771D01*
X183002199Y-183614343D02*
X182859342Y-183685771D01*
X182573628Y-183685771D01*
X182430771Y-183614343D01*
X182359342Y-183471486D01*
X182359342Y-182900057D01*
X182430771Y-182757200D01*
X182573628Y-182685771D01*
X182859342Y-182685771D01*
X183002199Y-182757200D01*
X183073628Y-182900057D01*
X183073628Y-183042914D01*
X182359342Y-183185771D01*
X183502199Y-182685771D02*
X184073628Y-182685771D01*
X183716485Y-182185771D02*
X183716485Y-183471486D01*
X183787913Y-183614343D01*
X183930771Y-183685771D01*
X184073628Y-183685771D01*
X184573628Y-183542914D02*
X184645056Y-183614343D01*
X184573628Y-183685771D01*
X184502199Y-183614343D01*
X184573628Y-183542914D01*
X184573628Y-183685771D01*
X184573628Y-182757200D02*
X184645056Y-182828629D01*
X184573628Y-182900057D01*
X184502199Y-182828629D01*
X184573628Y-182757200D01*
X184573628Y-182900057D01*
X197002200Y-191507200D02*
X197002200Y-194507200D01*
X261002200Y-191507200D02*
X261002200Y-198007200D01*
D13*
X71145400Y-28803600D02*
X71145400Y-90779600D01*
X68617414Y-32104200D02*
G75*
G03X68617414Y-32104200I-1414214J0D01*
G01*
X63144400Y-28803600D02*
X71145400Y-28803600D01*
X63144400Y-20802600D02*
X63144400Y-28803600D01*
X31140400Y-20802600D02*
X63144400Y-20802600D01*
X31134400Y-20812600D02*
X31134400Y-28813600D01*
X23134400Y-28813600D02*
X31135400Y-28813600D01*
X23125400Y-28823600D02*
X23125400Y-90799600D01*
X28536614Y-84826600D02*
G75*
G03X28536614Y-84826600I-1414214J0D01*
G01*
X31115400Y-90829600D02*
X23114400Y-90829600D01*
X31122400Y-90926600D02*
X31122400Y-99036600D01*
X31140400Y-99034600D02*
X63144400Y-99034600D01*
X63144400Y-90779600D02*
X63144400Y-98844100D01*
X71145400Y-90779600D02*
X63144400Y-90779600D01*
X63144400Y-98526600D02*
X63144400Y-99034600D01*
X31122400Y-99036600D02*
X31242400Y-99036600D01*
X31122400Y-90826600D02*
X31122400Y-90996600D01*
M02*
