M48
INCH,TZ
T1C0.013
T2C0.020
T3C0.022
T4C0.035
T5C0.039
T6C0.045
%
G90
G05
T1
X9430Y-19600
X9640Y-32330
X9780Y-25190
X10660Y-14830
X10830Y-16250
X11360Y-25070
X12180Y-30590
X12370Y-33100
X12380Y-31870
X12460Y-16390
X12560Y-15190
X13160Y-15690
X13160Y-20790
X13260Y-14890
X13360Y-25090
X13460Y-27490
X13680Y-30810
X13760Y-13390
X13760Y-17190
X14000Y-17980
X14210Y-15470
X14960Y-19290
X14960Y-33290
X14990Y-29890
X15060Y-26190
X15160Y-28840
X15400Y-33080
X15440Y-25250
X15460Y-18590
X15620Y-19300
X15930Y-17010
X16060Y-13690
X16060Y-14190
X16060Y-14690
X16060Y-16590
X16170Y-28480
X16180Y-32310
X16380Y-14950
X16400Y-26340
X16560Y-16290
X16750Y-15170
X16950Y-21430
X16960Y-12570
X16980Y-32380
X17060Y-15780
X17060Y-16590
X17060Y-17400
X17130Y-19100
X17160Y-30790
X17360Y-24490
X17360Y-28690
X17460Y-31890
X17540Y-19110
X17660Y-16590
X17660Y-17190
X18010Y-15990
X18110Y-16590
X18110Y-17190
X18110Y-19050
X18110Y-32390
X18120Y-19680
X18160Y-28790
X18160Y-33090
X18226Y-20146
X18260Y-20990
X18460Y-16890
X18590Y-17470
X18660Y-26090
X18700Y-36470
X18760Y-26790
X18860Y-23590
X18960Y-21890
X18970Y-29740
X19050Y-30240
X19260Y-27390
X19300Y-20460
X19300Y-36580
X19360Y-25790
X19360Y-27720
X19670Y-20180
X19860Y-19290
X19860Y-35090
X19890Y-34180
X20070Y-26580
X20130Y-27960
X20170Y-27390
X20170Y-35440
X20360Y-19390
X20360Y-20190
X20690Y-31090
X20760Y-12290
X20960Y-14690
X20960Y-16290
X20960Y-19490
X21160Y-13690
X21380Y-29940
X21430Y-27620
X21450Y-26800
X21460Y-26360
X21560Y-18490
X21560Y-19790
X21560Y-20490
X21650Y-25920
X21760Y-29240
X21800Y-30600
X21850Y-27020
X22050Y-32400
X22060Y-32990
X22100Y-28390
X22250Y-24460
X22260Y-25580
X22340Y-27650
X22340Y-28690
X22570Y-29860
X22850Y-26810
X23160Y-17290
X23170Y-16270
X23310Y-15190
X23810Y-18290
X23920Y-30980
X23930Y-30510
X23990Y-28750
X24010Y-27800
X24060Y-26790
X24160Y-15960
X24230Y-28250
X24300Y-15170
X24350Y-33780
X24370Y-32540
X24510Y-33040
X24710Y-31550
X24760Y-20400
X24890Y-34270
X24930Y-16820
X25010Y-33590
X25190Y-23910
X25390Y-28440
X25530Y-16870
X25760Y-17890
X25890Y-27570
X25930Y-28660
X25950Y-28990
X26040Y-30280
X26390Y-16740
X26910Y-28360
X26930Y-16700
X27300Y-17020
X27360Y-17490
X27520Y-18690
T2
X25000Y-31100
T3
X15796Y-36969
X17764Y-36969
T4
X20371Y-38101
X21355Y-38101
T5
X10960Y-26190
X10960Y-27390
X10960Y-28590
X10960Y-29790
X11960Y-26190
X11960Y-27390
X11960Y-28590
X11960Y-29790
X14158Y-19292
X14158Y-20292
X14158Y-21292
X14158Y-22292
X14158Y-23292
X14158Y-24292
X14158Y-25292
X14158Y-26292
X14158Y-27292
X14158Y-28292
X14158Y-29292
X14158Y-30292
X14158Y-31292
X14158Y-32292
X14158Y-33292
X14158Y-34292
X14158Y-35292
X14158Y-36292
X14158Y-37292
X14158Y-38292
X15560Y-22490
X15560Y-23490
X16560Y-22490
X16560Y-23490
X17560Y-22490
X17560Y-23490
X23158Y-19292
X23158Y-20292
X23158Y-21292
X23158Y-22292
X23158Y-23292
X23158Y-24292
X23158Y-25292
X23158Y-26292
X23158Y-27292
X23158Y-28292
X23158Y-29292
X23158Y-30292
X23158Y-31292
X23158Y-32292
X23158Y-33292
X23158Y-34292
X23158Y-35292
X23158Y-36292
X23158Y-37292
X23158Y-38292
T6
X15402Y-38031
X18158Y-38031
T0
M30
