G04 #@! TF.FileFunction,Legend,Top*
%FSLAX46Y46*%
G04 Gerber Fmt 4.6, Leading zero omitted, Abs format (unit mm)*
G04 Created by KiCad (PCBNEW 4.0.6) date 09/08/17 15:19:15*
%MOMM*%
%LPD*%
G01*
G04 APERTURE LIST*
%ADD10C,0.150000*%
%ADD11C,0.300000*%
%ADD12C,0.400000*%
%ADD13C,0.125000*%
%ADD14C,0.120000*%
%ADD15C,0.500000*%
%ADD16C,0.050000*%
G04 APERTURE END LIST*
D10*
X177002200Y-166007200D02*
X177002200Y-198007200D01*
X285002200Y-198007200D01*
X285002200Y-166007200D01*
X177002200Y-166007200D01*
X10000000Y-10000000D02*
X10000000Y-200007200D01*
X287002200Y-200007200D01*
X287002200Y-10000000D01*
X10000000Y-10000000D01*
X12000000Y-12000000D02*
X12000000Y-198007200D01*
X285002200Y-198007200D01*
X285002200Y-12000000D01*
X12000000Y-12000000D01*
X60000000Y-12000000D02*
X60000000Y-10000000D01*
X110000000Y-12000000D02*
X110000000Y-10000000D01*
X160000000Y-12000000D02*
X160000000Y-10000000D01*
X210000000Y-12000000D02*
X210000000Y-10000000D01*
X260000000Y-12000000D02*
X260000000Y-10000000D01*
X35990476Y-11588095D02*
X35247619Y-11588095D01*
X35619048Y-11588095D02*
X35619048Y-10288095D01*
X35495238Y-10473810D01*
X35371429Y-10597619D01*
X35247619Y-10659524D01*
X85247619Y-10411905D02*
X85309524Y-10350000D01*
X85433333Y-10288095D01*
X85742857Y-10288095D01*
X85866667Y-10350000D01*
X85928571Y-10411905D01*
X85990476Y-10535714D01*
X85990476Y-10659524D01*
X85928571Y-10845238D01*
X85185714Y-11588095D01*
X85990476Y-11588095D01*
X135185714Y-10288095D02*
X135990476Y-10288095D01*
X135557143Y-10783333D01*
X135742857Y-10783333D01*
X135866667Y-10845238D01*
X135928571Y-10907143D01*
X135990476Y-11030952D01*
X135990476Y-11340476D01*
X135928571Y-11464286D01*
X135866667Y-11526190D01*
X135742857Y-11588095D01*
X135371429Y-11588095D01*
X135247619Y-11526190D01*
X135185714Y-11464286D01*
X185866667Y-10721429D02*
X185866667Y-11588095D01*
X185557143Y-10226190D02*
X185247619Y-11154762D01*
X186052381Y-11154762D01*
X235928571Y-10288095D02*
X235309524Y-10288095D01*
X235247619Y-10907143D01*
X235309524Y-10845238D01*
X235433333Y-10783333D01*
X235742857Y-10783333D01*
X235866667Y-10845238D01*
X235928571Y-10907143D01*
X235990476Y-11030952D01*
X235990476Y-11340476D01*
X235928571Y-11464286D01*
X235866667Y-11526190D01*
X235742857Y-11588095D01*
X235433333Y-11588095D01*
X235309524Y-11526190D01*
X235247619Y-11464286D01*
X285866667Y-10288095D02*
X285619048Y-10288095D01*
X285495238Y-10350000D01*
X285433333Y-10411905D01*
X285309524Y-10597619D01*
X285247619Y-10845238D01*
X285247619Y-11340476D01*
X285309524Y-11464286D01*
X285371429Y-11526190D01*
X285495238Y-11588095D01*
X285742857Y-11588095D01*
X285866667Y-11526190D01*
X285928571Y-11464286D01*
X285990476Y-11340476D01*
X285990476Y-11030952D01*
X285928571Y-10907143D01*
X285866667Y-10845238D01*
X285742857Y-10783333D01*
X285495238Y-10783333D01*
X285371429Y-10845238D01*
X285309524Y-10907143D01*
X285247619Y-11030952D01*
X60000000Y-198007200D02*
X60000000Y-200007200D01*
X110000000Y-198007200D02*
X110000000Y-200007200D01*
X160000000Y-198007200D02*
X160000000Y-200007200D01*
X210000000Y-198007200D02*
X210000000Y-200007200D01*
X260000000Y-198007200D02*
X260000000Y-200007200D01*
X35990476Y-199595295D02*
X35247619Y-199595295D01*
X35619048Y-199595295D02*
X35619048Y-198295295D01*
X35495238Y-198481010D01*
X35371429Y-198604819D01*
X35247619Y-198666724D01*
X85247619Y-198419105D02*
X85309524Y-198357200D01*
X85433333Y-198295295D01*
X85742857Y-198295295D01*
X85866667Y-198357200D01*
X85928571Y-198419105D01*
X85990476Y-198542914D01*
X85990476Y-198666724D01*
X85928571Y-198852438D01*
X85185714Y-199595295D01*
X85990476Y-199595295D01*
X135185714Y-198295295D02*
X135990476Y-198295295D01*
X135557143Y-198790533D01*
X135742857Y-198790533D01*
X135866667Y-198852438D01*
X135928571Y-198914343D01*
X135990476Y-199038152D01*
X135990476Y-199347676D01*
X135928571Y-199471486D01*
X135866667Y-199533390D01*
X135742857Y-199595295D01*
X135371429Y-199595295D01*
X135247619Y-199533390D01*
X135185714Y-199471486D01*
X185866667Y-198728629D02*
X185866667Y-199595295D01*
X185557143Y-198233390D02*
X185247619Y-199161962D01*
X186052381Y-199161962D01*
X235928571Y-198295295D02*
X235309524Y-198295295D01*
X235247619Y-198914343D01*
X235309524Y-198852438D01*
X235433333Y-198790533D01*
X235742857Y-198790533D01*
X235866667Y-198852438D01*
X235928571Y-198914343D01*
X235990476Y-199038152D01*
X235990476Y-199347676D01*
X235928571Y-199471486D01*
X235866667Y-199533390D01*
X235742857Y-199595295D01*
X235433333Y-199595295D01*
X235309524Y-199533390D01*
X235247619Y-199471486D01*
X285866667Y-198295295D02*
X285619048Y-198295295D01*
X285495238Y-198357200D01*
X285433333Y-198419105D01*
X285309524Y-198604819D01*
X285247619Y-198852438D01*
X285247619Y-199347676D01*
X285309524Y-199471486D01*
X285371429Y-199533390D01*
X285495238Y-199595295D01*
X285742857Y-199595295D01*
X285866667Y-199533390D01*
X285928571Y-199471486D01*
X285990476Y-199347676D01*
X285990476Y-199038152D01*
X285928571Y-198914343D01*
X285866667Y-198852438D01*
X285742857Y-198790533D01*
X285495238Y-198790533D01*
X285371429Y-198852438D01*
X285309524Y-198914343D01*
X285247619Y-199038152D01*
X10000000Y-60000000D02*
X12000000Y-60000000D01*
X10000000Y-110000000D02*
X12000000Y-110000000D01*
X10000000Y-160000000D02*
X12000000Y-160000000D01*
X10690476Y-35216667D02*
X11309524Y-35216667D01*
X10566667Y-35588095D02*
X11000000Y-34288095D01*
X11433333Y-35588095D01*
X11092857Y-84907143D02*
X11278571Y-84969048D01*
X11340476Y-85030952D01*
X11402381Y-85154762D01*
X11402381Y-85340476D01*
X11340476Y-85464286D01*
X11278571Y-85526190D01*
X11154762Y-85588095D01*
X10659524Y-85588095D01*
X10659524Y-84288095D01*
X11092857Y-84288095D01*
X11216667Y-84350000D01*
X11278571Y-84411905D01*
X11340476Y-84535714D01*
X11340476Y-84659524D01*
X11278571Y-84783333D01*
X11216667Y-84845238D01*
X11092857Y-84907143D01*
X10659524Y-84907143D01*
X11402381Y-135464286D02*
X11340476Y-135526190D01*
X11154762Y-135588095D01*
X11030952Y-135588095D01*
X10845238Y-135526190D01*
X10721429Y-135402381D01*
X10659524Y-135278571D01*
X10597619Y-135030952D01*
X10597619Y-134845238D01*
X10659524Y-134597619D01*
X10721429Y-134473810D01*
X10845238Y-134350000D01*
X11030952Y-134288095D01*
X11154762Y-134288095D01*
X11340476Y-134350000D01*
X11402381Y-134411905D01*
X10659524Y-185588095D02*
X10659524Y-184288095D01*
X10969048Y-184288095D01*
X11154762Y-184350000D01*
X11278571Y-184473810D01*
X11340476Y-184597619D01*
X11402381Y-184845238D01*
X11402381Y-185030952D01*
X11340476Y-185278571D01*
X11278571Y-185402381D01*
X11154762Y-185526190D01*
X10969048Y-185588095D01*
X10659524Y-185588095D01*
X287002200Y-60000000D02*
X285002200Y-60000000D01*
X287002200Y-110000000D02*
X285002200Y-110000000D01*
X287002200Y-160000000D02*
X285002200Y-160000000D01*
X285692676Y-35216667D02*
X286311724Y-35216667D01*
X285568867Y-35588095D02*
X286002200Y-34288095D01*
X286435533Y-35588095D01*
X286095057Y-84907143D02*
X286280771Y-84969048D01*
X286342676Y-85030952D01*
X286404581Y-85154762D01*
X286404581Y-85340476D01*
X286342676Y-85464286D01*
X286280771Y-85526190D01*
X286156962Y-85588095D01*
X285661724Y-85588095D01*
X285661724Y-84288095D01*
X286095057Y-84288095D01*
X286218867Y-84350000D01*
X286280771Y-84411905D01*
X286342676Y-84535714D01*
X286342676Y-84659524D01*
X286280771Y-84783333D01*
X286218867Y-84845238D01*
X286095057Y-84907143D01*
X285661724Y-84907143D01*
X286404581Y-135464286D02*
X286342676Y-135526190D01*
X286156962Y-135588095D01*
X286033152Y-135588095D01*
X285847438Y-135526190D01*
X285723629Y-135402381D01*
X285661724Y-135278571D01*
X285599819Y-135030952D01*
X285599819Y-134845238D01*
X285661724Y-134597619D01*
X285723629Y-134473810D01*
X285847438Y-134350000D01*
X286033152Y-134288095D01*
X286156962Y-134288095D01*
X286342676Y-134350000D01*
X286404581Y-134411905D01*
X285661724Y-185588095D02*
X285661724Y-184288095D01*
X285971248Y-184288095D01*
X286156962Y-184350000D01*
X286280771Y-184473810D01*
X286342676Y-184597619D01*
X286404581Y-184845238D01*
X286404581Y-185030952D01*
X286342676Y-185278571D01*
X286280771Y-185402381D01*
X286156962Y-185526190D01*
X285971248Y-185588095D01*
X285661724Y-185588095D01*
X200359343Y-193785771D02*
X200359343Y-192285771D01*
X200716486Y-192285771D01*
X200930771Y-192357200D01*
X201073629Y-192500057D01*
X201145057Y-192642914D01*
X201216486Y-192928629D01*
X201216486Y-193142914D01*
X201145057Y-193428629D01*
X201073629Y-193571486D01*
X200930771Y-193714343D01*
X200716486Y-193785771D01*
X200359343Y-193785771D01*
X202502200Y-193785771D02*
X202502200Y-193000057D01*
X202430771Y-192857200D01*
X202287914Y-192785771D01*
X202002200Y-192785771D01*
X201859343Y-192857200D01*
X202502200Y-193714343D02*
X202359343Y-193785771D01*
X202002200Y-193785771D01*
X201859343Y-193714343D01*
X201787914Y-193571486D01*
X201787914Y-193428629D01*
X201859343Y-193285771D01*
X202002200Y-193214343D01*
X202359343Y-193214343D01*
X202502200Y-193142914D01*
X203002200Y-192785771D02*
X203573629Y-192785771D01*
X203216486Y-192285771D02*
X203216486Y-193571486D01*
X203287914Y-193714343D01*
X203430772Y-193785771D01*
X203573629Y-193785771D01*
X204645057Y-193714343D02*
X204502200Y-193785771D01*
X204216486Y-193785771D01*
X204073629Y-193714343D01*
X204002200Y-193571486D01*
X204002200Y-193000057D01*
X204073629Y-192857200D01*
X204216486Y-192785771D01*
X204502200Y-192785771D01*
X204645057Y-192857200D01*
X204716486Y-193000057D01*
X204716486Y-193142914D01*
X204002200Y-193285771D01*
X205359343Y-193642914D02*
X205430771Y-193714343D01*
X205359343Y-193785771D01*
X205287914Y-193714343D01*
X205359343Y-193642914D01*
X205359343Y-193785771D01*
X205359343Y-192857200D02*
X205430771Y-192928629D01*
X205359343Y-193000057D01*
X205287914Y-192928629D01*
X205359343Y-192857200D01*
X205359343Y-193000057D01*
X177002200Y-194507200D02*
X285002200Y-194507200D01*
X178359343Y-196585771D02*
X178359343Y-195085771D01*
X179216486Y-196585771D02*
X178573629Y-195728629D01*
X179216486Y-195085771D02*
X178359343Y-195942914D01*
X179859343Y-196585771D02*
X179859343Y-195585771D01*
X179859343Y-195085771D02*
X179787914Y-195157200D01*
X179859343Y-195228629D01*
X179930771Y-195157200D01*
X179859343Y-195085771D01*
X179859343Y-195228629D01*
X181430772Y-196442914D02*
X181359343Y-196514343D01*
X181145057Y-196585771D01*
X181002200Y-196585771D01*
X180787915Y-196514343D01*
X180645057Y-196371486D01*
X180573629Y-196228629D01*
X180502200Y-195942914D01*
X180502200Y-195728629D01*
X180573629Y-195442914D01*
X180645057Y-195300057D01*
X180787915Y-195157200D01*
X181002200Y-195085771D01*
X181145057Y-195085771D01*
X181359343Y-195157200D01*
X181430772Y-195228629D01*
X182716486Y-196585771D02*
X182716486Y-195800057D01*
X182645057Y-195657200D01*
X182502200Y-195585771D01*
X182216486Y-195585771D01*
X182073629Y-195657200D01*
X182716486Y-196514343D02*
X182573629Y-196585771D01*
X182216486Y-196585771D01*
X182073629Y-196514343D01*
X182002200Y-196371486D01*
X182002200Y-196228629D01*
X182073629Y-196085771D01*
X182216486Y-196014343D01*
X182573629Y-196014343D01*
X182716486Y-195942914D01*
X184073629Y-196585771D02*
X184073629Y-195085771D01*
X184073629Y-196514343D02*
X183930772Y-196585771D01*
X183645058Y-196585771D01*
X183502200Y-196514343D01*
X183430772Y-196442914D01*
X183359343Y-196300057D01*
X183359343Y-195871486D01*
X183430772Y-195728629D01*
X183502200Y-195657200D01*
X183645058Y-195585771D01*
X183930772Y-195585771D01*
X184073629Y-195657200D01*
X185930772Y-195800057D02*
X186430772Y-195800057D01*
X186645058Y-196585771D02*
X185930772Y-196585771D01*
X185930772Y-195085771D01*
X186645058Y-195085771D01*
X187287915Y-196442914D02*
X187359343Y-196514343D01*
X187287915Y-196585771D01*
X187216486Y-196514343D01*
X187287915Y-196442914D01*
X187287915Y-196585771D01*
X188002201Y-196585771D02*
X188002201Y-195085771D01*
X188359344Y-195085771D01*
X188573629Y-195157200D01*
X188716487Y-195300057D01*
X188787915Y-195442914D01*
X188859344Y-195728629D01*
X188859344Y-195942914D01*
X188787915Y-196228629D01*
X188716487Y-196371486D01*
X188573629Y-196514343D01*
X188359344Y-196585771D01*
X188002201Y-196585771D01*
X189502201Y-196442914D02*
X189573629Y-196514343D01*
X189502201Y-196585771D01*
X189430772Y-196514343D01*
X189502201Y-196442914D01*
X189502201Y-196585771D01*
X190145058Y-196157200D02*
X190859344Y-196157200D01*
X190002201Y-196585771D02*
X190502201Y-195085771D01*
X191002201Y-196585771D01*
X191502201Y-196442914D02*
X191573629Y-196514343D01*
X191502201Y-196585771D01*
X191430772Y-196514343D01*
X191502201Y-196442914D01*
X191502201Y-196585771D01*
X194502201Y-196585771D02*
X194502201Y-195085771D01*
X194645058Y-196014343D02*
X195073629Y-196585771D01*
X195073629Y-195585771D02*
X194502201Y-196157200D01*
X195716487Y-196585771D02*
X195716487Y-195585771D01*
X195716487Y-195085771D02*
X195645058Y-195157200D01*
X195716487Y-195228629D01*
X195787915Y-195157200D01*
X195716487Y-195085771D01*
X195716487Y-195228629D01*
X197073630Y-196514343D02*
X196930773Y-196585771D01*
X196645059Y-196585771D01*
X196502201Y-196514343D01*
X196430773Y-196442914D01*
X196359344Y-196300057D01*
X196359344Y-195871486D01*
X196430773Y-195728629D01*
X196502201Y-195657200D01*
X196645059Y-195585771D01*
X196930773Y-195585771D01*
X197073630Y-195657200D01*
X198359344Y-196585771D02*
X198359344Y-195800057D01*
X198287915Y-195657200D01*
X198145058Y-195585771D01*
X197859344Y-195585771D01*
X197716487Y-195657200D01*
X198359344Y-196514343D02*
X198216487Y-196585771D01*
X197859344Y-196585771D01*
X197716487Y-196514343D01*
X197645058Y-196371486D01*
X197645058Y-196228629D01*
X197716487Y-196085771D01*
X197859344Y-196014343D01*
X198216487Y-196014343D01*
X198359344Y-195942914D01*
X199716487Y-196585771D02*
X199716487Y-195085771D01*
X199716487Y-196514343D02*
X199573630Y-196585771D01*
X199287916Y-196585771D01*
X199145058Y-196514343D01*
X199073630Y-196442914D01*
X199002201Y-196300057D01*
X199002201Y-195871486D01*
X199073630Y-195728629D01*
X199145058Y-195657200D01*
X199287916Y-195585771D01*
X199573630Y-195585771D01*
X199716487Y-195657200D01*
X202216487Y-195585771D02*
X202216487Y-196585771D01*
X201859344Y-195014343D02*
X201502201Y-196085771D01*
X202430773Y-196085771D01*
X203002201Y-196442914D02*
X203073629Y-196514343D01*
X203002201Y-196585771D01*
X202930772Y-196514343D01*
X203002201Y-196442914D01*
X203002201Y-196585771D01*
X204002201Y-195085771D02*
X204145058Y-195085771D01*
X204287915Y-195157200D01*
X204359344Y-195228629D01*
X204430773Y-195371486D01*
X204502201Y-195657200D01*
X204502201Y-196014343D01*
X204430773Y-196300057D01*
X204359344Y-196442914D01*
X204287915Y-196514343D01*
X204145058Y-196585771D01*
X204002201Y-196585771D01*
X203859344Y-196514343D01*
X203787915Y-196442914D01*
X203716487Y-196300057D01*
X203645058Y-196014343D01*
X203645058Y-195657200D01*
X203716487Y-195371486D01*
X203787915Y-195228629D01*
X203859344Y-195157200D01*
X204002201Y-195085771D01*
X205145058Y-196442914D02*
X205216486Y-196514343D01*
X205145058Y-196585771D01*
X205073629Y-196514343D01*
X205145058Y-196442914D01*
X205145058Y-196585771D01*
X206502201Y-195085771D02*
X206216487Y-195085771D01*
X206073630Y-195157200D01*
X206002201Y-195228629D01*
X205859344Y-195442914D01*
X205787915Y-195728629D01*
X205787915Y-196300057D01*
X205859344Y-196442914D01*
X205930772Y-196514343D01*
X206073630Y-196585771D01*
X206359344Y-196585771D01*
X206502201Y-196514343D01*
X206573630Y-196442914D01*
X206645058Y-196300057D01*
X206645058Y-195942914D01*
X206573630Y-195800057D01*
X206502201Y-195728629D01*
X206359344Y-195657200D01*
X206073630Y-195657200D01*
X205930772Y-195728629D01*
X205859344Y-195800057D01*
X205787915Y-195942914D01*
X177002200Y-191507200D02*
X285002200Y-191507200D01*
D11*
X264216486Y-193785771D02*
X263716486Y-193071486D01*
X263359343Y-193785771D02*
X263359343Y-192285771D01*
X263930771Y-192285771D01*
X264073629Y-192357200D01*
X264145057Y-192428629D01*
X264216486Y-192571486D01*
X264216486Y-192785771D01*
X264145057Y-192928629D01*
X264073629Y-193000057D01*
X263930771Y-193071486D01*
X263359343Y-193071486D01*
X265430771Y-193714343D02*
X265287914Y-193785771D01*
X265002200Y-193785771D01*
X264859343Y-193714343D01*
X264787914Y-193571486D01*
X264787914Y-193000057D01*
X264859343Y-192857200D01*
X265002200Y-192785771D01*
X265287914Y-192785771D01*
X265430771Y-192857200D01*
X265502200Y-193000057D01*
X265502200Y-193142914D01*
X264787914Y-193285771D01*
X266002200Y-192785771D02*
X266359343Y-193785771D01*
X266716485Y-192785771D01*
X267287914Y-193642914D02*
X267359342Y-193714343D01*
X267287914Y-193785771D01*
X267216485Y-193714343D01*
X267287914Y-193642914D01*
X267287914Y-193785771D01*
X267287914Y-192857200D02*
X267359342Y-192928629D01*
X267287914Y-193000057D01*
X267216485Y-192928629D01*
X267287914Y-192857200D01*
X267287914Y-193000057D01*
X270002200Y-193642914D02*
X269930771Y-193714343D01*
X269716485Y-193785771D01*
X269573628Y-193785771D01*
X269359343Y-193714343D01*
X269216485Y-193571486D01*
X269145057Y-193428629D01*
X269073628Y-193142914D01*
X269073628Y-192928629D01*
X269145057Y-192642914D01*
X269216485Y-192500057D01*
X269359343Y-192357200D01*
X269573628Y-192285771D01*
X269716485Y-192285771D01*
X269930771Y-192357200D01*
X270002200Y-192428629D01*
D10*
X178287914Y-193714343D02*
X178502200Y-193785771D01*
X178859343Y-193785771D01*
X179002200Y-193714343D01*
X179073629Y-193642914D01*
X179145057Y-193500057D01*
X179145057Y-193357200D01*
X179073629Y-193214343D01*
X179002200Y-193142914D01*
X178859343Y-193071486D01*
X178573629Y-193000057D01*
X178430771Y-192928629D01*
X178359343Y-192857200D01*
X178287914Y-192714343D01*
X178287914Y-192571486D01*
X178359343Y-192428629D01*
X178430771Y-192357200D01*
X178573629Y-192285771D01*
X178930771Y-192285771D01*
X179145057Y-192357200D01*
X179787914Y-193785771D02*
X179787914Y-192785771D01*
X179787914Y-192285771D02*
X179716485Y-192357200D01*
X179787914Y-192428629D01*
X179859342Y-192357200D01*
X179787914Y-192285771D01*
X179787914Y-192428629D01*
X180359343Y-192785771D02*
X181145057Y-192785771D01*
X180359343Y-193785771D01*
X181145057Y-193785771D01*
X182287914Y-193714343D02*
X182145057Y-193785771D01*
X181859343Y-193785771D01*
X181716486Y-193714343D01*
X181645057Y-193571486D01*
X181645057Y-193000057D01*
X181716486Y-192857200D01*
X181859343Y-192785771D01*
X182145057Y-192785771D01*
X182287914Y-192857200D01*
X182359343Y-193000057D01*
X182359343Y-193142914D01*
X181645057Y-193285771D01*
X183002200Y-193642914D02*
X183073628Y-193714343D01*
X183002200Y-193785771D01*
X182930771Y-193714343D01*
X183002200Y-193642914D01*
X183002200Y-193785771D01*
X183002200Y-192857200D02*
X183073628Y-192928629D01*
X183002200Y-193000057D01*
X182930771Y-192928629D01*
X183002200Y-192857200D01*
X183002200Y-193000057D01*
X184787914Y-193357200D02*
X185502200Y-193357200D01*
X184645057Y-193785771D02*
X185145057Y-192285771D01*
X185645057Y-193785771D01*
X186787914Y-192785771D02*
X186787914Y-193785771D01*
X186430771Y-192214343D02*
X186073628Y-193285771D01*
X187002200Y-193285771D01*
X263359343Y-196585771D02*
X263359343Y-195085771D01*
X264716486Y-196585771D02*
X264716486Y-195085771D01*
X264716486Y-196514343D02*
X264573629Y-196585771D01*
X264287915Y-196585771D01*
X264145057Y-196514343D01*
X264073629Y-196442914D01*
X264002200Y-196300057D01*
X264002200Y-195871486D01*
X264073629Y-195728629D01*
X264145057Y-195657200D01*
X264287915Y-195585771D01*
X264573629Y-195585771D01*
X264716486Y-195657200D01*
X265430772Y-196442914D02*
X265502200Y-196514343D01*
X265430772Y-196585771D01*
X265359343Y-196514343D01*
X265430772Y-196442914D01*
X265430772Y-196585771D01*
X265430772Y-195657200D02*
X265502200Y-195728629D01*
X265430772Y-195800057D01*
X265359343Y-195728629D01*
X265430772Y-195657200D01*
X265430772Y-195800057D01*
X268073629Y-196585771D02*
X267216486Y-196585771D01*
X267645058Y-196585771D02*
X267645058Y-195085771D01*
X267502201Y-195300057D01*
X267359343Y-195442914D01*
X267216486Y-195514343D01*
X269787914Y-195014343D02*
X268502200Y-196942914D01*
X271073629Y-196585771D02*
X270216486Y-196585771D01*
X270645058Y-196585771D02*
X270645058Y-195085771D01*
X270502201Y-195300057D01*
X270359343Y-195442914D01*
X270216486Y-195514343D01*
X177002200Y-187507200D02*
X285002200Y-187507200D01*
D12*
X178454581Y-188211962D02*
X179597438Y-188211962D01*
X178776010Y-190211962D02*
X179026010Y-188211962D01*
X180014105Y-190211962D02*
X180180771Y-188878629D01*
X180264105Y-188211962D02*
X180156962Y-188307200D01*
X180240295Y-188402438D01*
X180347439Y-188307200D01*
X180264105Y-188211962D01*
X180240295Y-188402438D01*
X180847438Y-188878629D02*
X181609343Y-188878629D01*
X181216486Y-188211962D02*
X181002200Y-189926248D01*
X181073630Y-190116724D01*
X181252201Y-190211962D01*
X181442677Y-190211962D01*
X182395058Y-190211962D02*
X182216487Y-190116724D01*
X182145057Y-189926248D01*
X182359343Y-188211962D01*
X183930772Y-190116724D02*
X183728391Y-190211962D01*
X183347439Y-190211962D01*
X183168867Y-190116724D01*
X183097438Y-189926248D01*
X183192676Y-189164343D01*
X183311724Y-188973867D01*
X183514105Y-188878629D01*
X183895057Y-188878629D01*
X184073629Y-188973867D01*
X184145057Y-189164343D01*
X184121248Y-189354819D01*
X183145057Y-189545295D01*
X184895057Y-190021486D02*
X184978392Y-190116724D01*
X184871248Y-190211962D01*
X184787915Y-190116724D01*
X184895057Y-190021486D01*
X184871248Y-190211962D01*
X185026010Y-188973867D02*
X185109344Y-189069105D01*
X185002200Y-189164343D01*
X184918867Y-189069105D01*
X185026010Y-188973867D01*
X185002200Y-189164343D01*
X187264106Y-190116724D02*
X187537916Y-190211962D01*
X188014106Y-190211962D01*
X188216487Y-190116724D01*
X188323629Y-190021486D01*
X188442678Y-189831010D01*
X188466487Y-189640533D01*
X188395058Y-189450057D01*
X188311725Y-189354819D01*
X188133153Y-189259581D01*
X187764106Y-189164343D01*
X187585535Y-189069105D01*
X187502201Y-188973867D01*
X187430772Y-188783390D01*
X187454582Y-188592914D01*
X187573629Y-188402438D01*
X187680773Y-188307200D01*
X187883154Y-188211962D01*
X188359344Y-188211962D01*
X188633154Y-188307200D01*
X189252201Y-190211962D02*
X189418867Y-188878629D01*
X189502201Y-188211962D02*
X189395058Y-188307200D01*
X189478391Y-188402438D01*
X189585535Y-188307200D01*
X189502201Y-188211962D01*
X189478391Y-188402438D01*
X191228391Y-188878629D02*
X191061725Y-190211962D01*
X190847440Y-188116724D02*
X190192677Y-189545295D01*
X191430773Y-189545295D01*
X192168868Y-188211962D02*
X193406964Y-188211962D01*
X192645059Y-188973867D01*
X192930773Y-188973867D01*
X193109344Y-189069105D01*
X193192677Y-189164343D01*
X193264107Y-189354819D01*
X193204583Y-189831010D01*
X193085534Y-190021486D01*
X192978392Y-190116724D01*
X192776011Y-190211962D01*
X192204583Y-190211962D01*
X192026011Y-190116724D01*
X191942677Y-190021486D01*
X195121249Y-188211962D02*
X194740297Y-188211962D01*
X194537916Y-188307200D01*
X194430773Y-188402438D01*
X194204582Y-188688152D01*
X194061725Y-189069105D01*
X193966487Y-189831010D01*
X194037915Y-190021486D01*
X194121250Y-190116724D01*
X194299821Y-190211962D01*
X194680773Y-190211962D01*
X194883154Y-190116724D01*
X194990296Y-190021486D01*
X195109345Y-189831010D01*
X195168869Y-189354819D01*
X195097439Y-189164343D01*
X195014106Y-189069105D01*
X194835535Y-188973867D01*
X194454583Y-188973867D01*
X194252202Y-189069105D01*
X194145058Y-189164343D01*
X194026011Y-189354819D01*
X196049820Y-188402438D02*
X196156963Y-188307200D01*
X196359345Y-188211962D01*
X196835535Y-188211962D01*
X197014106Y-188307200D01*
X197097439Y-188402438D01*
X197168869Y-188592914D01*
X197145059Y-188783390D01*
X197014106Y-189069105D01*
X195728392Y-190211962D01*
X196966488Y-190211962D01*
X200145059Y-189164343D02*
X200418868Y-189259581D01*
X200502203Y-189354819D01*
X200573631Y-189545295D01*
X200537917Y-189831010D01*
X200418869Y-190021486D01*
X200311726Y-190116724D01*
X200109345Y-190211962D01*
X199347440Y-190211962D01*
X199597440Y-188211962D01*
X200264107Y-188211962D01*
X200442678Y-188307200D01*
X200526011Y-188402438D01*
X200597441Y-188592914D01*
X200573631Y-188783390D01*
X200454583Y-188973867D01*
X200347440Y-189069105D01*
X200145059Y-189164343D01*
X199478392Y-189164343D01*
X201347440Y-190211962D02*
X201514106Y-188878629D01*
X201466487Y-189259581D02*
X201585536Y-189069105D01*
X201692679Y-188973867D01*
X201895059Y-188878629D01*
X202085535Y-188878629D01*
X203359345Y-190116724D02*
X203156964Y-190211962D01*
X202776012Y-190211962D01*
X202597440Y-190116724D01*
X202526011Y-189926248D01*
X202621249Y-189164343D01*
X202740297Y-188973867D01*
X202942678Y-188878629D01*
X203323630Y-188878629D01*
X203502202Y-188973867D01*
X203573630Y-189164343D01*
X203549821Y-189354819D01*
X202573630Y-189545295D01*
X205156964Y-190211962D02*
X205287916Y-189164343D01*
X205216488Y-188973867D01*
X205037916Y-188878629D01*
X204656964Y-188878629D01*
X204454583Y-188973867D01*
X205168869Y-190116724D02*
X204966488Y-190211962D01*
X204490298Y-190211962D01*
X204311726Y-190116724D01*
X204240297Y-189926248D01*
X204264107Y-189735771D01*
X204383154Y-189545295D01*
X204585536Y-189450057D01*
X205061726Y-189450057D01*
X205264107Y-189354819D01*
X206109345Y-190211962D02*
X206359345Y-188211962D01*
X206395060Y-189450057D02*
X206871250Y-190211962D01*
X207037916Y-188878629D02*
X206180773Y-189640533D01*
X208014108Y-190211962D02*
X207835537Y-190116724D01*
X207752202Y-190021486D01*
X207680774Y-189831010D01*
X207752202Y-189259581D01*
X207871250Y-189069105D01*
X207978394Y-188973867D01*
X208180774Y-188878629D01*
X208466488Y-188878629D01*
X208645060Y-188973867D01*
X208728393Y-189069105D01*
X208799821Y-189259581D01*
X208728393Y-189831010D01*
X208609345Y-190021486D01*
X208502203Y-190116724D01*
X208299822Y-190211962D01*
X208014108Y-190211962D01*
X210561726Y-188878629D02*
X210395060Y-190211962D01*
X209704583Y-188878629D02*
X209573631Y-189926248D01*
X209645061Y-190116724D01*
X209823632Y-190211962D01*
X210109346Y-190211962D01*
X210311727Y-190116724D01*
X210418869Y-190021486D01*
X211228393Y-188878629D02*
X211990298Y-188878629D01*
X211597441Y-188211962D02*
X211383155Y-189926248D01*
X211454585Y-190116724D01*
X211633156Y-190211962D01*
X211823632Y-190211962D01*
D10*
X178859343Y-185600057D02*
X178359343Y-185600057D01*
X178359343Y-186385771D02*
X178359343Y-184885771D01*
X179073629Y-184885771D01*
X179645057Y-186385771D02*
X179645057Y-185385771D01*
X179645057Y-184885771D02*
X179573628Y-184957200D01*
X179645057Y-185028629D01*
X179716485Y-184957200D01*
X179645057Y-184885771D01*
X179645057Y-185028629D01*
X180573629Y-186385771D02*
X180430771Y-186314343D01*
X180359343Y-186171486D01*
X180359343Y-184885771D01*
X181716485Y-186314343D02*
X181573628Y-186385771D01*
X181287914Y-186385771D01*
X181145057Y-186314343D01*
X181073628Y-186171486D01*
X181073628Y-185600057D01*
X181145057Y-185457200D01*
X181287914Y-185385771D01*
X181573628Y-185385771D01*
X181716485Y-185457200D01*
X181787914Y-185600057D01*
X181787914Y-185742914D01*
X181073628Y-185885771D01*
X182430771Y-186242914D02*
X182502199Y-186314343D01*
X182430771Y-186385771D01*
X182359342Y-186314343D01*
X182430771Y-186242914D01*
X182430771Y-186385771D01*
X182430771Y-185457200D02*
X182502199Y-185528629D01*
X182430771Y-185600057D01*
X182359342Y-185528629D01*
X182430771Y-185457200D01*
X182430771Y-185600057D01*
X184216485Y-185957200D02*
X184930771Y-185957200D01*
X184073628Y-186385771D02*
X184573628Y-184885771D01*
X185073628Y-186385771D01*
X185573628Y-186385771D02*
X185573628Y-184885771D01*
X186216485Y-186314343D02*
X186430771Y-186385771D01*
X186787914Y-186385771D01*
X186930771Y-186314343D01*
X187002200Y-186242914D01*
X187073628Y-186100057D01*
X187073628Y-185957200D01*
X187002200Y-185814343D01*
X186930771Y-185742914D01*
X186787914Y-185671486D01*
X186502200Y-185600057D01*
X186359342Y-185528629D01*
X186287914Y-185457200D01*
X186216485Y-185314343D01*
X186216485Y-185171486D01*
X186287914Y-185028629D01*
X186359342Y-184957200D01*
X186502200Y-184885771D01*
X186859342Y-184885771D01*
X187073628Y-184957200D01*
X188573628Y-186385771D02*
X188073628Y-185671486D01*
X187716485Y-186385771D02*
X187716485Y-184885771D01*
X188287913Y-184885771D01*
X188430771Y-184957200D01*
X188502199Y-185028629D01*
X188573628Y-185171486D01*
X188573628Y-185385771D01*
X188502199Y-185528629D01*
X188430771Y-185600057D01*
X188287913Y-185671486D01*
X187716485Y-185671486D01*
X189787913Y-186314343D02*
X189645056Y-186385771D01*
X189359342Y-186385771D01*
X189216485Y-186314343D01*
X189145056Y-186171486D01*
X189145056Y-185600057D01*
X189216485Y-185457200D01*
X189359342Y-185385771D01*
X189645056Y-185385771D01*
X189787913Y-185457200D01*
X189859342Y-185600057D01*
X189859342Y-185742914D01*
X189145056Y-185885771D01*
X191145056Y-186314343D02*
X191002199Y-186385771D01*
X190716485Y-186385771D01*
X190573627Y-186314343D01*
X190502199Y-186242914D01*
X190430770Y-186100057D01*
X190430770Y-185671486D01*
X190502199Y-185528629D01*
X190573627Y-185457200D01*
X190716485Y-185385771D01*
X191002199Y-185385771D01*
X191145056Y-185457200D01*
X192359341Y-186314343D02*
X192216484Y-186385771D01*
X191930770Y-186385771D01*
X191787913Y-186314343D01*
X191716484Y-186171486D01*
X191716484Y-185600057D01*
X191787913Y-185457200D01*
X191930770Y-185385771D01*
X192216484Y-185385771D01*
X192359341Y-185457200D01*
X192430770Y-185600057D01*
X192430770Y-185742914D01*
X191716484Y-185885771D01*
X193073627Y-186385771D02*
X193073627Y-185385771D01*
X193073627Y-184885771D02*
X193002198Y-184957200D01*
X193073627Y-185028629D01*
X193145055Y-184957200D01*
X193073627Y-184885771D01*
X193073627Y-185028629D01*
X193645056Y-185385771D02*
X194002199Y-186385771D01*
X194359341Y-185385771D01*
X195502198Y-186314343D02*
X195359341Y-186385771D01*
X195073627Y-186385771D01*
X194930770Y-186314343D01*
X194859341Y-186171486D01*
X194859341Y-185600057D01*
X194930770Y-185457200D01*
X195073627Y-185385771D01*
X195359341Y-185385771D01*
X195502198Y-185457200D01*
X195573627Y-185600057D01*
X195573627Y-185742914D01*
X194859341Y-185885771D01*
X196216484Y-186385771D02*
X196216484Y-185385771D01*
X196216484Y-185671486D02*
X196287912Y-185528629D01*
X196359341Y-185457200D01*
X196502198Y-185385771D01*
X196645055Y-185385771D01*
X197145055Y-186242914D02*
X197216483Y-186314343D01*
X197145055Y-186385771D01*
X197073626Y-186314343D01*
X197145055Y-186242914D01*
X197145055Y-186385771D01*
X197859341Y-186385771D02*
X197859341Y-184885771D01*
X198002198Y-185814343D02*
X198430769Y-186385771D01*
X198430769Y-185385771D02*
X197859341Y-185957200D01*
X199073627Y-186385771D02*
X199073627Y-185385771D01*
X199073627Y-184885771D02*
X199002198Y-184957200D01*
X199073627Y-185028629D01*
X199145055Y-184957200D01*
X199073627Y-184885771D01*
X199073627Y-185028629D01*
X200430770Y-186314343D02*
X200287913Y-186385771D01*
X200002199Y-186385771D01*
X199859341Y-186314343D01*
X199787913Y-186242914D01*
X199716484Y-186100057D01*
X199716484Y-185671486D01*
X199787913Y-185528629D01*
X199859341Y-185457200D01*
X200002199Y-185385771D01*
X200287913Y-185385771D01*
X200430770Y-185457200D01*
X201716484Y-186385771D02*
X201716484Y-185600057D01*
X201645055Y-185457200D01*
X201502198Y-185385771D01*
X201216484Y-185385771D01*
X201073627Y-185457200D01*
X201716484Y-186314343D02*
X201573627Y-186385771D01*
X201216484Y-186385771D01*
X201073627Y-186314343D01*
X201002198Y-186171486D01*
X201002198Y-186028629D01*
X201073627Y-185885771D01*
X201216484Y-185814343D01*
X201573627Y-185814343D01*
X201716484Y-185742914D01*
X203073627Y-186385771D02*
X203073627Y-184885771D01*
X203073627Y-186314343D02*
X202930770Y-186385771D01*
X202645056Y-186385771D01*
X202502198Y-186314343D01*
X202430770Y-186242914D01*
X202359341Y-186100057D01*
X202359341Y-185671486D01*
X202430770Y-185528629D01*
X202502198Y-185457200D01*
X202645056Y-185385771D01*
X202930770Y-185385771D01*
X203073627Y-185457200D01*
X203430770Y-186528629D02*
X204573627Y-186528629D01*
X204930770Y-185385771D02*
X204930770Y-186885771D01*
X204930770Y-185457200D02*
X205073627Y-185385771D01*
X205359341Y-185385771D01*
X205502198Y-185457200D01*
X205573627Y-185528629D01*
X205645056Y-185671486D01*
X205645056Y-186100057D01*
X205573627Y-186242914D01*
X205502198Y-186314343D01*
X205359341Y-186385771D01*
X205073627Y-186385771D01*
X204930770Y-186314343D01*
X206930770Y-186314343D02*
X206787913Y-186385771D01*
X206502199Y-186385771D01*
X206359341Y-186314343D01*
X206287913Y-186242914D01*
X206216484Y-186100057D01*
X206216484Y-185671486D01*
X206287913Y-185528629D01*
X206359341Y-185457200D01*
X206502199Y-185385771D01*
X206787913Y-185385771D01*
X206930770Y-185457200D01*
X207573627Y-186385771D02*
X207573627Y-184885771D01*
X207573627Y-185457200D02*
X207716484Y-185385771D01*
X208002198Y-185385771D01*
X208145055Y-185457200D01*
X208216484Y-185528629D01*
X208287913Y-185671486D01*
X208287913Y-186100057D01*
X208216484Y-186242914D01*
X208145055Y-186314343D01*
X208002198Y-186385771D01*
X207716484Y-186385771D01*
X207573627Y-186314343D01*
X177002200Y-181507200D02*
X285002200Y-181507200D01*
X178287914Y-183614343D02*
X178502200Y-183685771D01*
X178859343Y-183685771D01*
X179002200Y-183614343D01*
X179073629Y-183542914D01*
X179145057Y-183400057D01*
X179145057Y-183257200D01*
X179073629Y-183114343D01*
X179002200Y-183042914D01*
X178859343Y-182971486D01*
X178573629Y-182900057D01*
X178430771Y-182828629D01*
X178359343Y-182757200D01*
X178287914Y-182614343D01*
X178287914Y-182471486D01*
X178359343Y-182328629D01*
X178430771Y-182257200D01*
X178573629Y-182185771D01*
X178930771Y-182185771D01*
X179145057Y-182257200D01*
X179787914Y-183685771D02*
X179787914Y-182185771D01*
X180430771Y-183685771D02*
X180430771Y-182900057D01*
X180359342Y-182757200D01*
X180216485Y-182685771D01*
X180002200Y-182685771D01*
X179859342Y-182757200D01*
X179787914Y-182828629D01*
X181716485Y-183614343D02*
X181573628Y-183685771D01*
X181287914Y-183685771D01*
X181145057Y-183614343D01*
X181073628Y-183471486D01*
X181073628Y-182900057D01*
X181145057Y-182757200D01*
X181287914Y-182685771D01*
X181573628Y-182685771D01*
X181716485Y-182757200D01*
X181787914Y-182900057D01*
X181787914Y-183042914D01*
X181073628Y-183185771D01*
X183002199Y-183614343D02*
X182859342Y-183685771D01*
X182573628Y-183685771D01*
X182430771Y-183614343D01*
X182359342Y-183471486D01*
X182359342Y-182900057D01*
X182430771Y-182757200D01*
X182573628Y-182685771D01*
X182859342Y-182685771D01*
X183002199Y-182757200D01*
X183073628Y-182900057D01*
X183073628Y-183042914D01*
X182359342Y-183185771D01*
X183502199Y-182685771D02*
X184073628Y-182685771D01*
X183716485Y-182185771D02*
X183716485Y-183471486D01*
X183787913Y-183614343D01*
X183930771Y-183685771D01*
X184073628Y-183685771D01*
X184573628Y-183542914D02*
X184645056Y-183614343D01*
X184573628Y-183685771D01*
X184502199Y-183614343D01*
X184573628Y-183542914D01*
X184573628Y-183685771D01*
X184573628Y-182757200D02*
X184645056Y-182828629D01*
X184573628Y-182900057D01*
X184502199Y-182828629D01*
X184573628Y-182757200D01*
X184573628Y-182900057D01*
X197002200Y-191507200D02*
X197002200Y-194507200D01*
X261002200Y-191507200D02*
X261002200Y-198007200D01*
D13*
X25549771Y-44117382D02*
X25610248Y-44177858D01*
X25670724Y-44359287D01*
X25670724Y-44480239D01*
X25610248Y-44661667D01*
X25489295Y-44782620D01*
X25368343Y-44843096D01*
X25126438Y-44903572D01*
X24945010Y-44903572D01*
X24703105Y-44843096D01*
X24582152Y-44782620D01*
X24461200Y-44661667D01*
X24400724Y-44480239D01*
X24400724Y-44359287D01*
X24461200Y-44177858D01*
X24521676Y-44117382D01*
X25670724Y-43573096D02*
X24400724Y-43573096D01*
X25307867Y-43149763D01*
X24400724Y-42726429D01*
X25670724Y-42726429D01*
X25005486Y-41698334D02*
X25065962Y-41516905D01*
X25126438Y-41456429D01*
X25247390Y-41395953D01*
X25428819Y-41395953D01*
X25549771Y-41456429D01*
X25610248Y-41516905D01*
X25670724Y-41637858D01*
X25670724Y-42121667D01*
X24400724Y-42121667D01*
X24400724Y-41698334D01*
X24461200Y-41577381D01*
X24521676Y-41516905D01*
X24642629Y-41456429D01*
X24763581Y-41456429D01*
X24884533Y-41516905D01*
X24945010Y-41577381D01*
X25005486Y-41698334D01*
X25005486Y-42121667D01*
X25186914Y-39884048D02*
X25186914Y-38916429D01*
X24400724Y-37102143D02*
X24400724Y-36981191D01*
X24461200Y-36860239D01*
X24521676Y-36799762D01*
X24642629Y-36739286D01*
X24884533Y-36678810D01*
X25186914Y-36678810D01*
X25428819Y-36739286D01*
X25549771Y-36799762D01*
X25610248Y-36860239D01*
X25670724Y-36981191D01*
X25670724Y-37102143D01*
X25610248Y-37223096D01*
X25549771Y-37283572D01*
X25428819Y-37344048D01*
X25186914Y-37404524D01*
X24884533Y-37404524D01*
X24642629Y-37344048D01*
X24521676Y-37283572D01*
X24461200Y-37223096D01*
X24400724Y-37102143D01*
X25670724Y-36074048D02*
X25670724Y-35832143D01*
X25610248Y-35711191D01*
X25549771Y-35650715D01*
X25368343Y-35529762D01*
X25126438Y-35469286D01*
X24642629Y-35469286D01*
X24521676Y-35529762D01*
X24461200Y-35590238D01*
X24400724Y-35711191D01*
X24400724Y-35953095D01*
X24461200Y-36074048D01*
X24521676Y-36134524D01*
X24642629Y-36195000D01*
X24945010Y-36195000D01*
X25065962Y-36134524D01*
X25126438Y-36074048D01*
X25186914Y-35953095D01*
X25186914Y-35711191D01*
X25126438Y-35590238D01*
X25065962Y-35529762D01*
X24945010Y-35469286D01*
X25549771Y-34925000D02*
X25610248Y-34864524D01*
X25670724Y-34925000D01*
X25610248Y-34985476D01*
X25549771Y-34925000D01*
X25670724Y-34925000D01*
X24521676Y-34380714D02*
X24461200Y-34320238D01*
X24400724Y-34199286D01*
X24400724Y-33896905D01*
X24461200Y-33775952D01*
X24521676Y-33715476D01*
X24642629Y-33655000D01*
X24763581Y-33655000D01*
X24945010Y-33715476D01*
X25670724Y-34441190D01*
X25670724Y-33655000D01*
X24400724Y-32868809D02*
X24400724Y-32747857D01*
X24461200Y-32626905D01*
X24521676Y-32566428D01*
X24642629Y-32505952D01*
X24884533Y-32445476D01*
X25186914Y-32445476D01*
X25428819Y-32505952D01*
X25549771Y-32566428D01*
X25610248Y-32626905D01*
X25670724Y-32747857D01*
X25670724Y-32868809D01*
X25610248Y-32989762D01*
X25549771Y-33050238D01*
X25428819Y-33110714D01*
X25186914Y-33171190D01*
X24884533Y-33171190D01*
X24642629Y-33110714D01*
X24521676Y-33050238D01*
X24461200Y-32989762D01*
X24400724Y-32868809D01*
X25670724Y-31235952D02*
X25670724Y-31961666D01*
X25670724Y-31598809D02*
X24400724Y-31598809D01*
X24582152Y-31719761D01*
X24703105Y-31840714D01*
X24763581Y-31961666D01*
X24400724Y-30812618D02*
X24400724Y-29965952D01*
X25670724Y-30510237D01*
X27337867Y-45629284D02*
X27337867Y-45024522D01*
X27700724Y-45750237D02*
X26430724Y-45326903D01*
X27700724Y-44903570D01*
X27700724Y-44480237D02*
X26430724Y-44480237D01*
X27640248Y-43935951D02*
X27700724Y-43754523D01*
X27700724Y-43452142D01*
X27640248Y-43331189D01*
X27579771Y-43270713D01*
X27458819Y-43210237D01*
X27337867Y-43210237D01*
X27216914Y-43270713D01*
X27156438Y-43331189D01*
X27095962Y-43452142D01*
X27035486Y-43694046D01*
X26975010Y-43814999D01*
X26914533Y-43875475D01*
X26793581Y-43935951D01*
X26672629Y-43935951D01*
X26551676Y-43875475D01*
X26491200Y-43814999D01*
X26430724Y-43694046D01*
X26430724Y-43391666D01*
X26491200Y-43210237D01*
X27700724Y-40972618D02*
X27095962Y-41395951D01*
X27700724Y-41698332D02*
X26430724Y-41698332D01*
X26430724Y-41214523D01*
X26491200Y-41093570D01*
X26551676Y-41033094D01*
X26672629Y-40972618D01*
X26854057Y-40972618D01*
X26975010Y-41033094D01*
X27035486Y-41093570D01*
X27095962Y-41214523D01*
X27095962Y-41698332D01*
X27640248Y-39944523D02*
X27700724Y-40065475D01*
X27700724Y-40307380D01*
X27640248Y-40428332D01*
X27519295Y-40488808D01*
X27035486Y-40488808D01*
X26914533Y-40428332D01*
X26854057Y-40307380D01*
X26854057Y-40065475D01*
X26914533Y-39944523D01*
X27035486Y-39884046D01*
X27156438Y-39884046D01*
X27277390Y-40488808D01*
X27640248Y-38795475D02*
X27700724Y-38916428D01*
X27700724Y-39158332D01*
X27640248Y-39279285D01*
X27579771Y-39339761D01*
X27458819Y-39400237D01*
X27095962Y-39400237D01*
X26975010Y-39339761D01*
X26914533Y-39279285D01*
X26854057Y-39158332D01*
X26854057Y-38916428D01*
X26914533Y-38795475D01*
X27640248Y-37767381D02*
X27700724Y-37888333D01*
X27700724Y-38130238D01*
X27640248Y-38251190D01*
X27519295Y-38311666D01*
X27035486Y-38311666D01*
X26914533Y-38251190D01*
X26854057Y-38130238D01*
X26854057Y-37888333D01*
X26914533Y-37767381D01*
X27035486Y-37706904D01*
X27156438Y-37706904D01*
X27277390Y-38311666D01*
X27700724Y-37162619D02*
X26854057Y-37162619D01*
X26430724Y-37162619D02*
X26491200Y-37223095D01*
X26551676Y-37162619D01*
X26491200Y-37102143D01*
X26430724Y-37162619D01*
X26551676Y-37162619D01*
X26854057Y-36678809D02*
X27700724Y-36376428D01*
X26854057Y-36074048D01*
X27640248Y-35106429D02*
X27700724Y-35227381D01*
X27700724Y-35469286D01*
X27640248Y-35590238D01*
X27519295Y-35650714D01*
X27035486Y-35650714D01*
X26914533Y-35590238D01*
X26854057Y-35469286D01*
X26854057Y-35227381D01*
X26914533Y-35106429D01*
X27035486Y-35045952D01*
X27156438Y-35045952D01*
X27277390Y-35650714D01*
X27700724Y-34501667D02*
X26854057Y-34501667D01*
X27095962Y-34501667D02*
X26975010Y-34441191D01*
X26914533Y-34380715D01*
X26854057Y-34259762D01*
X26854057Y-34138810D01*
X26854057Y-32868810D02*
X27700724Y-32566429D01*
X26854057Y-32264049D01*
X27700724Y-31115001D02*
X27700724Y-31840715D01*
X27700724Y-31477858D02*
X26430724Y-31477858D01*
X26612152Y-31598810D01*
X26733105Y-31719763D01*
X26793581Y-31840715D01*
X27579771Y-30570715D02*
X27640248Y-30510239D01*
X27700724Y-30570715D01*
X27640248Y-30631191D01*
X27579771Y-30570715D01*
X27700724Y-30570715D01*
X26430724Y-29724048D02*
X26430724Y-29603096D01*
X26491200Y-29482144D01*
X26551676Y-29421667D01*
X26672629Y-29361191D01*
X26914533Y-29300715D01*
X27216914Y-29300715D01*
X27458819Y-29361191D01*
X27579771Y-29421667D01*
X27640248Y-29482144D01*
X27700724Y-29603096D01*
X27700724Y-29724048D01*
X27640248Y-29845001D01*
X27579771Y-29905477D01*
X27458819Y-29965953D01*
X27216914Y-30026429D01*
X26914533Y-30026429D01*
X26672629Y-29965953D01*
X26551676Y-29905477D01*
X26491200Y-29845001D01*
X26430724Y-29724048D01*
D14*
X35024400Y-29218600D02*
X35024400Y-28518600D01*
X36224400Y-28518600D02*
X36224400Y-29218600D01*
X33500400Y-29218600D02*
X33500400Y-28518600D01*
X34700400Y-28518600D02*
X34700400Y-29218600D01*
X48635400Y-80203600D02*
X47935400Y-80203600D01*
X47935400Y-79003600D02*
X48635400Y-79003600D01*
X31976400Y-29218600D02*
X31976400Y-28518600D01*
X33176400Y-28518600D02*
X33176400Y-29218600D01*
X52634400Y-87131600D02*
X53334400Y-87131600D01*
X53334400Y-88331600D02*
X52634400Y-88331600D01*
X48574400Y-61157600D02*
X48574400Y-60457600D01*
X49774400Y-60457600D02*
X49774400Y-61157600D01*
X67454400Y-50940600D02*
X66454400Y-50940600D01*
X66454400Y-52640600D02*
X67454400Y-52640600D01*
X52572400Y-63439600D02*
X51872400Y-63439600D01*
X51872400Y-62239600D02*
X52572400Y-62239600D01*
X66604400Y-52968600D02*
X67304400Y-52968600D01*
X67304400Y-54168600D02*
X66604400Y-54168600D01*
X42158400Y-92014600D02*
X41458400Y-92014600D01*
X41458400Y-90814600D02*
X42158400Y-90814600D01*
X50479400Y-73603600D02*
X50479400Y-72903600D01*
X51679400Y-72903600D02*
X51679400Y-73603600D01*
X47808400Y-77352600D02*
X48508400Y-77352600D01*
X48508400Y-78552600D02*
X47808400Y-78552600D01*
X41458400Y-89290600D02*
X42158400Y-89290600D01*
X42158400Y-90490600D02*
X41458400Y-90490600D01*
X41458400Y-87766600D02*
X42158400Y-87766600D01*
X42158400Y-88966600D02*
X41458400Y-88966600D01*
X47431400Y-73603600D02*
X47431400Y-72903600D01*
X48631400Y-72903600D02*
X48631400Y-73603600D01*
X63302400Y-62620600D02*
X64002400Y-62620600D01*
X64002400Y-63820600D02*
X63302400Y-63820600D01*
X68382400Y-62620600D02*
X69082400Y-62620600D01*
X69082400Y-63820600D02*
X68382400Y-63820600D01*
X66278200Y-75254600D02*
X66278200Y-74554600D01*
X67478200Y-74554600D02*
X67478200Y-75254600D01*
X67700600Y-75229200D02*
X67700600Y-74529200D01*
X68900600Y-74529200D02*
X68900600Y-75229200D01*
X66490400Y-79238600D02*
X66490400Y-81238600D01*
X69450400Y-81238600D02*
X69450400Y-79238600D01*
X31708400Y-76996600D02*
X31708400Y-74336600D01*
X29108400Y-76996600D02*
X31708400Y-76996600D01*
X29108400Y-74336600D02*
X31708400Y-74336600D01*
X29108400Y-76996600D02*
X29108400Y-74336600D01*
X27838400Y-76996600D02*
X26508400Y-76996600D01*
X26508400Y-76996600D02*
X26508400Y-75666600D01*
X31708400Y-70900600D02*
X31708400Y-68240600D01*
X29108400Y-70900600D02*
X31708400Y-70900600D01*
X29108400Y-68240600D02*
X31708400Y-68240600D01*
X29108400Y-70900600D02*
X29108400Y-68240600D01*
X27838400Y-70900600D02*
X26508400Y-70900600D01*
X26508400Y-70900600D02*
X26508400Y-69570600D01*
X31708400Y-67852600D02*
X31708400Y-65192600D01*
X29108400Y-67852600D02*
X31708400Y-67852600D01*
X29108400Y-65192600D02*
X31708400Y-65192600D01*
X29108400Y-67852600D02*
X29108400Y-65192600D01*
X27838400Y-67852600D02*
X26508400Y-67852600D01*
X26508400Y-67852600D02*
X26508400Y-66522600D01*
X31708400Y-73948600D02*
X31708400Y-71288600D01*
X29108400Y-73948600D02*
X31708400Y-73948600D01*
X29108400Y-71288600D02*
X31708400Y-71288600D01*
X29108400Y-73948600D02*
X29108400Y-71288600D01*
X27838400Y-73948600D02*
X26508400Y-73948600D01*
X26508400Y-73948600D02*
X26508400Y-72618600D01*
X44040400Y-88985600D02*
X44040400Y-86985600D01*
X46180400Y-86985600D02*
X46180400Y-88985600D01*
X37292400Y-47670600D02*
X34632400Y-47670600D01*
X37292400Y-95990600D02*
X37292400Y-47670600D01*
X34632400Y-95990600D02*
X34632400Y-47670600D01*
X37292400Y-95990600D02*
X34632400Y-95990600D01*
X37292400Y-97260600D02*
X37292400Y-98590600D01*
X37292400Y-98590600D02*
X35962400Y-98590600D01*
X60152400Y-47670600D02*
X57492400Y-47670600D01*
X60152400Y-95990600D02*
X60152400Y-47670600D01*
X57492400Y-95990600D02*
X57492400Y-47670600D01*
X60152400Y-95990600D02*
X57492400Y-95990600D01*
X60152400Y-97260600D02*
X60152400Y-98590600D01*
X60152400Y-98590600D02*
X58822400Y-98590600D01*
X33772400Y-78618600D02*
X33772400Y-79318600D01*
X32572400Y-79318600D02*
X32572400Y-78618600D01*
X48574400Y-55823600D02*
X48574400Y-55123600D01*
X49774400Y-55123600D02*
X49774400Y-55823600D01*
X70954000Y-75150600D02*
X70954000Y-74150600D01*
X69254000Y-74150600D02*
X69254000Y-75150600D01*
X62894400Y-72072600D02*
X63394400Y-72072600D01*
X63394400Y-71132600D02*
X62894400Y-71132600D01*
X68670400Y-84326600D02*
X69270400Y-84326600D01*
X69270400Y-84326600D02*
X69470400Y-84526600D01*
X66470400Y-84526600D02*
X66470400Y-84326600D01*
X66470400Y-84326600D02*
X67270400Y-84326600D01*
X67270400Y-87326600D02*
X66470400Y-87326600D01*
X66470400Y-87326600D02*
X66470400Y-87126600D01*
X69470400Y-87126600D02*
X69470400Y-87326600D01*
X69470400Y-87326600D02*
X68670400Y-87326600D01*
X46451400Y-88872600D02*
X47381400Y-88872600D01*
X49611400Y-88872600D02*
X48681400Y-88872600D01*
X49611400Y-88872600D02*
X49611400Y-85712600D01*
X46451400Y-88872600D02*
X46451400Y-87412600D01*
X41218400Y-51290600D02*
X41218400Y-52290600D01*
X39858400Y-52290600D02*
X39858400Y-51290600D01*
X39440400Y-51290600D02*
X39440400Y-52290600D01*
X38080400Y-52290600D02*
X38080400Y-51290600D01*
X41636400Y-52290600D02*
X41636400Y-51290600D01*
X42996400Y-51290600D02*
X42996400Y-52290600D01*
X53484400Y-86760600D02*
X52484400Y-86760600D01*
X52484400Y-85400600D02*
X53484400Y-85400600D01*
X33852400Y-73388600D02*
X33852400Y-74388600D01*
X32492400Y-74388600D02*
X32492400Y-73388600D01*
X62972400Y-47718600D02*
X62972400Y-46718600D01*
X64332400Y-46718600D02*
X64332400Y-47718600D01*
X43414400Y-52290600D02*
X43414400Y-51290600D01*
X44774400Y-51290600D02*
X44774400Y-52290600D01*
X65422400Y-44596600D02*
X64422400Y-44596600D01*
X64422400Y-43236600D02*
X65422400Y-43236600D01*
X61448400Y-43400600D02*
X61448400Y-42400600D01*
X62808400Y-42400600D02*
X62808400Y-43400600D01*
X32492400Y-68038600D02*
X32492400Y-67038600D01*
X33852400Y-67038600D02*
X33852400Y-68038600D01*
X33852400Y-84818600D02*
X33852400Y-85818600D01*
X32492400Y-85818600D02*
X32492400Y-84818600D01*
X51722400Y-63810600D02*
X52722400Y-63810600D01*
X52722400Y-65170600D02*
X51722400Y-65170600D01*
X52468400Y-55391600D02*
X51468400Y-55391600D01*
X51468400Y-54031600D02*
X52468400Y-54031600D01*
X52468400Y-57169600D02*
X51468400Y-57169600D01*
X51468400Y-55809600D02*
X52468400Y-55809600D01*
X62808400Y-46718600D02*
X62808400Y-47718600D01*
X61448400Y-47718600D02*
X61448400Y-46718600D01*
X40616400Y-64232600D02*
X40616400Y-63232600D01*
X41976400Y-63232600D02*
X41976400Y-64232600D01*
X39350400Y-79849600D02*
X39350400Y-78849600D01*
X40710400Y-78849600D02*
X40710400Y-79849600D01*
X41001400Y-79849600D02*
X41001400Y-78849600D01*
X42361400Y-78849600D02*
X42361400Y-79849600D01*
X54082400Y-83151600D02*
X54082400Y-82151600D01*
X55442400Y-82151600D02*
X55442400Y-83151600D01*
X51468400Y-52253600D02*
X52468400Y-52253600D01*
X52468400Y-53613600D02*
X51468400Y-53613600D01*
X50399400Y-83278600D02*
X50399400Y-82278600D01*
X51759400Y-82278600D02*
X51759400Y-83278600D01*
X43504400Y-63228600D02*
X43504400Y-64228600D01*
X42144400Y-64228600D02*
X42144400Y-63228600D01*
X32358400Y-55302600D02*
X32358400Y-55952600D01*
X32358400Y-55952600D02*
X25858400Y-55952600D01*
X25858400Y-55952600D02*
X25858400Y-55302600D01*
X32358400Y-49802600D02*
X32358400Y-49152600D01*
X32358400Y-49152600D02*
X25858400Y-49152600D01*
X25858400Y-49152600D02*
X25858400Y-49802600D01*
X32358400Y-51302600D02*
X32358400Y-53802600D01*
X25858400Y-51302600D02*
X25858400Y-53802600D01*
X32358400Y-62922600D02*
X32358400Y-63572600D01*
X32358400Y-63572600D02*
X25858400Y-63572600D01*
X25858400Y-63572600D02*
X25858400Y-62922600D01*
X32358400Y-57422600D02*
X32358400Y-56772600D01*
X32358400Y-56772600D02*
X25858400Y-56772600D01*
X25858400Y-56772600D02*
X25858400Y-57422600D01*
X32358400Y-58922600D02*
X32358400Y-61422600D01*
X25858400Y-58922600D02*
X25858400Y-61422600D01*
D15*
X37860381Y-27092600D02*
G75*
G03X37860381Y-27092600I-283981J0D01*
G01*
D10*
X56482400Y-26946600D02*
X38482400Y-26946600D01*
X38482400Y-20946600D02*
X38482400Y-46446600D01*
X56482400Y-20946600D02*
X56482400Y-46446600D01*
X56482400Y-46446600D02*
X38482400Y-46446600D01*
X56482400Y-20946600D02*
X38482400Y-20946600D01*
D14*
X46675400Y-81370600D02*
X46675400Y-83170600D01*
X49895400Y-83170600D02*
X49895400Y-80720600D01*
X51576400Y-61274600D02*
X53376400Y-61274600D01*
X53376400Y-58054600D02*
X50926400Y-58054600D01*
D10*
X39268400Y-75031600D02*
X46888400Y-75031600D01*
X46888400Y-71475600D02*
X39268400Y-71475600D01*
X39268400Y-75031600D02*
X39268400Y-71475600D01*
X46888400Y-71475600D02*
X46888400Y-75031600D01*
X46739610Y-71983600D02*
G75*
G03X46739610Y-71983600I-359210J0D01*
G01*
X46888400Y-73888600D02*
X46126400Y-73888600D01*
X46126400Y-73888600D02*
X46126400Y-72618600D01*
X46126400Y-72618600D02*
X46888400Y-72618600D01*
D16*
X64785091Y-72872600D02*
G75*
G03X64785091Y-72872600I-172571J0D01*
G01*
X64222600Y-73559680D02*
X64222600Y-76259680D01*
X64222600Y-76259680D02*
X61522600Y-76259680D01*
X61522600Y-76259680D02*
X61522600Y-73559680D01*
X61522600Y-73559680D02*
X64222600Y-73559680D01*
D14*
X61992400Y-67584600D02*
X62992400Y-67584600D01*
X62992400Y-67584600D02*
X62992400Y-66984600D01*
X69392400Y-66984600D02*
X69392400Y-67584600D01*
X65092400Y-65334600D02*
X67292400Y-65334600D01*
X67292400Y-69234600D02*
X65092400Y-69234600D01*
X65092400Y-69234600D02*
X65092400Y-70084600D01*
X38271200Y-99280000D02*
X46971200Y-99280000D01*
X38271200Y-92870000D02*
X46971200Y-92870000D01*
X46971200Y-92870000D02*
X46971200Y-99280000D01*
X46971200Y-98050000D02*
X38271200Y-98050000D01*
X38271200Y-99280000D02*
X38271200Y-92870000D01*
D10*
X35874400Y-26191266D02*
X35907733Y-26224600D01*
X35941067Y-26324600D01*
X35941067Y-26391266D01*
X35907733Y-26491266D01*
X35841067Y-26557933D01*
X35774400Y-26591266D01*
X35641067Y-26624600D01*
X35541067Y-26624600D01*
X35407733Y-26591266D01*
X35341067Y-26557933D01*
X35274400Y-26491266D01*
X35241067Y-26391266D01*
X35241067Y-26324600D01*
X35274400Y-26224600D01*
X35307733Y-26191266D01*
X35941067Y-25524600D02*
X35941067Y-25924600D01*
X35941067Y-25724600D02*
X35241067Y-25724600D01*
X35341067Y-25791266D01*
X35407733Y-25857933D01*
X35441067Y-25924600D01*
X34350400Y-26191266D02*
X34383733Y-26224600D01*
X34417067Y-26324600D01*
X34417067Y-26391266D01*
X34383733Y-26491266D01*
X34317067Y-26557933D01*
X34250400Y-26591266D01*
X34117067Y-26624600D01*
X34017067Y-26624600D01*
X33883733Y-26591266D01*
X33817067Y-26557933D01*
X33750400Y-26491266D01*
X33717067Y-26391266D01*
X33717067Y-26324600D01*
X33750400Y-26224600D01*
X33783733Y-26191266D01*
X33783733Y-25924600D02*
X33750400Y-25891266D01*
X33717067Y-25824600D01*
X33717067Y-25657933D01*
X33750400Y-25591266D01*
X33783733Y-25557933D01*
X33850400Y-25524600D01*
X33917067Y-25524600D01*
X34017067Y-25557933D01*
X34417067Y-25957933D01*
X34417067Y-25524600D01*
X45501734Y-79980600D02*
X45468400Y-80013933D01*
X45368400Y-80047267D01*
X45301734Y-80047267D01*
X45201734Y-80013933D01*
X45135067Y-79947267D01*
X45101734Y-79880600D01*
X45068400Y-79747267D01*
X45068400Y-79647267D01*
X45101734Y-79513933D01*
X45135067Y-79447267D01*
X45201734Y-79380600D01*
X45301734Y-79347267D01*
X45368400Y-79347267D01*
X45468400Y-79380600D01*
X45501734Y-79413933D01*
X45735067Y-79347267D02*
X46168400Y-79347267D01*
X45935067Y-79613933D01*
X46035067Y-79613933D01*
X46101734Y-79647267D01*
X46135067Y-79680600D01*
X46168400Y-79747267D01*
X46168400Y-79913933D01*
X46135067Y-79980600D01*
X46101734Y-80013933D01*
X46035067Y-80047267D01*
X45835067Y-80047267D01*
X45768400Y-80013933D01*
X45735067Y-79980600D01*
X32826400Y-26191266D02*
X32859733Y-26224600D01*
X32893067Y-26324600D01*
X32893067Y-26391266D01*
X32859733Y-26491266D01*
X32793067Y-26557933D01*
X32726400Y-26591266D01*
X32593067Y-26624600D01*
X32493067Y-26624600D01*
X32359733Y-26591266D01*
X32293067Y-26557933D01*
X32226400Y-26491266D01*
X32193067Y-26391266D01*
X32193067Y-26324600D01*
X32226400Y-26224600D01*
X32259733Y-26191266D01*
X32426400Y-25591266D02*
X32893067Y-25591266D01*
X32159733Y-25757933D02*
X32659733Y-25924600D01*
X32659733Y-25491266D01*
X55407734Y-87854600D02*
X55374400Y-87887933D01*
X55274400Y-87921267D01*
X55207734Y-87921267D01*
X55107734Y-87887933D01*
X55041067Y-87821267D01*
X55007734Y-87754600D01*
X54974400Y-87621267D01*
X54974400Y-87521267D01*
X55007734Y-87387933D01*
X55041067Y-87321267D01*
X55107734Y-87254600D01*
X55207734Y-87221267D01*
X55274400Y-87221267D01*
X55374400Y-87254600D01*
X55407734Y-87287933D01*
X56041067Y-87221267D02*
X55707734Y-87221267D01*
X55674400Y-87554600D01*
X55707734Y-87521267D01*
X55774400Y-87487933D01*
X55941067Y-87487933D01*
X56007734Y-87521267D01*
X56041067Y-87554600D01*
X56074400Y-87621267D01*
X56074400Y-87787933D01*
X56041067Y-87854600D01*
X56007734Y-87887933D01*
X55941067Y-87921267D01*
X55774400Y-87921267D01*
X55707734Y-87887933D01*
X55674400Y-87854600D01*
X49424400Y-63464266D02*
X49457733Y-63497600D01*
X49491067Y-63597600D01*
X49491067Y-63664266D01*
X49457733Y-63764266D01*
X49391067Y-63830933D01*
X49324400Y-63864266D01*
X49191067Y-63897600D01*
X49091067Y-63897600D01*
X48957733Y-63864266D01*
X48891067Y-63830933D01*
X48824400Y-63764266D01*
X48791067Y-63664266D01*
X48791067Y-63597600D01*
X48824400Y-63497600D01*
X48857733Y-63464266D01*
X48791067Y-62864266D02*
X48791067Y-62997600D01*
X48824400Y-63064266D01*
X48857733Y-63097600D01*
X48957733Y-63164266D01*
X49091067Y-63197600D01*
X49357733Y-63197600D01*
X49424400Y-63164266D01*
X49457733Y-63130933D01*
X49491067Y-63064266D01*
X49491067Y-62930933D01*
X49457733Y-62864266D01*
X49424400Y-62830933D01*
X49357733Y-62797600D01*
X49191067Y-62797600D01*
X49124400Y-62830933D01*
X49091067Y-62864266D01*
X49057733Y-62930933D01*
X49057733Y-63064266D01*
X49091067Y-63130933D01*
X49124400Y-63164266D01*
X49191067Y-63197600D01*
X69885734Y-52040600D02*
X69852400Y-52073933D01*
X69752400Y-52107267D01*
X69685734Y-52107267D01*
X69585734Y-52073933D01*
X69519067Y-52007267D01*
X69485734Y-51940600D01*
X69452400Y-51807267D01*
X69452400Y-51707267D01*
X69485734Y-51573933D01*
X69519067Y-51507267D01*
X69585734Y-51440600D01*
X69685734Y-51407267D01*
X69752400Y-51407267D01*
X69852400Y-51440600D01*
X69885734Y-51473933D01*
X70119067Y-51407267D02*
X70585734Y-51407267D01*
X70285734Y-52107267D01*
X54645734Y-63089600D02*
X54612400Y-63122933D01*
X54512400Y-63156267D01*
X54445734Y-63156267D01*
X54345734Y-63122933D01*
X54279067Y-63056267D01*
X54245734Y-62989600D01*
X54212400Y-62856267D01*
X54212400Y-62756267D01*
X54245734Y-62622933D01*
X54279067Y-62556267D01*
X54345734Y-62489600D01*
X54445734Y-62456267D01*
X54512400Y-62456267D01*
X54612400Y-62489600D01*
X54645734Y-62522933D01*
X55045734Y-62756267D02*
X54979067Y-62722933D01*
X54945734Y-62689600D01*
X54912400Y-62622933D01*
X54912400Y-62589600D01*
X54945734Y-62522933D01*
X54979067Y-62489600D01*
X55045734Y-62456267D01*
X55179067Y-62456267D01*
X55245734Y-62489600D01*
X55279067Y-62522933D01*
X55312400Y-62589600D01*
X55312400Y-62622933D01*
X55279067Y-62689600D01*
X55245734Y-62722933D01*
X55179067Y-62756267D01*
X55045734Y-62756267D01*
X54979067Y-62789600D01*
X54945734Y-62822933D01*
X54912400Y-62889600D01*
X54912400Y-63022933D01*
X54945734Y-63089600D01*
X54979067Y-63122933D01*
X55045734Y-63156267D01*
X55179067Y-63156267D01*
X55245734Y-63122933D01*
X55279067Y-63089600D01*
X55312400Y-63022933D01*
X55312400Y-62889600D01*
X55279067Y-62822933D01*
X55245734Y-62789600D01*
X55179067Y-62756267D01*
X69885734Y-53818600D02*
X69852400Y-53851933D01*
X69752400Y-53885267D01*
X69685734Y-53885267D01*
X69585734Y-53851933D01*
X69519067Y-53785267D01*
X69485734Y-53718600D01*
X69452400Y-53585267D01*
X69452400Y-53485267D01*
X69485734Y-53351933D01*
X69519067Y-53285267D01*
X69585734Y-53218600D01*
X69685734Y-53185267D01*
X69752400Y-53185267D01*
X69852400Y-53218600D01*
X69885734Y-53251933D01*
X70219067Y-53885267D02*
X70352400Y-53885267D01*
X70419067Y-53851933D01*
X70452400Y-53818600D01*
X70519067Y-53718600D01*
X70552400Y-53585267D01*
X70552400Y-53318600D01*
X70519067Y-53251933D01*
X70485734Y-53218600D01*
X70419067Y-53185267D01*
X70285734Y-53185267D01*
X70219067Y-53218600D01*
X70185734Y-53251933D01*
X70152400Y-53318600D01*
X70152400Y-53485267D01*
X70185734Y-53551933D01*
X70219067Y-53585267D01*
X70285734Y-53618600D01*
X70419067Y-53618600D01*
X70485734Y-53585267D01*
X70519067Y-53551933D01*
X70552400Y-53485267D01*
X38437400Y-91664600D02*
X38404066Y-91697933D01*
X38304066Y-91731267D01*
X38237400Y-91731267D01*
X38137400Y-91697933D01*
X38070733Y-91631267D01*
X38037400Y-91564600D01*
X38004066Y-91431267D01*
X38004066Y-91331267D01*
X38037400Y-91197933D01*
X38070733Y-91131267D01*
X38137400Y-91064600D01*
X38237400Y-91031267D01*
X38304066Y-91031267D01*
X38404066Y-91064600D01*
X38437400Y-91097933D01*
X39104066Y-91731267D02*
X38704066Y-91731267D01*
X38904066Y-91731267D02*
X38904066Y-91031267D01*
X38837400Y-91131267D01*
X38770733Y-91197933D01*
X38704066Y-91231267D01*
X39537400Y-91031267D02*
X39604067Y-91031267D01*
X39670733Y-91064600D01*
X39704067Y-91097933D01*
X39737400Y-91164600D01*
X39770733Y-91297933D01*
X39770733Y-91464600D01*
X39737400Y-91597933D01*
X39704067Y-91664600D01*
X39670733Y-91697933D01*
X39604067Y-91731267D01*
X39537400Y-91731267D01*
X39470733Y-91697933D01*
X39437400Y-91664600D01*
X39404067Y-91597933D01*
X39370733Y-91464600D01*
X39370733Y-91297933D01*
X39404067Y-91164600D01*
X39437400Y-91097933D01*
X39470733Y-91064600D01*
X39537400Y-91031267D01*
X51380200Y-70833400D02*
X51413533Y-70866734D01*
X51446867Y-70966734D01*
X51446867Y-71033400D01*
X51413533Y-71133400D01*
X51346867Y-71200067D01*
X51280200Y-71233400D01*
X51146867Y-71266734D01*
X51046867Y-71266734D01*
X50913533Y-71233400D01*
X50846867Y-71200067D01*
X50780200Y-71133400D01*
X50746867Y-71033400D01*
X50746867Y-70966734D01*
X50780200Y-70866734D01*
X50813533Y-70833400D01*
X51446867Y-70166734D02*
X51446867Y-70566734D01*
X51446867Y-70366734D02*
X50746867Y-70366734D01*
X50846867Y-70433400D01*
X50913533Y-70500067D01*
X50946867Y-70566734D01*
X51446867Y-69500067D02*
X51446867Y-69900067D01*
X51446867Y-69700067D02*
X50746867Y-69700067D01*
X50846867Y-69766733D01*
X50913533Y-69833400D01*
X50946867Y-69900067D01*
X44914400Y-78202600D02*
X44881066Y-78235933D01*
X44781066Y-78269267D01*
X44714400Y-78269267D01*
X44614400Y-78235933D01*
X44547733Y-78169267D01*
X44514400Y-78102600D01*
X44481066Y-77969267D01*
X44481066Y-77869267D01*
X44514400Y-77735933D01*
X44547733Y-77669267D01*
X44614400Y-77602600D01*
X44714400Y-77569267D01*
X44781066Y-77569267D01*
X44881066Y-77602600D01*
X44914400Y-77635933D01*
X45581066Y-78269267D02*
X45181066Y-78269267D01*
X45381066Y-78269267D02*
X45381066Y-77569267D01*
X45314400Y-77669267D01*
X45247733Y-77735933D01*
X45181066Y-77769267D01*
X45847733Y-77635933D02*
X45881067Y-77602600D01*
X45947733Y-77569267D01*
X46114400Y-77569267D01*
X46181067Y-77602600D01*
X46214400Y-77635933D01*
X46247733Y-77702600D01*
X46247733Y-77769267D01*
X46214400Y-77869267D01*
X45814400Y-78269267D01*
X46247733Y-78269267D01*
X38437400Y-90140600D02*
X38404066Y-90173933D01*
X38304066Y-90207267D01*
X38237400Y-90207267D01*
X38137400Y-90173933D01*
X38070733Y-90107267D01*
X38037400Y-90040600D01*
X38004066Y-89907267D01*
X38004066Y-89807267D01*
X38037400Y-89673933D01*
X38070733Y-89607267D01*
X38137400Y-89540600D01*
X38237400Y-89507267D01*
X38304066Y-89507267D01*
X38404066Y-89540600D01*
X38437400Y-89573933D01*
X39104066Y-90207267D02*
X38704066Y-90207267D01*
X38904066Y-90207267D02*
X38904066Y-89507267D01*
X38837400Y-89607267D01*
X38770733Y-89673933D01*
X38704066Y-89707267D01*
X39337400Y-89507267D02*
X39770733Y-89507267D01*
X39537400Y-89773933D01*
X39637400Y-89773933D01*
X39704067Y-89807267D01*
X39737400Y-89840600D01*
X39770733Y-89907267D01*
X39770733Y-90073933D01*
X39737400Y-90140600D01*
X39704067Y-90173933D01*
X39637400Y-90207267D01*
X39437400Y-90207267D01*
X39370733Y-90173933D01*
X39337400Y-90140600D01*
X38437400Y-88616600D02*
X38404066Y-88649933D01*
X38304066Y-88683267D01*
X38237400Y-88683267D01*
X38137400Y-88649933D01*
X38070733Y-88583267D01*
X38037400Y-88516600D01*
X38004066Y-88383267D01*
X38004066Y-88283267D01*
X38037400Y-88149933D01*
X38070733Y-88083267D01*
X38137400Y-88016600D01*
X38237400Y-87983267D01*
X38304066Y-87983267D01*
X38404066Y-88016600D01*
X38437400Y-88049933D01*
X39104066Y-88683267D02*
X38704066Y-88683267D01*
X38904066Y-88683267D02*
X38904066Y-87983267D01*
X38837400Y-88083267D01*
X38770733Y-88149933D01*
X38704066Y-88183267D01*
X39704067Y-88216600D02*
X39704067Y-88683267D01*
X39537400Y-87949933D02*
X39370733Y-88449933D01*
X39804067Y-88449933D01*
X48281400Y-70782600D02*
X48314733Y-70815934D01*
X48348067Y-70915934D01*
X48348067Y-70982600D01*
X48314733Y-71082600D01*
X48248067Y-71149267D01*
X48181400Y-71182600D01*
X48048067Y-71215934D01*
X47948067Y-71215934D01*
X47814733Y-71182600D01*
X47748067Y-71149267D01*
X47681400Y-71082600D01*
X47648067Y-70982600D01*
X47648067Y-70915934D01*
X47681400Y-70815934D01*
X47714733Y-70782600D01*
X48348067Y-70115934D02*
X48348067Y-70515934D01*
X48348067Y-70315934D02*
X47648067Y-70315934D01*
X47748067Y-70382600D01*
X47814733Y-70449267D01*
X47848067Y-70515934D01*
X47648067Y-69482600D02*
X47648067Y-69815933D01*
X47981400Y-69849267D01*
X47948067Y-69815933D01*
X47914733Y-69749267D01*
X47914733Y-69582600D01*
X47948067Y-69515933D01*
X47981400Y-69482600D01*
X48048067Y-69449267D01*
X48214733Y-69449267D01*
X48281400Y-69482600D01*
X48314733Y-69515933D01*
X48348067Y-69582600D01*
X48348067Y-69749267D01*
X48314733Y-69815933D01*
X48281400Y-69849267D01*
X63202400Y-62200600D02*
X63169066Y-62233933D01*
X63069066Y-62267267D01*
X63002400Y-62267267D01*
X62902400Y-62233933D01*
X62835733Y-62167267D01*
X62802400Y-62100600D01*
X62769066Y-61967267D01*
X62769066Y-61867267D01*
X62802400Y-61733933D01*
X62835733Y-61667267D01*
X62902400Y-61600600D01*
X63002400Y-61567267D01*
X63069066Y-61567267D01*
X63169066Y-61600600D01*
X63202400Y-61633933D01*
X63869066Y-62267267D02*
X63469066Y-62267267D01*
X63669066Y-62267267D02*
X63669066Y-61567267D01*
X63602400Y-61667267D01*
X63535733Y-61733933D01*
X63469066Y-61767267D01*
X64202400Y-62267267D02*
X64335733Y-62267267D01*
X64402400Y-62233933D01*
X64435733Y-62200600D01*
X64502400Y-62100600D01*
X64535733Y-61967267D01*
X64535733Y-61700600D01*
X64502400Y-61633933D01*
X64469067Y-61600600D01*
X64402400Y-61567267D01*
X64269067Y-61567267D01*
X64202400Y-61600600D01*
X64169067Y-61633933D01*
X64135733Y-61700600D01*
X64135733Y-61867267D01*
X64169067Y-61933933D01*
X64202400Y-61967267D01*
X64269067Y-62000600D01*
X64402400Y-62000600D01*
X64469067Y-61967267D01*
X64502400Y-61933933D01*
X64535733Y-61867267D01*
X68282400Y-62200600D02*
X68249066Y-62233933D01*
X68149066Y-62267267D01*
X68082400Y-62267267D01*
X67982400Y-62233933D01*
X67915733Y-62167267D01*
X67882400Y-62100600D01*
X67849066Y-61967267D01*
X67849066Y-61867267D01*
X67882400Y-61733933D01*
X67915733Y-61667267D01*
X67982400Y-61600600D01*
X68082400Y-61567267D01*
X68149066Y-61567267D01*
X68249066Y-61600600D01*
X68282400Y-61633933D01*
X68549066Y-61633933D02*
X68582400Y-61600600D01*
X68649066Y-61567267D01*
X68815733Y-61567267D01*
X68882400Y-61600600D01*
X68915733Y-61633933D01*
X68949066Y-61700600D01*
X68949066Y-61767267D01*
X68915733Y-61867267D01*
X68515733Y-62267267D01*
X68949066Y-62267267D01*
X69382400Y-61567267D02*
X69449067Y-61567267D01*
X69515733Y-61600600D01*
X69549067Y-61633933D01*
X69582400Y-61700600D01*
X69615733Y-61833933D01*
X69615733Y-62000600D01*
X69582400Y-62133933D01*
X69549067Y-62200600D01*
X69515733Y-62233933D01*
X69449067Y-62267267D01*
X69382400Y-62267267D01*
X69315733Y-62233933D01*
X69282400Y-62200600D01*
X69249067Y-62133933D01*
X69215733Y-62000600D01*
X69215733Y-61833933D01*
X69249067Y-61700600D01*
X69282400Y-61633933D01*
X69315733Y-61600600D01*
X69382400Y-61567267D01*
X67128200Y-72577266D02*
X67161533Y-72610600D01*
X67194867Y-72710600D01*
X67194867Y-72777266D01*
X67161533Y-72877266D01*
X67094867Y-72943933D01*
X67028200Y-72977266D01*
X66894867Y-73010600D01*
X66794867Y-73010600D01*
X66661533Y-72977266D01*
X66594867Y-72943933D01*
X66528200Y-72877266D01*
X66494867Y-72777266D01*
X66494867Y-72710600D01*
X66528200Y-72610600D01*
X66561533Y-72577266D01*
X67194867Y-71877266D02*
X66861533Y-72110600D01*
X67194867Y-72277266D02*
X66494867Y-72277266D01*
X66494867Y-72010600D01*
X66528200Y-71943933D01*
X66561533Y-71910600D01*
X66628200Y-71877266D01*
X66728200Y-71877266D01*
X66794867Y-71910600D01*
X66828200Y-71943933D01*
X66861533Y-72010600D01*
X66861533Y-72277266D01*
X67194867Y-71210600D02*
X67194867Y-71610600D01*
X67194867Y-71410600D02*
X66494867Y-71410600D01*
X66594867Y-71477266D01*
X66661533Y-71543933D01*
X66694867Y-71610600D01*
X68550600Y-72551866D02*
X68583933Y-72585200D01*
X68617267Y-72685200D01*
X68617267Y-72751866D01*
X68583933Y-72851866D01*
X68517267Y-72918533D01*
X68450600Y-72951866D01*
X68317267Y-72985200D01*
X68217267Y-72985200D01*
X68083933Y-72951866D01*
X68017267Y-72918533D01*
X67950600Y-72851866D01*
X67917267Y-72751866D01*
X67917267Y-72685200D01*
X67950600Y-72585200D01*
X67983933Y-72551866D01*
X68617267Y-71851866D02*
X68283933Y-72085200D01*
X68617267Y-72251866D02*
X67917267Y-72251866D01*
X67917267Y-71985200D01*
X67950600Y-71918533D01*
X67983933Y-71885200D01*
X68050600Y-71851866D01*
X68150600Y-71851866D01*
X68217267Y-71885200D01*
X68250600Y-71918533D01*
X68283933Y-71985200D01*
X68283933Y-72251866D01*
X67983933Y-71585200D02*
X67950600Y-71551866D01*
X67917267Y-71485200D01*
X67917267Y-71318533D01*
X67950600Y-71251866D01*
X67983933Y-71218533D01*
X68050600Y-71185200D01*
X68117267Y-71185200D01*
X68217267Y-71218533D01*
X68617267Y-71618533D01*
X68617267Y-71185200D01*
X66188400Y-82737266D02*
X66221733Y-82770600D01*
X66255067Y-82870600D01*
X66255067Y-82937266D01*
X66221733Y-83037266D01*
X66155067Y-83103933D01*
X66088400Y-83137266D01*
X65955067Y-83170600D01*
X65855067Y-83170600D01*
X65721733Y-83137266D01*
X65655067Y-83103933D01*
X65588400Y-83037266D01*
X65555067Y-82937266D01*
X65555067Y-82870600D01*
X65588400Y-82770600D01*
X65621733Y-82737266D01*
X66255067Y-82037266D02*
X65921733Y-82270600D01*
X66255067Y-82437266D02*
X65555067Y-82437266D01*
X65555067Y-82170600D01*
X65588400Y-82103933D01*
X65621733Y-82070600D01*
X65688400Y-82037266D01*
X65788400Y-82037266D01*
X65855067Y-82070600D01*
X65888400Y-82103933D01*
X65921733Y-82170600D01*
X65921733Y-82437266D01*
X65555067Y-81803933D02*
X65555067Y-81370600D01*
X65821733Y-81603933D01*
X65821733Y-81503933D01*
X65855067Y-81437266D01*
X65888400Y-81403933D01*
X65955067Y-81370600D01*
X66121733Y-81370600D01*
X66188400Y-81403933D01*
X66221733Y-81437266D01*
X66255067Y-81503933D01*
X66255067Y-81703933D01*
X66221733Y-81770600D01*
X66188400Y-81803933D01*
X38624734Y-87159267D02*
X38624734Y-86459267D01*
X38791400Y-86459267D01*
X38891400Y-86492600D01*
X38958067Y-86559267D01*
X38991400Y-86625933D01*
X39024734Y-86759267D01*
X39024734Y-86859267D01*
X38991400Y-86992600D01*
X38958067Y-87059267D01*
X38891400Y-87125933D01*
X38791400Y-87159267D01*
X38624734Y-87159267D01*
X39691400Y-87159267D02*
X39291400Y-87159267D01*
X39491400Y-87159267D02*
X39491400Y-86459267D01*
X39424734Y-86559267D01*
X39358067Y-86625933D01*
X39291400Y-86659267D01*
X25825067Y-76183266D02*
X25125067Y-76183266D01*
X25125067Y-76016600D01*
X25158400Y-75916600D01*
X25225067Y-75849933D01*
X25291733Y-75816600D01*
X25425067Y-75783266D01*
X25525067Y-75783266D01*
X25658400Y-75816600D01*
X25725067Y-75849933D01*
X25791733Y-75916600D01*
X25825067Y-76016600D01*
X25825067Y-76183266D01*
X25191733Y-75516600D02*
X25158400Y-75483266D01*
X25125067Y-75416600D01*
X25125067Y-75249933D01*
X25158400Y-75183266D01*
X25191733Y-75149933D01*
X25258400Y-75116600D01*
X25325067Y-75116600D01*
X25425067Y-75149933D01*
X25825067Y-75549933D01*
X25825067Y-75116600D01*
X25869067Y-70087266D02*
X25169067Y-70087266D01*
X25169067Y-69920600D01*
X25202400Y-69820600D01*
X25269067Y-69753933D01*
X25335733Y-69720600D01*
X25469067Y-69687266D01*
X25569067Y-69687266D01*
X25702400Y-69720600D01*
X25769067Y-69753933D01*
X25835733Y-69820600D01*
X25869067Y-69920600D01*
X25869067Y-70087266D01*
X25169067Y-69453933D02*
X25169067Y-69020600D01*
X25435733Y-69253933D01*
X25435733Y-69153933D01*
X25469067Y-69087266D01*
X25502400Y-69053933D01*
X25569067Y-69020600D01*
X25735733Y-69020600D01*
X25802400Y-69053933D01*
X25835733Y-69087266D01*
X25869067Y-69153933D01*
X25869067Y-69353933D01*
X25835733Y-69420600D01*
X25802400Y-69453933D01*
X25825067Y-67039266D02*
X25125067Y-67039266D01*
X25125067Y-66872600D01*
X25158400Y-66772600D01*
X25225067Y-66705933D01*
X25291733Y-66672600D01*
X25425067Y-66639266D01*
X25525067Y-66639266D01*
X25658400Y-66672600D01*
X25725067Y-66705933D01*
X25791733Y-66772600D01*
X25825067Y-66872600D01*
X25825067Y-67039266D01*
X25358400Y-66039266D02*
X25825067Y-66039266D01*
X25091733Y-66205933D02*
X25591733Y-66372600D01*
X25591733Y-65939266D01*
X25869067Y-72881266D02*
X25169067Y-72881266D01*
X25169067Y-72714600D01*
X25202400Y-72614600D01*
X25269067Y-72547933D01*
X25335733Y-72514600D01*
X25469067Y-72481266D01*
X25569067Y-72481266D01*
X25702400Y-72514600D01*
X25769067Y-72547933D01*
X25835733Y-72614600D01*
X25869067Y-72714600D01*
X25869067Y-72881266D01*
X25169067Y-71847933D02*
X25169067Y-72181266D01*
X25502400Y-72214600D01*
X25469067Y-72181266D01*
X25435733Y-72114600D01*
X25435733Y-71947933D01*
X25469067Y-71881266D01*
X25502400Y-71847933D01*
X25569067Y-71814600D01*
X25735733Y-71814600D01*
X25802400Y-71847933D01*
X25835733Y-71881266D01*
X25869067Y-71947933D01*
X25869067Y-72114600D01*
X25835733Y-72181266D01*
X25802400Y-72214600D01*
X44750067Y-84633600D02*
X44516734Y-84633600D01*
X44516734Y-85000267D02*
X44516734Y-84300267D01*
X44850067Y-84300267D01*
X45483400Y-85000267D02*
X45083400Y-85000267D01*
X45283400Y-85000267D02*
X45283400Y-84300267D01*
X45216734Y-84400267D01*
X45150067Y-84466933D01*
X45083400Y-84500267D01*
X33982867Y-98048733D02*
X34482867Y-98048733D01*
X34582867Y-98082067D01*
X34649533Y-98148733D01*
X34682867Y-98248733D01*
X34682867Y-98315400D01*
X34049533Y-97748734D02*
X34016200Y-97715400D01*
X33982867Y-97648734D01*
X33982867Y-97482067D01*
X34016200Y-97415400D01*
X34049533Y-97382067D01*
X34116200Y-97348734D01*
X34182867Y-97348734D01*
X34282867Y-97382067D01*
X34682867Y-97782067D01*
X34682867Y-97348734D01*
X60348067Y-98099533D02*
X60848067Y-98099533D01*
X60948067Y-98132867D01*
X61014733Y-98199533D01*
X61048067Y-98299533D01*
X61048067Y-98366200D01*
X60348067Y-97832867D02*
X60348067Y-97399534D01*
X60614733Y-97632867D01*
X60614733Y-97532867D01*
X60648067Y-97466200D01*
X60681400Y-97432867D01*
X60748067Y-97399534D01*
X60914733Y-97399534D01*
X60981400Y-97432867D01*
X61014733Y-97466200D01*
X61048067Y-97532867D01*
X61048067Y-97732867D01*
X61014733Y-97799534D01*
X60981400Y-97832867D01*
X32789067Y-82091933D02*
X33289067Y-82091933D01*
X33389067Y-82125267D01*
X33455733Y-82191933D01*
X33489067Y-82291933D01*
X33489067Y-82358600D01*
X33489067Y-81758600D02*
X32789067Y-81758600D01*
X32789067Y-81491934D01*
X32822400Y-81425267D01*
X32855733Y-81391934D01*
X32922400Y-81358600D01*
X33022400Y-81358600D01*
X33089067Y-81391934D01*
X33122400Y-81425267D01*
X33155733Y-81491934D01*
X33155733Y-81758600D01*
X33489067Y-80691934D02*
X33489067Y-81091934D01*
X33489067Y-80891934D02*
X32789067Y-80891934D01*
X32889067Y-80958600D01*
X32955733Y-81025267D01*
X32989067Y-81091934D01*
X48791067Y-58342933D02*
X49291067Y-58342933D01*
X49391067Y-58376267D01*
X49457733Y-58442933D01*
X49491067Y-58542933D01*
X49491067Y-58609600D01*
X49491067Y-58009600D02*
X48791067Y-58009600D01*
X48791067Y-57742934D01*
X48824400Y-57676267D01*
X48857733Y-57642934D01*
X48924400Y-57609600D01*
X49024400Y-57609600D01*
X49091067Y-57642934D01*
X49124400Y-57676267D01*
X49157733Y-57742934D01*
X49157733Y-58009600D01*
X48857733Y-57342934D02*
X48824400Y-57309600D01*
X48791067Y-57242934D01*
X48791067Y-57076267D01*
X48824400Y-57009600D01*
X48857733Y-56976267D01*
X48924400Y-56942934D01*
X48991067Y-56942934D01*
X49091067Y-56976267D01*
X49491067Y-57376267D01*
X49491067Y-56942934D01*
X69637333Y-72173267D02*
X69304000Y-72173267D01*
X69304000Y-71473267D01*
X70270667Y-72173267D02*
X70037333Y-71839933D01*
X69870667Y-72173267D02*
X69870667Y-71473267D01*
X70137333Y-71473267D01*
X70204000Y-71506600D01*
X70237333Y-71539933D01*
X70270667Y-71606600D01*
X70270667Y-71706600D01*
X70237333Y-71773267D01*
X70204000Y-71806600D01*
X70137333Y-71839933D01*
X69870667Y-71839933D01*
X70937333Y-72173267D02*
X70537333Y-72173267D01*
X70737333Y-72173267D02*
X70737333Y-71473267D01*
X70670667Y-71573267D01*
X70604000Y-71639933D01*
X70537333Y-71673267D01*
X62677733Y-70903267D02*
X62344400Y-70903267D01*
X62344400Y-70203267D01*
X63311067Y-70903267D02*
X63077733Y-70569933D01*
X62911067Y-70903267D02*
X62911067Y-70203267D01*
X63177733Y-70203267D01*
X63244400Y-70236600D01*
X63277733Y-70269933D01*
X63311067Y-70336600D01*
X63311067Y-70436600D01*
X63277733Y-70503267D01*
X63244400Y-70536600D01*
X63177733Y-70569933D01*
X62911067Y-70569933D01*
X63577733Y-70269933D02*
X63611067Y-70236600D01*
X63677733Y-70203267D01*
X63844400Y-70203267D01*
X63911067Y-70236600D01*
X63944400Y-70269933D01*
X63977733Y-70336600D01*
X63977733Y-70403267D01*
X63944400Y-70503267D01*
X63544400Y-70903267D01*
X63977733Y-70903267D01*
X64539067Y-86726599D02*
X65239067Y-86493266D01*
X64539067Y-86259933D01*
X65239067Y-86026599D02*
X64539067Y-86026599D01*
X64872400Y-86026599D02*
X64872400Y-85626599D01*
X65239067Y-85626599D02*
X64539067Y-85626599D01*
X64872400Y-85059933D02*
X64872400Y-85293266D01*
X65239067Y-85293266D02*
X64539067Y-85293266D01*
X64539067Y-84959933D01*
X49260133Y-89918333D02*
X49193467Y-89885000D01*
X49126800Y-89818333D01*
X49026800Y-89718333D01*
X48960133Y-89685000D01*
X48893467Y-89685000D01*
X48926800Y-89851667D02*
X48860133Y-89818333D01*
X48793467Y-89751667D01*
X48760133Y-89618333D01*
X48760133Y-89385000D01*
X48793467Y-89251667D01*
X48860133Y-89185000D01*
X48926800Y-89151667D01*
X49060133Y-89151667D01*
X49126800Y-89185000D01*
X49193467Y-89251667D01*
X49226800Y-89385000D01*
X49226800Y-89618333D01*
X49193467Y-89751667D01*
X49126800Y-89818333D01*
X49060133Y-89851667D01*
X48926800Y-89851667D01*
X49893466Y-89851667D02*
X49493466Y-89851667D01*
X49693466Y-89851667D02*
X49693466Y-89151667D01*
X49626800Y-89251667D01*
X49560133Y-89318333D01*
X49493466Y-89351667D01*
X52866933Y-81053733D02*
X52800267Y-81020400D01*
X52733600Y-80953733D01*
X52633600Y-80853733D01*
X52566933Y-80820400D01*
X52500267Y-80820400D01*
X52533600Y-80987067D02*
X52466933Y-80953733D01*
X52400267Y-80887067D01*
X52366933Y-80753733D01*
X52366933Y-80520400D01*
X52400267Y-80387067D01*
X52466933Y-80320400D01*
X52533600Y-80287067D01*
X52666933Y-80287067D01*
X52733600Y-80320400D01*
X52800267Y-80387067D01*
X52833600Y-80520400D01*
X52833600Y-80753733D01*
X52800267Y-80887067D01*
X52733600Y-80953733D01*
X52666933Y-80987067D01*
X52533600Y-80987067D01*
X53100266Y-80353733D02*
X53133600Y-80320400D01*
X53200266Y-80287067D01*
X53366933Y-80287067D01*
X53433600Y-80320400D01*
X53466933Y-80353733D01*
X53500266Y-80420400D01*
X53500266Y-80487067D01*
X53466933Y-80587067D01*
X53066933Y-80987067D01*
X53500266Y-80987067D01*
X40855067Y-54701266D02*
X40521733Y-54934600D01*
X40855067Y-55101266D02*
X40155067Y-55101266D01*
X40155067Y-54834600D01*
X40188400Y-54767933D01*
X40221733Y-54734600D01*
X40288400Y-54701266D01*
X40388400Y-54701266D01*
X40455067Y-54734600D01*
X40488400Y-54767933D01*
X40521733Y-54834600D01*
X40521733Y-55101266D01*
X40855067Y-54034600D02*
X40855067Y-54434600D01*
X40855067Y-54234600D02*
X40155067Y-54234600D01*
X40255067Y-54301266D01*
X40321733Y-54367933D01*
X40355067Y-54434600D01*
X39077067Y-54701266D02*
X38743733Y-54934600D01*
X39077067Y-55101266D02*
X38377067Y-55101266D01*
X38377067Y-54834600D01*
X38410400Y-54767933D01*
X38443733Y-54734600D01*
X38510400Y-54701266D01*
X38610400Y-54701266D01*
X38677067Y-54734600D01*
X38710400Y-54767933D01*
X38743733Y-54834600D01*
X38743733Y-55101266D01*
X38443733Y-54434600D02*
X38410400Y-54401266D01*
X38377067Y-54334600D01*
X38377067Y-54167933D01*
X38410400Y-54101266D01*
X38443733Y-54067933D01*
X38510400Y-54034600D01*
X38577067Y-54034600D01*
X38677067Y-54067933D01*
X39077067Y-54467933D01*
X39077067Y-54034600D01*
X42633067Y-54701266D02*
X42299733Y-54934600D01*
X42633067Y-55101266D02*
X41933067Y-55101266D01*
X41933067Y-54834600D01*
X41966400Y-54767933D01*
X41999733Y-54734600D01*
X42066400Y-54701266D01*
X42166400Y-54701266D01*
X42233067Y-54734600D01*
X42266400Y-54767933D01*
X42299733Y-54834600D01*
X42299733Y-55101266D01*
X41933067Y-54467933D02*
X41933067Y-54034600D01*
X42199733Y-54267933D01*
X42199733Y-54167933D01*
X42233067Y-54101266D01*
X42266400Y-54067933D01*
X42333067Y-54034600D01*
X42499733Y-54034600D01*
X42566400Y-54067933D01*
X42599733Y-54101266D01*
X42633067Y-54167933D01*
X42633067Y-54367933D01*
X42599733Y-54434600D01*
X42566400Y-54467933D01*
X55534734Y-86397267D02*
X55301400Y-86063933D01*
X55134734Y-86397267D02*
X55134734Y-85697267D01*
X55401400Y-85697267D01*
X55468067Y-85730600D01*
X55501400Y-85763933D01*
X55534734Y-85830600D01*
X55534734Y-85930600D01*
X55501400Y-85997267D01*
X55468067Y-86030600D01*
X55401400Y-86063933D01*
X55134734Y-86063933D01*
X56134734Y-85930600D02*
X56134734Y-86397267D01*
X55968067Y-85663933D02*
X55801400Y-86163933D01*
X56234734Y-86163933D01*
X33489067Y-76545266D02*
X33155733Y-76778600D01*
X33489067Y-76945266D02*
X32789067Y-76945266D01*
X32789067Y-76678600D01*
X32822400Y-76611933D01*
X32855733Y-76578600D01*
X32922400Y-76545266D01*
X33022400Y-76545266D01*
X33089067Y-76578600D01*
X33122400Y-76611933D01*
X33155733Y-76678600D01*
X33155733Y-76945266D01*
X32789067Y-75911933D02*
X32789067Y-76245266D01*
X33122400Y-76278600D01*
X33089067Y-76245266D01*
X33055733Y-76178600D01*
X33055733Y-76011933D01*
X33089067Y-75945266D01*
X33122400Y-75911933D01*
X33189067Y-75878600D01*
X33355733Y-75878600D01*
X33422400Y-75911933D01*
X33455733Y-75945266D01*
X33489067Y-76011933D01*
X33489067Y-76178600D01*
X33455733Y-76245266D01*
X33422400Y-76278600D01*
X64096067Y-50002266D02*
X63762733Y-50235600D01*
X64096067Y-50402266D02*
X63396067Y-50402266D01*
X63396067Y-50135600D01*
X63429400Y-50068933D01*
X63462733Y-50035600D01*
X63529400Y-50002266D01*
X63629400Y-50002266D01*
X63696067Y-50035600D01*
X63729400Y-50068933D01*
X63762733Y-50135600D01*
X63762733Y-50402266D01*
X63396067Y-49402266D02*
X63396067Y-49535600D01*
X63429400Y-49602266D01*
X63462733Y-49635600D01*
X63562733Y-49702266D01*
X63696067Y-49735600D01*
X63962733Y-49735600D01*
X64029400Y-49702266D01*
X64062733Y-49668933D01*
X64096067Y-49602266D01*
X64096067Y-49468933D01*
X64062733Y-49402266D01*
X64029400Y-49368933D01*
X63962733Y-49335600D01*
X63796067Y-49335600D01*
X63729400Y-49368933D01*
X63696067Y-49402266D01*
X63662733Y-49468933D01*
X63662733Y-49602266D01*
X63696067Y-49668933D01*
X63729400Y-49702266D01*
X63796067Y-49735600D01*
X44411067Y-54701266D02*
X44077733Y-54934600D01*
X44411067Y-55101266D02*
X43711067Y-55101266D01*
X43711067Y-54834600D01*
X43744400Y-54767933D01*
X43777733Y-54734600D01*
X43844400Y-54701266D01*
X43944400Y-54701266D01*
X44011067Y-54734600D01*
X44044400Y-54767933D01*
X44077733Y-54834600D01*
X44077733Y-55101266D01*
X43711067Y-54467933D02*
X43711067Y-54001266D01*
X44411067Y-54301266D01*
X67472734Y-44233267D02*
X67239400Y-43899933D01*
X67072734Y-44233267D02*
X67072734Y-43533267D01*
X67339400Y-43533267D01*
X67406067Y-43566600D01*
X67439400Y-43599933D01*
X67472734Y-43666600D01*
X67472734Y-43766600D01*
X67439400Y-43833267D01*
X67406067Y-43866600D01*
X67339400Y-43899933D01*
X67072734Y-43899933D01*
X67872734Y-43833267D02*
X67806067Y-43799933D01*
X67772734Y-43766600D01*
X67739400Y-43699933D01*
X67739400Y-43666600D01*
X67772734Y-43599933D01*
X67806067Y-43566600D01*
X67872734Y-43533267D01*
X68006067Y-43533267D01*
X68072734Y-43566600D01*
X68106067Y-43599933D01*
X68139400Y-43666600D01*
X68139400Y-43699933D01*
X68106067Y-43766600D01*
X68072734Y-43799933D01*
X68006067Y-43833267D01*
X67872734Y-43833267D01*
X67806067Y-43866600D01*
X67772734Y-43899933D01*
X67739400Y-43966600D01*
X67739400Y-44099933D01*
X67772734Y-44166600D01*
X67806067Y-44199933D01*
X67872734Y-44233267D01*
X68006067Y-44233267D01*
X68072734Y-44199933D01*
X68106067Y-44166600D01*
X68139400Y-44099933D01*
X68139400Y-43966600D01*
X68106067Y-43899933D01*
X68072734Y-43866600D01*
X68006067Y-43833267D01*
X62445067Y-40477266D02*
X62111733Y-40710600D01*
X62445067Y-40877266D02*
X61745067Y-40877266D01*
X61745067Y-40610600D01*
X61778400Y-40543933D01*
X61811733Y-40510600D01*
X61878400Y-40477266D01*
X61978400Y-40477266D01*
X62045067Y-40510600D01*
X62078400Y-40543933D01*
X62111733Y-40610600D01*
X62111733Y-40877266D01*
X62445067Y-40143933D02*
X62445067Y-40010600D01*
X62411733Y-39943933D01*
X62378400Y-39910600D01*
X62278400Y-39843933D01*
X62145067Y-39810600D01*
X61878400Y-39810600D01*
X61811733Y-39843933D01*
X61778400Y-39877266D01*
X61745067Y-39943933D01*
X61745067Y-40077266D01*
X61778400Y-40143933D01*
X61811733Y-40177266D01*
X61878400Y-40210600D01*
X62045067Y-40210600D01*
X62111733Y-40177266D01*
X62145067Y-40143933D01*
X62178400Y-40077266D01*
X62178400Y-39943933D01*
X62145067Y-39877266D01*
X62111733Y-39843933D01*
X62045067Y-39810600D01*
X33489067Y-71036600D02*
X33155733Y-71269934D01*
X33489067Y-71436600D02*
X32789067Y-71436600D01*
X32789067Y-71169934D01*
X32822400Y-71103267D01*
X32855733Y-71069934D01*
X32922400Y-71036600D01*
X33022400Y-71036600D01*
X33089067Y-71069934D01*
X33122400Y-71103267D01*
X33155733Y-71169934D01*
X33155733Y-71436600D01*
X33489067Y-70369934D02*
X33489067Y-70769934D01*
X33489067Y-70569934D02*
X32789067Y-70569934D01*
X32889067Y-70636600D01*
X32955733Y-70703267D01*
X32989067Y-70769934D01*
X32789067Y-69936600D02*
X32789067Y-69869933D01*
X32822400Y-69803267D01*
X32855733Y-69769933D01*
X32922400Y-69736600D01*
X33055733Y-69703267D01*
X33222400Y-69703267D01*
X33355733Y-69736600D01*
X33422400Y-69769933D01*
X33455733Y-69803267D01*
X33489067Y-69869933D01*
X33489067Y-69936600D01*
X33455733Y-70003267D01*
X33422400Y-70036600D01*
X33355733Y-70069933D01*
X33222400Y-70103267D01*
X33055733Y-70103267D01*
X32922400Y-70069933D01*
X32855733Y-70036600D01*
X32822400Y-70003267D01*
X32789067Y-69936600D01*
X33493067Y-88812600D02*
X33159733Y-89045934D01*
X33493067Y-89212600D02*
X32793067Y-89212600D01*
X32793067Y-88945934D01*
X32826400Y-88879267D01*
X32859733Y-88845934D01*
X32926400Y-88812600D01*
X33026400Y-88812600D01*
X33093067Y-88845934D01*
X33126400Y-88879267D01*
X33159733Y-88945934D01*
X33159733Y-89212600D01*
X33493067Y-88145934D02*
X33493067Y-88545934D01*
X33493067Y-88345934D02*
X32793067Y-88345934D01*
X32893067Y-88412600D01*
X32959733Y-88479267D01*
X32993067Y-88545934D01*
X33493067Y-87479267D02*
X33493067Y-87879267D01*
X33493067Y-87679267D02*
X32793067Y-87679267D01*
X32893067Y-87745933D01*
X32959733Y-87812600D01*
X32993067Y-87879267D01*
X54693400Y-64680267D02*
X54460066Y-64346933D01*
X54293400Y-64680267D02*
X54293400Y-63980267D01*
X54560066Y-63980267D01*
X54626733Y-64013600D01*
X54660066Y-64046933D01*
X54693400Y-64113600D01*
X54693400Y-64213600D01*
X54660066Y-64280267D01*
X54626733Y-64313600D01*
X54560066Y-64346933D01*
X54293400Y-64346933D01*
X55360066Y-64680267D02*
X54960066Y-64680267D01*
X55160066Y-64680267D02*
X55160066Y-63980267D01*
X55093400Y-64080267D01*
X55026733Y-64146933D01*
X54960066Y-64180267D01*
X55626733Y-64046933D02*
X55660067Y-64013600D01*
X55726733Y-63980267D01*
X55893400Y-63980267D01*
X55960067Y-64013600D01*
X55993400Y-64046933D01*
X56026733Y-64113600D01*
X56026733Y-64180267D01*
X55993400Y-64280267D01*
X55593400Y-64680267D01*
X56026733Y-64680267D01*
X54566400Y-55028267D02*
X54333066Y-54694933D01*
X54166400Y-55028267D02*
X54166400Y-54328267D01*
X54433066Y-54328267D01*
X54499733Y-54361600D01*
X54533066Y-54394933D01*
X54566400Y-54461600D01*
X54566400Y-54561600D01*
X54533066Y-54628267D01*
X54499733Y-54661600D01*
X54433066Y-54694933D01*
X54166400Y-54694933D01*
X55233066Y-55028267D02*
X54833066Y-55028267D01*
X55033066Y-55028267D02*
X55033066Y-54328267D01*
X54966400Y-54428267D01*
X54899733Y-54494933D01*
X54833066Y-54528267D01*
X55466400Y-54328267D02*
X55899733Y-54328267D01*
X55666400Y-54594933D01*
X55766400Y-54594933D01*
X55833067Y-54628267D01*
X55866400Y-54661600D01*
X55899733Y-54728267D01*
X55899733Y-54894933D01*
X55866400Y-54961600D01*
X55833067Y-54994933D01*
X55766400Y-55028267D01*
X55566400Y-55028267D01*
X55499733Y-54994933D01*
X55466400Y-54961600D01*
X54566400Y-56806267D02*
X54333066Y-56472933D01*
X54166400Y-56806267D02*
X54166400Y-56106267D01*
X54433066Y-56106267D01*
X54499733Y-56139600D01*
X54533066Y-56172933D01*
X54566400Y-56239600D01*
X54566400Y-56339600D01*
X54533066Y-56406267D01*
X54499733Y-56439600D01*
X54433066Y-56472933D01*
X54166400Y-56472933D01*
X55233066Y-56806267D02*
X54833066Y-56806267D01*
X55033066Y-56806267D02*
X55033066Y-56106267D01*
X54966400Y-56206267D01*
X54899733Y-56272933D01*
X54833066Y-56306267D01*
X55833067Y-56339600D02*
X55833067Y-56806267D01*
X55666400Y-56072933D02*
X55499733Y-56572933D01*
X55933067Y-56572933D01*
X62572067Y-50716600D02*
X62238733Y-50949934D01*
X62572067Y-51116600D02*
X61872067Y-51116600D01*
X61872067Y-50849934D01*
X61905400Y-50783267D01*
X61938733Y-50749934D01*
X62005400Y-50716600D01*
X62105400Y-50716600D01*
X62172067Y-50749934D01*
X62205400Y-50783267D01*
X62238733Y-50849934D01*
X62238733Y-51116600D01*
X62572067Y-50049934D02*
X62572067Y-50449934D01*
X62572067Y-50249934D02*
X61872067Y-50249934D01*
X61972067Y-50316600D01*
X62038733Y-50383267D01*
X62072067Y-50449934D01*
X61872067Y-49416600D02*
X61872067Y-49749933D01*
X62205400Y-49783267D01*
X62172067Y-49749933D01*
X62138733Y-49683267D01*
X62138733Y-49516600D01*
X62172067Y-49449933D01*
X62205400Y-49416600D01*
X62272067Y-49383267D01*
X62438733Y-49383267D01*
X62505400Y-49416600D01*
X62538733Y-49449933D01*
X62572067Y-49516600D01*
X62572067Y-49683267D01*
X62538733Y-49749933D01*
X62505400Y-49783267D01*
X41617067Y-67226600D02*
X41283733Y-67459934D01*
X41617067Y-67626600D02*
X40917067Y-67626600D01*
X40917067Y-67359934D01*
X40950400Y-67293267D01*
X40983733Y-67259934D01*
X41050400Y-67226600D01*
X41150400Y-67226600D01*
X41217067Y-67259934D01*
X41250400Y-67293267D01*
X41283733Y-67359934D01*
X41283733Y-67626600D01*
X41617067Y-66559934D02*
X41617067Y-66959934D01*
X41617067Y-66759934D02*
X40917067Y-66759934D01*
X41017067Y-66826600D01*
X41083733Y-66893267D01*
X41117067Y-66959934D01*
X40917067Y-65959933D02*
X40917067Y-66093267D01*
X40950400Y-66159933D01*
X40983733Y-66193267D01*
X41083733Y-66259933D01*
X41217067Y-66293267D01*
X41483733Y-66293267D01*
X41550400Y-66259933D01*
X41583733Y-66226600D01*
X41617067Y-66159933D01*
X41617067Y-66026600D01*
X41583733Y-65959933D01*
X41550400Y-65926600D01*
X41483733Y-65893267D01*
X41317067Y-65893267D01*
X41250400Y-65926600D01*
X41217067Y-65959933D01*
X41183733Y-66026600D01*
X41183733Y-66159933D01*
X41217067Y-66226600D01*
X41250400Y-66259933D01*
X41317067Y-66293267D01*
X40347067Y-82847600D02*
X40013733Y-83080934D01*
X40347067Y-83247600D02*
X39647067Y-83247600D01*
X39647067Y-82980934D01*
X39680400Y-82914267D01*
X39713733Y-82880934D01*
X39780400Y-82847600D01*
X39880400Y-82847600D01*
X39947067Y-82880934D01*
X39980400Y-82914267D01*
X40013733Y-82980934D01*
X40013733Y-83247600D01*
X40347067Y-82180934D02*
X40347067Y-82580934D01*
X40347067Y-82380934D02*
X39647067Y-82380934D01*
X39747067Y-82447600D01*
X39813733Y-82514267D01*
X39847067Y-82580934D01*
X39647067Y-81947600D02*
X39647067Y-81480933D01*
X40347067Y-81780933D01*
X41998067Y-82847600D02*
X41664733Y-83080934D01*
X41998067Y-83247600D02*
X41298067Y-83247600D01*
X41298067Y-82980934D01*
X41331400Y-82914267D01*
X41364733Y-82880934D01*
X41431400Y-82847600D01*
X41531400Y-82847600D01*
X41598067Y-82880934D01*
X41631400Y-82914267D01*
X41664733Y-82980934D01*
X41664733Y-83247600D01*
X41998067Y-82180934D02*
X41998067Y-82580934D01*
X41998067Y-82380934D02*
X41298067Y-82380934D01*
X41398067Y-82447600D01*
X41464733Y-82514267D01*
X41498067Y-82580934D01*
X41598067Y-81780933D02*
X41564733Y-81847600D01*
X41531400Y-81880933D01*
X41464733Y-81914267D01*
X41431400Y-81914267D01*
X41364733Y-81880933D01*
X41331400Y-81847600D01*
X41298067Y-81780933D01*
X41298067Y-81647600D01*
X41331400Y-81580933D01*
X41364733Y-81547600D01*
X41431400Y-81514267D01*
X41464733Y-81514267D01*
X41531400Y-81547600D01*
X41564733Y-81580933D01*
X41598067Y-81647600D01*
X41598067Y-81780933D01*
X41631400Y-81847600D01*
X41664733Y-81880933D01*
X41731400Y-81914267D01*
X41864733Y-81914267D01*
X41931400Y-81880933D01*
X41964733Y-81847600D01*
X41998067Y-81780933D01*
X41998067Y-81647600D01*
X41964733Y-81580933D01*
X41931400Y-81547600D01*
X41864733Y-81514267D01*
X41731400Y-81514267D01*
X41664733Y-81547600D01*
X41631400Y-81580933D01*
X41598067Y-81647600D01*
X55079067Y-80180600D02*
X54745733Y-80413934D01*
X55079067Y-80580600D02*
X54379067Y-80580600D01*
X54379067Y-80313934D01*
X54412400Y-80247267D01*
X54445733Y-80213934D01*
X54512400Y-80180600D01*
X54612400Y-80180600D01*
X54679067Y-80213934D01*
X54712400Y-80247267D01*
X54745733Y-80313934D01*
X54745733Y-80580600D01*
X55079067Y-79513934D02*
X55079067Y-79913934D01*
X55079067Y-79713934D02*
X54379067Y-79713934D01*
X54479067Y-79780600D01*
X54545733Y-79847267D01*
X54579067Y-79913934D01*
X55079067Y-79180600D02*
X55079067Y-79047267D01*
X55045733Y-78980600D01*
X55012400Y-78947267D01*
X54912400Y-78880600D01*
X54779067Y-78847267D01*
X54512400Y-78847267D01*
X54445733Y-78880600D01*
X54412400Y-78913933D01*
X54379067Y-78980600D01*
X54379067Y-79113933D01*
X54412400Y-79180600D01*
X54445733Y-79213933D01*
X54512400Y-79247267D01*
X54679067Y-79247267D01*
X54745733Y-79213933D01*
X54779067Y-79180600D01*
X54812400Y-79113933D01*
X54812400Y-78980600D01*
X54779067Y-78913933D01*
X54745733Y-78880600D01*
X54679067Y-78847267D01*
X54566400Y-53250267D02*
X54333066Y-52916933D01*
X54166400Y-53250267D02*
X54166400Y-52550267D01*
X54433066Y-52550267D01*
X54499733Y-52583600D01*
X54533066Y-52616933D01*
X54566400Y-52683600D01*
X54566400Y-52783600D01*
X54533066Y-52850267D01*
X54499733Y-52883600D01*
X54433066Y-52916933D01*
X54166400Y-52916933D01*
X54833066Y-52616933D02*
X54866400Y-52583600D01*
X54933066Y-52550267D01*
X55099733Y-52550267D01*
X55166400Y-52583600D01*
X55199733Y-52616933D01*
X55233066Y-52683600D01*
X55233066Y-52750267D01*
X55199733Y-52850267D01*
X54799733Y-53250267D01*
X55233066Y-53250267D01*
X55666400Y-52550267D02*
X55733067Y-52550267D01*
X55799733Y-52583600D01*
X55833067Y-52616933D01*
X55866400Y-52683600D01*
X55899733Y-52816933D01*
X55899733Y-52983600D01*
X55866400Y-53116933D01*
X55833067Y-53183600D01*
X55799733Y-53216933D01*
X55733067Y-53250267D01*
X55666400Y-53250267D01*
X55599733Y-53216933D01*
X55566400Y-53183600D01*
X55533067Y-53116933D01*
X55499733Y-52983600D01*
X55499733Y-52816933D01*
X55533067Y-52683600D01*
X55566400Y-52616933D01*
X55599733Y-52583600D01*
X55666400Y-52550267D01*
X51396067Y-80307600D02*
X51062733Y-80540934D01*
X51396067Y-80707600D02*
X50696067Y-80707600D01*
X50696067Y-80440934D01*
X50729400Y-80374267D01*
X50762733Y-80340934D01*
X50829400Y-80307600D01*
X50929400Y-80307600D01*
X50996067Y-80340934D01*
X51029400Y-80374267D01*
X51062733Y-80440934D01*
X51062733Y-80707600D01*
X50762733Y-80040934D02*
X50729400Y-80007600D01*
X50696067Y-79940934D01*
X50696067Y-79774267D01*
X50729400Y-79707600D01*
X50762733Y-79674267D01*
X50829400Y-79640934D01*
X50896067Y-79640934D01*
X50996067Y-79674267D01*
X51396067Y-80074267D01*
X51396067Y-79640934D01*
X51396067Y-78974267D02*
X51396067Y-79374267D01*
X51396067Y-79174267D02*
X50696067Y-79174267D01*
X50796067Y-79240933D01*
X50862733Y-79307600D01*
X50896067Y-79374267D01*
X43145067Y-67222600D02*
X42811733Y-67455934D01*
X43145067Y-67622600D02*
X42445067Y-67622600D01*
X42445067Y-67355934D01*
X42478400Y-67289267D01*
X42511733Y-67255934D01*
X42578400Y-67222600D01*
X42678400Y-67222600D01*
X42745067Y-67255934D01*
X42778400Y-67289267D01*
X42811733Y-67355934D01*
X42811733Y-67622600D01*
X42511733Y-66955934D02*
X42478400Y-66922600D01*
X42445067Y-66855934D01*
X42445067Y-66689267D01*
X42478400Y-66622600D01*
X42511733Y-66589267D01*
X42578400Y-66555934D01*
X42645067Y-66555934D01*
X42745067Y-66589267D01*
X43145067Y-66989267D01*
X43145067Y-66555934D01*
X42511733Y-66289267D02*
X42478400Y-66255933D01*
X42445067Y-66189267D01*
X42445067Y-66022600D01*
X42478400Y-65955933D01*
X42511733Y-65922600D01*
X42578400Y-65889267D01*
X42645067Y-65889267D01*
X42745067Y-65922600D01*
X43145067Y-66322600D01*
X43145067Y-65889267D01*
X24370467Y-53569266D02*
X24037133Y-53802600D01*
X24370467Y-53969266D02*
X23670467Y-53969266D01*
X23670467Y-53702600D01*
X23703800Y-53635933D01*
X23737133Y-53602600D01*
X23803800Y-53569266D01*
X23903800Y-53569266D01*
X23970467Y-53602600D01*
X24003800Y-53635933D01*
X24037133Y-53702600D01*
X24037133Y-53969266D01*
X24003800Y-53269266D02*
X24003800Y-53035933D01*
X24370467Y-52935933D02*
X24370467Y-53269266D01*
X23670467Y-53269266D01*
X23670467Y-52935933D01*
X24337133Y-52669267D02*
X24370467Y-52569267D01*
X24370467Y-52402600D01*
X24337133Y-52335933D01*
X24303800Y-52302600D01*
X24237133Y-52269267D01*
X24170467Y-52269267D01*
X24103800Y-52302600D01*
X24070467Y-52335933D01*
X24037133Y-52402600D01*
X24003800Y-52535933D01*
X23970467Y-52602600D01*
X23937133Y-52635933D01*
X23870467Y-52669267D01*
X23803800Y-52669267D01*
X23737133Y-52635933D01*
X23703800Y-52602600D01*
X23670467Y-52535933D01*
X23670467Y-52369267D01*
X23703800Y-52269267D01*
X24003800Y-51969266D02*
X24003800Y-51735933D01*
X24370467Y-51635933D02*
X24370467Y-51969266D01*
X23670467Y-51969266D01*
X23670467Y-51635933D01*
X23670467Y-51435933D02*
X23670467Y-51035933D01*
X24370467Y-51235933D02*
X23670467Y-51235933D01*
X23927600Y-61781333D02*
X23960933Y-61681333D01*
X23994267Y-61648000D01*
X24060933Y-61614666D01*
X24160933Y-61614666D01*
X24227600Y-61648000D01*
X24260933Y-61681333D01*
X24294267Y-61748000D01*
X24294267Y-62014666D01*
X23594267Y-62014666D01*
X23594267Y-61781333D01*
X23627600Y-61714666D01*
X23660933Y-61681333D01*
X23727600Y-61648000D01*
X23794267Y-61648000D01*
X23860933Y-61681333D01*
X23894267Y-61714666D01*
X23927600Y-61781333D01*
X23927600Y-62014666D01*
X23594267Y-61314666D02*
X24160933Y-61314666D01*
X24227600Y-61281333D01*
X24260933Y-61248000D01*
X24294267Y-61181333D01*
X24294267Y-61048000D01*
X24260933Y-60981333D01*
X24227600Y-60948000D01*
X24160933Y-60914666D01*
X23594267Y-60914666D01*
X23927600Y-60348000D02*
X23927600Y-60581333D01*
X24294267Y-60581333D02*
X23594267Y-60581333D01*
X23594267Y-60248000D01*
X23927600Y-59748000D02*
X23927600Y-59981333D01*
X24294267Y-59981333D02*
X23594267Y-59981333D01*
X23594267Y-59648000D01*
X23927600Y-59381333D02*
X23927600Y-59148000D01*
X24294267Y-59048000D02*
X24294267Y-59381333D01*
X23594267Y-59381333D01*
X23594267Y-59048000D01*
X24294267Y-58348000D02*
X23960933Y-58581334D01*
X24294267Y-58748000D02*
X23594267Y-58748000D01*
X23594267Y-58481334D01*
X23627600Y-58414667D01*
X23660933Y-58381334D01*
X23727600Y-58348000D01*
X23827600Y-58348000D01*
X23894267Y-58381334D01*
X23927600Y-58414667D01*
X23960933Y-58481334D01*
X23960933Y-58748000D01*
X54594495Y-46610981D02*
X54594495Y-47420505D01*
X54642114Y-47515743D01*
X54689733Y-47563362D01*
X54784971Y-47610981D01*
X54975448Y-47610981D01*
X55070686Y-47563362D01*
X55118305Y-47515743D01*
X55165924Y-47420505D01*
X55165924Y-46610981D01*
X56165924Y-47610981D02*
X55594495Y-47610981D01*
X55880209Y-47610981D02*
X55880209Y-46610981D01*
X55784971Y-46753838D01*
X55689733Y-46849076D01*
X55594495Y-46896695D01*
X54268971Y-41157030D02*
X54268971Y-40823696D01*
X54792781Y-40680839D02*
X54792781Y-41157030D01*
X53792781Y-41157030D01*
X53792781Y-40680839D01*
X54745162Y-40299887D02*
X54792781Y-40204649D01*
X54792781Y-40014173D01*
X54745162Y-39918934D01*
X54649924Y-39871315D01*
X54602305Y-39871315D01*
X54507067Y-39918934D01*
X54459448Y-40014173D01*
X54459448Y-40157030D01*
X54411829Y-40252268D01*
X54316590Y-40299887D01*
X54268971Y-40299887D01*
X54173733Y-40252268D01*
X54126114Y-40157030D01*
X54126114Y-40014173D01*
X54173733Y-39918934D01*
X54126114Y-39442744D02*
X55126114Y-39442744D01*
X54173733Y-39442744D02*
X54126114Y-39347506D01*
X54126114Y-39157029D01*
X54173733Y-39061791D01*
X54221352Y-39014172D01*
X54316590Y-38966553D01*
X54602305Y-38966553D01*
X54697543Y-39014172D01*
X54745162Y-39061791D01*
X54792781Y-39157029D01*
X54792781Y-39347506D01*
X54745162Y-39442744D01*
X54792781Y-38537982D02*
X54126114Y-38537982D01*
X54316590Y-38537982D02*
X54221352Y-38490363D01*
X54173733Y-38442744D01*
X54126114Y-38347506D01*
X54126114Y-38252267D01*
X54745162Y-37537981D02*
X54792781Y-37633219D01*
X54792781Y-37823696D01*
X54745162Y-37918934D01*
X54649924Y-37966553D01*
X54268971Y-37966553D01*
X54173733Y-37918934D01*
X54126114Y-37823696D01*
X54126114Y-37633219D01*
X54173733Y-37537981D01*
X54268971Y-37490362D01*
X54364210Y-37490362D01*
X54459448Y-37966553D01*
X54745162Y-37109410D02*
X54792781Y-37014172D01*
X54792781Y-36823696D01*
X54745162Y-36728457D01*
X54649924Y-36680838D01*
X54602305Y-36680838D01*
X54507067Y-36728457D01*
X54459448Y-36823696D01*
X54459448Y-36966553D01*
X54411829Y-37061791D01*
X54316590Y-37109410D01*
X54268971Y-37109410D01*
X54173733Y-37061791D01*
X54126114Y-36966553D01*
X54126114Y-36823696D01*
X54173733Y-36728457D01*
X54745162Y-36299886D02*
X54792781Y-36204648D01*
X54792781Y-36014172D01*
X54745162Y-35918933D01*
X54649924Y-35871314D01*
X54602305Y-35871314D01*
X54507067Y-35918933D01*
X54459448Y-36014172D01*
X54459448Y-36157029D01*
X54411829Y-36252267D01*
X54316590Y-36299886D01*
X54268971Y-36299886D01*
X54173733Y-36252267D01*
X54126114Y-36157029D01*
X54126114Y-36014172D01*
X54173733Y-35918933D01*
X54792781Y-35442743D02*
X54126114Y-35442743D01*
X53792781Y-35442743D02*
X53840400Y-35490362D01*
X53888019Y-35442743D01*
X53840400Y-35395124D01*
X53792781Y-35442743D01*
X53888019Y-35442743D01*
X54126114Y-35109410D02*
X54126114Y-34728458D01*
X54792781Y-34966553D02*
X53935638Y-34966553D01*
X53840400Y-34918934D01*
X53792781Y-34823696D01*
X53792781Y-34728458D01*
X54745162Y-33680838D02*
X54792781Y-33537981D01*
X54792781Y-33299885D01*
X54745162Y-33204647D01*
X54697543Y-33157028D01*
X54602305Y-33109409D01*
X54507067Y-33109409D01*
X54411829Y-33157028D01*
X54364210Y-33204647D01*
X54316590Y-33299885D01*
X54268971Y-33490362D01*
X54221352Y-33585600D01*
X54173733Y-33633219D01*
X54078495Y-33680838D01*
X53983257Y-33680838D01*
X53888019Y-33633219D01*
X53840400Y-33585600D01*
X53792781Y-33490362D01*
X53792781Y-33252266D01*
X53840400Y-33109409D01*
X54126114Y-32776076D02*
X54792781Y-32537981D01*
X54126114Y-32299885D02*
X54792781Y-32537981D01*
X55030876Y-32633219D01*
X55078495Y-32680838D01*
X55126114Y-32776076D01*
X54745162Y-31966552D02*
X54792781Y-31871314D01*
X54792781Y-31680838D01*
X54745162Y-31585599D01*
X54649924Y-31537980D01*
X54602305Y-31537980D01*
X54507067Y-31585599D01*
X54459448Y-31680838D01*
X54459448Y-31823695D01*
X54411829Y-31918933D01*
X54316590Y-31966552D01*
X54268971Y-31966552D01*
X54173733Y-31918933D01*
X54126114Y-31823695D01*
X54126114Y-31680838D01*
X54173733Y-31585599D01*
X54126114Y-31252266D02*
X54126114Y-30871314D01*
X53792781Y-31109409D02*
X54649924Y-31109409D01*
X54745162Y-31061790D01*
X54792781Y-30966552D01*
X54792781Y-30871314D01*
X54745162Y-30157027D02*
X54792781Y-30252265D01*
X54792781Y-30442742D01*
X54745162Y-30537980D01*
X54649924Y-30585599D01*
X54268971Y-30585599D01*
X54173733Y-30537980D01*
X54126114Y-30442742D01*
X54126114Y-30252265D01*
X54173733Y-30157027D01*
X54268971Y-30109408D01*
X54364210Y-30109408D01*
X54459448Y-30585599D01*
X54792781Y-29680837D02*
X54126114Y-29680837D01*
X54221352Y-29680837D02*
X54173733Y-29633218D01*
X54126114Y-29537980D01*
X54126114Y-29395122D01*
X54173733Y-29299884D01*
X54268971Y-29252265D01*
X54792781Y-29252265D01*
X54268971Y-29252265D02*
X54173733Y-29204646D01*
X54126114Y-29109408D01*
X54126114Y-28966551D01*
X54173733Y-28871313D01*
X54268971Y-28823694D01*
X54792781Y-28823694D01*
X54745162Y-28395123D02*
X54792781Y-28299885D01*
X54792781Y-28109409D01*
X54745162Y-28014170D01*
X54649924Y-27966551D01*
X54602305Y-27966551D01*
X54507067Y-28014170D01*
X54459448Y-28109409D01*
X54459448Y-28252266D01*
X54411829Y-28347504D01*
X54316590Y-28395123D01*
X54268971Y-28395123D01*
X54173733Y-28347504D01*
X54126114Y-28252266D01*
X54126114Y-28109409D01*
X54173733Y-28014170D01*
X52617971Y-38894981D02*
X52617971Y-38561647D01*
X53141781Y-38418790D02*
X53141781Y-38894981D01*
X52141781Y-38894981D01*
X52141781Y-38418790D01*
X53094162Y-38037838D02*
X53141781Y-37894981D01*
X53141781Y-37656885D01*
X53094162Y-37561647D01*
X53046543Y-37514028D01*
X52951305Y-37466409D01*
X52856067Y-37466409D01*
X52760829Y-37514028D01*
X52713210Y-37561647D01*
X52665590Y-37656885D01*
X52617971Y-37847362D01*
X52570352Y-37942600D01*
X52522733Y-37990219D01*
X52427495Y-38037838D01*
X52332257Y-38037838D01*
X52237019Y-37990219D01*
X52189400Y-37942600D01*
X52141781Y-37847362D01*
X52141781Y-37609266D01*
X52189400Y-37466409D01*
X53141781Y-37037838D02*
X52141781Y-37037838D01*
X52141781Y-36656885D01*
X52189400Y-36561647D01*
X52237019Y-36514028D01*
X52332257Y-36466409D01*
X52475114Y-36466409D01*
X52570352Y-36514028D01*
X52617971Y-36561647D01*
X52665590Y-36656885D01*
X52665590Y-37037838D01*
X52141781Y-36133076D02*
X52141781Y-35514028D01*
X52522733Y-35847362D01*
X52522733Y-35704504D01*
X52570352Y-35609266D01*
X52617971Y-35561647D01*
X52713210Y-35514028D01*
X52951305Y-35514028D01*
X53046543Y-35561647D01*
X53094162Y-35609266D01*
X53141781Y-35704504D01*
X53141781Y-35990219D01*
X53094162Y-36085457D01*
X53046543Y-36133076D01*
X52237019Y-35133076D02*
X52189400Y-35085457D01*
X52141781Y-34990219D01*
X52141781Y-34752123D01*
X52189400Y-34656885D01*
X52237019Y-34609266D01*
X52332257Y-34561647D01*
X52427495Y-34561647D01*
X52570352Y-34609266D01*
X53141781Y-35180695D01*
X53141781Y-34561647D01*
X52760829Y-34133076D02*
X52760829Y-33371171D01*
X52141781Y-32990219D02*
X53141781Y-32752124D01*
X52427495Y-32561647D01*
X53141781Y-32371171D01*
X52141781Y-32133076D01*
X53141781Y-31180695D02*
X52665590Y-31514029D01*
X53141781Y-31752124D02*
X52141781Y-31752124D01*
X52141781Y-31371171D01*
X52189400Y-31275933D01*
X52237019Y-31228314D01*
X52332257Y-31180695D01*
X52475114Y-31180695D01*
X52570352Y-31228314D01*
X52617971Y-31275933D01*
X52665590Y-31371171D01*
X52665590Y-31752124D01*
X52141781Y-30561648D02*
X52141781Y-30371171D01*
X52189400Y-30275933D01*
X52284638Y-30180695D01*
X52475114Y-30133076D01*
X52808448Y-30133076D01*
X52998924Y-30180695D01*
X53094162Y-30275933D01*
X53141781Y-30371171D01*
X53141781Y-30561648D01*
X53094162Y-30656886D01*
X52998924Y-30752124D01*
X52808448Y-30799743D01*
X52475114Y-30799743D01*
X52284638Y-30752124D01*
X52189400Y-30656886D01*
X52141781Y-30561648D01*
X52141781Y-29514029D02*
X52141781Y-29323552D01*
X52189400Y-29228314D01*
X52284638Y-29133076D01*
X52475114Y-29085457D01*
X52808448Y-29085457D01*
X52998924Y-29133076D01*
X53094162Y-29228314D01*
X53141781Y-29323552D01*
X53141781Y-29514029D01*
X53094162Y-29609267D01*
X52998924Y-29704505D01*
X52808448Y-29752124D01*
X52475114Y-29752124D01*
X52284638Y-29704505D01*
X52189400Y-29609267D01*
X52141781Y-29514029D01*
X53141781Y-28656886D02*
X52141781Y-28656886D01*
X52856067Y-28323552D01*
X52141781Y-27990219D01*
X53141781Y-27990219D01*
X45616067Y-82803933D02*
X46182733Y-82803933D01*
X46249400Y-82770600D01*
X46282733Y-82737267D01*
X46316067Y-82670600D01*
X46316067Y-82537267D01*
X46282733Y-82470600D01*
X46249400Y-82437267D01*
X46182733Y-82403933D01*
X45616067Y-82403933D01*
X45682733Y-82103934D02*
X45649400Y-82070600D01*
X45616067Y-82003934D01*
X45616067Y-81837267D01*
X45649400Y-81770600D01*
X45682733Y-81737267D01*
X45749400Y-81703934D01*
X45816067Y-81703934D01*
X45916067Y-81737267D01*
X46316067Y-82137267D01*
X46316067Y-81703934D01*
X54633067Y-60197933D02*
X55199733Y-60197933D01*
X55266400Y-60164600D01*
X55299733Y-60131267D01*
X55333067Y-60064600D01*
X55333067Y-59931267D01*
X55299733Y-59864600D01*
X55266400Y-59831267D01*
X55199733Y-59797933D01*
X54633067Y-59797933D01*
X54633067Y-59531267D02*
X54633067Y-59097934D01*
X54899733Y-59331267D01*
X54899733Y-59231267D01*
X54933067Y-59164600D01*
X54966400Y-59131267D01*
X55033067Y-59097934D01*
X55199733Y-59097934D01*
X55266400Y-59131267D01*
X55299733Y-59164600D01*
X55333067Y-59231267D01*
X55333067Y-59431267D01*
X55299733Y-59497934D01*
X55266400Y-59531267D01*
X68199067Y-45565267D02*
X68199067Y-46131933D01*
X68232400Y-46198600D01*
X68265733Y-46231933D01*
X68332400Y-46265267D01*
X68465733Y-46265267D01*
X68532400Y-46231933D01*
X68565733Y-46198600D01*
X68599067Y-46131933D01*
X68599067Y-45565267D01*
X69232400Y-45798600D02*
X69232400Y-46265267D01*
X69065733Y-45531933D02*
X68899066Y-46031933D01*
X69332400Y-46031933D01*
X38246067Y-75052933D02*
X38812733Y-75052933D01*
X38879400Y-75019600D01*
X38912733Y-74986267D01*
X38946067Y-74919600D01*
X38946067Y-74786267D01*
X38912733Y-74719600D01*
X38879400Y-74686267D01*
X38812733Y-74652933D01*
X38246067Y-74652933D01*
X38246067Y-73986267D02*
X38246067Y-74319600D01*
X38579400Y-74352934D01*
X38546067Y-74319600D01*
X38512733Y-74252934D01*
X38512733Y-74086267D01*
X38546067Y-74019600D01*
X38579400Y-73986267D01*
X38646067Y-73952934D01*
X38812733Y-73952934D01*
X38879400Y-73986267D01*
X38912733Y-74019600D01*
X38946067Y-74086267D01*
X38946067Y-74252934D01*
X38912733Y-74319600D01*
X38879400Y-74352934D01*
X64389067Y-76553267D02*
X64389067Y-77119933D01*
X64422400Y-77186600D01*
X64455733Y-77219933D01*
X64522400Y-77253267D01*
X64655733Y-77253267D01*
X64722400Y-77219933D01*
X64755733Y-77186600D01*
X64789067Y-77119933D01*
X64789067Y-76553267D01*
X65422400Y-76553267D02*
X65289066Y-76553267D01*
X65222400Y-76586600D01*
X65189066Y-76619933D01*
X65122400Y-76719933D01*
X65089066Y-76853267D01*
X65089066Y-77119933D01*
X65122400Y-77186600D01*
X65155733Y-77219933D01*
X65222400Y-77253267D01*
X65355733Y-77253267D01*
X65422400Y-77219933D01*
X65455733Y-77186600D01*
X65489066Y-77119933D01*
X65489066Y-76953267D01*
X65455733Y-76886600D01*
X65422400Y-76853267D01*
X65355733Y-76819933D01*
X65222400Y-76819933D01*
X65155733Y-76853267D01*
X65122400Y-76886600D01*
X65089066Y-76953267D01*
X60729067Y-67851267D02*
X61429067Y-67384600D01*
X60729067Y-67384600D02*
X61429067Y-67851267D01*
X61429067Y-66751267D02*
X61429067Y-67151267D01*
X61429067Y-66951267D02*
X60729067Y-66951267D01*
X60829067Y-67017933D01*
X60895733Y-67084600D01*
X60929067Y-67151267D01*
X44157295Y-91523381D02*
X44157295Y-92332905D01*
X44204914Y-92428143D01*
X44252533Y-92475762D01*
X44347771Y-92523381D01*
X44538248Y-92523381D01*
X44633486Y-92475762D01*
X44681105Y-92428143D01*
X44728724Y-92332905D01*
X44728724Y-91523381D01*
X45157295Y-92475762D02*
X45300152Y-92523381D01*
X45538248Y-92523381D01*
X45633486Y-92475762D01*
X45681105Y-92428143D01*
X45728724Y-92332905D01*
X45728724Y-92237667D01*
X45681105Y-92142429D01*
X45633486Y-92094810D01*
X45538248Y-92047190D01*
X45347771Y-91999571D01*
X45252533Y-91951952D01*
X45204914Y-91904333D01*
X45157295Y-91809095D01*
X45157295Y-91713857D01*
X45204914Y-91618619D01*
X45252533Y-91571000D01*
X45347771Y-91523381D01*
X45585867Y-91523381D01*
X45728724Y-91571000D01*
X46490629Y-91999571D02*
X46633486Y-92047190D01*
X46681105Y-92094810D01*
X46728724Y-92190048D01*
X46728724Y-92332905D01*
X46681105Y-92428143D01*
X46633486Y-92475762D01*
X46538248Y-92523381D01*
X46157295Y-92523381D01*
X46157295Y-91523381D01*
X46490629Y-91523381D01*
X46585867Y-91571000D01*
X46633486Y-91618619D01*
X46681105Y-91713857D01*
X46681105Y-91809095D01*
X46633486Y-91904333D01*
X46585867Y-91951952D01*
X46490629Y-91999571D01*
X46157295Y-91999571D01*
M02*
